%TF.GenerationSoftware,KiCad,Pcbnew,(5.1.12-1-10_14)*%
%TF.CreationDate,2021-11-26T20:13:54-05:00*%
%TF.ProjectId,Untitled,556e7469-746c-4656-942e-6b696361645f,rev?*%
%TF.SameCoordinates,Original*%
%TF.FileFunction,Legend,Bot*%
%TF.FilePolarity,Positive*%
%FSLAX46Y46*%
G04 Gerber Fmt 4.6, Leading zero omitted, Abs format (unit mm)*
G04 Created by KiCad (PCBNEW (5.1.12-1-10_14)) date 2021-11-26 20:13:54*
%MOMM*%
%LPD*%
G01*
G04 APERTURE LIST*
%ADD10C,0.200000*%
G04 APERTURE END LIST*
D10*
X131082357Y-125707857D02*
X131082357Y-126565000D01*
X131139500Y-126736428D01*
X131253785Y-126850714D01*
X131425214Y-126907857D01*
X131539500Y-126907857D01*
X129939500Y-126907857D02*
X130510928Y-126907857D01*
X130510928Y-125707857D01*
X128853785Y-126793571D02*
X128910928Y-126850714D01*
X129082357Y-126907857D01*
X129196642Y-126907857D01*
X129368071Y-126850714D01*
X129482357Y-126736428D01*
X129539500Y-126622142D01*
X129596642Y-126393571D01*
X129596642Y-126222142D01*
X129539500Y-125993571D01*
X129482357Y-125879285D01*
X129368071Y-125765000D01*
X129196642Y-125707857D01*
X129082357Y-125707857D01*
X128910928Y-125765000D01*
X128853785Y-125822142D01*
X127996642Y-125707857D02*
X127996642Y-126565000D01*
X128053785Y-126736428D01*
X128168071Y-126850714D01*
X128339500Y-126907857D01*
X128453785Y-126907857D01*
X126853785Y-126907857D02*
X127425214Y-126907857D01*
X127425214Y-125707857D01*
X125768071Y-126793571D02*
X125825214Y-126850714D01*
X125996642Y-126907857D01*
X126110928Y-126907857D01*
X126282357Y-126850714D01*
X126396642Y-126736428D01*
X126453785Y-126622142D01*
X126510928Y-126393571D01*
X126510928Y-126222142D01*
X126453785Y-125993571D01*
X126396642Y-125879285D01*
X126282357Y-125765000D01*
X126110928Y-125707857D01*
X125996642Y-125707857D01*
X125825214Y-125765000D01*
X125768071Y-125822142D01*
X124910928Y-125707857D02*
X124910928Y-126565000D01*
X124968071Y-126736428D01*
X125082357Y-126850714D01*
X125253785Y-126907857D01*
X125368071Y-126907857D01*
X123768071Y-126907857D02*
X124339500Y-126907857D01*
X124339500Y-125707857D01*
X122682357Y-126793571D02*
X122739500Y-126850714D01*
X122910928Y-126907857D01*
X123025214Y-126907857D01*
X123196642Y-126850714D01*
X123310928Y-126736428D01*
X123368071Y-126622142D01*
X123425214Y-126393571D01*
X123425214Y-126222142D01*
X123368071Y-125993571D01*
X123310928Y-125879285D01*
X123196642Y-125765000D01*
X123025214Y-125707857D01*
X122910928Y-125707857D01*
X122739500Y-125765000D01*
X122682357Y-125822142D01*
X121825214Y-125707857D02*
X121825214Y-126565000D01*
X121882357Y-126736428D01*
X121996642Y-126850714D01*
X122168071Y-126907857D01*
X122282357Y-126907857D01*
X120682357Y-126907857D02*
X121253785Y-126907857D01*
X121253785Y-125707857D01*
X119596642Y-126793571D02*
X119653785Y-126850714D01*
X119825214Y-126907857D01*
X119939500Y-126907857D01*
X120110928Y-126850714D01*
X120225214Y-126736428D01*
X120282357Y-126622142D01*
X120339500Y-126393571D01*
X120339500Y-126222142D01*
X120282357Y-125993571D01*
X120225214Y-125879285D01*
X120110928Y-125765000D01*
X119939500Y-125707857D01*
X119825214Y-125707857D01*
X119653785Y-125765000D01*
X119596642Y-125822142D01*
M02*
