M48
; DRILL file {KiCad (5.1.12-1-10_14)} date Friday, November 26, 2021 at 08:13:33 PM
; FORMAT={-:-/ absolute / metric / decimal}
; #@! TF.CreationDate,2021-11-26T20:13:33-05:00
; #@! TF.GenerationSoftware,Kicad,Pcbnew,(5.1.12-1-10_14)
FMAT,2
METRIC
T1C0.400
T2C0.600
T3C0.800
T4C1.000
T5C1.200
T6C4.300
%
G90
G05
T1
X85.661Y-117.856
X85.661Y-118.999
X86.677Y-100.076
X86.677Y-101.092
X86.804Y-104.648
X87.757Y-103.06
X89.218Y-107.759
X90.805Y-97.536
X90.868Y-96.393
X91.059Y-108.267
X94.869Y-98.679
X95.441Y-96.329
X95.694Y-99.504
X95.694Y-99.504
X97.79Y-104.584
X98.425Y-106.426
X98.679Y-102.108
X99.395Y-114.808
X101.028Y-113.538
X102.679Y-113.602
X105.664Y-97.79
X105.664Y-102.489
X107.442Y-115.824
X109.728Y-124.46
X109.855Y-128.778
X111.252Y-100.584
X111.252Y-100.584
X113.792Y-111.697
X114.808Y-99.06
X116.332Y-118.364
X118.173Y-131.064
X121.793Y-103.188
X122.034Y-114.526
X123.19Y-116.649
X123.825Y-105.219
X124.683Y-115.388
X127.508Y-116.84
X128.651Y-118.046
X129.159Y-105.156
X133.223Y-119.392
X134.366Y-118.046
X136.652Y-131.318
X138.43Y-117.792
X139.51Y-112.585
X139.891Y-125.92
X141.478Y-116.84
X143.891Y-112.585
X144.399Y-116.903
X144.844Y-105.029
X145.288Y-110.744
X146.812Y-113.855
X147.256Y-121.158
X149.923Y-110.68
X150.368Y-106.172
X150.368Y-107.696
X150.368Y-109.22
X152.908Y-111.252
X153.861Y-113.221
X154.221Y-118.616
X154.242Y-120.142
X155.067Y-121.539
X167.132Y-124.269
X167.259Y-96.52
X168.338Y-126.492
T2
X86.443Y-86.62
X86.691Y-138.684
X87.387Y-84.339
X87.387Y-88.9
X87.636Y-136.404
X87.636Y-140.964
X89.668Y-83.395
X89.668Y-89.845
X89.916Y-135.459
X89.916Y-141.909
X91.948Y-84.339
X91.948Y-88.9
X92.196Y-136.404
X92.196Y-140.964
X92.893Y-86.62
X93.141Y-138.684
X171.527Y-86.36
X171.527Y-138.684
X172.472Y-84.08
X172.472Y-88.64
X172.472Y-136.404
X172.472Y-140.964
X174.752Y-83.135
X174.752Y-89.585
X174.752Y-135.459
X174.752Y-141.909
X177.032Y-84.08
X177.032Y-88.64
X177.032Y-136.404
X177.032Y-140.964
X177.977Y-86.36
X177.977Y-138.684
T3
X156.972Y-98.552
X156.972Y-101.092
X156.972Y-103.632
X156.972Y-106.172
X156.972Y-108.712
X156.972Y-111.252
X156.972Y-113.792
X156.972Y-116.332
X156.972Y-118.872
X156.972Y-121.412
X156.972Y-123.952
X156.972Y-126.492
X156.972Y-129.032
X156.972Y-131.572
X164.592Y-98.552
X164.592Y-101.092
X164.592Y-103.632
X164.592Y-106.172
X164.592Y-108.712
X164.592Y-111.252
X164.592Y-113.792
X164.592Y-116.332
X164.592Y-118.872
X164.592Y-121.412
X164.592Y-123.952
X164.592Y-126.492
X164.592Y-129.032
X164.592Y-131.572
T4
X172.212Y-121.92
X172.212Y-124.46
X172.212Y-127.0
X174.752Y-121.92
X174.752Y-124.46
X174.752Y-127.0
T5
X89.916Y-125.024
X89.916Y-128.524
X101.6Y-139.7
X105.1Y-139.7
X121.184Y-140.208
X124.684Y-140.208
X128.184Y-140.208
X131.684Y-140.208
X135.184Y-140.208
X138.232Y-91.44
X138.684Y-140.208
X141.732Y-91.44
X152.456Y-91.44
X154.94Y-139.7
X155.956Y-91.44
X158.44Y-139.7
X161.94Y-139.7
X172.72Y-94.26
X172.72Y-97.76
X172.72Y-101.26
X172.72Y-104.76
X172.72Y-108.26
X172.72Y-111.76
T6
X89.668Y-86.62
X89.916Y-138.684
X174.752Y-86.36
X174.752Y-138.684
T0
M30
