%TF.GenerationSoftware,KiCad,Pcbnew,(5.1.12-1-10_14)*%
%TF.CreationDate,2021-11-26T20:13:54-05:00*%
%TF.ProjectId,Untitled,556e7469-746c-4656-942e-6b696361645f,rev?*%
%TF.SameCoordinates,Original*%
%TF.FileFunction,Soldermask,Top*%
%TF.FilePolarity,Negative*%
%FSLAX46Y46*%
G04 Gerber Fmt 4.6, Leading zero omitted, Abs format (unit mm)*
G04 Created by KiCad (PCBNEW (5.1.12-1-10_14)) date 2021-11-26 20:13:54*
%MOMM*%
%LPD*%
G01*
G04 APERTURE LIST*
%ADD10R,0.600000X0.450000*%
%ADD11C,0.900000*%
%ADD12C,8.600000*%
%ADD13R,2.400000X2.400000*%
%ADD14C,2.400000*%
%ADD15C,1.700000*%
%ADD16R,0.900000X0.800000*%
%ADD17R,1.060000X0.650000*%
%ADD18R,1.600000X1.600000*%
%ADD19O,1.600000X1.600000*%
%ADD20R,1.400000X1.200000*%
G04 APERTURE END LIST*
%TO.C,C1*%
G36*
G01*
X106058000Y-130015000D02*
X106058000Y-129065000D01*
G75*
G02*
X106308000Y-128815000I250000J0D01*
G01*
X106808000Y-128815000D01*
G75*
G02*
X107058000Y-129065000I0J-250000D01*
G01*
X107058000Y-130015000D01*
G75*
G02*
X106808000Y-130265000I-250000J0D01*
G01*
X106308000Y-130265000D01*
G75*
G02*
X106058000Y-130015000I0J250000D01*
G01*
G37*
G36*
G01*
X107958000Y-130015000D02*
X107958000Y-129065000D01*
G75*
G02*
X108208000Y-128815000I250000J0D01*
G01*
X108708000Y-128815000D01*
G75*
G02*
X108958000Y-129065000I0J-250000D01*
G01*
X108958000Y-130015000D01*
G75*
G02*
X108708000Y-130265000I-250000J0D01*
G01*
X108208000Y-130265000D01*
G75*
G02*
X107958000Y-130015000I0J250000D01*
G01*
G37*
%TD*%
%TO.C,C2*%
G36*
G01*
X107958000Y-124935000D02*
X107958000Y-123985000D01*
G75*
G02*
X108208000Y-123735000I250000J0D01*
G01*
X108708000Y-123735000D01*
G75*
G02*
X108958000Y-123985000I0J-250000D01*
G01*
X108958000Y-124935000D01*
G75*
G02*
X108708000Y-125185000I-250000J0D01*
G01*
X108208000Y-125185000D01*
G75*
G02*
X107958000Y-124935000I0J250000D01*
G01*
G37*
G36*
G01*
X106058000Y-124935000D02*
X106058000Y-123985000D01*
G75*
G02*
X106308000Y-123735000I250000J0D01*
G01*
X106808000Y-123735000D01*
G75*
G02*
X107058000Y-123985000I0J-250000D01*
G01*
X107058000Y-124935000D01*
G75*
G02*
X106808000Y-125185000I-250000J0D01*
G01*
X106308000Y-125185000D01*
G75*
G02*
X106058000Y-124935000I0J250000D01*
G01*
G37*
%TD*%
%TO.C,C3*%
G36*
G01*
X90416000Y-104173000D02*
X90416000Y-105123000D01*
G75*
G02*
X90166000Y-105373000I-250000J0D01*
G01*
X89666000Y-105373000D01*
G75*
G02*
X89416000Y-105123000I0J250000D01*
G01*
X89416000Y-104173000D01*
G75*
G02*
X89666000Y-103923000I250000J0D01*
G01*
X90166000Y-103923000D01*
G75*
G02*
X90416000Y-104173000I0J-250000D01*
G01*
G37*
G36*
G01*
X88516000Y-104173000D02*
X88516000Y-105123000D01*
G75*
G02*
X88266000Y-105373000I-250000J0D01*
G01*
X87766000Y-105373000D01*
G75*
G02*
X87516000Y-105123000I0J250000D01*
G01*
X87516000Y-104173000D01*
G75*
G02*
X87766000Y-103923000I250000J0D01*
G01*
X88266000Y-103923000D01*
G75*
G02*
X88516000Y-104173000I0J-250000D01*
G01*
G37*
%TD*%
%TO.C,C4*%
G36*
G01*
X122715000Y-113104000D02*
X123665000Y-113104000D01*
G75*
G02*
X123915000Y-113354000I0J-250000D01*
G01*
X123915000Y-113854000D01*
G75*
G02*
X123665000Y-114104000I-250000J0D01*
G01*
X122715000Y-114104000D01*
G75*
G02*
X122465000Y-113854000I0J250000D01*
G01*
X122465000Y-113354000D01*
G75*
G02*
X122715000Y-113104000I250000J0D01*
G01*
G37*
G36*
G01*
X122715000Y-115004000D02*
X123665000Y-115004000D01*
G75*
G02*
X123915000Y-115254000I0J-250000D01*
G01*
X123915000Y-115754000D01*
G75*
G02*
X123665000Y-116004000I-250000J0D01*
G01*
X122715000Y-116004000D01*
G75*
G02*
X122465000Y-115754000I0J250000D01*
G01*
X122465000Y-115254000D01*
G75*
G02*
X122715000Y-115004000I250000J0D01*
G01*
G37*
%TD*%
%TO.C,C5*%
G36*
G01*
X127033000Y-115004000D02*
X127983000Y-115004000D01*
G75*
G02*
X128233000Y-115254000I0J-250000D01*
G01*
X128233000Y-115754000D01*
G75*
G02*
X127983000Y-116004000I-250000J0D01*
G01*
X127033000Y-116004000D01*
G75*
G02*
X126783000Y-115754000I0J250000D01*
G01*
X126783000Y-115254000D01*
G75*
G02*
X127033000Y-115004000I250000J0D01*
G01*
G37*
G36*
G01*
X127033000Y-113104000D02*
X127983000Y-113104000D01*
G75*
G02*
X128233000Y-113354000I0J-250000D01*
G01*
X128233000Y-113854000D01*
G75*
G02*
X127983000Y-114104000I-250000J0D01*
G01*
X127033000Y-114104000D01*
G75*
G02*
X126783000Y-113854000I0J250000D01*
G01*
X126783000Y-113354000D01*
G75*
G02*
X127033000Y-113104000I250000J0D01*
G01*
G37*
%TD*%
%TO.C,C6*%
G36*
G01*
X140556000Y-116197000D02*
X139606000Y-116197000D01*
G75*
G02*
X139356000Y-115947000I0J250000D01*
G01*
X139356000Y-115447000D01*
G75*
G02*
X139606000Y-115197000I250000J0D01*
G01*
X140556000Y-115197000D01*
G75*
G02*
X140806000Y-115447000I0J-250000D01*
G01*
X140806000Y-115947000D01*
G75*
G02*
X140556000Y-116197000I-250000J0D01*
G01*
G37*
G36*
G01*
X140556000Y-114297000D02*
X139606000Y-114297000D01*
G75*
G02*
X139356000Y-114047000I0J250000D01*
G01*
X139356000Y-113547000D01*
G75*
G02*
X139606000Y-113297000I250000J0D01*
G01*
X140556000Y-113297000D01*
G75*
G02*
X140806000Y-113547000I0J-250000D01*
G01*
X140806000Y-114047000D01*
G75*
G02*
X140556000Y-114297000I-250000J0D01*
G01*
G37*
%TD*%
%TO.C,C7*%
G36*
G01*
X144366000Y-114297000D02*
X143416000Y-114297000D01*
G75*
G02*
X143166000Y-114047000I0J250000D01*
G01*
X143166000Y-113547000D01*
G75*
G02*
X143416000Y-113297000I250000J0D01*
G01*
X144366000Y-113297000D01*
G75*
G02*
X144616000Y-113547000I0J-250000D01*
G01*
X144616000Y-114047000D01*
G75*
G02*
X144366000Y-114297000I-250000J0D01*
G01*
G37*
G36*
G01*
X144366000Y-116197000D02*
X143416000Y-116197000D01*
G75*
G02*
X143166000Y-115947000I0J250000D01*
G01*
X143166000Y-115447000D01*
G75*
G02*
X143416000Y-115197000I250000J0D01*
G01*
X144366000Y-115197000D01*
G75*
G02*
X144616000Y-115447000I0J-250000D01*
G01*
X144616000Y-115947000D01*
G75*
G02*
X144366000Y-116197000I-250000J0D01*
G01*
G37*
%TD*%
%TO.C,C8*%
G36*
G01*
X147861000Y-113292000D02*
X148811000Y-113292000D01*
G75*
G02*
X149061000Y-113542000I0J-250000D01*
G01*
X149061000Y-114042000D01*
G75*
G02*
X148811000Y-114292000I-250000J0D01*
G01*
X147861000Y-114292000D01*
G75*
G02*
X147611000Y-114042000I0J250000D01*
G01*
X147611000Y-113542000D01*
G75*
G02*
X147861000Y-113292000I250000J0D01*
G01*
G37*
G36*
G01*
X147861000Y-115192000D02*
X148811000Y-115192000D01*
G75*
G02*
X149061000Y-115442000I0J-250000D01*
G01*
X149061000Y-115942000D01*
G75*
G02*
X148811000Y-116192000I-250000J0D01*
G01*
X147861000Y-116192000D01*
G75*
G02*
X147611000Y-115942000I0J250000D01*
G01*
X147611000Y-115442000D01*
G75*
G02*
X147861000Y-115192000I250000J0D01*
G01*
G37*
%TD*%
%TO.C,C9*%
G36*
G01*
X151925000Y-115197000D02*
X152875000Y-115197000D01*
G75*
G02*
X153125000Y-115447000I0J-250000D01*
G01*
X153125000Y-115947000D01*
G75*
G02*
X152875000Y-116197000I-250000J0D01*
G01*
X151925000Y-116197000D01*
G75*
G02*
X151675000Y-115947000I0J250000D01*
G01*
X151675000Y-115447000D01*
G75*
G02*
X151925000Y-115197000I250000J0D01*
G01*
G37*
G36*
G01*
X151925000Y-113297000D02*
X152875000Y-113297000D01*
G75*
G02*
X153125000Y-113547000I0J-250000D01*
G01*
X153125000Y-114047000D01*
G75*
G02*
X152875000Y-114297000I-250000J0D01*
G01*
X151925000Y-114297000D01*
G75*
G02*
X151675000Y-114047000I0J250000D01*
G01*
X151675000Y-113547000D01*
G75*
G02*
X151925000Y-113297000I250000J0D01*
G01*
G37*
%TD*%
%TO.C,C10*%
G36*
G01*
X93922000Y-104615000D02*
X93922000Y-103665000D01*
G75*
G02*
X94172000Y-103415000I250000J0D01*
G01*
X94672000Y-103415000D01*
G75*
G02*
X94922000Y-103665000I0J-250000D01*
G01*
X94922000Y-104615000D01*
G75*
G02*
X94672000Y-104865000I-250000J0D01*
G01*
X94172000Y-104865000D01*
G75*
G02*
X93922000Y-104615000I0J250000D01*
G01*
G37*
G36*
G01*
X92022000Y-104615000D02*
X92022000Y-103665000D01*
G75*
G02*
X92272000Y-103415000I250000J0D01*
G01*
X92772000Y-103415000D01*
G75*
G02*
X93022000Y-103665000I0J-250000D01*
G01*
X93022000Y-104615000D01*
G75*
G02*
X92772000Y-104865000I-250000J0D01*
G01*
X92272000Y-104865000D01*
G75*
G02*
X92022000Y-104615000I0J250000D01*
G01*
G37*
%TD*%
%TO.C,C11*%
G36*
G01*
X105189000Y-100592000D02*
X106139000Y-100592000D01*
G75*
G02*
X106389000Y-100842000I0J-250000D01*
G01*
X106389000Y-101342000D01*
G75*
G02*
X106139000Y-101592000I-250000J0D01*
G01*
X105189000Y-101592000D01*
G75*
G02*
X104939000Y-101342000I0J250000D01*
G01*
X104939000Y-100842000D01*
G75*
G02*
X105189000Y-100592000I250000J0D01*
G01*
G37*
G36*
G01*
X105189000Y-98692000D02*
X106139000Y-98692000D01*
G75*
G02*
X106389000Y-98942000I0J-250000D01*
G01*
X106389000Y-99442000D01*
G75*
G02*
X106139000Y-99692000I-250000J0D01*
G01*
X105189000Y-99692000D01*
G75*
G02*
X104939000Y-99442000I0J250000D01*
G01*
X104939000Y-98942000D01*
G75*
G02*
X105189000Y-98692000I250000J0D01*
G01*
G37*
%TD*%
%TO.C,C12*%
G36*
G01*
X94480000Y-96045000D02*
X94480000Y-96995000D01*
G75*
G02*
X94230000Y-97245000I-250000J0D01*
G01*
X93730000Y-97245000D01*
G75*
G02*
X93480000Y-96995000I0J250000D01*
G01*
X93480000Y-96045000D01*
G75*
G02*
X93730000Y-95795000I250000J0D01*
G01*
X94230000Y-95795000D01*
G75*
G02*
X94480000Y-96045000I0J-250000D01*
G01*
G37*
G36*
G01*
X92580000Y-96045000D02*
X92580000Y-96995000D01*
G75*
G02*
X92330000Y-97245000I-250000J0D01*
G01*
X91830000Y-97245000D01*
G75*
G02*
X91580000Y-96995000I0J250000D01*
G01*
X91580000Y-96045000D01*
G75*
G02*
X91830000Y-95795000I250000J0D01*
G01*
X92330000Y-95795000D01*
G75*
G02*
X92580000Y-96045000I0J-250000D01*
G01*
G37*
%TD*%
%TO.C,C13*%
G36*
G01*
X147861000Y-108278000D02*
X148811000Y-108278000D01*
G75*
G02*
X149061000Y-108528000I0J-250000D01*
G01*
X149061000Y-109028000D01*
G75*
G02*
X148811000Y-109278000I-250000J0D01*
G01*
X147861000Y-109278000D01*
G75*
G02*
X147611000Y-109028000I0J250000D01*
G01*
X147611000Y-108528000D01*
G75*
G02*
X147861000Y-108278000I250000J0D01*
G01*
G37*
G36*
G01*
X147861000Y-110178000D02*
X148811000Y-110178000D01*
G75*
G02*
X149061000Y-110428000I0J-250000D01*
G01*
X149061000Y-110928000D01*
G75*
G02*
X148811000Y-111178000I-250000J0D01*
G01*
X147861000Y-111178000D01*
G75*
G02*
X147611000Y-110928000I0J250000D01*
G01*
X147611000Y-110428000D01*
G75*
G02*
X147861000Y-110178000I250000J0D01*
G01*
G37*
%TD*%
%TO.C,C14*%
G36*
G01*
X130081000Y-104656000D02*
X131031000Y-104656000D01*
G75*
G02*
X131281000Y-104906000I0J-250000D01*
G01*
X131281000Y-105406000D01*
G75*
G02*
X131031000Y-105656000I-250000J0D01*
G01*
X130081000Y-105656000D01*
G75*
G02*
X129831000Y-105406000I0J250000D01*
G01*
X129831000Y-104906000D01*
G75*
G02*
X130081000Y-104656000I250000J0D01*
G01*
G37*
G36*
G01*
X130081000Y-102756000D02*
X131031000Y-102756000D01*
G75*
G02*
X131281000Y-103006000I0J-250000D01*
G01*
X131281000Y-103506000D01*
G75*
G02*
X131031000Y-103756000I-250000J0D01*
G01*
X130081000Y-103756000D01*
G75*
G02*
X129831000Y-103506000I0J250000D01*
G01*
X129831000Y-103006000D01*
G75*
G02*
X130081000Y-102756000I250000J0D01*
G01*
G37*
%TD*%
%TO.C,D1*%
G36*
G01*
X139014500Y-125527750D02*
X139014500Y-126440250D01*
G75*
G02*
X138770750Y-126684000I-243750J0D01*
G01*
X138283250Y-126684000D01*
G75*
G02*
X138039500Y-126440250I0J243750D01*
G01*
X138039500Y-125527750D01*
G75*
G02*
X138283250Y-125284000I243750J0D01*
G01*
X138770750Y-125284000D01*
G75*
G02*
X139014500Y-125527750I0J-243750D01*
G01*
G37*
G36*
G01*
X137139500Y-125527750D02*
X137139500Y-126440250D01*
G75*
G02*
X136895750Y-126684000I-243750J0D01*
G01*
X136408250Y-126684000D01*
G75*
G02*
X136164500Y-126440250I0J243750D01*
G01*
X136164500Y-125527750D01*
G75*
G02*
X136408250Y-125284000I243750J0D01*
G01*
X136895750Y-125284000D01*
G75*
G02*
X137139500Y-125527750I0J-243750D01*
G01*
G37*
%TD*%
D10*
%TO.C,D2*%
X89950000Y-100076000D03*
X87850000Y-100076000D03*
%TD*%
%TO.C,D3*%
G36*
G01*
X144535500Y-121717750D02*
X144535500Y-122630250D01*
G75*
G02*
X144291750Y-122874000I-243750J0D01*
G01*
X143804250Y-122874000D01*
G75*
G02*
X143560500Y-122630250I0J243750D01*
G01*
X143560500Y-121717750D01*
G75*
G02*
X143804250Y-121474000I243750J0D01*
G01*
X144291750Y-121474000D01*
G75*
G02*
X144535500Y-121717750I0J-243750D01*
G01*
G37*
G36*
G01*
X146410500Y-121717750D02*
X146410500Y-122630250D01*
G75*
G02*
X146166750Y-122874000I-243750J0D01*
G01*
X145679250Y-122874000D01*
G75*
G02*
X145435500Y-122630250I0J243750D01*
G01*
X145435500Y-121717750D01*
G75*
G02*
X145679250Y-121474000I243750J0D01*
G01*
X146166750Y-121474000D01*
G75*
G02*
X146410500Y-121717750I0J-243750D01*
G01*
G37*
%TD*%
%TO.C,D4*%
G36*
G01*
X146410500Y-125273750D02*
X146410500Y-126186250D01*
G75*
G02*
X146166750Y-126430000I-243750J0D01*
G01*
X145679250Y-126430000D01*
G75*
G02*
X145435500Y-126186250I0J243750D01*
G01*
X145435500Y-125273750D01*
G75*
G02*
X145679250Y-125030000I243750J0D01*
G01*
X146166750Y-125030000D01*
G75*
G02*
X146410500Y-125273750I0J-243750D01*
G01*
G37*
G36*
G01*
X144535500Y-125273750D02*
X144535500Y-126186250D01*
G75*
G02*
X144291750Y-126430000I-243750J0D01*
G01*
X143804250Y-126430000D01*
G75*
G02*
X143560500Y-126186250I0J243750D01*
G01*
X143560500Y-125273750D01*
G75*
G02*
X143804250Y-125030000I243750J0D01*
G01*
X144291750Y-125030000D01*
G75*
G02*
X144535500Y-125273750I0J-243750D01*
G01*
G37*
%TD*%
%TO.C,F1*%
G36*
G01*
X91831000Y-116971000D02*
X93081000Y-116971000D01*
G75*
G02*
X93331000Y-117221000I0J-250000D01*
G01*
X93331000Y-117971000D01*
G75*
G02*
X93081000Y-118221000I-250000J0D01*
G01*
X91831000Y-118221000D01*
G75*
G02*
X91581000Y-117971000I0J250000D01*
G01*
X91581000Y-117221000D01*
G75*
G02*
X91831000Y-116971000I250000J0D01*
G01*
G37*
G36*
G01*
X91831000Y-119771000D02*
X93081000Y-119771000D01*
G75*
G02*
X93331000Y-120021000I0J-250000D01*
G01*
X93331000Y-120771000D01*
G75*
G02*
X93081000Y-121021000I-250000J0D01*
G01*
X91831000Y-121021000D01*
G75*
G02*
X91581000Y-120771000I0J250000D01*
G01*
X91581000Y-120021000D01*
G75*
G02*
X91831000Y-119771000I250000J0D01*
G01*
G37*
%TD*%
%TO.C,FB1*%
G36*
G01*
X92074750Y-114370500D02*
X92837250Y-114370500D01*
G75*
G02*
X93056000Y-114589250I0J-218750D01*
G01*
X93056000Y-115026750D01*
G75*
G02*
X92837250Y-115245500I-218750J0D01*
G01*
X92074750Y-115245500D01*
G75*
G02*
X91856000Y-115026750I0J218750D01*
G01*
X91856000Y-114589250D01*
G75*
G02*
X92074750Y-114370500I218750J0D01*
G01*
G37*
G36*
G01*
X92074750Y-112245500D02*
X92837250Y-112245500D01*
G75*
G02*
X93056000Y-112464250I0J-218750D01*
G01*
X93056000Y-112901750D01*
G75*
G02*
X92837250Y-113120500I-218750J0D01*
G01*
X92074750Y-113120500D01*
G75*
G02*
X91856000Y-112901750I0J218750D01*
G01*
X91856000Y-112464250D01*
G75*
G02*
X92074750Y-112245500I218750J0D01*
G01*
G37*
%TD*%
D11*
%TO.C,H1*%
X92196419Y-136403581D03*
X89916000Y-135459000D03*
X87635581Y-136403581D03*
X86691000Y-138684000D03*
X87635581Y-140964419D03*
X89916000Y-141909000D03*
X92196419Y-140964419D03*
X93141000Y-138684000D03*
D12*
X89916000Y-138684000D03*
%TD*%
%TO.C,H2*%
X174752000Y-138684000D03*
D11*
X177977000Y-138684000D03*
X177032419Y-140964419D03*
X174752000Y-141909000D03*
X172471581Y-140964419D03*
X171527000Y-138684000D03*
X172471581Y-136403581D03*
X174752000Y-135459000D03*
X177032419Y-136403581D03*
%TD*%
%TO.C,H3*%
X91948000Y-84339162D03*
X89667581Y-83394581D03*
X87387162Y-84339162D03*
X86442581Y-86619581D03*
X87387162Y-88900000D03*
X89667581Y-89844581D03*
X91948000Y-88900000D03*
X92892581Y-86619581D03*
D12*
X89667581Y-86619581D03*
%TD*%
%TO.C,H4*%
X174752000Y-86360000D03*
D11*
X177977000Y-86360000D03*
X177032419Y-88640419D03*
X174752000Y-89585000D03*
X172471581Y-88640419D03*
X171527000Y-86360000D03*
X172471581Y-84079581D03*
X174752000Y-83135000D03*
X177032419Y-84079581D03*
%TD*%
D13*
%TO.C,J1*%
X101600000Y-139700000D03*
D14*
X105100000Y-139700000D03*
%TD*%
%TO.C,J2*%
G36*
G01*
X175602000Y-126400000D02*
X175602000Y-127600000D01*
G75*
G02*
X175352000Y-127850000I-250000J0D01*
G01*
X174152000Y-127850000D01*
G75*
G02*
X173902000Y-127600000I0J250000D01*
G01*
X173902000Y-126400000D01*
G75*
G02*
X174152000Y-126150000I250000J0D01*
G01*
X175352000Y-126150000D01*
G75*
G02*
X175602000Y-126400000I0J-250000D01*
G01*
G37*
D15*
X174752000Y-124460000D03*
X174752000Y-121920000D03*
X172212000Y-127000000D03*
X172212000Y-124460000D03*
X172212000Y-121920000D03*
%TD*%
D13*
%TO.C,J3*%
X154940000Y-139700000D03*
D14*
X158440000Y-139700000D03*
X161940000Y-139700000D03*
%TD*%
D13*
%TO.C,J4*%
X172720000Y-111760000D03*
D14*
X172720000Y-108260000D03*
X172720000Y-104760000D03*
X172720000Y-101260000D03*
X172720000Y-97760000D03*
X172720000Y-94260000D03*
%TD*%
%TO.C,J5*%
X138232000Y-91440000D03*
D13*
X141732000Y-91440000D03*
%TD*%
D14*
%TO.C,J7*%
X89916000Y-125024000D03*
D13*
X89916000Y-128524000D03*
%TD*%
%TO.C,J8*%
X155956000Y-91440000D03*
D14*
X152456000Y-91440000D03*
%TD*%
%TO.C,L1*%
G36*
G01*
X91925500Y-100457250D02*
X91925500Y-99694750D01*
G75*
G02*
X92144250Y-99476000I218750J0D01*
G01*
X92581750Y-99476000D01*
G75*
G02*
X92800500Y-99694750I0J-218750D01*
G01*
X92800500Y-100457250D01*
G75*
G02*
X92581750Y-100676000I-218750J0D01*
G01*
X92144250Y-100676000D01*
G75*
G02*
X91925500Y-100457250I0J218750D01*
G01*
G37*
G36*
G01*
X94050500Y-100457250D02*
X94050500Y-99694750D01*
G75*
G02*
X94269250Y-99476000I218750J0D01*
G01*
X94706750Y-99476000D01*
G75*
G02*
X94925500Y-99694750I0J-218750D01*
G01*
X94925500Y-100457250D01*
G75*
G02*
X94706750Y-100676000I-218750J0D01*
G01*
X94269250Y-100676000D01*
G75*
G02*
X94050500Y-100457250I0J218750D01*
G01*
G37*
%TD*%
D16*
%TO.C,Q1*%
X88884000Y-118872000D03*
X86884000Y-119822000D03*
X86884000Y-117922000D03*
%TD*%
%TO.C,Q2*%
X135144000Y-103190000D03*
X135144000Y-105090000D03*
X137144000Y-104140000D03*
%TD*%
%TO.C,Q3*%
X145828000Y-98618000D03*
X147828000Y-97668000D03*
X147828000Y-99568000D03*
%TD*%
%TO.C,R1*%
G36*
G01*
X136139500Y-130307501D02*
X136139500Y-129407499D01*
G75*
G02*
X136389499Y-129157500I249999J0D01*
G01*
X136914501Y-129157500D01*
G75*
G02*
X137164500Y-129407499I0J-249999D01*
G01*
X137164500Y-130307501D01*
G75*
G02*
X136914501Y-130557500I-249999J0D01*
G01*
X136389499Y-130557500D01*
G75*
G02*
X136139500Y-130307501I0J249999D01*
G01*
G37*
G36*
G01*
X137964500Y-130307501D02*
X137964500Y-129407499D01*
G75*
G02*
X138214499Y-129157500I249999J0D01*
G01*
X138739501Y-129157500D01*
G75*
G02*
X138989500Y-129407499I0J-249999D01*
G01*
X138989500Y-130307501D01*
G75*
G02*
X138739501Y-130557500I-249999J0D01*
G01*
X138214499Y-130557500D01*
G75*
G02*
X137964500Y-130307501I0J249999D01*
G01*
G37*
%TD*%
%TO.C,R2*%
G36*
G01*
X119945999Y-105151500D02*
X120846001Y-105151500D01*
G75*
G02*
X121096000Y-105401499I0J-249999D01*
G01*
X121096000Y-105926501D01*
G75*
G02*
X120846001Y-106176500I-249999J0D01*
G01*
X119945999Y-106176500D01*
G75*
G02*
X119696000Y-105926501I0J249999D01*
G01*
X119696000Y-105401499D01*
G75*
G02*
X119945999Y-105151500I249999J0D01*
G01*
G37*
G36*
G01*
X119945999Y-103326500D02*
X120846001Y-103326500D01*
G75*
G02*
X121096000Y-103576499I0J-249999D01*
G01*
X121096000Y-104101501D01*
G75*
G02*
X120846001Y-104351500I-249999J0D01*
G01*
X119945999Y-104351500D01*
G75*
G02*
X119696000Y-104101501I0J249999D01*
G01*
X119696000Y-103576499D01*
G75*
G02*
X119945999Y-103326500I249999J0D01*
G01*
G37*
%TD*%
%TO.C,R3*%
G36*
G01*
X88904500Y-112833999D02*
X88904500Y-113734001D01*
G75*
G02*
X88654501Y-113984000I-249999J0D01*
G01*
X88129499Y-113984000D01*
G75*
G02*
X87879500Y-113734001I0J249999D01*
G01*
X87879500Y-112833999D01*
G75*
G02*
X88129499Y-112584000I249999J0D01*
G01*
X88654501Y-112584000D01*
G75*
G02*
X88904500Y-112833999I0J-249999D01*
G01*
G37*
G36*
G01*
X87079500Y-112833999D02*
X87079500Y-113734001D01*
G75*
G02*
X86829501Y-113984000I-249999J0D01*
G01*
X86304499Y-113984000D01*
G75*
G02*
X86054500Y-113734001I0J249999D01*
G01*
X86054500Y-112833999D01*
G75*
G02*
X86304499Y-112584000I249999J0D01*
G01*
X86829501Y-112584000D01*
G75*
G02*
X87079500Y-112833999I0J-249999D01*
G01*
G37*
%TD*%
%TO.C,R4*%
G36*
G01*
X88159000Y-109620000D02*
X87609000Y-109620000D01*
G75*
G02*
X87409000Y-109420000I0J200000D01*
G01*
X87409000Y-109020000D01*
G75*
G02*
X87609000Y-108820000I200000J0D01*
G01*
X88159000Y-108820000D01*
G75*
G02*
X88359000Y-109020000I0J-200000D01*
G01*
X88359000Y-109420000D01*
G75*
G02*
X88159000Y-109620000I-200000J0D01*
G01*
G37*
G36*
G01*
X88159000Y-107970000D02*
X87609000Y-107970000D01*
G75*
G02*
X87409000Y-107770000I0J200000D01*
G01*
X87409000Y-107370000D01*
G75*
G02*
X87609000Y-107170000I200000J0D01*
G01*
X88159000Y-107170000D01*
G75*
G02*
X88359000Y-107370000I0J-200000D01*
G01*
X88359000Y-107770000D01*
G75*
G02*
X88159000Y-107970000I-200000J0D01*
G01*
G37*
%TD*%
%TO.C,R5*%
G36*
G01*
X106114001Y-95104000D02*
X105213999Y-95104000D01*
G75*
G02*
X104964000Y-94854001I0J249999D01*
G01*
X104964000Y-94328999D01*
G75*
G02*
X105213999Y-94079000I249999J0D01*
G01*
X106114001Y-94079000D01*
G75*
G02*
X106364000Y-94328999I0J-249999D01*
G01*
X106364000Y-94854001D01*
G75*
G02*
X106114001Y-95104000I-249999J0D01*
G01*
G37*
G36*
G01*
X106114001Y-96929000D02*
X105213999Y-96929000D01*
G75*
G02*
X104964000Y-96679001I0J249999D01*
G01*
X104964000Y-96153999D01*
G75*
G02*
X105213999Y-95904000I249999J0D01*
G01*
X106114001Y-95904000D01*
G75*
G02*
X106364000Y-96153999I0J-249999D01*
G01*
X106364000Y-96679001D01*
G75*
G02*
X106114001Y-96929000I-249999J0D01*
G01*
G37*
%TD*%
%TO.C,R6*%
G36*
G01*
X100133999Y-94483500D02*
X101034001Y-94483500D01*
G75*
G02*
X101284000Y-94733499I0J-249999D01*
G01*
X101284000Y-95258501D01*
G75*
G02*
X101034001Y-95508500I-249999J0D01*
G01*
X100133999Y-95508500D01*
G75*
G02*
X99884000Y-95258501I0J249999D01*
G01*
X99884000Y-94733499D01*
G75*
G02*
X100133999Y-94483500I249999J0D01*
G01*
G37*
G36*
G01*
X100133999Y-96308500D02*
X101034001Y-96308500D01*
G75*
G02*
X101284000Y-96558499I0J-249999D01*
G01*
X101284000Y-97083501D01*
G75*
G02*
X101034001Y-97333500I-249999J0D01*
G01*
X100133999Y-97333500D01*
G75*
G02*
X99884000Y-97083501I0J249999D01*
G01*
X99884000Y-96558499D01*
G75*
G02*
X100133999Y-96308500I249999J0D01*
G01*
G37*
%TD*%
%TO.C,R7*%
G36*
G01*
X99168000Y-100133999D02*
X99168000Y-101034001D01*
G75*
G02*
X98918001Y-101284000I-249999J0D01*
G01*
X98392999Y-101284000D01*
G75*
G02*
X98143000Y-101034001I0J249999D01*
G01*
X98143000Y-100133999D01*
G75*
G02*
X98392999Y-99884000I249999J0D01*
G01*
X98918001Y-99884000D01*
G75*
G02*
X99168000Y-100133999I0J-249999D01*
G01*
G37*
G36*
G01*
X100993000Y-100133999D02*
X100993000Y-101034001D01*
G75*
G02*
X100743001Y-101284000I-249999J0D01*
G01*
X100217999Y-101284000D01*
G75*
G02*
X99968000Y-101034001I0J249999D01*
G01*
X99968000Y-100133999D01*
G75*
G02*
X100217999Y-99884000I249999J0D01*
G01*
X100743001Y-99884000D01*
G75*
G02*
X100993000Y-100133999I0J-249999D01*
G01*
G37*
%TD*%
%TO.C,R8*%
G36*
G01*
X144214001Y-111256500D02*
X143313999Y-111256500D01*
G75*
G02*
X143064000Y-111006501I0J249999D01*
G01*
X143064000Y-110481499D01*
G75*
G02*
X143313999Y-110231500I249999J0D01*
G01*
X144214001Y-110231500D01*
G75*
G02*
X144464000Y-110481499I0J-249999D01*
G01*
X144464000Y-111006501D01*
G75*
G02*
X144214001Y-111256500I-249999J0D01*
G01*
G37*
G36*
G01*
X144214001Y-109431500D02*
X143313999Y-109431500D01*
G75*
G02*
X143064000Y-109181501I0J249999D01*
G01*
X143064000Y-108656499D01*
G75*
G02*
X143313999Y-108406500I249999J0D01*
G01*
X144214001Y-108406500D01*
G75*
G02*
X144464000Y-108656499I0J-249999D01*
G01*
X144464000Y-109181501D01*
G75*
G02*
X144214001Y-109431500I-249999J0D01*
G01*
G37*
%TD*%
%TO.C,R9*%
G36*
G01*
X141736500Y-99117999D02*
X141736500Y-100018001D01*
G75*
G02*
X141486501Y-100268000I-249999J0D01*
G01*
X140961499Y-100268000D01*
G75*
G02*
X140711500Y-100018001I0J249999D01*
G01*
X140711500Y-99117999D01*
G75*
G02*
X140961499Y-98868000I249999J0D01*
G01*
X141486501Y-98868000D01*
G75*
G02*
X141736500Y-99117999I0J-249999D01*
G01*
G37*
G36*
G01*
X139911500Y-99117999D02*
X139911500Y-100018001D01*
G75*
G02*
X139661501Y-100268000I-249999J0D01*
G01*
X139136499Y-100268000D01*
G75*
G02*
X138886500Y-100018001I0J249999D01*
G01*
X138886500Y-99117999D01*
G75*
G02*
X139136499Y-98868000I249999J0D01*
G01*
X139661501Y-98868000D01*
G75*
G02*
X139911500Y-99117999I0J-249999D01*
G01*
G37*
%TD*%
%TO.C,R10*%
G36*
G01*
X146754001Y-103636500D02*
X145853999Y-103636500D01*
G75*
G02*
X145604000Y-103386501I0J249999D01*
G01*
X145604000Y-102861499D01*
G75*
G02*
X145853999Y-102611500I249999J0D01*
G01*
X146754001Y-102611500D01*
G75*
G02*
X147004000Y-102861499I0J-249999D01*
G01*
X147004000Y-103386501D01*
G75*
G02*
X146754001Y-103636500I-249999J0D01*
G01*
G37*
G36*
G01*
X146754001Y-105461500D02*
X145853999Y-105461500D01*
G75*
G02*
X145604000Y-105211501I0J249999D01*
G01*
X145604000Y-104686499D01*
G75*
G02*
X145853999Y-104436500I249999J0D01*
G01*
X146754001Y-104436500D01*
G75*
G02*
X147004000Y-104686499I0J-249999D01*
G01*
X147004000Y-105211501D01*
G75*
G02*
X146754001Y-105461500I-249999J0D01*
G01*
G37*
%TD*%
%TO.C,R11*%
G36*
G01*
X136139500Y-100018001D02*
X136139500Y-99117999D01*
G75*
G02*
X136389499Y-98868000I249999J0D01*
G01*
X136914501Y-98868000D01*
G75*
G02*
X137164500Y-99117999I0J-249999D01*
G01*
X137164500Y-100018001D01*
G75*
G02*
X136914501Y-100268000I-249999J0D01*
G01*
X136389499Y-100268000D01*
G75*
G02*
X136139500Y-100018001I0J249999D01*
G01*
G37*
G36*
G01*
X134314500Y-100018001D02*
X134314500Y-99117999D01*
G75*
G02*
X134564499Y-98868000I249999J0D01*
G01*
X135089501Y-98868000D01*
G75*
G02*
X135339500Y-99117999I0J-249999D01*
G01*
X135339500Y-100018001D01*
G75*
G02*
X135089501Y-100268000I-249999J0D01*
G01*
X134564499Y-100268000D01*
G75*
G02*
X134314500Y-100018001I0J249999D01*
G01*
G37*
%TD*%
%TO.C,R12*%
G36*
G01*
X144403500Y-133915999D02*
X144403500Y-134816001D01*
G75*
G02*
X144153501Y-135066000I-249999J0D01*
G01*
X143628499Y-135066000D01*
G75*
G02*
X143378500Y-134816001I0J249999D01*
G01*
X143378500Y-133915999D01*
G75*
G02*
X143628499Y-133666000I249999J0D01*
G01*
X144153501Y-133666000D01*
G75*
G02*
X144403500Y-133915999I0J-249999D01*
G01*
G37*
G36*
G01*
X146228500Y-133915999D02*
X146228500Y-134816001D01*
G75*
G02*
X145978501Y-135066000I-249999J0D01*
G01*
X145453499Y-135066000D01*
G75*
G02*
X145203500Y-134816001I0J249999D01*
G01*
X145203500Y-133915999D01*
G75*
G02*
X145453499Y-133666000I249999J0D01*
G01*
X145978501Y-133666000D01*
G75*
G02*
X146228500Y-133915999I0J-249999D01*
G01*
G37*
%TD*%
%TO.C,R13*%
G36*
G01*
X146332000Y-129851999D02*
X146332000Y-130752001D01*
G75*
G02*
X146082001Y-131002000I-249999J0D01*
G01*
X145556999Y-131002000D01*
G75*
G02*
X145307000Y-130752001I0J249999D01*
G01*
X145307000Y-129851999D01*
G75*
G02*
X145556999Y-129602000I249999J0D01*
G01*
X146082001Y-129602000D01*
G75*
G02*
X146332000Y-129851999I0J-249999D01*
G01*
G37*
G36*
G01*
X144507000Y-129851999D02*
X144507000Y-130752001D01*
G75*
G02*
X144257001Y-131002000I-249999J0D01*
G01*
X143731999Y-131002000D01*
G75*
G02*
X143482000Y-130752001I0J249999D01*
G01*
X143482000Y-129851999D01*
G75*
G02*
X143731999Y-129602000I249999J0D01*
G01*
X144257001Y-129602000D01*
G75*
G02*
X144507000Y-129851999I0J-249999D01*
G01*
G37*
%TD*%
%TO.C,U1*%
G36*
G01*
X106593000Y-104290000D02*
X106593000Y-103990000D01*
G75*
G02*
X106743000Y-103840000I150000J0D01*
G01*
X108493000Y-103840000D01*
G75*
G02*
X108643000Y-103990000I0J-150000D01*
G01*
X108643000Y-104290000D01*
G75*
G02*
X108493000Y-104440000I-150000J0D01*
G01*
X106743000Y-104440000D01*
G75*
G02*
X106593000Y-104290000I0J150000D01*
G01*
G37*
G36*
G01*
X106593000Y-105560000D02*
X106593000Y-105260000D01*
G75*
G02*
X106743000Y-105110000I150000J0D01*
G01*
X108493000Y-105110000D01*
G75*
G02*
X108643000Y-105260000I0J-150000D01*
G01*
X108643000Y-105560000D01*
G75*
G02*
X108493000Y-105710000I-150000J0D01*
G01*
X106743000Y-105710000D01*
G75*
G02*
X106593000Y-105560000I0J150000D01*
G01*
G37*
G36*
G01*
X106593000Y-106830000D02*
X106593000Y-106530000D01*
G75*
G02*
X106743000Y-106380000I150000J0D01*
G01*
X108493000Y-106380000D01*
G75*
G02*
X108643000Y-106530000I0J-150000D01*
G01*
X108643000Y-106830000D01*
G75*
G02*
X108493000Y-106980000I-150000J0D01*
G01*
X106743000Y-106980000D01*
G75*
G02*
X106593000Y-106830000I0J150000D01*
G01*
G37*
G36*
G01*
X106593000Y-108100000D02*
X106593000Y-107800000D01*
G75*
G02*
X106743000Y-107650000I150000J0D01*
G01*
X108493000Y-107650000D01*
G75*
G02*
X108643000Y-107800000I0J-150000D01*
G01*
X108643000Y-108100000D01*
G75*
G02*
X108493000Y-108250000I-150000J0D01*
G01*
X106743000Y-108250000D01*
G75*
G02*
X106593000Y-108100000I0J150000D01*
G01*
G37*
G36*
G01*
X106593000Y-109370000D02*
X106593000Y-109070000D01*
G75*
G02*
X106743000Y-108920000I150000J0D01*
G01*
X108493000Y-108920000D01*
G75*
G02*
X108643000Y-109070000I0J-150000D01*
G01*
X108643000Y-109370000D01*
G75*
G02*
X108493000Y-109520000I-150000J0D01*
G01*
X106743000Y-109520000D01*
G75*
G02*
X106593000Y-109370000I0J150000D01*
G01*
G37*
G36*
G01*
X106593000Y-110640000D02*
X106593000Y-110340000D01*
G75*
G02*
X106743000Y-110190000I150000J0D01*
G01*
X108493000Y-110190000D01*
G75*
G02*
X108643000Y-110340000I0J-150000D01*
G01*
X108643000Y-110640000D01*
G75*
G02*
X108493000Y-110790000I-150000J0D01*
G01*
X106743000Y-110790000D01*
G75*
G02*
X106593000Y-110640000I0J150000D01*
G01*
G37*
G36*
G01*
X106593000Y-111910000D02*
X106593000Y-111610000D01*
G75*
G02*
X106743000Y-111460000I150000J0D01*
G01*
X108493000Y-111460000D01*
G75*
G02*
X108643000Y-111610000I0J-150000D01*
G01*
X108643000Y-111910000D01*
G75*
G02*
X108493000Y-112060000I-150000J0D01*
G01*
X106743000Y-112060000D01*
G75*
G02*
X106593000Y-111910000I0J150000D01*
G01*
G37*
G36*
G01*
X106593000Y-113180000D02*
X106593000Y-112880000D01*
G75*
G02*
X106743000Y-112730000I150000J0D01*
G01*
X108493000Y-112730000D01*
G75*
G02*
X108643000Y-112880000I0J-150000D01*
G01*
X108643000Y-113180000D01*
G75*
G02*
X108493000Y-113330000I-150000J0D01*
G01*
X106743000Y-113330000D01*
G75*
G02*
X106593000Y-113180000I0J150000D01*
G01*
G37*
G36*
G01*
X106593000Y-114450000D02*
X106593000Y-114150000D01*
G75*
G02*
X106743000Y-114000000I150000J0D01*
G01*
X108493000Y-114000000D01*
G75*
G02*
X108643000Y-114150000I0J-150000D01*
G01*
X108643000Y-114450000D01*
G75*
G02*
X108493000Y-114600000I-150000J0D01*
G01*
X106743000Y-114600000D01*
G75*
G02*
X106593000Y-114450000I0J150000D01*
G01*
G37*
G36*
G01*
X115893000Y-114450000D02*
X115893000Y-114150000D01*
G75*
G02*
X116043000Y-114000000I150000J0D01*
G01*
X117793000Y-114000000D01*
G75*
G02*
X117943000Y-114150000I0J-150000D01*
G01*
X117943000Y-114450000D01*
G75*
G02*
X117793000Y-114600000I-150000J0D01*
G01*
X116043000Y-114600000D01*
G75*
G02*
X115893000Y-114450000I0J150000D01*
G01*
G37*
G36*
G01*
X115893000Y-113180000D02*
X115893000Y-112880000D01*
G75*
G02*
X116043000Y-112730000I150000J0D01*
G01*
X117793000Y-112730000D01*
G75*
G02*
X117943000Y-112880000I0J-150000D01*
G01*
X117943000Y-113180000D01*
G75*
G02*
X117793000Y-113330000I-150000J0D01*
G01*
X116043000Y-113330000D01*
G75*
G02*
X115893000Y-113180000I0J150000D01*
G01*
G37*
G36*
G01*
X115893000Y-111910000D02*
X115893000Y-111610000D01*
G75*
G02*
X116043000Y-111460000I150000J0D01*
G01*
X117793000Y-111460000D01*
G75*
G02*
X117943000Y-111610000I0J-150000D01*
G01*
X117943000Y-111910000D01*
G75*
G02*
X117793000Y-112060000I-150000J0D01*
G01*
X116043000Y-112060000D01*
G75*
G02*
X115893000Y-111910000I0J150000D01*
G01*
G37*
G36*
G01*
X115893000Y-110640000D02*
X115893000Y-110340000D01*
G75*
G02*
X116043000Y-110190000I150000J0D01*
G01*
X117793000Y-110190000D01*
G75*
G02*
X117943000Y-110340000I0J-150000D01*
G01*
X117943000Y-110640000D01*
G75*
G02*
X117793000Y-110790000I-150000J0D01*
G01*
X116043000Y-110790000D01*
G75*
G02*
X115893000Y-110640000I0J150000D01*
G01*
G37*
G36*
G01*
X115893000Y-109370000D02*
X115893000Y-109070000D01*
G75*
G02*
X116043000Y-108920000I150000J0D01*
G01*
X117793000Y-108920000D01*
G75*
G02*
X117943000Y-109070000I0J-150000D01*
G01*
X117943000Y-109370000D01*
G75*
G02*
X117793000Y-109520000I-150000J0D01*
G01*
X116043000Y-109520000D01*
G75*
G02*
X115893000Y-109370000I0J150000D01*
G01*
G37*
G36*
G01*
X115893000Y-108100000D02*
X115893000Y-107800000D01*
G75*
G02*
X116043000Y-107650000I150000J0D01*
G01*
X117793000Y-107650000D01*
G75*
G02*
X117943000Y-107800000I0J-150000D01*
G01*
X117943000Y-108100000D01*
G75*
G02*
X117793000Y-108250000I-150000J0D01*
G01*
X116043000Y-108250000D01*
G75*
G02*
X115893000Y-108100000I0J150000D01*
G01*
G37*
G36*
G01*
X115893000Y-106830000D02*
X115893000Y-106530000D01*
G75*
G02*
X116043000Y-106380000I150000J0D01*
G01*
X117793000Y-106380000D01*
G75*
G02*
X117943000Y-106530000I0J-150000D01*
G01*
X117943000Y-106830000D01*
G75*
G02*
X117793000Y-106980000I-150000J0D01*
G01*
X116043000Y-106980000D01*
G75*
G02*
X115893000Y-106830000I0J150000D01*
G01*
G37*
G36*
G01*
X115893000Y-105560000D02*
X115893000Y-105260000D01*
G75*
G02*
X116043000Y-105110000I150000J0D01*
G01*
X117793000Y-105110000D01*
G75*
G02*
X117943000Y-105260000I0J-150000D01*
G01*
X117943000Y-105560000D01*
G75*
G02*
X117793000Y-105710000I-150000J0D01*
G01*
X116043000Y-105710000D01*
G75*
G02*
X115893000Y-105560000I0J150000D01*
G01*
G37*
G36*
G01*
X115893000Y-104290000D02*
X115893000Y-103990000D01*
G75*
G02*
X116043000Y-103840000I150000J0D01*
G01*
X117793000Y-103840000D01*
G75*
G02*
X117943000Y-103990000I0J-150000D01*
G01*
X117943000Y-104290000D01*
G75*
G02*
X117793000Y-104440000I-150000J0D01*
G01*
X116043000Y-104440000D01*
G75*
G02*
X115893000Y-104290000I0J150000D01*
G01*
G37*
%TD*%
%TO.C,U2*%
G36*
G01*
X99845000Y-112670000D02*
X99545000Y-112670000D01*
G75*
G02*
X99395000Y-112520000I0J150000D01*
G01*
X99395000Y-110870000D01*
G75*
G02*
X99545000Y-110720000I150000J0D01*
G01*
X99845000Y-110720000D01*
G75*
G02*
X99995000Y-110870000I0J-150000D01*
G01*
X99995000Y-112520000D01*
G75*
G02*
X99845000Y-112670000I-150000J0D01*
G01*
G37*
G36*
G01*
X101115000Y-112670000D02*
X100815000Y-112670000D01*
G75*
G02*
X100665000Y-112520000I0J150000D01*
G01*
X100665000Y-110870000D01*
G75*
G02*
X100815000Y-110720000I150000J0D01*
G01*
X101115000Y-110720000D01*
G75*
G02*
X101265000Y-110870000I0J-150000D01*
G01*
X101265000Y-112520000D01*
G75*
G02*
X101115000Y-112670000I-150000J0D01*
G01*
G37*
G36*
G01*
X102385000Y-112670000D02*
X102085000Y-112670000D01*
G75*
G02*
X101935000Y-112520000I0J150000D01*
G01*
X101935000Y-110870000D01*
G75*
G02*
X102085000Y-110720000I150000J0D01*
G01*
X102385000Y-110720000D01*
G75*
G02*
X102535000Y-110870000I0J-150000D01*
G01*
X102535000Y-112520000D01*
G75*
G02*
X102385000Y-112670000I-150000J0D01*
G01*
G37*
G36*
G01*
X103655000Y-112670000D02*
X103355000Y-112670000D01*
G75*
G02*
X103205000Y-112520000I0J150000D01*
G01*
X103205000Y-110870000D01*
G75*
G02*
X103355000Y-110720000I150000J0D01*
G01*
X103655000Y-110720000D01*
G75*
G02*
X103805000Y-110870000I0J-150000D01*
G01*
X103805000Y-112520000D01*
G75*
G02*
X103655000Y-112670000I-150000J0D01*
G01*
G37*
G36*
G01*
X103655000Y-107720000D02*
X103355000Y-107720000D01*
G75*
G02*
X103205000Y-107570000I0J150000D01*
G01*
X103205000Y-105920000D01*
G75*
G02*
X103355000Y-105770000I150000J0D01*
G01*
X103655000Y-105770000D01*
G75*
G02*
X103805000Y-105920000I0J-150000D01*
G01*
X103805000Y-107570000D01*
G75*
G02*
X103655000Y-107720000I-150000J0D01*
G01*
G37*
G36*
G01*
X102385000Y-107720000D02*
X102085000Y-107720000D01*
G75*
G02*
X101935000Y-107570000I0J150000D01*
G01*
X101935000Y-105920000D01*
G75*
G02*
X102085000Y-105770000I150000J0D01*
G01*
X102385000Y-105770000D01*
G75*
G02*
X102535000Y-105920000I0J-150000D01*
G01*
X102535000Y-107570000D01*
G75*
G02*
X102385000Y-107720000I-150000J0D01*
G01*
G37*
G36*
G01*
X101115000Y-107720000D02*
X100815000Y-107720000D01*
G75*
G02*
X100665000Y-107570000I0J150000D01*
G01*
X100665000Y-105920000D01*
G75*
G02*
X100815000Y-105770000I150000J0D01*
G01*
X101115000Y-105770000D01*
G75*
G02*
X101265000Y-105920000I0J-150000D01*
G01*
X101265000Y-107570000D01*
G75*
G02*
X101115000Y-107720000I-150000J0D01*
G01*
G37*
G36*
G01*
X99845000Y-107720000D02*
X99545000Y-107720000D01*
G75*
G02*
X99395000Y-107570000I0J150000D01*
G01*
X99395000Y-105920000D01*
G75*
G02*
X99545000Y-105770000I150000J0D01*
G01*
X99845000Y-105770000D01*
G75*
G02*
X99995000Y-105920000I0J-150000D01*
G01*
X99995000Y-107570000D01*
G75*
G02*
X99845000Y-107720000I-150000J0D01*
G01*
G37*
%TD*%
D17*
%TO.C,U3*%
X92288000Y-107254000D03*
X92288000Y-108204000D03*
X92288000Y-109154000D03*
X94488000Y-109154000D03*
X94488000Y-107254000D03*
X94488000Y-108204000D03*
%TD*%
D18*
%TO.C,U4*%
X156972000Y-98552000D03*
D19*
X164592000Y-131572000D03*
X156972000Y-101092000D03*
X164592000Y-129032000D03*
X156972000Y-103632000D03*
X164592000Y-126492000D03*
X156972000Y-106172000D03*
X164592000Y-123952000D03*
X156972000Y-108712000D03*
X164592000Y-121412000D03*
X156972000Y-111252000D03*
X164592000Y-118872000D03*
X156972000Y-113792000D03*
X164592000Y-116332000D03*
X156972000Y-116332000D03*
X164592000Y-113792000D03*
X156972000Y-118872000D03*
X164592000Y-111252000D03*
X156972000Y-121412000D03*
X164592000Y-108712000D03*
X156972000Y-123952000D03*
X164592000Y-106172000D03*
X156972000Y-126492000D03*
X164592000Y-103632000D03*
X156972000Y-129032000D03*
X164592000Y-101092000D03*
X156972000Y-131572000D03*
X164592000Y-98552000D03*
%TD*%
%TO.C,U5*%
G36*
G01*
X119318000Y-121054000D02*
X119318000Y-120754000D01*
G75*
G02*
X119468000Y-120604000I150000J0D01*
G01*
X120918000Y-120604000D01*
G75*
G02*
X121068000Y-120754000I0J-150000D01*
G01*
X121068000Y-121054000D01*
G75*
G02*
X120918000Y-121204000I-150000J0D01*
G01*
X119468000Y-121204000D01*
G75*
G02*
X119318000Y-121054000I0J150000D01*
G01*
G37*
G36*
G01*
X119318000Y-122324000D02*
X119318000Y-122024000D01*
G75*
G02*
X119468000Y-121874000I150000J0D01*
G01*
X120918000Y-121874000D01*
G75*
G02*
X121068000Y-122024000I0J-150000D01*
G01*
X121068000Y-122324000D01*
G75*
G02*
X120918000Y-122474000I-150000J0D01*
G01*
X119468000Y-122474000D01*
G75*
G02*
X119318000Y-122324000I0J150000D01*
G01*
G37*
G36*
G01*
X119318000Y-123594000D02*
X119318000Y-123294000D01*
G75*
G02*
X119468000Y-123144000I150000J0D01*
G01*
X120918000Y-123144000D01*
G75*
G02*
X121068000Y-123294000I0J-150000D01*
G01*
X121068000Y-123594000D01*
G75*
G02*
X120918000Y-123744000I-150000J0D01*
G01*
X119468000Y-123744000D01*
G75*
G02*
X119318000Y-123594000I0J150000D01*
G01*
G37*
G36*
G01*
X119318000Y-124864000D02*
X119318000Y-124564000D01*
G75*
G02*
X119468000Y-124414000I150000J0D01*
G01*
X120918000Y-124414000D01*
G75*
G02*
X121068000Y-124564000I0J-150000D01*
G01*
X121068000Y-124864000D01*
G75*
G02*
X120918000Y-125014000I-150000J0D01*
G01*
X119468000Y-125014000D01*
G75*
G02*
X119318000Y-124864000I0J150000D01*
G01*
G37*
G36*
G01*
X119318000Y-126134000D02*
X119318000Y-125834000D01*
G75*
G02*
X119468000Y-125684000I150000J0D01*
G01*
X120918000Y-125684000D01*
G75*
G02*
X121068000Y-125834000I0J-150000D01*
G01*
X121068000Y-126134000D01*
G75*
G02*
X120918000Y-126284000I-150000J0D01*
G01*
X119468000Y-126284000D01*
G75*
G02*
X119318000Y-126134000I0J150000D01*
G01*
G37*
G36*
G01*
X119318000Y-127404000D02*
X119318000Y-127104000D01*
G75*
G02*
X119468000Y-126954000I150000J0D01*
G01*
X120918000Y-126954000D01*
G75*
G02*
X121068000Y-127104000I0J-150000D01*
G01*
X121068000Y-127404000D01*
G75*
G02*
X120918000Y-127554000I-150000J0D01*
G01*
X119468000Y-127554000D01*
G75*
G02*
X119318000Y-127404000I0J150000D01*
G01*
G37*
G36*
G01*
X119318000Y-128674000D02*
X119318000Y-128374000D01*
G75*
G02*
X119468000Y-128224000I150000J0D01*
G01*
X120918000Y-128224000D01*
G75*
G02*
X121068000Y-128374000I0J-150000D01*
G01*
X121068000Y-128674000D01*
G75*
G02*
X120918000Y-128824000I-150000J0D01*
G01*
X119468000Y-128824000D01*
G75*
G02*
X119318000Y-128674000I0J150000D01*
G01*
G37*
G36*
G01*
X119318000Y-129944000D02*
X119318000Y-129644000D01*
G75*
G02*
X119468000Y-129494000I150000J0D01*
G01*
X120918000Y-129494000D01*
G75*
G02*
X121068000Y-129644000I0J-150000D01*
G01*
X121068000Y-129944000D01*
G75*
G02*
X120918000Y-130094000I-150000J0D01*
G01*
X119468000Y-130094000D01*
G75*
G02*
X119318000Y-129944000I0J150000D01*
G01*
G37*
G36*
G01*
X119318000Y-131214000D02*
X119318000Y-130914000D01*
G75*
G02*
X119468000Y-130764000I150000J0D01*
G01*
X120918000Y-130764000D01*
G75*
G02*
X121068000Y-130914000I0J-150000D01*
G01*
X121068000Y-131214000D01*
G75*
G02*
X120918000Y-131364000I-150000J0D01*
G01*
X119468000Y-131364000D01*
G75*
G02*
X119318000Y-131214000I0J150000D01*
G01*
G37*
G36*
G01*
X128868000Y-131214000D02*
X128868000Y-130914000D01*
G75*
G02*
X129018000Y-130764000I150000J0D01*
G01*
X130468000Y-130764000D01*
G75*
G02*
X130618000Y-130914000I0J-150000D01*
G01*
X130618000Y-131214000D01*
G75*
G02*
X130468000Y-131364000I-150000J0D01*
G01*
X129018000Y-131364000D01*
G75*
G02*
X128868000Y-131214000I0J150000D01*
G01*
G37*
G36*
G01*
X128868000Y-129944000D02*
X128868000Y-129644000D01*
G75*
G02*
X129018000Y-129494000I150000J0D01*
G01*
X130468000Y-129494000D01*
G75*
G02*
X130618000Y-129644000I0J-150000D01*
G01*
X130618000Y-129944000D01*
G75*
G02*
X130468000Y-130094000I-150000J0D01*
G01*
X129018000Y-130094000D01*
G75*
G02*
X128868000Y-129944000I0J150000D01*
G01*
G37*
G36*
G01*
X128868000Y-128674000D02*
X128868000Y-128374000D01*
G75*
G02*
X129018000Y-128224000I150000J0D01*
G01*
X130468000Y-128224000D01*
G75*
G02*
X130618000Y-128374000I0J-150000D01*
G01*
X130618000Y-128674000D01*
G75*
G02*
X130468000Y-128824000I-150000J0D01*
G01*
X129018000Y-128824000D01*
G75*
G02*
X128868000Y-128674000I0J150000D01*
G01*
G37*
G36*
G01*
X128868000Y-127404000D02*
X128868000Y-127104000D01*
G75*
G02*
X129018000Y-126954000I150000J0D01*
G01*
X130468000Y-126954000D01*
G75*
G02*
X130618000Y-127104000I0J-150000D01*
G01*
X130618000Y-127404000D01*
G75*
G02*
X130468000Y-127554000I-150000J0D01*
G01*
X129018000Y-127554000D01*
G75*
G02*
X128868000Y-127404000I0J150000D01*
G01*
G37*
G36*
G01*
X128868000Y-126134000D02*
X128868000Y-125834000D01*
G75*
G02*
X129018000Y-125684000I150000J0D01*
G01*
X130468000Y-125684000D01*
G75*
G02*
X130618000Y-125834000I0J-150000D01*
G01*
X130618000Y-126134000D01*
G75*
G02*
X130468000Y-126284000I-150000J0D01*
G01*
X129018000Y-126284000D01*
G75*
G02*
X128868000Y-126134000I0J150000D01*
G01*
G37*
G36*
G01*
X128868000Y-124864000D02*
X128868000Y-124564000D01*
G75*
G02*
X129018000Y-124414000I150000J0D01*
G01*
X130468000Y-124414000D01*
G75*
G02*
X130618000Y-124564000I0J-150000D01*
G01*
X130618000Y-124864000D01*
G75*
G02*
X130468000Y-125014000I-150000J0D01*
G01*
X129018000Y-125014000D01*
G75*
G02*
X128868000Y-124864000I0J150000D01*
G01*
G37*
G36*
G01*
X128868000Y-123594000D02*
X128868000Y-123294000D01*
G75*
G02*
X129018000Y-123144000I150000J0D01*
G01*
X130468000Y-123144000D01*
G75*
G02*
X130618000Y-123294000I0J-150000D01*
G01*
X130618000Y-123594000D01*
G75*
G02*
X130468000Y-123744000I-150000J0D01*
G01*
X129018000Y-123744000D01*
G75*
G02*
X128868000Y-123594000I0J150000D01*
G01*
G37*
G36*
G01*
X128868000Y-122324000D02*
X128868000Y-122024000D01*
G75*
G02*
X129018000Y-121874000I150000J0D01*
G01*
X130468000Y-121874000D01*
G75*
G02*
X130618000Y-122024000I0J-150000D01*
G01*
X130618000Y-122324000D01*
G75*
G02*
X130468000Y-122474000I-150000J0D01*
G01*
X129018000Y-122474000D01*
G75*
G02*
X128868000Y-122324000I0J150000D01*
G01*
G37*
G36*
G01*
X128868000Y-121054000D02*
X128868000Y-120754000D01*
G75*
G02*
X129018000Y-120604000I150000J0D01*
G01*
X130468000Y-120604000D01*
G75*
G02*
X130618000Y-120754000I0J-150000D01*
G01*
X130618000Y-121054000D01*
G75*
G02*
X130468000Y-121204000I-150000J0D01*
G01*
X129018000Y-121204000D01*
G75*
G02*
X128868000Y-121054000I0J150000D01*
G01*
G37*
%TD*%
D16*
%TO.C,U6*%
X127000000Y-106172000D03*
X127000000Y-104272000D03*
X125000000Y-105222000D03*
%TD*%
D20*
%TO.C,Y1*%
X114300000Y-125300000D03*
X112100000Y-125300000D03*
X112100000Y-127000000D03*
X114300000Y-127000000D03*
%TD*%
%TO.C,Y2*%
X135890000Y-116254000D03*
X133690000Y-116254000D03*
X133690000Y-114554000D03*
X135890000Y-114554000D03*
%TD*%
D14*
%TO.C,J6*%
X121184000Y-140208000D03*
X124684000Y-140208000D03*
X128184000Y-140208000D03*
X131684000Y-140208000D03*
X135184000Y-140208000D03*
D13*
X138684000Y-140208000D03*
%TD*%
M02*
