%TF.GenerationSoftware,KiCad,Pcbnew,(5.1.12-1-10_14)*%
%TF.CreationDate,2021-11-26T20:13:54-05:00*%
%TF.ProjectId,Untitled,556e7469-746c-4656-942e-6b696361645f,rev?*%
%TF.SameCoordinates,Original*%
%TF.FileFunction,Copper,L2,Inr*%
%TF.FilePolarity,Positive*%
%FSLAX46Y46*%
G04 Gerber Fmt 4.6, Leading zero omitted, Abs format (unit mm)*
G04 Created by KiCad (PCBNEW (5.1.12-1-10_14)) date 2021-11-26 20:13:54*
%MOMM*%
%LPD*%
G01*
G04 APERTURE LIST*
%TA.AperFunction,ComponentPad*%
%ADD10C,0.900000*%
%TD*%
%TA.AperFunction,ComponentPad*%
%ADD11C,8.600000*%
%TD*%
%TA.AperFunction,ComponentPad*%
%ADD12R,2.400000X2.400000*%
%TD*%
%TA.AperFunction,ComponentPad*%
%ADD13C,2.400000*%
%TD*%
%TA.AperFunction,ComponentPad*%
%ADD14C,1.700000*%
%TD*%
%TA.AperFunction,ComponentPad*%
%ADD15R,1.600000X1.600000*%
%TD*%
%TA.AperFunction,ComponentPad*%
%ADD16O,1.600000X1.600000*%
%TD*%
%TA.AperFunction,ViaPad*%
%ADD17C,0.800000*%
%TD*%
%TA.AperFunction,Conductor*%
%ADD18C,0.254000*%
%TD*%
%TA.AperFunction,Conductor*%
%ADD19C,0.100000*%
%TD*%
G04 APERTURE END LIST*
D10*
%TO.N,N/C*%
%TO.C,H1*%
X92196419Y-136403581D03*
X89916000Y-135459000D03*
X87635581Y-136403581D03*
X86691000Y-138684000D03*
X87635581Y-140964419D03*
X89916000Y-141909000D03*
X92196419Y-140964419D03*
X93141000Y-138684000D03*
D11*
X89916000Y-138684000D03*
%TD*%
%TO.N,N/C*%
%TO.C,H2*%
X174752000Y-138684000D03*
D10*
X177977000Y-138684000D03*
X177032419Y-140964419D03*
X174752000Y-141909000D03*
X172471581Y-140964419D03*
X171527000Y-138684000D03*
X172471581Y-136403581D03*
X174752000Y-135459000D03*
X177032419Y-136403581D03*
%TD*%
%TO.N,N/C*%
%TO.C,H3*%
X91948000Y-84339162D03*
X89667581Y-83394581D03*
X87387162Y-84339162D03*
X86442581Y-86619581D03*
X87387162Y-88900000D03*
X89667581Y-89844581D03*
X91948000Y-88900000D03*
X92892581Y-86619581D03*
D11*
X89667581Y-86619581D03*
%TD*%
%TO.N,N/C*%
%TO.C,H4*%
X174752000Y-86360000D03*
D10*
X177977000Y-86360000D03*
X177032419Y-88640419D03*
X174752000Y-89585000D03*
X172471581Y-88640419D03*
X171527000Y-86360000D03*
X172471581Y-84079581D03*
X174752000Y-83135000D03*
X177032419Y-84079581D03*
%TD*%
D12*
%TO.N,Net-(J1-Pad1)*%
%TO.C,J1*%
X101600000Y-139700000D03*
D13*
%TO.N,Net-(J1-Pad2)*%
X105100000Y-139700000D03*
%TD*%
%TO.N,AT_MISO*%
%TO.C,J2*%
%TA.AperFunction,ComponentPad*%
G36*
G01*
X175602000Y-126400000D02*
X175602000Y-127600000D01*
G75*
G02*
X175352000Y-127850000I-250000J0D01*
G01*
X174152000Y-127850000D01*
G75*
G02*
X173902000Y-127600000I0J250000D01*
G01*
X173902000Y-126400000D01*
G75*
G02*
X174152000Y-126150000I250000J0D01*
G01*
X175352000Y-126150000D01*
G75*
G02*
X175602000Y-126400000I0J-250000D01*
G01*
G37*
%TD.AperFunction*%
D14*
%TO.N,AT_SCK*%
X174752000Y-124460000D03*
%TO.N,AT_RESET*%
X174752000Y-121920000D03*
%TO.N,+5V*%
X172212000Y-127000000D03*
%TO.N,AT_MOSI*%
X172212000Y-124460000D03*
%TO.N,GND*%
X172212000Y-121920000D03*
%TD*%
D12*
%TO.N,AT_D7*%
%TO.C,J3*%
X154940000Y-139700000D03*
D13*
%TO.N,AT_D8*%
X158440000Y-139700000D03*
%TO.N,AT_D9*%
X161940000Y-139700000D03*
%TD*%
D12*
%TO.N,AT_A0*%
%TO.C,J4*%
X172720000Y-111760000D03*
D13*
%TO.N,AT_A1*%
X172720000Y-108260000D03*
%TO.N,AT_A2*%
X172720000Y-104760000D03*
%TO.N,AT_A3*%
X172720000Y-101260000D03*
%TO.N,AT_A4*%
X172720000Y-97760000D03*
%TO.N,AT_A5*%
X172720000Y-94260000D03*
%TD*%
%TO.N,3_3_TX_IN*%
%TO.C,J5*%
X138232000Y-91440000D03*
D12*
%TO.N,3_3_RX_IN*%
X141732000Y-91440000D03*
%TD*%
D13*
%TO.N,GND*%
%TO.C,J7*%
X89916000Y-125024000D03*
D12*
%TO.N,12_V_IN*%
X89916000Y-128524000D03*
%TD*%
%TO.N,328_RX*%
%TO.C,J8*%
X155956000Y-91440000D03*
D13*
%TO.N,328_TX*%
X152456000Y-91440000D03*
%TD*%
D15*
%TO.N,AT_RESET*%
%TO.C,U4*%
X156972000Y-98552000D03*
D16*
%TO.N,AT_D9*%
X164592000Y-131572000D03*
%TO.N,328_RX*%
X156972000Y-101092000D03*
%TO.N,AT_CS*%
X164592000Y-129032000D03*
%TO.N,328_TX*%
X156972000Y-103632000D03*
%TO.N,AT_MOSI*%
X164592000Y-126492000D03*
%TO.N,AT_D2*%
X156972000Y-106172000D03*
%TO.N,AT_MISO*%
X164592000Y-123952000D03*
%TO.N,AT_D3*%
X156972000Y-108712000D03*
%TO.N,AT_SCK*%
X164592000Y-121412000D03*
%TO.N,AT_D4*%
X156972000Y-111252000D03*
%TO.N,+5V*%
X164592000Y-118872000D03*
X156972000Y-113792000D03*
X164592000Y-116332000D03*
%TO.N,GND*%
X156972000Y-116332000D03*
X164592000Y-113792000D03*
%TO.N,AT_OSC1*%
X156972000Y-118872000D03*
%TO.N,AT_A0*%
X164592000Y-111252000D03*
%TO.N,AT_OSC2*%
X156972000Y-121412000D03*
%TO.N,AT_A1*%
X164592000Y-108712000D03*
%TO.N,AT_D5*%
X156972000Y-123952000D03*
%TO.N,AT_A2*%
X164592000Y-106172000D03*
%TO.N,AT_D6*%
X156972000Y-126492000D03*
%TO.N,AT_A3*%
X164592000Y-103632000D03*
%TO.N,AT_D7*%
X156972000Y-129032000D03*
%TO.N,AT_A4*%
X164592000Y-101092000D03*
%TO.N,AT_D8*%
X156972000Y-131572000D03*
%TO.N,AT_A5*%
X164592000Y-98552000D03*
%TD*%
D13*
%TO.N,ULN2803_OUT_3*%
%TO.C,J6*%
X121184000Y-140208000D03*
%TO.N,12_V_IN*%
X124684000Y-140208000D03*
%TO.N,ULN2803_OUT_2*%
X128184000Y-140208000D03*
%TO.N,12_V_IN*%
X131684000Y-140208000D03*
%TO.N,ULN2803_OUT_1*%
X135184000Y-140208000D03*
D12*
%TO.N,12_V_IN*%
X138684000Y-140208000D03*
%TD*%
D17*
%TO.N,GND*%
X149923500Y-110680500D03*
X85661500Y-117856000D03*
X105664000Y-102489000D03*
X90868500Y-96393000D03*
X86677500Y-100076000D03*
X86804500Y-104648000D03*
X91059000Y-108267500D03*
X98679000Y-102108000D03*
X101028500Y-113538000D03*
X107442000Y-115824000D03*
X118173500Y-131064000D03*
X109855000Y-128778000D03*
X109728000Y-124460000D03*
X147256500Y-121158000D03*
X139890500Y-125920500D03*
X139509500Y-112585500D03*
X143891000Y-112585500D03*
X129159000Y-105156000D03*
X123190000Y-116649500D03*
X127508000Y-116840000D03*
X98425000Y-106426000D03*
X89217500Y-107759500D03*
X90805000Y-97536000D03*
X87757000Y-103060500D03*
X86677500Y-101092000D03*
X85661500Y-118999000D03*
%TO.N,AT_OSC1*%
X128651000Y-118046500D03*
X134366000Y-118046500D03*
X138430000Y-117792500D03*
X154221101Y-118616439D03*
%TO.N,AT_OSC2*%
X133223000Y-119392000D03*
X155067000Y-121539000D03*
%TO.N,+5V*%
X145288000Y-110744000D03*
X102679500Y-113601500D03*
X95694500Y-99504500D03*
X123825000Y-105219500D03*
X141478000Y-116840000D03*
X136652000Y-131318000D03*
X144399000Y-116903500D03*
X146812000Y-113855500D03*
X153860500Y-113220500D03*
X144843500Y-105029000D03*
X114808000Y-99060000D03*
X152908000Y-111252000D03*
X121793000Y-103187500D03*
X105664000Y-97790000D03*
X95694500Y-99504500D03*
X94869000Y-98679000D03*
X95440500Y-96329500D03*
%TO.N,Net-(J1-Pad2)*%
X97790000Y-104584500D03*
X99394979Y-114808000D03*
%TO.N,AT_MISO*%
X167259000Y-96520000D03*
X167132000Y-124269500D03*
%TO.N,AT_SCK*%
X154241500Y-120142000D03*
X113792000Y-111696500D03*
%TO.N,AT_MOSI*%
X111252000Y-100584000D03*
X111252000Y-100584000D03*
X168338500Y-126492000D03*
%TO.N,AT_D2*%
X116332000Y-118364000D03*
X150368000Y-106172000D03*
%TO.N,AT_D3*%
X122033935Y-114525603D03*
X150368000Y-107696000D03*
%TO.N,AT_D4*%
X124682903Y-115388365D03*
X150368000Y-109220000D03*
%TD*%
D18*
%TO.N,GND*%
X176988396Y-80992241D02*
X177676940Y-81186429D01*
X178318563Y-81502843D01*
X178891777Y-81930882D01*
X179377393Y-82456220D01*
X179759142Y-83061255D01*
X180024237Y-83725720D01*
X180166350Y-84440173D01*
X180188001Y-84853293D01*
X180188000Y-140177744D01*
X180119759Y-140920396D01*
X179925571Y-141608939D01*
X179609158Y-142250561D01*
X179181118Y-142823777D01*
X178655782Y-143309392D01*
X178050748Y-143691141D01*
X177386278Y-143956238D01*
X176671828Y-144098350D01*
X176258726Y-144120000D01*
X88422256Y-144120000D01*
X87679604Y-144051759D01*
X86991061Y-143857571D01*
X86349439Y-143541158D01*
X85776223Y-143113118D01*
X85290608Y-142587782D01*
X84908859Y-141982748D01*
X84643762Y-141318278D01*
X84501650Y-140603828D01*
X84480000Y-140190726D01*
X84480000Y-138197945D01*
X84981000Y-138197945D01*
X84981000Y-139170055D01*
X85170650Y-140123486D01*
X85542660Y-141021599D01*
X86082735Y-141829879D01*
X86770121Y-142517265D01*
X87578401Y-143057340D01*
X88476514Y-143429350D01*
X89429945Y-143619000D01*
X90402055Y-143619000D01*
X91355486Y-143429350D01*
X92253599Y-143057340D01*
X93061879Y-142517265D01*
X93749265Y-141829879D01*
X94289340Y-141021599D01*
X94661350Y-140123486D01*
X94851000Y-139170055D01*
X94851000Y-138500000D01*
X99761928Y-138500000D01*
X99761928Y-140900000D01*
X99774188Y-141024482D01*
X99810498Y-141144180D01*
X99869463Y-141254494D01*
X99948815Y-141351185D01*
X100045506Y-141430537D01*
X100155820Y-141489502D01*
X100275518Y-141525812D01*
X100400000Y-141538072D01*
X102800000Y-141538072D01*
X102924482Y-141525812D01*
X103044180Y-141489502D01*
X103154494Y-141430537D01*
X103251185Y-141351185D01*
X103330537Y-141254494D01*
X103389502Y-141144180D01*
X103425812Y-141024482D01*
X103438072Y-140900000D01*
X103438072Y-140482838D01*
X103473844Y-140569199D01*
X103674662Y-140869744D01*
X103930256Y-141125338D01*
X104230801Y-141326156D01*
X104564750Y-141464482D01*
X104919268Y-141535000D01*
X105280732Y-141535000D01*
X105635250Y-141464482D01*
X105969199Y-141326156D01*
X106269744Y-141125338D01*
X106525338Y-140869744D01*
X106726156Y-140569199D01*
X106864482Y-140235250D01*
X106905852Y-140027268D01*
X119349000Y-140027268D01*
X119349000Y-140388732D01*
X119419518Y-140743250D01*
X119557844Y-141077199D01*
X119758662Y-141377744D01*
X120014256Y-141633338D01*
X120314801Y-141834156D01*
X120648750Y-141972482D01*
X121003268Y-142043000D01*
X121364732Y-142043000D01*
X121719250Y-141972482D01*
X122053199Y-141834156D01*
X122353744Y-141633338D01*
X122609338Y-141377744D01*
X122810156Y-141077199D01*
X122934000Y-140778213D01*
X123057844Y-141077199D01*
X123258662Y-141377744D01*
X123514256Y-141633338D01*
X123814801Y-141834156D01*
X124148750Y-141972482D01*
X124503268Y-142043000D01*
X124864732Y-142043000D01*
X125219250Y-141972482D01*
X125553199Y-141834156D01*
X125853744Y-141633338D01*
X126109338Y-141377744D01*
X126310156Y-141077199D01*
X126434000Y-140778213D01*
X126557844Y-141077199D01*
X126758662Y-141377744D01*
X127014256Y-141633338D01*
X127314801Y-141834156D01*
X127648750Y-141972482D01*
X128003268Y-142043000D01*
X128364732Y-142043000D01*
X128719250Y-141972482D01*
X129053199Y-141834156D01*
X129353744Y-141633338D01*
X129609338Y-141377744D01*
X129810156Y-141077199D01*
X129934000Y-140778213D01*
X130057844Y-141077199D01*
X130258662Y-141377744D01*
X130514256Y-141633338D01*
X130814801Y-141834156D01*
X131148750Y-141972482D01*
X131503268Y-142043000D01*
X131864732Y-142043000D01*
X132219250Y-141972482D01*
X132553199Y-141834156D01*
X132853744Y-141633338D01*
X133109338Y-141377744D01*
X133310156Y-141077199D01*
X133434000Y-140778213D01*
X133557844Y-141077199D01*
X133758662Y-141377744D01*
X134014256Y-141633338D01*
X134314801Y-141834156D01*
X134648750Y-141972482D01*
X135003268Y-142043000D01*
X135364732Y-142043000D01*
X135719250Y-141972482D01*
X136053199Y-141834156D01*
X136353744Y-141633338D01*
X136609338Y-141377744D01*
X136810156Y-141077199D01*
X136845928Y-140990838D01*
X136845928Y-141408000D01*
X136858188Y-141532482D01*
X136894498Y-141652180D01*
X136953463Y-141762494D01*
X137032815Y-141859185D01*
X137129506Y-141938537D01*
X137239820Y-141997502D01*
X137359518Y-142033812D01*
X137484000Y-142046072D01*
X139884000Y-142046072D01*
X140008482Y-142033812D01*
X140128180Y-141997502D01*
X140238494Y-141938537D01*
X140335185Y-141859185D01*
X140414537Y-141762494D01*
X140473502Y-141652180D01*
X140509812Y-141532482D01*
X140522072Y-141408000D01*
X140522072Y-139008000D01*
X140509812Y-138883518D01*
X140473502Y-138763820D01*
X140414537Y-138653506D01*
X140335185Y-138556815D01*
X140265956Y-138500000D01*
X153101928Y-138500000D01*
X153101928Y-140900000D01*
X153114188Y-141024482D01*
X153150498Y-141144180D01*
X153209463Y-141254494D01*
X153288815Y-141351185D01*
X153385506Y-141430537D01*
X153495820Y-141489502D01*
X153615518Y-141525812D01*
X153740000Y-141538072D01*
X156140000Y-141538072D01*
X156264482Y-141525812D01*
X156384180Y-141489502D01*
X156494494Y-141430537D01*
X156591185Y-141351185D01*
X156670537Y-141254494D01*
X156729502Y-141144180D01*
X156765812Y-141024482D01*
X156778072Y-140900000D01*
X156778072Y-140482838D01*
X156813844Y-140569199D01*
X157014662Y-140869744D01*
X157270256Y-141125338D01*
X157570801Y-141326156D01*
X157904750Y-141464482D01*
X158259268Y-141535000D01*
X158620732Y-141535000D01*
X158975250Y-141464482D01*
X159309199Y-141326156D01*
X159609744Y-141125338D01*
X159865338Y-140869744D01*
X160066156Y-140569199D01*
X160190000Y-140270213D01*
X160313844Y-140569199D01*
X160514662Y-140869744D01*
X160770256Y-141125338D01*
X161070801Y-141326156D01*
X161404750Y-141464482D01*
X161759268Y-141535000D01*
X162120732Y-141535000D01*
X162475250Y-141464482D01*
X162809199Y-141326156D01*
X163109744Y-141125338D01*
X163365338Y-140869744D01*
X163465467Y-140719890D01*
X166258548Y-140719890D01*
X166258548Y-140966110D01*
X166306583Y-141207598D01*
X166400807Y-141435074D01*
X166537599Y-141639798D01*
X166711702Y-141813901D01*
X166916426Y-141950693D01*
X167143902Y-142044917D01*
X167385390Y-142092952D01*
X167631610Y-142092952D01*
X167873098Y-142044917D01*
X168100574Y-141950693D01*
X168305298Y-141813901D01*
X168479401Y-141639798D01*
X168616193Y-141435074D01*
X168710417Y-141207598D01*
X168758452Y-140966110D01*
X168758452Y-140719890D01*
X168710417Y-140478402D01*
X168616193Y-140250926D01*
X168479401Y-140046202D01*
X168305298Y-139872099D01*
X168100574Y-139735307D01*
X167873098Y-139641083D01*
X167631610Y-139593048D01*
X167385390Y-139593048D01*
X167143902Y-139641083D01*
X166916426Y-139735307D01*
X166711702Y-139872099D01*
X166537599Y-140046202D01*
X166400807Y-140250926D01*
X166306583Y-140478402D01*
X166258548Y-140719890D01*
X163465467Y-140719890D01*
X163566156Y-140569199D01*
X163704482Y-140235250D01*
X163775000Y-139880732D01*
X163775000Y-139519268D01*
X163704482Y-139164750D01*
X163566156Y-138830801D01*
X163365338Y-138530256D01*
X163109744Y-138274662D01*
X162994930Y-138197945D01*
X169817000Y-138197945D01*
X169817000Y-139170055D01*
X170006650Y-140123486D01*
X170378660Y-141021599D01*
X170918735Y-141829879D01*
X171606121Y-142517265D01*
X172414401Y-143057340D01*
X173312514Y-143429350D01*
X174265945Y-143619000D01*
X175238055Y-143619000D01*
X176191486Y-143429350D01*
X177089599Y-143057340D01*
X177897879Y-142517265D01*
X178585265Y-141829879D01*
X179125340Y-141021599D01*
X179497350Y-140123486D01*
X179687000Y-139170055D01*
X179687000Y-138197945D01*
X179497350Y-137244514D01*
X179125340Y-136346401D01*
X178585265Y-135538121D01*
X177897879Y-134850735D01*
X177089599Y-134310660D01*
X176191486Y-133938650D01*
X175238055Y-133749000D01*
X174265945Y-133749000D01*
X173312514Y-133938650D01*
X172414401Y-134310660D01*
X171606121Y-134850735D01*
X170918735Y-135538121D01*
X170378660Y-136346401D01*
X170006650Y-137244514D01*
X169817000Y-138197945D01*
X162994930Y-138197945D01*
X162809199Y-138073844D01*
X162475250Y-137935518D01*
X162120732Y-137865000D01*
X161759268Y-137865000D01*
X161404750Y-137935518D01*
X161070801Y-138073844D01*
X160770256Y-138274662D01*
X160514662Y-138530256D01*
X160313844Y-138830801D01*
X160190000Y-139129787D01*
X160066156Y-138830801D01*
X159865338Y-138530256D01*
X159609744Y-138274662D01*
X159309199Y-138073844D01*
X158975250Y-137935518D01*
X158620732Y-137865000D01*
X158259268Y-137865000D01*
X157904750Y-137935518D01*
X157570801Y-138073844D01*
X157270256Y-138274662D01*
X157014662Y-138530256D01*
X156813844Y-138830801D01*
X156778072Y-138917162D01*
X156778072Y-138500000D01*
X156765812Y-138375518D01*
X156729502Y-138255820D01*
X156670537Y-138145506D01*
X156591185Y-138048815D01*
X156494494Y-137969463D01*
X156384180Y-137910498D01*
X156264482Y-137874188D01*
X156140000Y-137861928D01*
X153740000Y-137861928D01*
X153615518Y-137874188D01*
X153495820Y-137910498D01*
X153385506Y-137969463D01*
X153288815Y-138048815D01*
X153209463Y-138145506D01*
X153150498Y-138255820D01*
X153114188Y-138375518D01*
X153101928Y-138500000D01*
X140265956Y-138500000D01*
X140238494Y-138477463D01*
X140128180Y-138418498D01*
X140008482Y-138382188D01*
X139884000Y-138369928D01*
X137484000Y-138369928D01*
X137359518Y-138382188D01*
X137239820Y-138418498D01*
X137129506Y-138477463D01*
X137032815Y-138556815D01*
X136953463Y-138653506D01*
X136894498Y-138763820D01*
X136858188Y-138883518D01*
X136845928Y-139008000D01*
X136845928Y-139425162D01*
X136810156Y-139338801D01*
X136609338Y-139038256D01*
X136353744Y-138782662D01*
X136053199Y-138581844D01*
X135719250Y-138443518D01*
X135364732Y-138373000D01*
X135003268Y-138373000D01*
X134648750Y-138443518D01*
X134314801Y-138581844D01*
X134014256Y-138782662D01*
X133758662Y-139038256D01*
X133557844Y-139338801D01*
X133434000Y-139637787D01*
X133310156Y-139338801D01*
X133109338Y-139038256D01*
X132853744Y-138782662D01*
X132553199Y-138581844D01*
X132219250Y-138443518D01*
X131864732Y-138373000D01*
X131503268Y-138373000D01*
X131148750Y-138443518D01*
X130814801Y-138581844D01*
X130514256Y-138782662D01*
X130258662Y-139038256D01*
X130057844Y-139338801D01*
X129934000Y-139637787D01*
X129810156Y-139338801D01*
X129609338Y-139038256D01*
X129353744Y-138782662D01*
X129053199Y-138581844D01*
X128719250Y-138443518D01*
X128364732Y-138373000D01*
X128003268Y-138373000D01*
X127648750Y-138443518D01*
X127314801Y-138581844D01*
X127014256Y-138782662D01*
X126758662Y-139038256D01*
X126557844Y-139338801D01*
X126434000Y-139637787D01*
X126310156Y-139338801D01*
X126109338Y-139038256D01*
X125853744Y-138782662D01*
X125553199Y-138581844D01*
X125219250Y-138443518D01*
X124864732Y-138373000D01*
X124503268Y-138373000D01*
X124148750Y-138443518D01*
X123814801Y-138581844D01*
X123514256Y-138782662D01*
X123258662Y-139038256D01*
X123057844Y-139338801D01*
X122934000Y-139637787D01*
X122810156Y-139338801D01*
X122609338Y-139038256D01*
X122353744Y-138782662D01*
X122053199Y-138581844D01*
X121719250Y-138443518D01*
X121364732Y-138373000D01*
X121003268Y-138373000D01*
X120648750Y-138443518D01*
X120314801Y-138581844D01*
X120014256Y-138782662D01*
X119758662Y-139038256D01*
X119557844Y-139338801D01*
X119419518Y-139672750D01*
X119349000Y-140027268D01*
X106905852Y-140027268D01*
X106935000Y-139880732D01*
X106935000Y-139519268D01*
X106864482Y-139164750D01*
X106726156Y-138830801D01*
X106525338Y-138530256D01*
X106269744Y-138274662D01*
X105969199Y-138073844D01*
X105635250Y-137935518D01*
X105280732Y-137865000D01*
X104919268Y-137865000D01*
X104564750Y-137935518D01*
X104230801Y-138073844D01*
X103930256Y-138274662D01*
X103674662Y-138530256D01*
X103473844Y-138830801D01*
X103438072Y-138917162D01*
X103438072Y-138500000D01*
X103425812Y-138375518D01*
X103389502Y-138255820D01*
X103330537Y-138145506D01*
X103251185Y-138048815D01*
X103154494Y-137969463D01*
X103044180Y-137910498D01*
X102924482Y-137874188D01*
X102800000Y-137861928D01*
X100400000Y-137861928D01*
X100275518Y-137874188D01*
X100155820Y-137910498D01*
X100045506Y-137969463D01*
X99948815Y-138048815D01*
X99869463Y-138145506D01*
X99810498Y-138255820D01*
X99774188Y-138375518D01*
X99761928Y-138500000D01*
X94851000Y-138500000D01*
X94851000Y-138197945D01*
X94661350Y-137244514D01*
X94289340Y-136346401D01*
X93749265Y-135538121D01*
X93061879Y-134850735D01*
X92253599Y-134310660D01*
X91355486Y-133938650D01*
X90402055Y-133749000D01*
X89429945Y-133749000D01*
X88476514Y-133938650D01*
X87578401Y-134310660D01*
X86770121Y-134850735D01*
X86082735Y-135538121D01*
X85542660Y-136346401D01*
X85170650Y-137244514D01*
X84981000Y-138197945D01*
X84480000Y-138197945D01*
X84480000Y-131216061D01*
X135617000Y-131216061D01*
X135617000Y-131419939D01*
X135656774Y-131619898D01*
X135734795Y-131808256D01*
X135848063Y-131977774D01*
X135992226Y-132121937D01*
X136161744Y-132235205D01*
X136350102Y-132313226D01*
X136550061Y-132353000D01*
X136753939Y-132353000D01*
X136953898Y-132313226D01*
X137142256Y-132235205D01*
X137311774Y-132121937D01*
X137455937Y-131977774D01*
X137569205Y-131808256D01*
X137647226Y-131619898D01*
X137687000Y-131419939D01*
X137687000Y-131216061D01*
X137647226Y-131016102D01*
X137569205Y-130827744D01*
X137455937Y-130658226D01*
X137311774Y-130514063D01*
X137142256Y-130400795D01*
X136953898Y-130322774D01*
X136753939Y-130283000D01*
X136550061Y-130283000D01*
X136350102Y-130322774D01*
X136161744Y-130400795D01*
X135992226Y-130514063D01*
X135848063Y-130658226D01*
X135734795Y-130827744D01*
X135656774Y-131016102D01*
X135617000Y-131216061D01*
X84480000Y-131216061D01*
X84480000Y-127324000D01*
X88077928Y-127324000D01*
X88077928Y-129724000D01*
X88090188Y-129848482D01*
X88126498Y-129968180D01*
X88185463Y-130078494D01*
X88264815Y-130175185D01*
X88361506Y-130254537D01*
X88471820Y-130313502D01*
X88591518Y-130349812D01*
X88716000Y-130362072D01*
X91116000Y-130362072D01*
X91240482Y-130349812D01*
X91360180Y-130313502D01*
X91470494Y-130254537D01*
X91567185Y-130175185D01*
X91646537Y-130078494D01*
X91705502Y-129968180D01*
X91741812Y-129848482D01*
X91754072Y-129724000D01*
X91754072Y-127324000D01*
X91741812Y-127199518D01*
X91705502Y-127079820D01*
X91646537Y-126969506D01*
X91567185Y-126872815D01*
X91470494Y-126793463D01*
X91360180Y-126734498D01*
X91240482Y-126698188D01*
X91116000Y-126685928D01*
X90709097Y-126685928D01*
X90894486Y-126586836D01*
X91014374Y-126301980D01*
X89916000Y-125203605D01*
X88817626Y-126301980D01*
X88937514Y-126586836D01*
X89136912Y-126685928D01*
X88716000Y-126685928D01*
X88591518Y-126698188D01*
X88471820Y-126734498D01*
X88361506Y-126793463D01*
X88264815Y-126872815D01*
X88185463Y-126969506D01*
X88126498Y-127079820D01*
X88090188Y-127199518D01*
X88077928Y-127324000D01*
X84480000Y-127324000D01*
X84480000Y-125078684D01*
X88072933Y-125078684D01*
X88119015Y-125437198D01*
X88234154Y-125779833D01*
X88353164Y-126002486D01*
X88638020Y-126122374D01*
X89736395Y-125024000D01*
X90095605Y-125024000D01*
X91193980Y-126122374D01*
X91478836Y-126002486D01*
X91639699Y-125678790D01*
X91734322Y-125329931D01*
X91759067Y-124969316D01*
X91712985Y-124610802D01*
X91597846Y-124268167D01*
X91478836Y-124045514D01*
X91193980Y-123925626D01*
X90095605Y-125024000D01*
X89736395Y-125024000D01*
X88638020Y-123925626D01*
X88353164Y-124045514D01*
X88192301Y-124369210D01*
X88097678Y-124718069D01*
X88072933Y-125078684D01*
X84480000Y-125078684D01*
X84480000Y-123746020D01*
X88817626Y-123746020D01*
X89916000Y-124844395D01*
X91014374Y-123746020D01*
X90894486Y-123461164D01*
X90570790Y-123300301D01*
X90221931Y-123205678D01*
X89861316Y-123180933D01*
X89502802Y-123227015D01*
X89160167Y-123342154D01*
X88937514Y-123461164D01*
X88817626Y-123746020D01*
X84480000Y-123746020D01*
X84480000Y-118262061D01*
X115297000Y-118262061D01*
X115297000Y-118465939D01*
X115336774Y-118665898D01*
X115414795Y-118854256D01*
X115528063Y-119023774D01*
X115672226Y-119167937D01*
X115841744Y-119281205D01*
X116030102Y-119359226D01*
X116230061Y-119399000D01*
X116433939Y-119399000D01*
X116633898Y-119359226D01*
X116800875Y-119290061D01*
X132188000Y-119290061D01*
X132188000Y-119493939D01*
X132227774Y-119693898D01*
X132305795Y-119882256D01*
X132419063Y-120051774D01*
X132563226Y-120195937D01*
X132732744Y-120309205D01*
X132921102Y-120387226D01*
X133121061Y-120427000D01*
X133324939Y-120427000D01*
X133524898Y-120387226D01*
X133713256Y-120309205D01*
X133882774Y-120195937D01*
X134026937Y-120051774D01*
X134140205Y-119882256D01*
X134218226Y-119693898D01*
X134258000Y-119493939D01*
X134258000Y-119290061D01*
X134218226Y-119090102D01*
X134210227Y-119070792D01*
X134264061Y-119081500D01*
X134467939Y-119081500D01*
X134667898Y-119041726D01*
X134856256Y-118963705D01*
X135025774Y-118850437D01*
X135169937Y-118706274D01*
X135283205Y-118536756D01*
X135361226Y-118348398D01*
X135401000Y-118148439D01*
X135401000Y-117944561D01*
X135361226Y-117744602D01*
X135338842Y-117690561D01*
X137395000Y-117690561D01*
X137395000Y-117894439D01*
X137434774Y-118094398D01*
X137512795Y-118282756D01*
X137626063Y-118452274D01*
X137770226Y-118596437D01*
X137939744Y-118709705D01*
X138128102Y-118787726D01*
X138328061Y-118827500D01*
X138531939Y-118827500D01*
X138731898Y-118787726D01*
X138920256Y-118709705D01*
X139089774Y-118596437D01*
X139171711Y-118514500D01*
X153186101Y-118514500D01*
X153186101Y-118718378D01*
X153225875Y-118918337D01*
X153303896Y-119106695D01*
X153417164Y-119276213D01*
X153530370Y-119389419D01*
X153437563Y-119482226D01*
X153324295Y-119651744D01*
X153246274Y-119840102D01*
X153206500Y-120040061D01*
X153206500Y-120243939D01*
X153246274Y-120443898D01*
X153324295Y-120632256D01*
X153437563Y-120801774D01*
X153581726Y-120945937D01*
X153751244Y-121059205D01*
X153939602Y-121137226D01*
X154099934Y-121169118D01*
X154071774Y-121237102D01*
X154032000Y-121437061D01*
X154032000Y-121640939D01*
X154071774Y-121840898D01*
X154149795Y-122029256D01*
X154263063Y-122198774D01*
X154407226Y-122342937D01*
X154576744Y-122456205D01*
X154765102Y-122534226D01*
X154965061Y-122574000D01*
X155168939Y-122574000D01*
X155368898Y-122534226D01*
X155557256Y-122456205D01*
X155726774Y-122342937D01*
X155811536Y-122258175D01*
X155857363Y-122326759D01*
X156057241Y-122526637D01*
X156289759Y-122682000D01*
X156057241Y-122837363D01*
X155857363Y-123037241D01*
X155700320Y-123272273D01*
X155592147Y-123533426D01*
X155537000Y-123810665D01*
X155537000Y-124093335D01*
X155592147Y-124370574D01*
X155700320Y-124631727D01*
X155857363Y-124866759D01*
X156057241Y-125066637D01*
X156289759Y-125222000D01*
X156057241Y-125377363D01*
X155857363Y-125577241D01*
X155700320Y-125812273D01*
X155592147Y-126073426D01*
X155537000Y-126350665D01*
X155537000Y-126633335D01*
X155592147Y-126910574D01*
X155700320Y-127171727D01*
X155857363Y-127406759D01*
X156057241Y-127606637D01*
X156289759Y-127762000D01*
X156057241Y-127917363D01*
X155857363Y-128117241D01*
X155700320Y-128352273D01*
X155592147Y-128613426D01*
X155537000Y-128890665D01*
X155537000Y-129173335D01*
X155592147Y-129450574D01*
X155700320Y-129711727D01*
X155857363Y-129946759D01*
X156057241Y-130146637D01*
X156289759Y-130302000D01*
X156057241Y-130457363D01*
X155857363Y-130657241D01*
X155700320Y-130892273D01*
X155592147Y-131153426D01*
X155537000Y-131430665D01*
X155537000Y-131713335D01*
X155592147Y-131990574D01*
X155700320Y-132251727D01*
X155857363Y-132486759D01*
X156057241Y-132686637D01*
X156292273Y-132843680D01*
X156553426Y-132951853D01*
X156830665Y-133007000D01*
X157113335Y-133007000D01*
X157390574Y-132951853D01*
X157651727Y-132843680D01*
X157886759Y-132686637D01*
X158086637Y-132486759D01*
X158243680Y-132251727D01*
X158351853Y-131990574D01*
X158407000Y-131713335D01*
X158407000Y-131430665D01*
X158351853Y-131153426D01*
X158243680Y-130892273D01*
X158086637Y-130657241D01*
X157886759Y-130457363D01*
X157654241Y-130302000D01*
X157886759Y-130146637D01*
X158086637Y-129946759D01*
X158243680Y-129711727D01*
X158351853Y-129450574D01*
X158407000Y-129173335D01*
X158407000Y-128890665D01*
X158351853Y-128613426D01*
X158243680Y-128352273D01*
X158086637Y-128117241D01*
X157886759Y-127917363D01*
X157654241Y-127762000D01*
X157886759Y-127606637D01*
X158086637Y-127406759D01*
X158243680Y-127171727D01*
X158351853Y-126910574D01*
X158407000Y-126633335D01*
X158407000Y-126350665D01*
X158351853Y-126073426D01*
X158243680Y-125812273D01*
X158086637Y-125577241D01*
X157886759Y-125377363D01*
X157654241Y-125222000D01*
X157886759Y-125066637D01*
X158086637Y-124866759D01*
X158243680Y-124631727D01*
X158351853Y-124370574D01*
X158407000Y-124093335D01*
X158407000Y-123810665D01*
X158351853Y-123533426D01*
X158243680Y-123272273D01*
X158086637Y-123037241D01*
X157886759Y-122837363D01*
X157654241Y-122682000D01*
X157886759Y-122526637D01*
X158086637Y-122326759D01*
X158243680Y-122091727D01*
X158351853Y-121830574D01*
X158407000Y-121553335D01*
X158407000Y-121270665D01*
X158351853Y-120993426D01*
X158243680Y-120732273D01*
X158086637Y-120497241D01*
X157886759Y-120297363D01*
X157654241Y-120142000D01*
X157886759Y-119986637D01*
X158086637Y-119786759D01*
X158243680Y-119551727D01*
X158351853Y-119290574D01*
X158407000Y-119013335D01*
X158407000Y-118730665D01*
X158351853Y-118453426D01*
X158243680Y-118192273D01*
X158086637Y-117957241D01*
X157886759Y-117757363D01*
X157651727Y-117600320D01*
X157641135Y-117595933D01*
X157827131Y-117484385D01*
X158035519Y-117295414D01*
X158203037Y-117069420D01*
X158323246Y-116815087D01*
X158363904Y-116681039D01*
X158241915Y-116459000D01*
X157099000Y-116459000D01*
X157099000Y-116479000D01*
X156845000Y-116479000D01*
X156845000Y-116459000D01*
X155702085Y-116459000D01*
X155580096Y-116681039D01*
X155620754Y-116815087D01*
X155740963Y-117069420D01*
X155908481Y-117295414D01*
X156116869Y-117484385D01*
X156302865Y-117595933D01*
X156292273Y-117600320D01*
X156057241Y-117757363D01*
X155857363Y-117957241D01*
X155700320Y-118192273D01*
X155592147Y-118453426D01*
X155537000Y-118730665D01*
X155537000Y-119013335D01*
X155592147Y-119290574D01*
X155700320Y-119551727D01*
X155857363Y-119786759D01*
X156057241Y-119986637D01*
X156289759Y-120142000D01*
X156057241Y-120297363D01*
X155857363Y-120497241D01*
X155707196Y-120721982D01*
X155557256Y-120621795D01*
X155368898Y-120543774D01*
X155208566Y-120511882D01*
X155236726Y-120443898D01*
X155276500Y-120243939D01*
X155276500Y-120040061D01*
X155236726Y-119840102D01*
X155158705Y-119651744D01*
X155045437Y-119482226D01*
X154932231Y-119369020D01*
X155025038Y-119276213D01*
X155138306Y-119106695D01*
X155216327Y-118918337D01*
X155256101Y-118718378D01*
X155256101Y-118514500D01*
X155216327Y-118314541D01*
X155138306Y-118126183D01*
X155025038Y-117956665D01*
X154880875Y-117812502D01*
X154711357Y-117699234D01*
X154522999Y-117621213D01*
X154323040Y-117581439D01*
X154119162Y-117581439D01*
X153919203Y-117621213D01*
X153730845Y-117699234D01*
X153561327Y-117812502D01*
X153417164Y-117956665D01*
X153303896Y-118126183D01*
X153225875Y-118314541D01*
X153186101Y-118514500D01*
X139171711Y-118514500D01*
X139233937Y-118452274D01*
X139347205Y-118282756D01*
X139425226Y-118094398D01*
X139465000Y-117894439D01*
X139465000Y-117690561D01*
X139425226Y-117490602D01*
X139347205Y-117302244D01*
X139233937Y-117132726D01*
X139089774Y-116988563D01*
X138920256Y-116875295D01*
X138731898Y-116797274D01*
X138531939Y-116757500D01*
X138328061Y-116757500D01*
X138128102Y-116797274D01*
X137939744Y-116875295D01*
X137770226Y-116988563D01*
X137626063Y-117132726D01*
X137512795Y-117302244D01*
X137434774Y-117490602D01*
X137395000Y-117690561D01*
X135338842Y-117690561D01*
X135283205Y-117556244D01*
X135169937Y-117386726D01*
X135025774Y-117242563D01*
X134856256Y-117129295D01*
X134667898Y-117051274D01*
X134467939Y-117011500D01*
X134264061Y-117011500D01*
X134064102Y-117051274D01*
X133875744Y-117129295D01*
X133706226Y-117242563D01*
X133562063Y-117386726D01*
X133448795Y-117556244D01*
X133370774Y-117744602D01*
X133331000Y-117944561D01*
X133331000Y-118148439D01*
X133370774Y-118348398D01*
X133378773Y-118367708D01*
X133324939Y-118357000D01*
X133121061Y-118357000D01*
X132921102Y-118396774D01*
X132732744Y-118474795D01*
X132563226Y-118588063D01*
X132419063Y-118732226D01*
X132305795Y-118901744D01*
X132227774Y-119090102D01*
X132188000Y-119290061D01*
X116800875Y-119290061D01*
X116822256Y-119281205D01*
X116991774Y-119167937D01*
X117135937Y-119023774D01*
X117249205Y-118854256D01*
X117327226Y-118665898D01*
X117367000Y-118465939D01*
X117367000Y-118262061D01*
X117327226Y-118062102D01*
X117278539Y-117944561D01*
X127616000Y-117944561D01*
X127616000Y-118148439D01*
X127655774Y-118348398D01*
X127733795Y-118536756D01*
X127847063Y-118706274D01*
X127991226Y-118850437D01*
X128160744Y-118963705D01*
X128349102Y-119041726D01*
X128549061Y-119081500D01*
X128752939Y-119081500D01*
X128952898Y-119041726D01*
X129141256Y-118963705D01*
X129310774Y-118850437D01*
X129454937Y-118706274D01*
X129568205Y-118536756D01*
X129646226Y-118348398D01*
X129686000Y-118148439D01*
X129686000Y-117944561D01*
X129646226Y-117744602D01*
X129568205Y-117556244D01*
X129454937Y-117386726D01*
X129310774Y-117242563D01*
X129141256Y-117129295D01*
X128952898Y-117051274D01*
X128752939Y-117011500D01*
X128549061Y-117011500D01*
X128349102Y-117051274D01*
X128160744Y-117129295D01*
X127991226Y-117242563D01*
X127847063Y-117386726D01*
X127733795Y-117556244D01*
X127655774Y-117744602D01*
X127616000Y-117944561D01*
X117278539Y-117944561D01*
X117249205Y-117873744D01*
X117135937Y-117704226D01*
X116991774Y-117560063D01*
X116822256Y-117446795D01*
X116633898Y-117368774D01*
X116433939Y-117329000D01*
X116230061Y-117329000D01*
X116030102Y-117368774D01*
X115841744Y-117446795D01*
X115672226Y-117560063D01*
X115528063Y-117704226D01*
X115414795Y-117873744D01*
X115336774Y-118062102D01*
X115297000Y-118262061D01*
X84480000Y-118262061D01*
X84480000Y-116738061D01*
X140443000Y-116738061D01*
X140443000Y-116941939D01*
X140482774Y-117141898D01*
X140560795Y-117330256D01*
X140674063Y-117499774D01*
X140818226Y-117643937D01*
X140987744Y-117757205D01*
X141176102Y-117835226D01*
X141376061Y-117875000D01*
X141579939Y-117875000D01*
X141779898Y-117835226D01*
X141968256Y-117757205D01*
X142137774Y-117643937D01*
X142281937Y-117499774D01*
X142395205Y-117330256D01*
X142473226Y-117141898D01*
X142513000Y-116941939D01*
X142513000Y-116801561D01*
X143364000Y-116801561D01*
X143364000Y-117005439D01*
X143403774Y-117205398D01*
X143481795Y-117393756D01*
X143595063Y-117563274D01*
X143739226Y-117707437D01*
X143908744Y-117820705D01*
X144097102Y-117898726D01*
X144297061Y-117938500D01*
X144500939Y-117938500D01*
X144700898Y-117898726D01*
X144889256Y-117820705D01*
X145058774Y-117707437D01*
X145202937Y-117563274D01*
X145316205Y-117393756D01*
X145394226Y-117205398D01*
X145434000Y-117005439D01*
X145434000Y-116801561D01*
X145394226Y-116601602D01*
X145316205Y-116413244D01*
X145202937Y-116243726D01*
X145058774Y-116099563D01*
X144889256Y-115986295D01*
X144700898Y-115908274D01*
X144500939Y-115868500D01*
X144297061Y-115868500D01*
X144097102Y-115908274D01*
X143908744Y-115986295D01*
X143739226Y-116099563D01*
X143595063Y-116243726D01*
X143481795Y-116413244D01*
X143403774Y-116601602D01*
X143364000Y-116801561D01*
X142513000Y-116801561D01*
X142513000Y-116738061D01*
X142473226Y-116538102D01*
X142395205Y-116349744D01*
X142281937Y-116180226D01*
X142137774Y-116036063D01*
X141968256Y-115922795D01*
X141779898Y-115844774D01*
X141579939Y-115805000D01*
X141376061Y-115805000D01*
X141176102Y-115844774D01*
X140987744Y-115922795D01*
X140818226Y-116036063D01*
X140674063Y-116180226D01*
X140560795Y-116349744D01*
X140482774Y-116538102D01*
X140443000Y-116738061D01*
X84480000Y-116738061D01*
X84480000Y-114706061D01*
X98359979Y-114706061D01*
X98359979Y-114909939D01*
X98399753Y-115109898D01*
X98477774Y-115298256D01*
X98591042Y-115467774D01*
X98735205Y-115611937D01*
X98904723Y-115725205D01*
X99093081Y-115803226D01*
X99293040Y-115843000D01*
X99496918Y-115843000D01*
X99696877Y-115803226D01*
X99885235Y-115725205D01*
X100054753Y-115611937D01*
X100198916Y-115467774D01*
X100312184Y-115298256D01*
X100390205Y-115109898D01*
X100429979Y-114909939D01*
X100429979Y-114706061D01*
X100390205Y-114506102D01*
X100312184Y-114317744D01*
X100198916Y-114148226D01*
X100054753Y-114004063D01*
X99885235Y-113890795D01*
X99696877Y-113812774D01*
X99496918Y-113773000D01*
X99293040Y-113773000D01*
X99093081Y-113812774D01*
X98904723Y-113890795D01*
X98735205Y-114004063D01*
X98591042Y-114148226D01*
X98477774Y-114317744D01*
X98399753Y-114506102D01*
X98359979Y-114706061D01*
X84480000Y-114706061D01*
X84480000Y-113499561D01*
X101644500Y-113499561D01*
X101644500Y-113703439D01*
X101684274Y-113903398D01*
X101762295Y-114091756D01*
X101875563Y-114261274D01*
X102019726Y-114405437D01*
X102189244Y-114518705D01*
X102377602Y-114596726D01*
X102577561Y-114636500D01*
X102781439Y-114636500D01*
X102981398Y-114596726D01*
X103169756Y-114518705D01*
X103311995Y-114423664D01*
X120998935Y-114423664D01*
X120998935Y-114627542D01*
X121038709Y-114827501D01*
X121116730Y-115015859D01*
X121229998Y-115185377D01*
X121374161Y-115329540D01*
X121543679Y-115442808D01*
X121732037Y-115520829D01*
X121931996Y-115560603D01*
X122135874Y-115560603D01*
X122335833Y-115520829D01*
X122524191Y-115442808D01*
X122693709Y-115329540D01*
X122736823Y-115286426D01*
X123647903Y-115286426D01*
X123647903Y-115490304D01*
X123687677Y-115690263D01*
X123765698Y-115878621D01*
X123878966Y-116048139D01*
X124023129Y-116192302D01*
X124192647Y-116305570D01*
X124381005Y-116383591D01*
X124580964Y-116423365D01*
X124784842Y-116423365D01*
X124984801Y-116383591D01*
X125173159Y-116305570D01*
X125342677Y-116192302D01*
X125486840Y-116048139D01*
X125600108Y-115878621D01*
X125678129Y-115690263D01*
X125717903Y-115490304D01*
X125717903Y-115286426D01*
X125678129Y-115086467D01*
X125600108Y-114898109D01*
X125486840Y-114728591D01*
X125342677Y-114584428D01*
X125173159Y-114471160D01*
X124984801Y-114393139D01*
X124784842Y-114353365D01*
X124580964Y-114353365D01*
X124381005Y-114393139D01*
X124192647Y-114471160D01*
X124023129Y-114584428D01*
X123878966Y-114728591D01*
X123765698Y-114898109D01*
X123687677Y-115086467D01*
X123647903Y-115286426D01*
X122736823Y-115286426D01*
X122837872Y-115185377D01*
X122951140Y-115015859D01*
X123029161Y-114827501D01*
X123068935Y-114627542D01*
X123068935Y-114423664D01*
X123029161Y-114223705D01*
X122951140Y-114035347D01*
X122837872Y-113865829D01*
X122725604Y-113753561D01*
X145777000Y-113753561D01*
X145777000Y-113957439D01*
X145816774Y-114157398D01*
X145894795Y-114345756D01*
X146008063Y-114515274D01*
X146152226Y-114659437D01*
X146321744Y-114772705D01*
X146510102Y-114850726D01*
X146710061Y-114890500D01*
X146913939Y-114890500D01*
X147113898Y-114850726D01*
X147302256Y-114772705D01*
X147471774Y-114659437D01*
X147615937Y-114515274D01*
X147729205Y-114345756D01*
X147807226Y-114157398D01*
X147847000Y-113957439D01*
X147847000Y-113753561D01*
X147807226Y-113553602D01*
X147729205Y-113365244D01*
X147615937Y-113195726D01*
X147538772Y-113118561D01*
X152825500Y-113118561D01*
X152825500Y-113322439D01*
X152865274Y-113522398D01*
X152943295Y-113710756D01*
X153056563Y-113880274D01*
X153200726Y-114024437D01*
X153370244Y-114137705D01*
X153558602Y-114215726D01*
X153758561Y-114255500D01*
X153962439Y-114255500D01*
X154162398Y-114215726D01*
X154350756Y-114137705D01*
X154520274Y-114024437D01*
X154664437Y-113880274D01*
X154777705Y-113710756D01*
X154855726Y-113522398D01*
X154895500Y-113322439D01*
X154895500Y-113118561D01*
X154855726Y-112918602D01*
X154777705Y-112730244D01*
X154664437Y-112560726D01*
X154520274Y-112416563D01*
X154350756Y-112303295D01*
X154162398Y-112225274D01*
X153962439Y-112185500D01*
X153758561Y-112185500D01*
X153558602Y-112225274D01*
X153370244Y-112303295D01*
X153200726Y-112416563D01*
X153056563Y-112560726D01*
X152943295Y-112730244D01*
X152865274Y-112918602D01*
X152825500Y-113118561D01*
X147538772Y-113118561D01*
X147471774Y-113051563D01*
X147302256Y-112938295D01*
X147113898Y-112860274D01*
X146913939Y-112820500D01*
X146710061Y-112820500D01*
X146510102Y-112860274D01*
X146321744Y-112938295D01*
X146152226Y-113051563D01*
X146008063Y-113195726D01*
X145894795Y-113365244D01*
X145816774Y-113553602D01*
X145777000Y-113753561D01*
X122725604Y-113753561D01*
X122693709Y-113721666D01*
X122524191Y-113608398D01*
X122335833Y-113530377D01*
X122135874Y-113490603D01*
X121931996Y-113490603D01*
X121732037Y-113530377D01*
X121543679Y-113608398D01*
X121374161Y-113721666D01*
X121229998Y-113865829D01*
X121116730Y-114035347D01*
X121038709Y-114223705D01*
X120998935Y-114423664D01*
X103311995Y-114423664D01*
X103339274Y-114405437D01*
X103483437Y-114261274D01*
X103596705Y-114091756D01*
X103674726Y-113903398D01*
X103714500Y-113703439D01*
X103714500Y-113499561D01*
X103674726Y-113299602D01*
X103596705Y-113111244D01*
X103483437Y-112941726D01*
X103339274Y-112797563D01*
X103169756Y-112684295D01*
X102981398Y-112606274D01*
X102781439Y-112566500D01*
X102577561Y-112566500D01*
X102377602Y-112606274D01*
X102189244Y-112684295D01*
X102019726Y-112797563D01*
X101875563Y-112941726D01*
X101762295Y-113111244D01*
X101684274Y-113299602D01*
X101644500Y-113499561D01*
X84480000Y-113499561D01*
X84480000Y-111594561D01*
X112757000Y-111594561D01*
X112757000Y-111798439D01*
X112796774Y-111998398D01*
X112874795Y-112186756D01*
X112988063Y-112356274D01*
X113132226Y-112500437D01*
X113301744Y-112613705D01*
X113490102Y-112691726D01*
X113690061Y-112731500D01*
X113893939Y-112731500D01*
X114093898Y-112691726D01*
X114282256Y-112613705D01*
X114451774Y-112500437D01*
X114595937Y-112356274D01*
X114709205Y-112186756D01*
X114787226Y-111998398D01*
X114827000Y-111798439D01*
X114827000Y-111594561D01*
X114787226Y-111394602D01*
X114709205Y-111206244D01*
X114595937Y-111036726D01*
X114451774Y-110892563D01*
X114282256Y-110779295D01*
X114093898Y-110701274D01*
X113893939Y-110661500D01*
X113690061Y-110661500D01*
X113490102Y-110701274D01*
X113301744Y-110779295D01*
X113132226Y-110892563D01*
X112988063Y-111036726D01*
X112874795Y-111206244D01*
X112796774Y-111394602D01*
X112757000Y-111594561D01*
X84480000Y-111594561D01*
X84480000Y-110642061D01*
X144253000Y-110642061D01*
X144253000Y-110845939D01*
X144292774Y-111045898D01*
X144370795Y-111234256D01*
X144484063Y-111403774D01*
X144628226Y-111547937D01*
X144797744Y-111661205D01*
X144986102Y-111739226D01*
X145186061Y-111779000D01*
X145389939Y-111779000D01*
X145589898Y-111739226D01*
X145778256Y-111661205D01*
X145947774Y-111547937D01*
X146091937Y-111403774D01*
X146205205Y-111234256D01*
X146240079Y-111150061D01*
X151873000Y-111150061D01*
X151873000Y-111353939D01*
X151912774Y-111553898D01*
X151990795Y-111742256D01*
X152104063Y-111911774D01*
X152248226Y-112055937D01*
X152417744Y-112169205D01*
X152606102Y-112247226D01*
X152806061Y-112287000D01*
X153009939Y-112287000D01*
X153209898Y-112247226D01*
X153398256Y-112169205D01*
X153567774Y-112055937D01*
X153711937Y-111911774D01*
X153825205Y-111742256D01*
X153903226Y-111553898D01*
X153943000Y-111353939D01*
X153943000Y-111150061D01*
X153903226Y-110950102D01*
X153825205Y-110761744D01*
X153711937Y-110592226D01*
X153567774Y-110448063D01*
X153398256Y-110334795D01*
X153209898Y-110256774D01*
X153009939Y-110217000D01*
X152806061Y-110217000D01*
X152606102Y-110256774D01*
X152417744Y-110334795D01*
X152248226Y-110448063D01*
X152104063Y-110592226D01*
X151990795Y-110761744D01*
X151912774Y-110950102D01*
X151873000Y-111150061D01*
X146240079Y-111150061D01*
X146283226Y-111045898D01*
X146323000Y-110845939D01*
X146323000Y-110642061D01*
X146283226Y-110442102D01*
X146205205Y-110253744D01*
X146091937Y-110084226D01*
X145947774Y-109940063D01*
X145778256Y-109826795D01*
X145589898Y-109748774D01*
X145389939Y-109709000D01*
X145186061Y-109709000D01*
X144986102Y-109748774D01*
X144797744Y-109826795D01*
X144628226Y-109940063D01*
X144484063Y-110084226D01*
X144370795Y-110253744D01*
X144292774Y-110442102D01*
X144253000Y-110642061D01*
X84480000Y-110642061D01*
X84480000Y-104482561D01*
X96755000Y-104482561D01*
X96755000Y-104686439D01*
X96794774Y-104886398D01*
X96872795Y-105074756D01*
X96986063Y-105244274D01*
X97130226Y-105388437D01*
X97299744Y-105501705D01*
X97488102Y-105579726D01*
X97688061Y-105619500D01*
X97891939Y-105619500D01*
X98091898Y-105579726D01*
X98280256Y-105501705D01*
X98449774Y-105388437D01*
X98593937Y-105244274D01*
X98678603Y-105117561D01*
X122790000Y-105117561D01*
X122790000Y-105321439D01*
X122829774Y-105521398D01*
X122907795Y-105709756D01*
X123021063Y-105879274D01*
X123165226Y-106023437D01*
X123334744Y-106136705D01*
X123523102Y-106214726D01*
X123723061Y-106254500D01*
X123926939Y-106254500D01*
X124126898Y-106214726D01*
X124315256Y-106136705D01*
X124414996Y-106070061D01*
X149333000Y-106070061D01*
X149333000Y-106273939D01*
X149372774Y-106473898D01*
X149450795Y-106662256D01*
X149564063Y-106831774D01*
X149666289Y-106934000D01*
X149564063Y-107036226D01*
X149450795Y-107205744D01*
X149372774Y-107394102D01*
X149333000Y-107594061D01*
X149333000Y-107797939D01*
X149372774Y-107997898D01*
X149450795Y-108186256D01*
X149564063Y-108355774D01*
X149666289Y-108458000D01*
X149564063Y-108560226D01*
X149450795Y-108729744D01*
X149372774Y-108918102D01*
X149333000Y-109118061D01*
X149333000Y-109321939D01*
X149372774Y-109521898D01*
X149450795Y-109710256D01*
X149564063Y-109879774D01*
X149708226Y-110023937D01*
X149877744Y-110137205D01*
X150066102Y-110215226D01*
X150266061Y-110255000D01*
X150469939Y-110255000D01*
X150669898Y-110215226D01*
X150858256Y-110137205D01*
X151027774Y-110023937D01*
X151171937Y-109879774D01*
X151285205Y-109710256D01*
X151363226Y-109521898D01*
X151403000Y-109321939D01*
X151403000Y-109118061D01*
X151363226Y-108918102D01*
X151285205Y-108729744D01*
X151171937Y-108560226D01*
X151069711Y-108458000D01*
X151171937Y-108355774D01*
X151285205Y-108186256D01*
X151363226Y-107997898D01*
X151403000Y-107797939D01*
X151403000Y-107594061D01*
X151363226Y-107394102D01*
X151285205Y-107205744D01*
X151171937Y-107036226D01*
X151069711Y-106934000D01*
X151171937Y-106831774D01*
X151285205Y-106662256D01*
X151363226Y-106473898D01*
X151403000Y-106273939D01*
X151403000Y-106070061D01*
X151363226Y-105870102D01*
X151285205Y-105681744D01*
X151171937Y-105512226D01*
X151027774Y-105368063D01*
X150858256Y-105254795D01*
X150669898Y-105176774D01*
X150469939Y-105137000D01*
X150266061Y-105137000D01*
X150066102Y-105176774D01*
X149877744Y-105254795D01*
X149708226Y-105368063D01*
X149564063Y-105512226D01*
X149450795Y-105681744D01*
X149372774Y-105870102D01*
X149333000Y-106070061D01*
X124414996Y-106070061D01*
X124484774Y-106023437D01*
X124628937Y-105879274D01*
X124742205Y-105709756D01*
X124820226Y-105521398D01*
X124860000Y-105321439D01*
X124860000Y-105117561D01*
X124822108Y-104927061D01*
X143808500Y-104927061D01*
X143808500Y-105130939D01*
X143848274Y-105330898D01*
X143926295Y-105519256D01*
X144039563Y-105688774D01*
X144183726Y-105832937D01*
X144353244Y-105946205D01*
X144541602Y-106024226D01*
X144741561Y-106064000D01*
X144945439Y-106064000D01*
X145145398Y-106024226D01*
X145333756Y-105946205D01*
X145503274Y-105832937D01*
X145647437Y-105688774D01*
X145760705Y-105519256D01*
X145838726Y-105330898D01*
X145878500Y-105130939D01*
X145878500Y-104927061D01*
X145838726Y-104727102D01*
X145760705Y-104538744D01*
X145647437Y-104369226D01*
X145503274Y-104225063D01*
X145333756Y-104111795D01*
X145145398Y-104033774D01*
X144945439Y-103994000D01*
X144741561Y-103994000D01*
X144541602Y-104033774D01*
X144353244Y-104111795D01*
X144183726Y-104225063D01*
X144039563Y-104369226D01*
X143926295Y-104538744D01*
X143848274Y-104727102D01*
X143808500Y-104927061D01*
X124822108Y-104927061D01*
X124820226Y-104917602D01*
X124742205Y-104729244D01*
X124628937Y-104559726D01*
X124484774Y-104415563D01*
X124315256Y-104302295D01*
X124126898Y-104224274D01*
X123926939Y-104184500D01*
X123723061Y-104184500D01*
X123523102Y-104224274D01*
X123334744Y-104302295D01*
X123165226Y-104415563D01*
X123021063Y-104559726D01*
X122907795Y-104729244D01*
X122829774Y-104917602D01*
X122790000Y-105117561D01*
X98678603Y-105117561D01*
X98707205Y-105074756D01*
X98785226Y-104886398D01*
X98825000Y-104686439D01*
X98825000Y-104482561D01*
X98785226Y-104282602D01*
X98707205Y-104094244D01*
X98593937Y-103924726D01*
X98449774Y-103780563D01*
X98280256Y-103667295D01*
X98091898Y-103589274D01*
X97891939Y-103549500D01*
X97688061Y-103549500D01*
X97488102Y-103589274D01*
X97299744Y-103667295D01*
X97130226Y-103780563D01*
X96986063Y-103924726D01*
X96872795Y-104094244D01*
X96794774Y-104282602D01*
X96755000Y-104482561D01*
X84480000Y-104482561D01*
X84480000Y-103085561D01*
X120758000Y-103085561D01*
X120758000Y-103289439D01*
X120797774Y-103489398D01*
X120875795Y-103677756D01*
X120989063Y-103847274D01*
X121133226Y-103991437D01*
X121302744Y-104104705D01*
X121491102Y-104182726D01*
X121691061Y-104222500D01*
X121894939Y-104222500D01*
X122094898Y-104182726D01*
X122283256Y-104104705D01*
X122452774Y-103991437D01*
X122596937Y-103847274D01*
X122710205Y-103677756D01*
X122788226Y-103489398D01*
X122828000Y-103289439D01*
X122828000Y-103085561D01*
X122788226Y-102885602D01*
X122710205Y-102697244D01*
X122596937Y-102527726D01*
X122452774Y-102383563D01*
X122283256Y-102270295D01*
X122094898Y-102192274D01*
X121894939Y-102152500D01*
X121691061Y-102152500D01*
X121491102Y-102192274D01*
X121302744Y-102270295D01*
X121133226Y-102383563D01*
X120989063Y-102527726D01*
X120875795Y-102697244D01*
X120797774Y-102885602D01*
X120758000Y-103085561D01*
X84480000Y-103085561D01*
X84480000Y-98577061D01*
X93834000Y-98577061D01*
X93834000Y-98780939D01*
X93873774Y-98980898D01*
X93951795Y-99169256D01*
X94065063Y-99338774D01*
X94209226Y-99482937D01*
X94378744Y-99596205D01*
X94567102Y-99674226D01*
X94677345Y-99696155D01*
X94699274Y-99806398D01*
X94777295Y-99994756D01*
X94890563Y-100164274D01*
X95034726Y-100308437D01*
X95204244Y-100421705D01*
X95392602Y-100499726D01*
X95592561Y-100539500D01*
X95796439Y-100539500D01*
X95996398Y-100499726D01*
X96039044Y-100482061D01*
X110217000Y-100482061D01*
X110217000Y-100685939D01*
X110256774Y-100885898D01*
X110334795Y-101074256D01*
X110448063Y-101243774D01*
X110592226Y-101387937D01*
X110761744Y-101501205D01*
X110950102Y-101579226D01*
X111150061Y-101619000D01*
X111353939Y-101619000D01*
X111553898Y-101579226D01*
X111742256Y-101501205D01*
X111911774Y-101387937D01*
X112055937Y-101243774D01*
X112169205Y-101074256D01*
X112247226Y-100885898D01*
X112287000Y-100685939D01*
X112287000Y-100482061D01*
X112247226Y-100282102D01*
X112169205Y-100093744D01*
X112055937Y-99924226D01*
X111911774Y-99780063D01*
X111742256Y-99666795D01*
X111553898Y-99588774D01*
X111353939Y-99549000D01*
X111150061Y-99549000D01*
X110950102Y-99588774D01*
X110761744Y-99666795D01*
X110592226Y-99780063D01*
X110448063Y-99924226D01*
X110334795Y-100093744D01*
X110256774Y-100282102D01*
X110217000Y-100482061D01*
X96039044Y-100482061D01*
X96184756Y-100421705D01*
X96354274Y-100308437D01*
X96498437Y-100164274D01*
X96611705Y-99994756D01*
X96689726Y-99806398D01*
X96729500Y-99606439D01*
X96729500Y-99402561D01*
X96689726Y-99202602D01*
X96611705Y-99014244D01*
X96574165Y-98958061D01*
X113773000Y-98958061D01*
X113773000Y-99161939D01*
X113812774Y-99361898D01*
X113890795Y-99550256D01*
X114004063Y-99719774D01*
X114148226Y-99863937D01*
X114317744Y-99977205D01*
X114506102Y-100055226D01*
X114706061Y-100095000D01*
X114909939Y-100095000D01*
X115109898Y-100055226D01*
X115298256Y-99977205D01*
X115467774Y-99863937D01*
X115611937Y-99719774D01*
X115725205Y-99550256D01*
X115803226Y-99361898D01*
X115843000Y-99161939D01*
X115843000Y-98958061D01*
X115803226Y-98758102D01*
X115725205Y-98569744D01*
X115611937Y-98400226D01*
X115467774Y-98256063D01*
X115298256Y-98142795D01*
X115109898Y-98064774D01*
X114909939Y-98025000D01*
X114706061Y-98025000D01*
X114506102Y-98064774D01*
X114317744Y-98142795D01*
X114148226Y-98256063D01*
X114004063Y-98400226D01*
X113890795Y-98569744D01*
X113812774Y-98758102D01*
X113773000Y-98958061D01*
X96574165Y-98958061D01*
X96498437Y-98844726D01*
X96354274Y-98700563D01*
X96184756Y-98587295D01*
X95996398Y-98509274D01*
X95886155Y-98487345D01*
X95864226Y-98377102D01*
X95786205Y-98188744D01*
X95672937Y-98019226D01*
X95528774Y-97875063D01*
X95359256Y-97761795D01*
X95181248Y-97688061D01*
X104629000Y-97688061D01*
X104629000Y-97891939D01*
X104668774Y-98091898D01*
X104746795Y-98280256D01*
X104860063Y-98449774D01*
X105004226Y-98593937D01*
X105173744Y-98707205D01*
X105362102Y-98785226D01*
X105562061Y-98825000D01*
X105765939Y-98825000D01*
X105965898Y-98785226D01*
X106154256Y-98707205D01*
X106323774Y-98593937D01*
X106467937Y-98449774D01*
X106581205Y-98280256D01*
X106659226Y-98091898D01*
X106699000Y-97891939D01*
X106699000Y-97752000D01*
X155533928Y-97752000D01*
X155533928Y-99352000D01*
X155546188Y-99476482D01*
X155582498Y-99596180D01*
X155641463Y-99706494D01*
X155720815Y-99803185D01*
X155817506Y-99882537D01*
X155927820Y-99941502D01*
X156047518Y-99977812D01*
X156055961Y-99978643D01*
X155857363Y-100177241D01*
X155700320Y-100412273D01*
X155592147Y-100673426D01*
X155537000Y-100950665D01*
X155537000Y-101233335D01*
X155592147Y-101510574D01*
X155700320Y-101771727D01*
X155857363Y-102006759D01*
X156057241Y-102206637D01*
X156289759Y-102362000D01*
X156057241Y-102517363D01*
X155857363Y-102717241D01*
X155700320Y-102952273D01*
X155592147Y-103213426D01*
X155537000Y-103490665D01*
X155537000Y-103773335D01*
X155592147Y-104050574D01*
X155700320Y-104311727D01*
X155857363Y-104546759D01*
X156057241Y-104746637D01*
X156289759Y-104902000D01*
X156057241Y-105057363D01*
X155857363Y-105257241D01*
X155700320Y-105492273D01*
X155592147Y-105753426D01*
X155537000Y-106030665D01*
X155537000Y-106313335D01*
X155592147Y-106590574D01*
X155700320Y-106851727D01*
X155857363Y-107086759D01*
X156057241Y-107286637D01*
X156289759Y-107442000D01*
X156057241Y-107597363D01*
X155857363Y-107797241D01*
X155700320Y-108032273D01*
X155592147Y-108293426D01*
X155537000Y-108570665D01*
X155537000Y-108853335D01*
X155592147Y-109130574D01*
X155700320Y-109391727D01*
X155857363Y-109626759D01*
X156057241Y-109826637D01*
X156289759Y-109982000D01*
X156057241Y-110137363D01*
X155857363Y-110337241D01*
X155700320Y-110572273D01*
X155592147Y-110833426D01*
X155537000Y-111110665D01*
X155537000Y-111393335D01*
X155592147Y-111670574D01*
X155700320Y-111931727D01*
X155857363Y-112166759D01*
X156057241Y-112366637D01*
X156289759Y-112522000D01*
X156057241Y-112677363D01*
X155857363Y-112877241D01*
X155700320Y-113112273D01*
X155592147Y-113373426D01*
X155537000Y-113650665D01*
X155537000Y-113933335D01*
X155592147Y-114210574D01*
X155700320Y-114471727D01*
X155857363Y-114706759D01*
X156057241Y-114906637D01*
X156292273Y-115063680D01*
X156302865Y-115068067D01*
X156116869Y-115179615D01*
X155908481Y-115368586D01*
X155740963Y-115594580D01*
X155620754Y-115848913D01*
X155580096Y-115982961D01*
X155702085Y-116205000D01*
X156845000Y-116205000D01*
X156845000Y-116185000D01*
X157099000Y-116185000D01*
X157099000Y-116205000D01*
X158241915Y-116205000D01*
X158249790Y-116190665D01*
X163157000Y-116190665D01*
X163157000Y-116473335D01*
X163212147Y-116750574D01*
X163320320Y-117011727D01*
X163477363Y-117246759D01*
X163677241Y-117446637D01*
X163909759Y-117602000D01*
X163677241Y-117757363D01*
X163477363Y-117957241D01*
X163320320Y-118192273D01*
X163212147Y-118453426D01*
X163157000Y-118730665D01*
X163157000Y-119013335D01*
X163212147Y-119290574D01*
X163320320Y-119551727D01*
X163477363Y-119786759D01*
X163677241Y-119986637D01*
X163909759Y-120142000D01*
X163677241Y-120297363D01*
X163477363Y-120497241D01*
X163320320Y-120732273D01*
X163212147Y-120993426D01*
X163157000Y-121270665D01*
X163157000Y-121553335D01*
X163212147Y-121830574D01*
X163320320Y-122091727D01*
X163477363Y-122326759D01*
X163677241Y-122526637D01*
X163909759Y-122682000D01*
X163677241Y-122837363D01*
X163477363Y-123037241D01*
X163320320Y-123272273D01*
X163212147Y-123533426D01*
X163157000Y-123810665D01*
X163157000Y-124093335D01*
X163212147Y-124370574D01*
X163320320Y-124631727D01*
X163477363Y-124866759D01*
X163677241Y-125066637D01*
X163909759Y-125222000D01*
X163677241Y-125377363D01*
X163477363Y-125577241D01*
X163320320Y-125812273D01*
X163212147Y-126073426D01*
X163157000Y-126350665D01*
X163157000Y-126633335D01*
X163212147Y-126910574D01*
X163320320Y-127171727D01*
X163477363Y-127406759D01*
X163677241Y-127606637D01*
X163909759Y-127762000D01*
X163677241Y-127917363D01*
X163477363Y-128117241D01*
X163320320Y-128352273D01*
X163212147Y-128613426D01*
X163157000Y-128890665D01*
X163157000Y-129173335D01*
X163212147Y-129450574D01*
X163320320Y-129711727D01*
X163477363Y-129946759D01*
X163677241Y-130146637D01*
X163909759Y-130302000D01*
X163677241Y-130457363D01*
X163477363Y-130657241D01*
X163320320Y-130892273D01*
X163212147Y-131153426D01*
X163157000Y-131430665D01*
X163157000Y-131713335D01*
X163212147Y-131990574D01*
X163320320Y-132251727D01*
X163477363Y-132486759D01*
X163677241Y-132686637D01*
X163912273Y-132843680D01*
X164173426Y-132951853D01*
X164450665Y-133007000D01*
X164733335Y-133007000D01*
X165010574Y-132951853D01*
X165271727Y-132843680D01*
X165506759Y-132686637D01*
X165706637Y-132486759D01*
X165863680Y-132251727D01*
X165971853Y-131990574D01*
X166027000Y-131713335D01*
X166027000Y-131430665D01*
X165971853Y-131153426D01*
X165863680Y-130892273D01*
X165706637Y-130657241D01*
X165506759Y-130457363D01*
X165274241Y-130302000D01*
X165506759Y-130146637D01*
X165706637Y-129946759D01*
X165863680Y-129711727D01*
X165971853Y-129450574D01*
X166027000Y-129173335D01*
X166027000Y-128890665D01*
X165971853Y-128613426D01*
X165863680Y-128352273D01*
X165706637Y-128117241D01*
X165506759Y-127917363D01*
X165274241Y-127762000D01*
X165506759Y-127606637D01*
X165706637Y-127406759D01*
X165863680Y-127171727D01*
X165971853Y-126910574D01*
X166027000Y-126633335D01*
X166027000Y-126390061D01*
X167303500Y-126390061D01*
X167303500Y-126593939D01*
X167343274Y-126793898D01*
X167421295Y-126982256D01*
X167534563Y-127151774D01*
X167678726Y-127295937D01*
X167848244Y-127409205D01*
X168036602Y-127487226D01*
X168236561Y-127527000D01*
X168440439Y-127527000D01*
X168640398Y-127487226D01*
X168828756Y-127409205D01*
X168998274Y-127295937D01*
X169142437Y-127151774D01*
X169255705Y-126982256D01*
X169333726Y-126793898D01*
X169373500Y-126593939D01*
X169373500Y-126390061D01*
X169333726Y-126190102D01*
X169255705Y-126001744D01*
X169142437Y-125832226D01*
X168998274Y-125688063D01*
X168828756Y-125574795D01*
X168640398Y-125496774D01*
X168440439Y-125457000D01*
X168236561Y-125457000D01*
X168036602Y-125496774D01*
X167848244Y-125574795D01*
X167678726Y-125688063D01*
X167534563Y-125832226D01*
X167421295Y-126001744D01*
X167343274Y-126190102D01*
X167303500Y-126390061D01*
X166027000Y-126390061D01*
X166027000Y-126350665D01*
X165971853Y-126073426D01*
X165863680Y-125812273D01*
X165706637Y-125577241D01*
X165506759Y-125377363D01*
X165274241Y-125222000D01*
X165506759Y-125066637D01*
X165706637Y-124866759D01*
X165863680Y-124631727D01*
X165971853Y-124370574D01*
X166012235Y-124167561D01*
X166097000Y-124167561D01*
X166097000Y-124371439D01*
X166136774Y-124571398D01*
X166214795Y-124759756D01*
X166328063Y-124929274D01*
X166472226Y-125073437D01*
X166641744Y-125186705D01*
X166830102Y-125264726D01*
X167030061Y-125304500D01*
X167233939Y-125304500D01*
X167433898Y-125264726D01*
X167622256Y-125186705D01*
X167791774Y-125073437D01*
X167935937Y-124929274D01*
X168049205Y-124759756D01*
X168127226Y-124571398D01*
X168167000Y-124371439D01*
X168167000Y-124313740D01*
X170727000Y-124313740D01*
X170727000Y-124606260D01*
X170784068Y-124893158D01*
X170896010Y-125163411D01*
X171058525Y-125406632D01*
X171265368Y-125613475D01*
X171439760Y-125730000D01*
X171265368Y-125846525D01*
X171058525Y-126053368D01*
X170896010Y-126296589D01*
X170784068Y-126566842D01*
X170727000Y-126853740D01*
X170727000Y-127146260D01*
X170784068Y-127433158D01*
X170896010Y-127703411D01*
X171058525Y-127946632D01*
X171265368Y-128153475D01*
X171508589Y-128315990D01*
X171778842Y-128427932D01*
X172065740Y-128485000D01*
X172358260Y-128485000D01*
X172645158Y-128427932D01*
X172915411Y-128315990D01*
X173158632Y-128153475D01*
X173345715Y-127966392D01*
X173413595Y-128093386D01*
X173524038Y-128227962D01*
X173658614Y-128338405D01*
X173812150Y-128420472D01*
X173978746Y-128471008D01*
X174152000Y-128488072D01*
X175352000Y-128488072D01*
X175525254Y-128471008D01*
X175691850Y-128420472D01*
X175845386Y-128338405D01*
X175979962Y-128227962D01*
X176090405Y-128093386D01*
X176172472Y-127939850D01*
X176223008Y-127773254D01*
X176240072Y-127600000D01*
X176240072Y-126400000D01*
X176223008Y-126226746D01*
X176172472Y-126060150D01*
X176090405Y-125906614D01*
X175979962Y-125772038D01*
X175845386Y-125661595D01*
X175718392Y-125593715D01*
X175905475Y-125406632D01*
X176067990Y-125163411D01*
X176179932Y-124893158D01*
X176237000Y-124606260D01*
X176237000Y-124313740D01*
X176179932Y-124026842D01*
X176067990Y-123756589D01*
X175905475Y-123513368D01*
X175698632Y-123306525D01*
X175524240Y-123190000D01*
X175698632Y-123073475D01*
X175905475Y-122866632D01*
X176067990Y-122623411D01*
X176179932Y-122353158D01*
X176237000Y-122066260D01*
X176237000Y-121773740D01*
X176179932Y-121486842D01*
X176067990Y-121216589D01*
X175905475Y-120973368D01*
X175698632Y-120766525D01*
X175455411Y-120604010D01*
X175185158Y-120492068D01*
X174898260Y-120435000D01*
X174605740Y-120435000D01*
X174318842Y-120492068D01*
X174048589Y-120604010D01*
X173805368Y-120766525D01*
X173598525Y-120973368D01*
X173482689Y-121146729D01*
X173240397Y-121071208D01*
X172391605Y-121920000D01*
X173240397Y-122768792D01*
X173482689Y-122693271D01*
X173598525Y-122866632D01*
X173805368Y-123073475D01*
X173979760Y-123190000D01*
X173805368Y-123306525D01*
X173598525Y-123513368D01*
X173482000Y-123687760D01*
X173365475Y-123513368D01*
X173158632Y-123306525D01*
X172985271Y-123190689D01*
X173060792Y-122948397D01*
X172212000Y-122099605D01*
X171363208Y-122948397D01*
X171438729Y-123190689D01*
X171265368Y-123306525D01*
X171058525Y-123513368D01*
X170896010Y-123756589D01*
X170784068Y-124026842D01*
X170727000Y-124313740D01*
X168167000Y-124313740D01*
X168167000Y-124167561D01*
X168127226Y-123967602D01*
X168049205Y-123779244D01*
X167935937Y-123609726D01*
X167791774Y-123465563D01*
X167622256Y-123352295D01*
X167433898Y-123274274D01*
X167233939Y-123234500D01*
X167030061Y-123234500D01*
X166830102Y-123274274D01*
X166641744Y-123352295D01*
X166472226Y-123465563D01*
X166328063Y-123609726D01*
X166214795Y-123779244D01*
X166136774Y-123967602D01*
X166097000Y-124167561D01*
X166012235Y-124167561D01*
X166027000Y-124093335D01*
X166027000Y-123810665D01*
X165971853Y-123533426D01*
X165863680Y-123272273D01*
X165706637Y-123037241D01*
X165506759Y-122837363D01*
X165274241Y-122682000D01*
X165506759Y-122526637D01*
X165706637Y-122326759D01*
X165863680Y-122091727D01*
X165906425Y-121988531D01*
X170721389Y-121988531D01*
X170763401Y-122278019D01*
X170861081Y-122553747D01*
X170934528Y-122691157D01*
X171183603Y-122768792D01*
X172032395Y-121920000D01*
X171183603Y-121071208D01*
X170934528Y-121148843D01*
X170808629Y-121412883D01*
X170736661Y-121696411D01*
X170721389Y-121988531D01*
X165906425Y-121988531D01*
X165971853Y-121830574D01*
X166027000Y-121553335D01*
X166027000Y-121270665D01*
X165971853Y-120993426D01*
X165929677Y-120891603D01*
X171363208Y-120891603D01*
X172212000Y-121740395D01*
X173060792Y-120891603D01*
X172983157Y-120642528D01*
X172719117Y-120516629D01*
X172435589Y-120444661D01*
X172143469Y-120429389D01*
X171853981Y-120471401D01*
X171578253Y-120569081D01*
X171440843Y-120642528D01*
X171363208Y-120891603D01*
X165929677Y-120891603D01*
X165863680Y-120732273D01*
X165706637Y-120497241D01*
X165506759Y-120297363D01*
X165274241Y-120142000D01*
X165506759Y-119986637D01*
X165706637Y-119786759D01*
X165863680Y-119551727D01*
X165971853Y-119290574D01*
X166027000Y-119013335D01*
X166027000Y-118730665D01*
X165971853Y-118453426D01*
X165863680Y-118192273D01*
X165706637Y-117957241D01*
X165506759Y-117757363D01*
X165274241Y-117602000D01*
X165506759Y-117446637D01*
X165706637Y-117246759D01*
X165863680Y-117011727D01*
X165971853Y-116750574D01*
X166027000Y-116473335D01*
X166027000Y-116190665D01*
X165971853Y-115913426D01*
X165863680Y-115652273D01*
X165706637Y-115417241D01*
X165506759Y-115217363D01*
X165271727Y-115060320D01*
X165261135Y-115055933D01*
X165447131Y-114944385D01*
X165655519Y-114755414D01*
X165823037Y-114529420D01*
X165943246Y-114275087D01*
X165983904Y-114141039D01*
X165861915Y-113919000D01*
X164719000Y-113919000D01*
X164719000Y-113939000D01*
X164465000Y-113939000D01*
X164465000Y-113919000D01*
X163322085Y-113919000D01*
X163200096Y-114141039D01*
X163240754Y-114275087D01*
X163360963Y-114529420D01*
X163528481Y-114755414D01*
X163736869Y-114944385D01*
X163922865Y-115055933D01*
X163912273Y-115060320D01*
X163677241Y-115217363D01*
X163477363Y-115417241D01*
X163320320Y-115652273D01*
X163212147Y-115913426D01*
X163157000Y-116190665D01*
X158249790Y-116190665D01*
X158363904Y-115982961D01*
X158323246Y-115848913D01*
X158203037Y-115594580D01*
X158035519Y-115368586D01*
X157827131Y-115179615D01*
X157641135Y-115068067D01*
X157651727Y-115063680D01*
X157886759Y-114906637D01*
X158086637Y-114706759D01*
X158243680Y-114471727D01*
X158351853Y-114210574D01*
X158407000Y-113933335D01*
X158407000Y-113650665D01*
X158351853Y-113373426D01*
X158243680Y-113112273D01*
X158086637Y-112877241D01*
X157886759Y-112677363D01*
X157654241Y-112522000D01*
X157886759Y-112366637D01*
X158086637Y-112166759D01*
X158243680Y-111931727D01*
X158351853Y-111670574D01*
X158407000Y-111393335D01*
X158407000Y-111110665D01*
X158351853Y-110833426D01*
X158243680Y-110572273D01*
X158086637Y-110337241D01*
X157886759Y-110137363D01*
X157654241Y-109982000D01*
X157886759Y-109826637D01*
X158086637Y-109626759D01*
X158243680Y-109391727D01*
X158351853Y-109130574D01*
X158407000Y-108853335D01*
X158407000Y-108570665D01*
X158351853Y-108293426D01*
X158243680Y-108032273D01*
X158086637Y-107797241D01*
X157886759Y-107597363D01*
X157654241Y-107442000D01*
X157886759Y-107286637D01*
X158086637Y-107086759D01*
X158243680Y-106851727D01*
X158351853Y-106590574D01*
X158407000Y-106313335D01*
X158407000Y-106030665D01*
X158351853Y-105753426D01*
X158243680Y-105492273D01*
X158086637Y-105257241D01*
X157886759Y-105057363D01*
X157654241Y-104902000D01*
X157886759Y-104746637D01*
X158086637Y-104546759D01*
X158243680Y-104311727D01*
X158351853Y-104050574D01*
X158407000Y-103773335D01*
X158407000Y-103490665D01*
X158351853Y-103213426D01*
X158243680Y-102952273D01*
X158086637Y-102717241D01*
X157886759Y-102517363D01*
X157654241Y-102362000D01*
X157886759Y-102206637D01*
X158086637Y-102006759D01*
X158243680Y-101771727D01*
X158351853Y-101510574D01*
X158407000Y-101233335D01*
X158407000Y-100950665D01*
X158351853Y-100673426D01*
X158243680Y-100412273D01*
X158086637Y-100177241D01*
X157888039Y-99978643D01*
X157896482Y-99977812D01*
X158016180Y-99941502D01*
X158126494Y-99882537D01*
X158223185Y-99803185D01*
X158302537Y-99706494D01*
X158361502Y-99596180D01*
X158397812Y-99476482D01*
X158410072Y-99352000D01*
X158410072Y-98410665D01*
X163157000Y-98410665D01*
X163157000Y-98693335D01*
X163212147Y-98970574D01*
X163320320Y-99231727D01*
X163477363Y-99466759D01*
X163677241Y-99666637D01*
X163909759Y-99822000D01*
X163677241Y-99977363D01*
X163477363Y-100177241D01*
X163320320Y-100412273D01*
X163212147Y-100673426D01*
X163157000Y-100950665D01*
X163157000Y-101233335D01*
X163212147Y-101510574D01*
X163320320Y-101771727D01*
X163477363Y-102006759D01*
X163677241Y-102206637D01*
X163909759Y-102362000D01*
X163677241Y-102517363D01*
X163477363Y-102717241D01*
X163320320Y-102952273D01*
X163212147Y-103213426D01*
X163157000Y-103490665D01*
X163157000Y-103773335D01*
X163212147Y-104050574D01*
X163320320Y-104311727D01*
X163477363Y-104546759D01*
X163677241Y-104746637D01*
X163909759Y-104902000D01*
X163677241Y-105057363D01*
X163477363Y-105257241D01*
X163320320Y-105492273D01*
X163212147Y-105753426D01*
X163157000Y-106030665D01*
X163157000Y-106313335D01*
X163212147Y-106590574D01*
X163320320Y-106851727D01*
X163477363Y-107086759D01*
X163677241Y-107286637D01*
X163909759Y-107442000D01*
X163677241Y-107597363D01*
X163477363Y-107797241D01*
X163320320Y-108032273D01*
X163212147Y-108293426D01*
X163157000Y-108570665D01*
X163157000Y-108853335D01*
X163212147Y-109130574D01*
X163320320Y-109391727D01*
X163477363Y-109626759D01*
X163677241Y-109826637D01*
X163909759Y-109982000D01*
X163677241Y-110137363D01*
X163477363Y-110337241D01*
X163320320Y-110572273D01*
X163212147Y-110833426D01*
X163157000Y-111110665D01*
X163157000Y-111393335D01*
X163212147Y-111670574D01*
X163320320Y-111931727D01*
X163477363Y-112166759D01*
X163677241Y-112366637D01*
X163912273Y-112523680D01*
X163922865Y-112528067D01*
X163736869Y-112639615D01*
X163528481Y-112828586D01*
X163360963Y-113054580D01*
X163240754Y-113308913D01*
X163200096Y-113442961D01*
X163322085Y-113665000D01*
X164465000Y-113665000D01*
X164465000Y-113645000D01*
X164719000Y-113645000D01*
X164719000Y-113665000D01*
X165861915Y-113665000D01*
X165983904Y-113442961D01*
X165943246Y-113308913D01*
X165823037Y-113054580D01*
X165655519Y-112828586D01*
X165447131Y-112639615D01*
X165261135Y-112528067D01*
X165271727Y-112523680D01*
X165506759Y-112366637D01*
X165706637Y-112166759D01*
X165863680Y-111931727D01*
X165971853Y-111670574D01*
X166027000Y-111393335D01*
X166027000Y-111110665D01*
X165971853Y-110833426D01*
X165863680Y-110572273D01*
X165855480Y-110560000D01*
X170881928Y-110560000D01*
X170881928Y-112960000D01*
X170894188Y-113084482D01*
X170930498Y-113204180D01*
X170989463Y-113314494D01*
X171068815Y-113411185D01*
X171165506Y-113490537D01*
X171275820Y-113549502D01*
X171395518Y-113585812D01*
X171520000Y-113598072D01*
X173920000Y-113598072D01*
X174044482Y-113585812D01*
X174164180Y-113549502D01*
X174274494Y-113490537D01*
X174371185Y-113411185D01*
X174450537Y-113314494D01*
X174509502Y-113204180D01*
X174545812Y-113084482D01*
X174558072Y-112960000D01*
X174558072Y-110560000D01*
X174545812Y-110435518D01*
X174509502Y-110315820D01*
X174450537Y-110205506D01*
X174371185Y-110108815D01*
X174274494Y-110029463D01*
X174164180Y-109970498D01*
X174044482Y-109934188D01*
X173920000Y-109921928D01*
X173502838Y-109921928D01*
X173589199Y-109886156D01*
X173889744Y-109685338D01*
X174145338Y-109429744D01*
X174346156Y-109129199D01*
X174484482Y-108795250D01*
X174555000Y-108440732D01*
X174555000Y-108079268D01*
X174484482Y-107724750D01*
X174346156Y-107390801D01*
X174145338Y-107090256D01*
X173889744Y-106834662D01*
X173589199Y-106633844D01*
X173290213Y-106510000D01*
X173589199Y-106386156D01*
X173889744Y-106185338D01*
X174145338Y-105929744D01*
X174346156Y-105629199D01*
X174484482Y-105295250D01*
X174555000Y-104940732D01*
X174555000Y-104579268D01*
X174484482Y-104224750D01*
X174346156Y-103890801D01*
X174145338Y-103590256D01*
X173889744Y-103334662D01*
X173589199Y-103133844D01*
X173290213Y-103010000D01*
X173589199Y-102886156D01*
X173889744Y-102685338D01*
X174145338Y-102429744D01*
X174346156Y-102129199D01*
X174484482Y-101795250D01*
X174555000Y-101440732D01*
X174555000Y-101079268D01*
X174484482Y-100724750D01*
X174346156Y-100390801D01*
X174145338Y-100090256D01*
X173889744Y-99834662D01*
X173589199Y-99633844D01*
X173290213Y-99510000D01*
X173589199Y-99386156D01*
X173889744Y-99185338D01*
X174145338Y-98929744D01*
X174346156Y-98629199D01*
X174484482Y-98295250D01*
X174555000Y-97940732D01*
X174555000Y-97579268D01*
X174484482Y-97224750D01*
X174346156Y-96890801D01*
X174145338Y-96590256D01*
X173889744Y-96334662D01*
X173589199Y-96133844D01*
X173290213Y-96010000D01*
X173589199Y-95886156D01*
X173889744Y-95685338D01*
X174145338Y-95429744D01*
X174346156Y-95129199D01*
X174484482Y-94795250D01*
X174555000Y-94440732D01*
X174555000Y-94079268D01*
X174484482Y-93724750D01*
X174346156Y-93390801D01*
X174145338Y-93090256D01*
X173889744Y-92834662D01*
X173589199Y-92633844D01*
X173255250Y-92495518D01*
X172900732Y-92425000D01*
X172539268Y-92425000D01*
X172184750Y-92495518D01*
X171850801Y-92633844D01*
X171550256Y-92834662D01*
X171294662Y-93090256D01*
X171093844Y-93390801D01*
X170955518Y-93724750D01*
X170885000Y-94079268D01*
X170885000Y-94440732D01*
X170955518Y-94795250D01*
X171093844Y-95129199D01*
X171294662Y-95429744D01*
X171550256Y-95685338D01*
X171850801Y-95886156D01*
X172149787Y-96010000D01*
X171850801Y-96133844D01*
X171550256Y-96334662D01*
X171294662Y-96590256D01*
X171093844Y-96890801D01*
X170955518Y-97224750D01*
X170885000Y-97579268D01*
X170885000Y-97940732D01*
X170955518Y-98295250D01*
X171093844Y-98629199D01*
X171294662Y-98929744D01*
X171550256Y-99185338D01*
X171850801Y-99386156D01*
X172149787Y-99510000D01*
X171850801Y-99633844D01*
X171550256Y-99834662D01*
X171294662Y-100090256D01*
X171093844Y-100390801D01*
X170955518Y-100724750D01*
X170885000Y-101079268D01*
X170885000Y-101440732D01*
X170955518Y-101795250D01*
X171093844Y-102129199D01*
X171294662Y-102429744D01*
X171550256Y-102685338D01*
X171850801Y-102886156D01*
X172149787Y-103010000D01*
X171850801Y-103133844D01*
X171550256Y-103334662D01*
X171294662Y-103590256D01*
X171093844Y-103890801D01*
X170955518Y-104224750D01*
X170885000Y-104579268D01*
X170885000Y-104940732D01*
X170955518Y-105295250D01*
X171093844Y-105629199D01*
X171294662Y-105929744D01*
X171550256Y-106185338D01*
X171850801Y-106386156D01*
X172149787Y-106510000D01*
X171850801Y-106633844D01*
X171550256Y-106834662D01*
X171294662Y-107090256D01*
X171093844Y-107390801D01*
X170955518Y-107724750D01*
X170885000Y-108079268D01*
X170885000Y-108440732D01*
X170955518Y-108795250D01*
X171093844Y-109129199D01*
X171294662Y-109429744D01*
X171550256Y-109685338D01*
X171850801Y-109886156D01*
X171937162Y-109921928D01*
X171520000Y-109921928D01*
X171395518Y-109934188D01*
X171275820Y-109970498D01*
X171165506Y-110029463D01*
X171068815Y-110108815D01*
X170989463Y-110205506D01*
X170930498Y-110315820D01*
X170894188Y-110435518D01*
X170881928Y-110560000D01*
X165855480Y-110560000D01*
X165706637Y-110337241D01*
X165506759Y-110137363D01*
X165274241Y-109982000D01*
X165506759Y-109826637D01*
X165706637Y-109626759D01*
X165863680Y-109391727D01*
X165971853Y-109130574D01*
X166027000Y-108853335D01*
X166027000Y-108570665D01*
X165971853Y-108293426D01*
X165863680Y-108032273D01*
X165706637Y-107797241D01*
X165506759Y-107597363D01*
X165274241Y-107442000D01*
X165506759Y-107286637D01*
X165706637Y-107086759D01*
X165863680Y-106851727D01*
X165971853Y-106590574D01*
X166027000Y-106313335D01*
X166027000Y-106030665D01*
X165971853Y-105753426D01*
X165863680Y-105492273D01*
X165706637Y-105257241D01*
X165506759Y-105057363D01*
X165274241Y-104902000D01*
X165506759Y-104746637D01*
X165706637Y-104546759D01*
X165863680Y-104311727D01*
X165971853Y-104050574D01*
X166027000Y-103773335D01*
X166027000Y-103490665D01*
X165971853Y-103213426D01*
X165863680Y-102952273D01*
X165706637Y-102717241D01*
X165506759Y-102517363D01*
X165274241Y-102362000D01*
X165506759Y-102206637D01*
X165706637Y-102006759D01*
X165863680Y-101771727D01*
X165971853Y-101510574D01*
X166027000Y-101233335D01*
X166027000Y-100950665D01*
X165971853Y-100673426D01*
X165863680Y-100412273D01*
X165706637Y-100177241D01*
X165506759Y-99977363D01*
X165274241Y-99822000D01*
X165506759Y-99666637D01*
X165706637Y-99466759D01*
X165863680Y-99231727D01*
X165971853Y-98970574D01*
X166027000Y-98693335D01*
X166027000Y-98410665D01*
X165971853Y-98133426D01*
X165863680Y-97872273D01*
X165706637Y-97637241D01*
X165506759Y-97437363D01*
X165271727Y-97280320D01*
X165010574Y-97172147D01*
X164733335Y-97117000D01*
X164450665Y-97117000D01*
X164173426Y-97172147D01*
X163912273Y-97280320D01*
X163677241Y-97437363D01*
X163477363Y-97637241D01*
X163320320Y-97872273D01*
X163212147Y-98133426D01*
X163157000Y-98410665D01*
X158410072Y-98410665D01*
X158410072Y-97752000D01*
X158397812Y-97627518D01*
X158361502Y-97507820D01*
X158302537Y-97397506D01*
X158223185Y-97300815D01*
X158126494Y-97221463D01*
X158016180Y-97162498D01*
X157896482Y-97126188D01*
X157772000Y-97113928D01*
X156172000Y-97113928D01*
X156047518Y-97126188D01*
X155927820Y-97162498D01*
X155817506Y-97221463D01*
X155720815Y-97300815D01*
X155641463Y-97397506D01*
X155582498Y-97507820D01*
X155546188Y-97627518D01*
X155533928Y-97752000D01*
X106699000Y-97752000D01*
X106699000Y-97688061D01*
X106659226Y-97488102D01*
X106581205Y-97299744D01*
X106467937Y-97130226D01*
X106323774Y-96986063D01*
X106154256Y-96872795D01*
X105965898Y-96794774D01*
X105765939Y-96755000D01*
X105562061Y-96755000D01*
X105362102Y-96794774D01*
X105173744Y-96872795D01*
X105004226Y-96986063D01*
X104860063Y-97130226D01*
X104746795Y-97299744D01*
X104668774Y-97488102D01*
X104629000Y-97688061D01*
X95181248Y-97688061D01*
X95170898Y-97683774D01*
X94970939Y-97644000D01*
X94767061Y-97644000D01*
X94567102Y-97683774D01*
X94378744Y-97761795D01*
X94209226Y-97875063D01*
X94065063Y-98019226D01*
X93951795Y-98188744D01*
X93873774Y-98377102D01*
X93834000Y-98577061D01*
X84480000Y-98577061D01*
X84480000Y-96227561D01*
X94405500Y-96227561D01*
X94405500Y-96431439D01*
X94445274Y-96631398D01*
X94523295Y-96819756D01*
X94636563Y-96989274D01*
X94780726Y-97133437D01*
X94950244Y-97246705D01*
X95138602Y-97324726D01*
X95338561Y-97364500D01*
X95542439Y-97364500D01*
X95742398Y-97324726D01*
X95930756Y-97246705D01*
X96100274Y-97133437D01*
X96244437Y-96989274D01*
X96357705Y-96819756D01*
X96435726Y-96631398D01*
X96475500Y-96431439D01*
X96475500Y-96418061D01*
X166224000Y-96418061D01*
X166224000Y-96621939D01*
X166263774Y-96821898D01*
X166341795Y-97010256D01*
X166455063Y-97179774D01*
X166599226Y-97323937D01*
X166768744Y-97437205D01*
X166957102Y-97515226D01*
X167157061Y-97555000D01*
X167360939Y-97555000D01*
X167560898Y-97515226D01*
X167749256Y-97437205D01*
X167918774Y-97323937D01*
X168062937Y-97179774D01*
X168176205Y-97010256D01*
X168254226Y-96821898D01*
X168294000Y-96621939D01*
X168294000Y-96418061D01*
X168254226Y-96218102D01*
X168176205Y-96029744D01*
X168062937Y-95860226D01*
X167918774Y-95716063D01*
X167749256Y-95602795D01*
X167560898Y-95524774D01*
X167360939Y-95485000D01*
X167157061Y-95485000D01*
X166957102Y-95524774D01*
X166768744Y-95602795D01*
X166599226Y-95716063D01*
X166455063Y-95860226D01*
X166341795Y-96029744D01*
X166263774Y-96218102D01*
X166224000Y-96418061D01*
X96475500Y-96418061D01*
X96475500Y-96227561D01*
X96435726Y-96027602D01*
X96357705Y-95839244D01*
X96244437Y-95669726D01*
X96100274Y-95525563D01*
X95930756Y-95412295D01*
X95742398Y-95334274D01*
X95542439Y-95294500D01*
X95338561Y-95294500D01*
X95138602Y-95334274D01*
X94950244Y-95412295D01*
X94780726Y-95525563D01*
X94636563Y-95669726D01*
X94523295Y-95839244D01*
X94445274Y-96027602D01*
X94405500Y-96227561D01*
X84480000Y-96227561D01*
X84480000Y-93475890D01*
X86761048Y-93475890D01*
X86761048Y-93722110D01*
X86809083Y-93963598D01*
X86903307Y-94191074D01*
X87040099Y-94395798D01*
X87214202Y-94569901D01*
X87418926Y-94706693D01*
X87646402Y-94800917D01*
X87887890Y-94848952D01*
X88134110Y-94848952D01*
X88375598Y-94800917D01*
X88603074Y-94706693D01*
X88807798Y-94569901D01*
X88981901Y-94395798D01*
X89118693Y-94191074D01*
X89212917Y-93963598D01*
X89260952Y-93722110D01*
X89260952Y-93475890D01*
X89212917Y-93234402D01*
X89118693Y-93006926D01*
X88981901Y-92802202D01*
X88807798Y-92628099D01*
X88603074Y-92491307D01*
X88375598Y-92397083D01*
X88134110Y-92349048D01*
X87887890Y-92349048D01*
X87646402Y-92397083D01*
X87418926Y-92491307D01*
X87214202Y-92628099D01*
X87040099Y-92802202D01*
X86903307Y-93006926D01*
X86809083Y-93234402D01*
X86761048Y-93475890D01*
X84480000Y-93475890D01*
X84480000Y-86133526D01*
X84732581Y-86133526D01*
X84732581Y-87105636D01*
X84922231Y-88059067D01*
X85294241Y-88957180D01*
X85834316Y-89765460D01*
X86521702Y-90452846D01*
X87329982Y-90992921D01*
X88228095Y-91364931D01*
X89181526Y-91554581D01*
X90153636Y-91554581D01*
X91107067Y-91364931D01*
X91362160Y-91259268D01*
X136397000Y-91259268D01*
X136397000Y-91620732D01*
X136467518Y-91975250D01*
X136605844Y-92309199D01*
X136806662Y-92609744D01*
X137062256Y-92865338D01*
X137362801Y-93066156D01*
X137696750Y-93204482D01*
X138051268Y-93275000D01*
X138412732Y-93275000D01*
X138767250Y-93204482D01*
X139101199Y-93066156D01*
X139401744Y-92865338D01*
X139657338Y-92609744D01*
X139858156Y-92309199D01*
X139893928Y-92222838D01*
X139893928Y-92640000D01*
X139906188Y-92764482D01*
X139942498Y-92884180D01*
X140001463Y-92994494D01*
X140080815Y-93091185D01*
X140177506Y-93170537D01*
X140287820Y-93229502D01*
X140407518Y-93265812D01*
X140532000Y-93278072D01*
X142932000Y-93278072D01*
X143056482Y-93265812D01*
X143176180Y-93229502D01*
X143286494Y-93170537D01*
X143383185Y-93091185D01*
X143462537Y-92994494D01*
X143521502Y-92884180D01*
X143557812Y-92764482D01*
X143570072Y-92640000D01*
X143570072Y-91259268D01*
X150621000Y-91259268D01*
X150621000Y-91620732D01*
X150691518Y-91975250D01*
X150829844Y-92309199D01*
X151030662Y-92609744D01*
X151286256Y-92865338D01*
X151586801Y-93066156D01*
X151920750Y-93204482D01*
X152275268Y-93275000D01*
X152636732Y-93275000D01*
X152991250Y-93204482D01*
X153325199Y-93066156D01*
X153625744Y-92865338D01*
X153881338Y-92609744D01*
X154082156Y-92309199D01*
X154117928Y-92222838D01*
X154117928Y-92640000D01*
X154130188Y-92764482D01*
X154166498Y-92884180D01*
X154225463Y-92994494D01*
X154304815Y-93091185D01*
X154401506Y-93170537D01*
X154511820Y-93229502D01*
X154631518Y-93265812D01*
X154756000Y-93278072D01*
X157156000Y-93278072D01*
X157280482Y-93265812D01*
X157400180Y-93229502D01*
X157510494Y-93170537D01*
X157607185Y-93091185D01*
X157686537Y-92994494D01*
X157745502Y-92884180D01*
X157781812Y-92764482D01*
X157794072Y-92640000D01*
X157794072Y-90240000D01*
X157781812Y-90115518D01*
X157745502Y-89995820D01*
X157686537Y-89885506D01*
X157607185Y-89788815D01*
X157510494Y-89709463D01*
X157400180Y-89650498D01*
X157280482Y-89614188D01*
X157156000Y-89601928D01*
X154756000Y-89601928D01*
X154631518Y-89614188D01*
X154511820Y-89650498D01*
X154401506Y-89709463D01*
X154304815Y-89788815D01*
X154225463Y-89885506D01*
X154166498Y-89995820D01*
X154130188Y-90115518D01*
X154117928Y-90240000D01*
X154117928Y-90657162D01*
X154082156Y-90570801D01*
X153881338Y-90270256D01*
X153625744Y-90014662D01*
X153325199Y-89813844D01*
X152991250Y-89675518D01*
X152636732Y-89605000D01*
X152275268Y-89605000D01*
X151920750Y-89675518D01*
X151586801Y-89813844D01*
X151286256Y-90014662D01*
X151030662Y-90270256D01*
X150829844Y-90570801D01*
X150691518Y-90904750D01*
X150621000Y-91259268D01*
X143570072Y-91259268D01*
X143570072Y-90240000D01*
X143557812Y-90115518D01*
X143521502Y-89995820D01*
X143462537Y-89885506D01*
X143383185Y-89788815D01*
X143286494Y-89709463D01*
X143176180Y-89650498D01*
X143056482Y-89614188D01*
X142932000Y-89601928D01*
X140532000Y-89601928D01*
X140407518Y-89614188D01*
X140287820Y-89650498D01*
X140177506Y-89709463D01*
X140080815Y-89788815D01*
X140001463Y-89885506D01*
X139942498Y-89995820D01*
X139906188Y-90115518D01*
X139893928Y-90240000D01*
X139893928Y-90657162D01*
X139858156Y-90570801D01*
X139657338Y-90270256D01*
X139401744Y-90014662D01*
X139101199Y-89813844D01*
X138767250Y-89675518D01*
X138412732Y-89605000D01*
X138051268Y-89605000D01*
X137696750Y-89675518D01*
X137362801Y-89813844D01*
X137062256Y-90014662D01*
X136806662Y-90270256D01*
X136605844Y-90570801D01*
X136467518Y-90904750D01*
X136397000Y-91259268D01*
X91362160Y-91259268D01*
X92005180Y-90992921D01*
X92813460Y-90452846D01*
X93500846Y-89765460D01*
X94040921Y-88957180D01*
X94412931Y-88059067D01*
X94585921Y-87189390D01*
X162453048Y-87189390D01*
X162453048Y-87435610D01*
X162501083Y-87677098D01*
X162595307Y-87904574D01*
X162732099Y-88109298D01*
X162906202Y-88283401D01*
X163110926Y-88420193D01*
X163338402Y-88514417D01*
X163579890Y-88562452D01*
X163826110Y-88562452D01*
X164067598Y-88514417D01*
X164295074Y-88420193D01*
X164499798Y-88283401D01*
X164673901Y-88109298D01*
X164810693Y-87904574D01*
X164904917Y-87677098D01*
X164952952Y-87435610D01*
X164952952Y-87189390D01*
X164904917Y-86947902D01*
X164810693Y-86720426D01*
X164673901Y-86515702D01*
X164499798Y-86341599D01*
X164295074Y-86204807D01*
X164067598Y-86110583D01*
X163826110Y-86062548D01*
X163579890Y-86062548D01*
X163338402Y-86110583D01*
X163110926Y-86204807D01*
X162906202Y-86341599D01*
X162732099Y-86515702D01*
X162595307Y-86720426D01*
X162501083Y-86947902D01*
X162453048Y-87189390D01*
X94585921Y-87189390D01*
X94602581Y-87105636D01*
X94602581Y-86133526D01*
X94550947Y-85873945D01*
X169817000Y-85873945D01*
X169817000Y-86846055D01*
X170006650Y-87799486D01*
X170378660Y-88697599D01*
X170918735Y-89505879D01*
X171606121Y-90193265D01*
X172414401Y-90733340D01*
X173312514Y-91105350D01*
X174265945Y-91295000D01*
X175238055Y-91295000D01*
X176191486Y-91105350D01*
X177089599Y-90733340D01*
X177897879Y-90193265D01*
X178585265Y-89505879D01*
X179125340Y-88697599D01*
X179497350Y-87799486D01*
X179687000Y-86846055D01*
X179687000Y-85873945D01*
X179497350Y-84920514D01*
X179125340Y-84022401D01*
X178585265Y-83214121D01*
X177897879Y-82526735D01*
X177089599Y-81986660D01*
X176191486Y-81614650D01*
X175238055Y-81425000D01*
X174265945Y-81425000D01*
X173312514Y-81614650D01*
X172414401Y-81986660D01*
X171606121Y-82526735D01*
X170918735Y-83214121D01*
X170378660Y-84022401D01*
X170006650Y-84920514D01*
X169817000Y-85873945D01*
X94550947Y-85873945D01*
X94412931Y-85180095D01*
X94040921Y-84281982D01*
X93500846Y-83473702D01*
X92813460Y-82786316D01*
X92005180Y-82246241D01*
X91107067Y-81874231D01*
X90153636Y-81684581D01*
X89181526Y-81684581D01*
X88228095Y-81874231D01*
X87329982Y-82246241D01*
X86521702Y-82786316D01*
X85834316Y-83473702D01*
X85294241Y-84281982D01*
X84922231Y-85180095D01*
X84732581Y-86133526D01*
X84480000Y-86133526D01*
X84480000Y-84866256D01*
X84548241Y-84123604D01*
X84742429Y-83435060D01*
X85058843Y-82793437D01*
X85486882Y-82220223D01*
X86012220Y-81734607D01*
X86617255Y-81352858D01*
X87281720Y-81087763D01*
X87996173Y-80945650D01*
X88409274Y-80924000D01*
X176245744Y-80924000D01*
X176988396Y-80992241D01*
%TA.AperFunction,Conductor*%
D19*
G36*
X176988396Y-80992241D02*
G01*
X177676940Y-81186429D01*
X178318563Y-81502843D01*
X178891777Y-81930882D01*
X179377393Y-82456220D01*
X179759142Y-83061255D01*
X180024237Y-83725720D01*
X180166350Y-84440173D01*
X180188001Y-84853293D01*
X180188000Y-140177744D01*
X180119759Y-140920396D01*
X179925571Y-141608939D01*
X179609158Y-142250561D01*
X179181118Y-142823777D01*
X178655782Y-143309392D01*
X178050748Y-143691141D01*
X177386278Y-143956238D01*
X176671828Y-144098350D01*
X176258726Y-144120000D01*
X88422256Y-144120000D01*
X87679604Y-144051759D01*
X86991061Y-143857571D01*
X86349439Y-143541158D01*
X85776223Y-143113118D01*
X85290608Y-142587782D01*
X84908859Y-141982748D01*
X84643762Y-141318278D01*
X84501650Y-140603828D01*
X84480000Y-140190726D01*
X84480000Y-138197945D01*
X84981000Y-138197945D01*
X84981000Y-139170055D01*
X85170650Y-140123486D01*
X85542660Y-141021599D01*
X86082735Y-141829879D01*
X86770121Y-142517265D01*
X87578401Y-143057340D01*
X88476514Y-143429350D01*
X89429945Y-143619000D01*
X90402055Y-143619000D01*
X91355486Y-143429350D01*
X92253599Y-143057340D01*
X93061879Y-142517265D01*
X93749265Y-141829879D01*
X94289340Y-141021599D01*
X94661350Y-140123486D01*
X94851000Y-139170055D01*
X94851000Y-138500000D01*
X99761928Y-138500000D01*
X99761928Y-140900000D01*
X99774188Y-141024482D01*
X99810498Y-141144180D01*
X99869463Y-141254494D01*
X99948815Y-141351185D01*
X100045506Y-141430537D01*
X100155820Y-141489502D01*
X100275518Y-141525812D01*
X100400000Y-141538072D01*
X102800000Y-141538072D01*
X102924482Y-141525812D01*
X103044180Y-141489502D01*
X103154494Y-141430537D01*
X103251185Y-141351185D01*
X103330537Y-141254494D01*
X103389502Y-141144180D01*
X103425812Y-141024482D01*
X103438072Y-140900000D01*
X103438072Y-140482838D01*
X103473844Y-140569199D01*
X103674662Y-140869744D01*
X103930256Y-141125338D01*
X104230801Y-141326156D01*
X104564750Y-141464482D01*
X104919268Y-141535000D01*
X105280732Y-141535000D01*
X105635250Y-141464482D01*
X105969199Y-141326156D01*
X106269744Y-141125338D01*
X106525338Y-140869744D01*
X106726156Y-140569199D01*
X106864482Y-140235250D01*
X106905852Y-140027268D01*
X119349000Y-140027268D01*
X119349000Y-140388732D01*
X119419518Y-140743250D01*
X119557844Y-141077199D01*
X119758662Y-141377744D01*
X120014256Y-141633338D01*
X120314801Y-141834156D01*
X120648750Y-141972482D01*
X121003268Y-142043000D01*
X121364732Y-142043000D01*
X121719250Y-141972482D01*
X122053199Y-141834156D01*
X122353744Y-141633338D01*
X122609338Y-141377744D01*
X122810156Y-141077199D01*
X122934000Y-140778213D01*
X123057844Y-141077199D01*
X123258662Y-141377744D01*
X123514256Y-141633338D01*
X123814801Y-141834156D01*
X124148750Y-141972482D01*
X124503268Y-142043000D01*
X124864732Y-142043000D01*
X125219250Y-141972482D01*
X125553199Y-141834156D01*
X125853744Y-141633338D01*
X126109338Y-141377744D01*
X126310156Y-141077199D01*
X126434000Y-140778213D01*
X126557844Y-141077199D01*
X126758662Y-141377744D01*
X127014256Y-141633338D01*
X127314801Y-141834156D01*
X127648750Y-141972482D01*
X128003268Y-142043000D01*
X128364732Y-142043000D01*
X128719250Y-141972482D01*
X129053199Y-141834156D01*
X129353744Y-141633338D01*
X129609338Y-141377744D01*
X129810156Y-141077199D01*
X129934000Y-140778213D01*
X130057844Y-141077199D01*
X130258662Y-141377744D01*
X130514256Y-141633338D01*
X130814801Y-141834156D01*
X131148750Y-141972482D01*
X131503268Y-142043000D01*
X131864732Y-142043000D01*
X132219250Y-141972482D01*
X132553199Y-141834156D01*
X132853744Y-141633338D01*
X133109338Y-141377744D01*
X133310156Y-141077199D01*
X133434000Y-140778213D01*
X133557844Y-141077199D01*
X133758662Y-141377744D01*
X134014256Y-141633338D01*
X134314801Y-141834156D01*
X134648750Y-141972482D01*
X135003268Y-142043000D01*
X135364732Y-142043000D01*
X135719250Y-141972482D01*
X136053199Y-141834156D01*
X136353744Y-141633338D01*
X136609338Y-141377744D01*
X136810156Y-141077199D01*
X136845928Y-140990838D01*
X136845928Y-141408000D01*
X136858188Y-141532482D01*
X136894498Y-141652180D01*
X136953463Y-141762494D01*
X137032815Y-141859185D01*
X137129506Y-141938537D01*
X137239820Y-141997502D01*
X137359518Y-142033812D01*
X137484000Y-142046072D01*
X139884000Y-142046072D01*
X140008482Y-142033812D01*
X140128180Y-141997502D01*
X140238494Y-141938537D01*
X140335185Y-141859185D01*
X140414537Y-141762494D01*
X140473502Y-141652180D01*
X140509812Y-141532482D01*
X140522072Y-141408000D01*
X140522072Y-139008000D01*
X140509812Y-138883518D01*
X140473502Y-138763820D01*
X140414537Y-138653506D01*
X140335185Y-138556815D01*
X140265956Y-138500000D01*
X153101928Y-138500000D01*
X153101928Y-140900000D01*
X153114188Y-141024482D01*
X153150498Y-141144180D01*
X153209463Y-141254494D01*
X153288815Y-141351185D01*
X153385506Y-141430537D01*
X153495820Y-141489502D01*
X153615518Y-141525812D01*
X153740000Y-141538072D01*
X156140000Y-141538072D01*
X156264482Y-141525812D01*
X156384180Y-141489502D01*
X156494494Y-141430537D01*
X156591185Y-141351185D01*
X156670537Y-141254494D01*
X156729502Y-141144180D01*
X156765812Y-141024482D01*
X156778072Y-140900000D01*
X156778072Y-140482838D01*
X156813844Y-140569199D01*
X157014662Y-140869744D01*
X157270256Y-141125338D01*
X157570801Y-141326156D01*
X157904750Y-141464482D01*
X158259268Y-141535000D01*
X158620732Y-141535000D01*
X158975250Y-141464482D01*
X159309199Y-141326156D01*
X159609744Y-141125338D01*
X159865338Y-140869744D01*
X160066156Y-140569199D01*
X160190000Y-140270213D01*
X160313844Y-140569199D01*
X160514662Y-140869744D01*
X160770256Y-141125338D01*
X161070801Y-141326156D01*
X161404750Y-141464482D01*
X161759268Y-141535000D01*
X162120732Y-141535000D01*
X162475250Y-141464482D01*
X162809199Y-141326156D01*
X163109744Y-141125338D01*
X163365338Y-140869744D01*
X163465467Y-140719890D01*
X166258548Y-140719890D01*
X166258548Y-140966110D01*
X166306583Y-141207598D01*
X166400807Y-141435074D01*
X166537599Y-141639798D01*
X166711702Y-141813901D01*
X166916426Y-141950693D01*
X167143902Y-142044917D01*
X167385390Y-142092952D01*
X167631610Y-142092952D01*
X167873098Y-142044917D01*
X168100574Y-141950693D01*
X168305298Y-141813901D01*
X168479401Y-141639798D01*
X168616193Y-141435074D01*
X168710417Y-141207598D01*
X168758452Y-140966110D01*
X168758452Y-140719890D01*
X168710417Y-140478402D01*
X168616193Y-140250926D01*
X168479401Y-140046202D01*
X168305298Y-139872099D01*
X168100574Y-139735307D01*
X167873098Y-139641083D01*
X167631610Y-139593048D01*
X167385390Y-139593048D01*
X167143902Y-139641083D01*
X166916426Y-139735307D01*
X166711702Y-139872099D01*
X166537599Y-140046202D01*
X166400807Y-140250926D01*
X166306583Y-140478402D01*
X166258548Y-140719890D01*
X163465467Y-140719890D01*
X163566156Y-140569199D01*
X163704482Y-140235250D01*
X163775000Y-139880732D01*
X163775000Y-139519268D01*
X163704482Y-139164750D01*
X163566156Y-138830801D01*
X163365338Y-138530256D01*
X163109744Y-138274662D01*
X162994930Y-138197945D01*
X169817000Y-138197945D01*
X169817000Y-139170055D01*
X170006650Y-140123486D01*
X170378660Y-141021599D01*
X170918735Y-141829879D01*
X171606121Y-142517265D01*
X172414401Y-143057340D01*
X173312514Y-143429350D01*
X174265945Y-143619000D01*
X175238055Y-143619000D01*
X176191486Y-143429350D01*
X177089599Y-143057340D01*
X177897879Y-142517265D01*
X178585265Y-141829879D01*
X179125340Y-141021599D01*
X179497350Y-140123486D01*
X179687000Y-139170055D01*
X179687000Y-138197945D01*
X179497350Y-137244514D01*
X179125340Y-136346401D01*
X178585265Y-135538121D01*
X177897879Y-134850735D01*
X177089599Y-134310660D01*
X176191486Y-133938650D01*
X175238055Y-133749000D01*
X174265945Y-133749000D01*
X173312514Y-133938650D01*
X172414401Y-134310660D01*
X171606121Y-134850735D01*
X170918735Y-135538121D01*
X170378660Y-136346401D01*
X170006650Y-137244514D01*
X169817000Y-138197945D01*
X162994930Y-138197945D01*
X162809199Y-138073844D01*
X162475250Y-137935518D01*
X162120732Y-137865000D01*
X161759268Y-137865000D01*
X161404750Y-137935518D01*
X161070801Y-138073844D01*
X160770256Y-138274662D01*
X160514662Y-138530256D01*
X160313844Y-138830801D01*
X160190000Y-139129787D01*
X160066156Y-138830801D01*
X159865338Y-138530256D01*
X159609744Y-138274662D01*
X159309199Y-138073844D01*
X158975250Y-137935518D01*
X158620732Y-137865000D01*
X158259268Y-137865000D01*
X157904750Y-137935518D01*
X157570801Y-138073844D01*
X157270256Y-138274662D01*
X157014662Y-138530256D01*
X156813844Y-138830801D01*
X156778072Y-138917162D01*
X156778072Y-138500000D01*
X156765812Y-138375518D01*
X156729502Y-138255820D01*
X156670537Y-138145506D01*
X156591185Y-138048815D01*
X156494494Y-137969463D01*
X156384180Y-137910498D01*
X156264482Y-137874188D01*
X156140000Y-137861928D01*
X153740000Y-137861928D01*
X153615518Y-137874188D01*
X153495820Y-137910498D01*
X153385506Y-137969463D01*
X153288815Y-138048815D01*
X153209463Y-138145506D01*
X153150498Y-138255820D01*
X153114188Y-138375518D01*
X153101928Y-138500000D01*
X140265956Y-138500000D01*
X140238494Y-138477463D01*
X140128180Y-138418498D01*
X140008482Y-138382188D01*
X139884000Y-138369928D01*
X137484000Y-138369928D01*
X137359518Y-138382188D01*
X137239820Y-138418498D01*
X137129506Y-138477463D01*
X137032815Y-138556815D01*
X136953463Y-138653506D01*
X136894498Y-138763820D01*
X136858188Y-138883518D01*
X136845928Y-139008000D01*
X136845928Y-139425162D01*
X136810156Y-139338801D01*
X136609338Y-139038256D01*
X136353744Y-138782662D01*
X136053199Y-138581844D01*
X135719250Y-138443518D01*
X135364732Y-138373000D01*
X135003268Y-138373000D01*
X134648750Y-138443518D01*
X134314801Y-138581844D01*
X134014256Y-138782662D01*
X133758662Y-139038256D01*
X133557844Y-139338801D01*
X133434000Y-139637787D01*
X133310156Y-139338801D01*
X133109338Y-139038256D01*
X132853744Y-138782662D01*
X132553199Y-138581844D01*
X132219250Y-138443518D01*
X131864732Y-138373000D01*
X131503268Y-138373000D01*
X131148750Y-138443518D01*
X130814801Y-138581844D01*
X130514256Y-138782662D01*
X130258662Y-139038256D01*
X130057844Y-139338801D01*
X129934000Y-139637787D01*
X129810156Y-139338801D01*
X129609338Y-139038256D01*
X129353744Y-138782662D01*
X129053199Y-138581844D01*
X128719250Y-138443518D01*
X128364732Y-138373000D01*
X128003268Y-138373000D01*
X127648750Y-138443518D01*
X127314801Y-138581844D01*
X127014256Y-138782662D01*
X126758662Y-139038256D01*
X126557844Y-139338801D01*
X126434000Y-139637787D01*
X126310156Y-139338801D01*
X126109338Y-139038256D01*
X125853744Y-138782662D01*
X125553199Y-138581844D01*
X125219250Y-138443518D01*
X124864732Y-138373000D01*
X124503268Y-138373000D01*
X124148750Y-138443518D01*
X123814801Y-138581844D01*
X123514256Y-138782662D01*
X123258662Y-139038256D01*
X123057844Y-139338801D01*
X122934000Y-139637787D01*
X122810156Y-139338801D01*
X122609338Y-139038256D01*
X122353744Y-138782662D01*
X122053199Y-138581844D01*
X121719250Y-138443518D01*
X121364732Y-138373000D01*
X121003268Y-138373000D01*
X120648750Y-138443518D01*
X120314801Y-138581844D01*
X120014256Y-138782662D01*
X119758662Y-139038256D01*
X119557844Y-139338801D01*
X119419518Y-139672750D01*
X119349000Y-140027268D01*
X106905852Y-140027268D01*
X106935000Y-139880732D01*
X106935000Y-139519268D01*
X106864482Y-139164750D01*
X106726156Y-138830801D01*
X106525338Y-138530256D01*
X106269744Y-138274662D01*
X105969199Y-138073844D01*
X105635250Y-137935518D01*
X105280732Y-137865000D01*
X104919268Y-137865000D01*
X104564750Y-137935518D01*
X104230801Y-138073844D01*
X103930256Y-138274662D01*
X103674662Y-138530256D01*
X103473844Y-138830801D01*
X103438072Y-138917162D01*
X103438072Y-138500000D01*
X103425812Y-138375518D01*
X103389502Y-138255820D01*
X103330537Y-138145506D01*
X103251185Y-138048815D01*
X103154494Y-137969463D01*
X103044180Y-137910498D01*
X102924482Y-137874188D01*
X102800000Y-137861928D01*
X100400000Y-137861928D01*
X100275518Y-137874188D01*
X100155820Y-137910498D01*
X100045506Y-137969463D01*
X99948815Y-138048815D01*
X99869463Y-138145506D01*
X99810498Y-138255820D01*
X99774188Y-138375518D01*
X99761928Y-138500000D01*
X94851000Y-138500000D01*
X94851000Y-138197945D01*
X94661350Y-137244514D01*
X94289340Y-136346401D01*
X93749265Y-135538121D01*
X93061879Y-134850735D01*
X92253599Y-134310660D01*
X91355486Y-133938650D01*
X90402055Y-133749000D01*
X89429945Y-133749000D01*
X88476514Y-133938650D01*
X87578401Y-134310660D01*
X86770121Y-134850735D01*
X86082735Y-135538121D01*
X85542660Y-136346401D01*
X85170650Y-137244514D01*
X84981000Y-138197945D01*
X84480000Y-138197945D01*
X84480000Y-131216061D01*
X135617000Y-131216061D01*
X135617000Y-131419939D01*
X135656774Y-131619898D01*
X135734795Y-131808256D01*
X135848063Y-131977774D01*
X135992226Y-132121937D01*
X136161744Y-132235205D01*
X136350102Y-132313226D01*
X136550061Y-132353000D01*
X136753939Y-132353000D01*
X136953898Y-132313226D01*
X137142256Y-132235205D01*
X137311774Y-132121937D01*
X137455937Y-131977774D01*
X137569205Y-131808256D01*
X137647226Y-131619898D01*
X137687000Y-131419939D01*
X137687000Y-131216061D01*
X137647226Y-131016102D01*
X137569205Y-130827744D01*
X137455937Y-130658226D01*
X137311774Y-130514063D01*
X137142256Y-130400795D01*
X136953898Y-130322774D01*
X136753939Y-130283000D01*
X136550061Y-130283000D01*
X136350102Y-130322774D01*
X136161744Y-130400795D01*
X135992226Y-130514063D01*
X135848063Y-130658226D01*
X135734795Y-130827744D01*
X135656774Y-131016102D01*
X135617000Y-131216061D01*
X84480000Y-131216061D01*
X84480000Y-127324000D01*
X88077928Y-127324000D01*
X88077928Y-129724000D01*
X88090188Y-129848482D01*
X88126498Y-129968180D01*
X88185463Y-130078494D01*
X88264815Y-130175185D01*
X88361506Y-130254537D01*
X88471820Y-130313502D01*
X88591518Y-130349812D01*
X88716000Y-130362072D01*
X91116000Y-130362072D01*
X91240482Y-130349812D01*
X91360180Y-130313502D01*
X91470494Y-130254537D01*
X91567185Y-130175185D01*
X91646537Y-130078494D01*
X91705502Y-129968180D01*
X91741812Y-129848482D01*
X91754072Y-129724000D01*
X91754072Y-127324000D01*
X91741812Y-127199518D01*
X91705502Y-127079820D01*
X91646537Y-126969506D01*
X91567185Y-126872815D01*
X91470494Y-126793463D01*
X91360180Y-126734498D01*
X91240482Y-126698188D01*
X91116000Y-126685928D01*
X90709097Y-126685928D01*
X90894486Y-126586836D01*
X91014374Y-126301980D01*
X89916000Y-125203605D01*
X88817626Y-126301980D01*
X88937514Y-126586836D01*
X89136912Y-126685928D01*
X88716000Y-126685928D01*
X88591518Y-126698188D01*
X88471820Y-126734498D01*
X88361506Y-126793463D01*
X88264815Y-126872815D01*
X88185463Y-126969506D01*
X88126498Y-127079820D01*
X88090188Y-127199518D01*
X88077928Y-127324000D01*
X84480000Y-127324000D01*
X84480000Y-125078684D01*
X88072933Y-125078684D01*
X88119015Y-125437198D01*
X88234154Y-125779833D01*
X88353164Y-126002486D01*
X88638020Y-126122374D01*
X89736395Y-125024000D01*
X90095605Y-125024000D01*
X91193980Y-126122374D01*
X91478836Y-126002486D01*
X91639699Y-125678790D01*
X91734322Y-125329931D01*
X91759067Y-124969316D01*
X91712985Y-124610802D01*
X91597846Y-124268167D01*
X91478836Y-124045514D01*
X91193980Y-123925626D01*
X90095605Y-125024000D01*
X89736395Y-125024000D01*
X88638020Y-123925626D01*
X88353164Y-124045514D01*
X88192301Y-124369210D01*
X88097678Y-124718069D01*
X88072933Y-125078684D01*
X84480000Y-125078684D01*
X84480000Y-123746020D01*
X88817626Y-123746020D01*
X89916000Y-124844395D01*
X91014374Y-123746020D01*
X90894486Y-123461164D01*
X90570790Y-123300301D01*
X90221931Y-123205678D01*
X89861316Y-123180933D01*
X89502802Y-123227015D01*
X89160167Y-123342154D01*
X88937514Y-123461164D01*
X88817626Y-123746020D01*
X84480000Y-123746020D01*
X84480000Y-118262061D01*
X115297000Y-118262061D01*
X115297000Y-118465939D01*
X115336774Y-118665898D01*
X115414795Y-118854256D01*
X115528063Y-119023774D01*
X115672226Y-119167937D01*
X115841744Y-119281205D01*
X116030102Y-119359226D01*
X116230061Y-119399000D01*
X116433939Y-119399000D01*
X116633898Y-119359226D01*
X116800875Y-119290061D01*
X132188000Y-119290061D01*
X132188000Y-119493939D01*
X132227774Y-119693898D01*
X132305795Y-119882256D01*
X132419063Y-120051774D01*
X132563226Y-120195937D01*
X132732744Y-120309205D01*
X132921102Y-120387226D01*
X133121061Y-120427000D01*
X133324939Y-120427000D01*
X133524898Y-120387226D01*
X133713256Y-120309205D01*
X133882774Y-120195937D01*
X134026937Y-120051774D01*
X134140205Y-119882256D01*
X134218226Y-119693898D01*
X134258000Y-119493939D01*
X134258000Y-119290061D01*
X134218226Y-119090102D01*
X134210227Y-119070792D01*
X134264061Y-119081500D01*
X134467939Y-119081500D01*
X134667898Y-119041726D01*
X134856256Y-118963705D01*
X135025774Y-118850437D01*
X135169937Y-118706274D01*
X135283205Y-118536756D01*
X135361226Y-118348398D01*
X135401000Y-118148439D01*
X135401000Y-117944561D01*
X135361226Y-117744602D01*
X135338842Y-117690561D01*
X137395000Y-117690561D01*
X137395000Y-117894439D01*
X137434774Y-118094398D01*
X137512795Y-118282756D01*
X137626063Y-118452274D01*
X137770226Y-118596437D01*
X137939744Y-118709705D01*
X138128102Y-118787726D01*
X138328061Y-118827500D01*
X138531939Y-118827500D01*
X138731898Y-118787726D01*
X138920256Y-118709705D01*
X139089774Y-118596437D01*
X139171711Y-118514500D01*
X153186101Y-118514500D01*
X153186101Y-118718378D01*
X153225875Y-118918337D01*
X153303896Y-119106695D01*
X153417164Y-119276213D01*
X153530370Y-119389419D01*
X153437563Y-119482226D01*
X153324295Y-119651744D01*
X153246274Y-119840102D01*
X153206500Y-120040061D01*
X153206500Y-120243939D01*
X153246274Y-120443898D01*
X153324295Y-120632256D01*
X153437563Y-120801774D01*
X153581726Y-120945937D01*
X153751244Y-121059205D01*
X153939602Y-121137226D01*
X154099934Y-121169118D01*
X154071774Y-121237102D01*
X154032000Y-121437061D01*
X154032000Y-121640939D01*
X154071774Y-121840898D01*
X154149795Y-122029256D01*
X154263063Y-122198774D01*
X154407226Y-122342937D01*
X154576744Y-122456205D01*
X154765102Y-122534226D01*
X154965061Y-122574000D01*
X155168939Y-122574000D01*
X155368898Y-122534226D01*
X155557256Y-122456205D01*
X155726774Y-122342937D01*
X155811536Y-122258175D01*
X155857363Y-122326759D01*
X156057241Y-122526637D01*
X156289759Y-122682000D01*
X156057241Y-122837363D01*
X155857363Y-123037241D01*
X155700320Y-123272273D01*
X155592147Y-123533426D01*
X155537000Y-123810665D01*
X155537000Y-124093335D01*
X155592147Y-124370574D01*
X155700320Y-124631727D01*
X155857363Y-124866759D01*
X156057241Y-125066637D01*
X156289759Y-125222000D01*
X156057241Y-125377363D01*
X155857363Y-125577241D01*
X155700320Y-125812273D01*
X155592147Y-126073426D01*
X155537000Y-126350665D01*
X155537000Y-126633335D01*
X155592147Y-126910574D01*
X155700320Y-127171727D01*
X155857363Y-127406759D01*
X156057241Y-127606637D01*
X156289759Y-127762000D01*
X156057241Y-127917363D01*
X155857363Y-128117241D01*
X155700320Y-128352273D01*
X155592147Y-128613426D01*
X155537000Y-128890665D01*
X155537000Y-129173335D01*
X155592147Y-129450574D01*
X155700320Y-129711727D01*
X155857363Y-129946759D01*
X156057241Y-130146637D01*
X156289759Y-130302000D01*
X156057241Y-130457363D01*
X155857363Y-130657241D01*
X155700320Y-130892273D01*
X155592147Y-131153426D01*
X155537000Y-131430665D01*
X155537000Y-131713335D01*
X155592147Y-131990574D01*
X155700320Y-132251727D01*
X155857363Y-132486759D01*
X156057241Y-132686637D01*
X156292273Y-132843680D01*
X156553426Y-132951853D01*
X156830665Y-133007000D01*
X157113335Y-133007000D01*
X157390574Y-132951853D01*
X157651727Y-132843680D01*
X157886759Y-132686637D01*
X158086637Y-132486759D01*
X158243680Y-132251727D01*
X158351853Y-131990574D01*
X158407000Y-131713335D01*
X158407000Y-131430665D01*
X158351853Y-131153426D01*
X158243680Y-130892273D01*
X158086637Y-130657241D01*
X157886759Y-130457363D01*
X157654241Y-130302000D01*
X157886759Y-130146637D01*
X158086637Y-129946759D01*
X158243680Y-129711727D01*
X158351853Y-129450574D01*
X158407000Y-129173335D01*
X158407000Y-128890665D01*
X158351853Y-128613426D01*
X158243680Y-128352273D01*
X158086637Y-128117241D01*
X157886759Y-127917363D01*
X157654241Y-127762000D01*
X157886759Y-127606637D01*
X158086637Y-127406759D01*
X158243680Y-127171727D01*
X158351853Y-126910574D01*
X158407000Y-126633335D01*
X158407000Y-126350665D01*
X158351853Y-126073426D01*
X158243680Y-125812273D01*
X158086637Y-125577241D01*
X157886759Y-125377363D01*
X157654241Y-125222000D01*
X157886759Y-125066637D01*
X158086637Y-124866759D01*
X158243680Y-124631727D01*
X158351853Y-124370574D01*
X158407000Y-124093335D01*
X158407000Y-123810665D01*
X158351853Y-123533426D01*
X158243680Y-123272273D01*
X158086637Y-123037241D01*
X157886759Y-122837363D01*
X157654241Y-122682000D01*
X157886759Y-122526637D01*
X158086637Y-122326759D01*
X158243680Y-122091727D01*
X158351853Y-121830574D01*
X158407000Y-121553335D01*
X158407000Y-121270665D01*
X158351853Y-120993426D01*
X158243680Y-120732273D01*
X158086637Y-120497241D01*
X157886759Y-120297363D01*
X157654241Y-120142000D01*
X157886759Y-119986637D01*
X158086637Y-119786759D01*
X158243680Y-119551727D01*
X158351853Y-119290574D01*
X158407000Y-119013335D01*
X158407000Y-118730665D01*
X158351853Y-118453426D01*
X158243680Y-118192273D01*
X158086637Y-117957241D01*
X157886759Y-117757363D01*
X157651727Y-117600320D01*
X157641135Y-117595933D01*
X157827131Y-117484385D01*
X158035519Y-117295414D01*
X158203037Y-117069420D01*
X158323246Y-116815087D01*
X158363904Y-116681039D01*
X158241915Y-116459000D01*
X157099000Y-116459000D01*
X157099000Y-116479000D01*
X156845000Y-116479000D01*
X156845000Y-116459000D01*
X155702085Y-116459000D01*
X155580096Y-116681039D01*
X155620754Y-116815087D01*
X155740963Y-117069420D01*
X155908481Y-117295414D01*
X156116869Y-117484385D01*
X156302865Y-117595933D01*
X156292273Y-117600320D01*
X156057241Y-117757363D01*
X155857363Y-117957241D01*
X155700320Y-118192273D01*
X155592147Y-118453426D01*
X155537000Y-118730665D01*
X155537000Y-119013335D01*
X155592147Y-119290574D01*
X155700320Y-119551727D01*
X155857363Y-119786759D01*
X156057241Y-119986637D01*
X156289759Y-120142000D01*
X156057241Y-120297363D01*
X155857363Y-120497241D01*
X155707196Y-120721982D01*
X155557256Y-120621795D01*
X155368898Y-120543774D01*
X155208566Y-120511882D01*
X155236726Y-120443898D01*
X155276500Y-120243939D01*
X155276500Y-120040061D01*
X155236726Y-119840102D01*
X155158705Y-119651744D01*
X155045437Y-119482226D01*
X154932231Y-119369020D01*
X155025038Y-119276213D01*
X155138306Y-119106695D01*
X155216327Y-118918337D01*
X155256101Y-118718378D01*
X155256101Y-118514500D01*
X155216327Y-118314541D01*
X155138306Y-118126183D01*
X155025038Y-117956665D01*
X154880875Y-117812502D01*
X154711357Y-117699234D01*
X154522999Y-117621213D01*
X154323040Y-117581439D01*
X154119162Y-117581439D01*
X153919203Y-117621213D01*
X153730845Y-117699234D01*
X153561327Y-117812502D01*
X153417164Y-117956665D01*
X153303896Y-118126183D01*
X153225875Y-118314541D01*
X153186101Y-118514500D01*
X139171711Y-118514500D01*
X139233937Y-118452274D01*
X139347205Y-118282756D01*
X139425226Y-118094398D01*
X139465000Y-117894439D01*
X139465000Y-117690561D01*
X139425226Y-117490602D01*
X139347205Y-117302244D01*
X139233937Y-117132726D01*
X139089774Y-116988563D01*
X138920256Y-116875295D01*
X138731898Y-116797274D01*
X138531939Y-116757500D01*
X138328061Y-116757500D01*
X138128102Y-116797274D01*
X137939744Y-116875295D01*
X137770226Y-116988563D01*
X137626063Y-117132726D01*
X137512795Y-117302244D01*
X137434774Y-117490602D01*
X137395000Y-117690561D01*
X135338842Y-117690561D01*
X135283205Y-117556244D01*
X135169937Y-117386726D01*
X135025774Y-117242563D01*
X134856256Y-117129295D01*
X134667898Y-117051274D01*
X134467939Y-117011500D01*
X134264061Y-117011500D01*
X134064102Y-117051274D01*
X133875744Y-117129295D01*
X133706226Y-117242563D01*
X133562063Y-117386726D01*
X133448795Y-117556244D01*
X133370774Y-117744602D01*
X133331000Y-117944561D01*
X133331000Y-118148439D01*
X133370774Y-118348398D01*
X133378773Y-118367708D01*
X133324939Y-118357000D01*
X133121061Y-118357000D01*
X132921102Y-118396774D01*
X132732744Y-118474795D01*
X132563226Y-118588063D01*
X132419063Y-118732226D01*
X132305795Y-118901744D01*
X132227774Y-119090102D01*
X132188000Y-119290061D01*
X116800875Y-119290061D01*
X116822256Y-119281205D01*
X116991774Y-119167937D01*
X117135937Y-119023774D01*
X117249205Y-118854256D01*
X117327226Y-118665898D01*
X117367000Y-118465939D01*
X117367000Y-118262061D01*
X117327226Y-118062102D01*
X117278539Y-117944561D01*
X127616000Y-117944561D01*
X127616000Y-118148439D01*
X127655774Y-118348398D01*
X127733795Y-118536756D01*
X127847063Y-118706274D01*
X127991226Y-118850437D01*
X128160744Y-118963705D01*
X128349102Y-119041726D01*
X128549061Y-119081500D01*
X128752939Y-119081500D01*
X128952898Y-119041726D01*
X129141256Y-118963705D01*
X129310774Y-118850437D01*
X129454937Y-118706274D01*
X129568205Y-118536756D01*
X129646226Y-118348398D01*
X129686000Y-118148439D01*
X129686000Y-117944561D01*
X129646226Y-117744602D01*
X129568205Y-117556244D01*
X129454937Y-117386726D01*
X129310774Y-117242563D01*
X129141256Y-117129295D01*
X128952898Y-117051274D01*
X128752939Y-117011500D01*
X128549061Y-117011500D01*
X128349102Y-117051274D01*
X128160744Y-117129295D01*
X127991226Y-117242563D01*
X127847063Y-117386726D01*
X127733795Y-117556244D01*
X127655774Y-117744602D01*
X127616000Y-117944561D01*
X117278539Y-117944561D01*
X117249205Y-117873744D01*
X117135937Y-117704226D01*
X116991774Y-117560063D01*
X116822256Y-117446795D01*
X116633898Y-117368774D01*
X116433939Y-117329000D01*
X116230061Y-117329000D01*
X116030102Y-117368774D01*
X115841744Y-117446795D01*
X115672226Y-117560063D01*
X115528063Y-117704226D01*
X115414795Y-117873744D01*
X115336774Y-118062102D01*
X115297000Y-118262061D01*
X84480000Y-118262061D01*
X84480000Y-116738061D01*
X140443000Y-116738061D01*
X140443000Y-116941939D01*
X140482774Y-117141898D01*
X140560795Y-117330256D01*
X140674063Y-117499774D01*
X140818226Y-117643937D01*
X140987744Y-117757205D01*
X141176102Y-117835226D01*
X141376061Y-117875000D01*
X141579939Y-117875000D01*
X141779898Y-117835226D01*
X141968256Y-117757205D01*
X142137774Y-117643937D01*
X142281937Y-117499774D01*
X142395205Y-117330256D01*
X142473226Y-117141898D01*
X142513000Y-116941939D01*
X142513000Y-116801561D01*
X143364000Y-116801561D01*
X143364000Y-117005439D01*
X143403774Y-117205398D01*
X143481795Y-117393756D01*
X143595063Y-117563274D01*
X143739226Y-117707437D01*
X143908744Y-117820705D01*
X144097102Y-117898726D01*
X144297061Y-117938500D01*
X144500939Y-117938500D01*
X144700898Y-117898726D01*
X144889256Y-117820705D01*
X145058774Y-117707437D01*
X145202937Y-117563274D01*
X145316205Y-117393756D01*
X145394226Y-117205398D01*
X145434000Y-117005439D01*
X145434000Y-116801561D01*
X145394226Y-116601602D01*
X145316205Y-116413244D01*
X145202937Y-116243726D01*
X145058774Y-116099563D01*
X144889256Y-115986295D01*
X144700898Y-115908274D01*
X144500939Y-115868500D01*
X144297061Y-115868500D01*
X144097102Y-115908274D01*
X143908744Y-115986295D01*
X143739226Y-116099563D01*
X143595063Y-116243726D01*
X143481795Y-116413244D01*
X143403774Y-116601602D01*
X143364000Y-116801561D01*
X142513000Y-116801561D01*
X142513000Y-116738061D01*
X142473226Y-116538102D01*
X142395205Y-116349744D01*
X142281937Y-116180226D01*
X142137774Y-116036063D01*
X141968256Y-115922795D01*
X141779898Y-115844774D01*
X141579939Y-115805000D01*
X141376061Y-115805000D01*
X141176102Y-115844774D01*
X140987744Y-115922795D01*
X140818226Y-116036063D01*
X140674063Y-116180226D01*
X140560795Y-116349744D01*
X140482774Y-116538102D01*
X140443000Y-116738061D01*
X84480000Y-116738061D01*
X84480000Y-114706061D01*
X98359979Y-114706061D01*
X98359979Y-114909939D01*
X98399753Y-115109898D01*
X98477774Y-115298256D01*
X98591042Y-115467774D01*
X98735205Y-115611937D01*
X98904723Y-115725205D01*
X99093081Y-115803226D01*
X99293040Y-115843000D01*
X99496918Y-115843000D01*
X99696877Y-115803226D01*
X99885235Y-115725205D01*
X100054753Y-115611937D01*
X100198916Y-115467774D01*
X100312184Y-115298256D01*
X100390205Y-115109898D01*
X100429979Y-114909939D01*
X100429979Y-114706061D01*
X100390205Y-114506102D01*
X100312184Y-114317744D01*
X100198916Y-114148226D01*
X100054753Y-114004063D01*
X99885235Y-113890795D01*
X99696877Y-113812774D01*
X99496918Y-113773000D01*
X99293040Y-113773000D01*
X99093081Y-113812774D01*
X98904723Y-113890795D01*
X98735205Y-114004063D01*
X98591042Y-114148226D01*
X98477774Y-114317744D01*
X98399753Y-114506102D01*
X98359979Y-114706061D01*
X84480000Y-114706061D01*
X84480000Y-113499561D01*
X101644500Y-113499561D01*
X101644500Y-113703439D01*
X101684274Y-113903398D01*
X101762295Y-114091756D01*
X101875563Y-114261274D01*
X102019726Y-114405437D01*
X102189244Y-114518705D01*
X102377602Y-114596726D01*
X102577561Y-114636500D01*
X102781439Y-114636500D01*
X102981398Y-114596726D01*
X103169756Y-114518705D01*
X103311995Y-114423664D01*
X120998935Y-114423664D01*
X120998935Y-114627542D01*
X121038709Y-114827501D01*
X121116730Y-115015859D01*
X121229998Y-115185377D01*
X121374161Y-115329540D01*
X121543679Y-115442808D01*
X121732037Y-115520829D01*
X121931996Y-115560603D01*
X122135874Y-115560603D01*
X122335833Y-115520829D01*
X122524191Y-115442808D01*
X122693709Y-115329540D01*
X122736823Y-115286426D01*
X123647903Y-115286426D01*
X123647903Y-115490304D01*
X123687677Y-115690263D01*
X123765698Y-115878621D01*
X123878966Y-116048139D01*
X124023129Y-116192302D01*
X124192647Y-116305570D01*
X124381005Y-116383591D01*
X124580964Y-116423365D01*
X124784842Y-116423365D01*
X124984801Y-116383591D01*
X125173159Y-116305570D01*
X125342677Y-116192302D01*
X125486840Y-116048139D01*
X125600108Y-115878621D01*
X125678129Y-115690263D01*
X125717903Y-115490304D01*
X125717903Y-115286426D01*
X125678129Y-115086467D01*
X125600108Y-114898109D01*
X125486840Y-114728591D01*
X125342677Y-114584428D01*
X125173159Y-114471160D01*
X124984801Y-114393139D01*
X124784842Y-114353365D01*
X124580964Y-114353365D01*
X124381005Y-114393139D01*
X124192647Y-114471160D01*
X124023129Y-114584428D01*
X123878966Y-114728591D01*
X123765698Y-114898109D01*
X123687677Y-115086467D01*
X123647903Y-115286426D01*
X122736823Y-115286426D01*
X122837872Y-115185377D01*
X122951140Y-115015859D01*
X123029161Y-114827501D01*
X123068935Y-114627542D01*
X123068935Y-114423664D01*
X123029161Y-114223705D01*
X122951140Y-114035347D01*
X122837872Y-113865829D01*
X122725604Y-113753561D01*
X145777000Y-113753561D01*
X145777000Y-113957439D01*
X145816774Y-114157398D01*
X145894795Y-114345756D01*
X146008063Y-114515274D01*
X146152226Y-114659437D01*
X146321744Y-114772705D01*
X146510102Y-114850726D01*
X146710061Y-114890500D01*
X146913939Y-114890500D01*
X147113898Y-114850726D01*
X147302256Y-114772705D01*
X147471774Y-114659437D01*
X147615937Y-114515274D01*
X147729205Y-114345756D01*
X147807226Y-114157398D01*
X147847000Y-113957439D01*
X147847000Y-113753561D01*
X147807226Y-113553602D01*
X147729205Y-113365244D01*
X147615937Y-113195726D01*
X147538772Y-113118561D01*
X152825500Y-113118561D01*
X152825500Y-113322439D01*
X152865274Y-113522398D01*
X152943295Y-113710756D01*
X153056563Y-113880274D01*
X153200726Y-114024437D01*
X153370244Y-114137705D01*
X153558602Y-114215726D01*
X153758561Y-114255500D01*
X153962439Y-114255500D01*
X154162398Y-114215726D01*
X154350756Y-114137705D01*
X154520274Y-114024437D01*
X154664437Y-113880274D01*
X154777705Y-113710756D01*
X154855726Y-113522398D01*
X154895500Y-113322439D01*
X154895500Y-113118561D01*
X154855726Y-112918602D01*
X154777705Y-112730244D01*
X154664437Y-112560726D01*
X154520274Y-112416563D01*
X154350756Y-112303295D01*
X154162398Y-112225274D01*
X153962439Y-112185500D01*
X153758561Y-112185500D01*
X153558602Y-112225274D01*
X153370244Y-112303295D01*
X153200726Y-112416563D01*
X153056563Y-112560726D01*
X152943295Y-112730244D01*
X152865274Y-112918602D01*
X152825500Y-113118561D01*
X147538772Y-113118561D01*
X147471774Y-113051563D01*
X147302256Y-112938295D01*
X147113898Y-112860274D01*
X146913939Y-112820500D01*
X146710061Y-112820500D01*
X146510102Y-112860274D01*
X146321744Y-112938295D01*
X146152226Y-113051563D01*
X146008063Y-113195726D01*
X145894795Y-113365244D01*
X145816774Y-113553602D01*
X145777000Y-113753561D01*
X122725604Y-113753561D01*
X122693709Y-113721666D01*
X122524191Y-113608398D01*
X122335833Y-113530377D01*
X122135874Y-113490603D01*
X121931996Y-113490603D01*
X121732037Y-113530377D01*
X121543679Y-113608398D01*
X121374161Y-113721666D01*
X121229998Y-113865829D01*
X121116730Y-114035347D01*
X121038709Y-114223705D01*
X120998935Y-114423664D01*
X103311995Y-114423664D01*
X103339274Y-114405437D01*
X103483437Y-114261274D01*
X103596705Y-114091756D01*
X103674726Y-113903398D01*
X103714500Y-113703439D01*
X103714500Y-113499561D01*
X103674726Y-113299602D01*
X103596705Y-113111244D01*
X103483437Y-112941726D01*
X103339274Y-112797563D01*
X103169756Y-112684295D01*
X102981398Y-112606274D01*
X102781439Y-112566500D01*
X102577561Y-112566500D01*
X102377602Y-112606274D01*
X102189244Y-112684295D01*
X102019726Y-112797563D01*
X101875563Y-112941726D01*
X101762295Y-113111244D01*
X101684274Y-113299602D01*
X101644500Y-113499561D01*
X84480000Y-113499561D01*
X84480000Y-111594561D01*
X112757000Y-111594561D01*
X112757000Y-111798439D01*
X112796774Y-111998398D01*
X112874795Y-112186756D01*
X112988063Y-112356274D01*
X113132226Y-112500437D01*
X113301744Y-112613705D01*
X113490102Y-112691726D01*
X113690061Y-112731500D01*
X113893939Y-112731500D01*
X114093898Y-112691726D01*
X114282256Y-112613705D01*
X114451774Y-112500437D01*
X114595937Y-112356274D01*
X114709205Y-112186756D01*
X114787226Y-111998398D01*
X114827000Y-111798439D01*
X114827000Y-111594561D01*
X114787226Y-111394602D01*
X114709205Y-111206244D01*
X114595937Y-111036726D01*
X114451774Y-110892563D01*
X114282256Y-110779295D01*
X114093898Y-110701274D01*
X113893939Y-110661500D01*
X113690061Y-110661500D01*
X113490102Y-110701274D01*
X113301744Y-110779295D01*
X113132226Y-110892563D01*
X112988063Y-111036726D01*
X112874795Y-111206244D01*
X112796774Y-111394602D01*
X112757000Y-111594561D01*
X84480000Y-111594561D01*
X84480000Y-110642061D01*
X144253000Y-110642061D01*
X144253000Y-110845939D01*
X144292774Y-111045898D01*
X144370795Y-111234256D01*
X144484063Y-111403774D01*
X144628226Y-111547937D01*
X144797744Y-111661205D01*
X144986102Y-111739226D01*
X145186061Y-111779000D01*
X145389939Y-111779000D01*
X145589898Y-111739226D01*
X145778256Y-111661205D01*
X145947774Y-111547937D01*
X146091937Y-111403774D01*
X146205205Y-111234256D01*
X146240079Y-111150061D01*
X151873000Y-111150061D01*
X151873000Y-111353939D01*
X151912774Y-111553898D01*
X151990795Y-111742256D01*
X152104063Y-111911774D01*
X152248226Y-112055937D01*
X152417744Y-112169205D01*
X152606102Y-112247226D01*
X152806061Y-112287000D01*
X153009939Y-112287000D01*
X153209898Y-112247226D01*
X153398256Y-112169205D01*
X153567774Y-112055937D01*
X153711937Y-111911774D01*
X153825205Y-111742256D01*
X153903226Y-111553898D01*
X153943000Y-111353939D01*
X153943000Y-111150061D01*
X153903226Y-110950102D01*
X153825205Y-110761744D01*
X153711937Y-110592226D01*
X153567774Y-110448063D01*
X153398256Y-110334795D01*
X153209898Y-110256774D01*
X153009939Y-110217000D01*
X152806061Y-110217000D01*
X152606102Y-110256774D01*
X152417744Y-110334795D01*
X152248226Y-110448063D01*
X152104063Y-110592226D01*
X151990795Y-110761744D01*
X151912774Y-110950102D01*
X151873000Y-111150061D01*
X146240079Y-111150061D01*
X146283226Y-111045898D01*
X146323000Y-110845939D01*
X146323000Y-110642061D01*
X146283226Y-110442102D01*
X146205205Y-110253744D01*
X146091937Y-110084226D01*
X145947774Y-109940063D01*
X145778256Y-109826795D01*
X145589898Y-109748774D01*
X145389939Y-109709000D01*
X145186061Y-109709000D01*
X144986102Y-109748774D01*
X144797744Y-109826795D01*
X144628226Y-109940063D01*
X144484063Y-110084226D01*
X144370795Y-110253744D01*
X144292774Y-110442102D01*
X144253000Y-110642061D01*
X84480000Y-110642061D01*
X84480000Y-104482561D01*
X96755000Y-104482561D01*
X96755000Y-104686439D01*
X96794774Y-104886398D01*
X96872795Y-105074756D01*
X96986063Y-105244274D01*
X97130226Y-105388437D01*
X97299744Y-105501705D01*
X97488102Y-105579726D01*
X97688061Y-105619500D01*
X97891939Y-105619500D01*
X98091898Y-105579726D01*
X98280256Y-105501705D01*
X98449774Y-105388437D01*
X98593937Y-105244274D01*
X98678603Y-105117561D01*
X122790000Y-105117561D01*
X122790000Y-105321439D01*
X122829774Y-105521398D01*
X122907795Y-105709756D01*
X123021063Y-105879274D01*
X123165226Y-106023437D01*
X123334744Y-106136705D01*
X123523102Y-106214726D01*
X123723061Y-106254500D01*
X123926939Y-106254500D01*
X124126898Y-106214726D01*
X124315256Y-106136705D01*
X124414996Y-106070061D01*
X149333000Y-106070061D01*
X149333000Y-106273939D01*
X149372774Y-106473898D01*
X149450795Y-106662256D01*
X149564063Y-106831774D01*
X149666289Y-106934000D01*
X149564063Y-107036226D01*
X149450795Y-107205744D01*
X149372774Y-107394102D01*
X149333000Y-107594061D01*
X149333000Y-107797939D01*
X149372774Y-107997898D01*
X149450795Y-108186256D01*
X149564063Y-108355774D01*
X149666289Y-108458000D01*
X149564063Y-108560226D01*
X149450795Y-108729744D01*
X149372774Y-108918102D01*
X149333000Y-109118061D01*
X149333000Y-109321939D01*
X149372774Y-109521898D01*
X149450795Y-109710256D01*
X149564063Y-109879774D01*
X149708226Y-110023937D01*
X149877744Y-110137205D01*
X150066102Y-110215226D01*
X150266061Y-110255000D01*
X150469939Y-110255000D01*
X150669898Y-110215226D01*
X150858256Y-110137205D01*
X151027774Y-110023937D01*
X151171937Y-109879774D01*
X151285205Y-109710256D01*
X151363226Y-109521898D01*
X151403000Y-109321939D01*
X151403000Y-109118061D01*
X151363226Y-108918102D01*
X151285205Y-108729744D01*
X151171937Y-108560226D01*
X151069711Y-108458000D01*
X151171937Y-108355774D01*
X151285205Y-108186256D01*
X151363226Y-107997898D01*
X151403000Y-107797939D01*
X151403000Y-107594061D01*
X151363226Y-107394102D01*
X151285205Y-107205744D01*
X151171937Y-107036226D01*
X151069711Y-106934000D01*
X151171937Y-106831774D01*
X151285205Y-106662256D01*
X151363226Y-106473898D01*
X151403000Y-106273939D01*
X151403000Y-106070061D01*
X151363226Y-105870102D01*
X151285205Y-105681744D01*
X151171937Y-105512226D01*
X151027774Y-105368063D01*
X150858256Y-105254795D01*
X150669898Y-105176774D01*
X150469939Y-105137000D01*
X150266061Y-105137000D01*
X150066102Y-105176774D01*
X149877744Y-105254795D01*
X149708226Y-105368063D01*
X149564063Y-105512226D01*
X149450795Y-105681744D01*
X149372774Y-105870102D01*
X149333000Y-106070061D01*
X124414996Y-106070061D01*
X124484774Y-106023437D01*
X124628937Y-105879274D01*
X124742205Y-105709756D01*
X124820226Y-105521398D01*
X124860000Y-105321439D01*
X124860000Y-105117561D01*
X124822108Y-104927061D01*
X143808500Y-104927061D01*
X143808500Y-105130939D01*
X143848274Y-105330898D01*
X143926295Y-105519256D01*
X144039563Y-105688774D01*
X144183726Y-105832937D01*
X144353244Y-105946205D01*
X144541602Y-106024226D01*
X144741561Y-106064000D01*
X144945439Y-106064000D01*
X145145398Y-106024226D01*
X145333756Y-105946205D01*
X145503274Y-105832937D01*
X145647437Y-105688774D01*
X145760705Y-105519256D01*
X145838726Y-105330898D01*
X145878500Y-105130939D01*
X145878500Y-104927061D01*
X145838726Y-104727102D01*
X145760705Y-104538744D01*
X145647437Y-104369226D01*
X145503274Y-104225063D01*
X145333756Y-104111795D01*
X145145398Y-104033774D01*
X144945439Y-103994000D01*
X144741561Y-103994000D01*
X144541602Y-104033774D01*
X144353244Y-104111795D01*
X144183726Y-104225063D01*
X144039563Y-104369226D01*
X143926295Y-104538744D01*
X143848274Y-104727102D01*
X143808500Y-104927061D01*
X124822108Y-104927061D01*
X124820226Y-104917602D01*
X124742205Y-104729244D01*
X124628937Y-104559726D01*
X124484774Y-104415563D01*
X124315256Y-104302295D01*
X124126898Y-104224274D01*
X123926939Y-104184500D01*
X123723061Y-104184500D01*
X123523102Y-104224274D01*
X123334744Y-104302295D01*
X123165226Y-104415563D01*
X123021063Y-104559726D01*
X122907795Y-104729244D01*
X122829774Y-104917602D01*
X122790000Y-105117561D01*
X98678603Y-105117561D01*
X98707205Y-105074756D01*
X98785226Y-104886398D01*
X98825000Y-104686439D01*
X98825000Y-104482561D01*
X98785226Y-104282602D01*
X98707205Y-104094244D01*
X98593937Y-103924726D01*
X98449774Y-103780563D01*
X98280256Y-103667295D01*
X98091898Y-103589274D01*
X97891939Y-103549500D01*
X97688061Y-103549500D01*
X97488102Y-103589274D01*
X97299744Y-103667295D01*
X97130226Y-103780563D01*
X96986063Y-103924726D01*
X96872795Y-104094244D01*
X96794774Y-104282602D01*
X96755000Y-104482561D01*
X84480000Y-104482561D01*
X84480000Y-103085561D01*
X120758000Y-103085561D01*
X120758000Y-103289439D01*
X120797774Y-103489398D01*
X120875795Y-103677756D01*
X120989063Y-103847274D01*
X121133226Y-103991437D01*
X121302744Y-104104705D01*
X121491102Y-104182726D01*
X121691061Y-104222500D01*
X121894939Y-104222500D01*
X122094898Y-104182726D01*
X122283256Y-104104705D01*
X122452774Y-103991437D01*
X122596937Y-103847274D01*
X122710205Y-103677756D01*
X122788226Y-103489398D01*
X122828000Y-103289439D01*
X122828000Y-103085561D01*
X122788226Y-102885602D01*
X122710205Y-102697244D01*
X122596937Y-102527726D01*
X122452774Y-102383563D01*
X122283256Y-102270295D01*
X122094898Y-102192274D01*
X121894939Y-102152500D01*
X121691061Y-102152500D01*
X121491102Y-102192274D01*
X121302744Y-102270295D01*
X121133226Y-102383563D01*
X120989063Y-102527726D01*
X120875795Y-102697244D01*
X120797774Y-102885602D01*
X120758000Y-103085561D01*
X84480000Y-103085561D01*
X84480000Y-98577061D01*
X93834000Y-98577061D01*
X93834000Y-98780939D01*
X93873774Y-98980898D01*
X93951795Y-99169256D01*
X94065063Y-99338774D01*
X94209226Y-99482937D01*
X94378744Y-99596205D01*
X94567102Y-99674226D01*
X94677345Y-99696155D01*
X94699274Y-99806398D01*
X94777295Y-99994756D01*
X94890563Y-100164274D01*
X95034726Y-100308437D01*
X95204244Y-100421705D01*
X95392602Y-100499726D01*
X95592561Y-100539500D01*
X95796439Y-100539500D01*
X95996398Y-100499726D01*
X96039044Y-100482061D01*
X110217000Y-100482061D01*
X110217000Y-100685939D01*
X110256774Y-100885898D01*
X110334795Y-101074256D01*
X110448063Y-101243774D01*
X110592226Y-101387937D01*
X110761744Y-101501205D01*
X110950102Y-101579226D01*
X111150061Y-101619000D01*
X111353939Y-101619000D01*
X111553898Y-101579226D01*
X111742256Y-101501205D01*
X111911774Y-101387937D01*
X112055937Y-101243774D01*
X112169205Y-101074256D01*
X112247226Y-100885898D01*
X112287000Y-100685939D01*
X112287000Y-100482061D01*
X112247226Y-100282102D01*
X112169205Y-100093744D01*
X112055937Y-99924226D01*
X111911774Y-99780063D01*
X111742256Y-99666795D01*
X111553898Y-99588774D01*
X111353939Y-99549000D01*
X111150061Y-99549000D01*
X110950102Y-99588774D01*
X110761744Y-99666795D01*
X110592226Y-99780063D01*
X110448063Y-99924226D01*
X110334795Y-100093744D01*
X110256774Y-100282102D01*
X110217000Y-100482061D01*
X96039044Y-100482061D01*
X96184756Y-100421705D01*
X96354274Y-100308437D01*
X96498437Y-100164274D01*
X96611705Y-99994756D01*
X96689726Y-99806398D01*
X96729500Y-99606439D01*
X96729500Y-99402561D01*
X96689726Y-99202602D01*
X96611705Y-99014244D01*
X96574165Y-98958061D01*
X113773000Y-98958061D01*
X113773000Y-99161939D01*
X113812774Y-99361898D01*
X113890795Y-99550256D01*
X114004063Y-99719774D01*
X114148226Y-99863937D01*
X114317744Y-99977205D01*
X114506102Y-100055226D01*
X114706061Y-100095000D01*
X114909939Y-100095000D01*
X115109898Y-100055226D01*
X115298256Y-99977205D01*
X115467774Y-99863937D01*
X115611937Y-99719774D01*
X115725205Y-99550256D01*
X115803226Y-99361898D01*
X115843000Y-99161939D01*
X115843000Y-98958061D01*
X115803226Y-98758102D01*
X115725205Y-98569744D01*
X115611937Y-98400226D01*
X115467774Y-98256063D01*
X115298256Y-98142795D01*
X115109898Y-98064774D01*
X114909939Y-98025000D01*
X114706061Y-98025000D01*
X114506102Y-98064774D01*
X114317744Y-98142795D01*
X114148226Y-98256063D01*
X114004063Y-98400226D01*
X113890795Y-98569744D01*
X113812774Y-98758102D01*
X113773000Y-98958061D01*
X96574165Y-98958061D01*
X96498437Y-98844726D01*
X96354274Y-98700563D01*
X96184756Y-98587295D01*
X95996398Y-98509274D01*
X95886155Y-98487345D01*
X95864226Y-98377102D01*
X95786205Y-98188744D01*
X95672937Y-98019226D01*
X95528774Y-97875063D01*
X95359256Y-97761795D01*
X95181248Y-97688061D01*
X104629000Y-97688061D01*
X104629000Y-97891939D01*
X104668774Y-98091898D01*
X104746795Y-98280256D01*
X104860063Y-98449774D01*
X105004226Y-98593937D01*
X105173744Y-98707205D01*
X105362102Y-98785226D01*
X105562061Y-98825000D01*
X105765939Y-98825000D01*
X105965898Y-98785226D01*
X106154256Y-98707205D01*
X106323774Y-98593937D01*
X106467937Y-98449774D01*
X106581205Y-98280256D01*
X106659226Y-98091898D01*
X106699000Y-97891939D01*
X106699000Y-97752000D01*
X155533928Y-97752000D01*
X155533928Y-99352000D01*
X155546188Y-99476482D01*
X155582498Y-99596180D01*
X155641463Y-99706494D01*
X155720815Y-99803185D01*
X155817506Y-99882537D01*
X155927820Y-99941502D01*
X156047518Y-99977812D01*
X156055961Y-99978643D01*
X155857363Y-100177241D01*
X155700320Y-100412273D01*
X155592147Y-100673426D01*
X155537000Y-100950665D01*
X155537000Y-101233335D01*
X155592147Y-101510574D01*
X155700320Y-101771727D01*
X155857363Y-102006759D01*
X156057241Y-102206637D01*
X156289759Y-102362000D01*
X156057241Y-102517363D01*
X155857363Y-102717241D01*
X155700320Y-102952273D01*
X155592147Y-103213426D01*
X155537000Y-103490665D01*
X155537000Y-103773335D01*
X155592147Y-104050574D01*
X155700320Y-104311727D01*
X155857363Y-104546759D01*
X156057241Y-104746637D01*
X156289759Y-104902000D01*
X156057241Y-105057363D01*
X155857363Y-105257241D01*
X155700320Y-105492273D01*
X155592147Y-105753426D01*
X155537000Y-106030665D01*
X155537000Y-106313335D01*
X155592147Y-106590574D01*
X155700320Y-106851727D01*
X155857363Y-107086759D01*
X156057241Y-107286637D01*
X156289759Y-107442000D01*
X156057241Y-107597363D01*
X155857363Y-107797241D01*
X155700320Y-108032273D01*
X155592147Y-108293426D01*
X155537000Y-108570665D01*
X155537000Y-108853335D01*
X155592147Y-109130574D01*
X155700320Y-109391727D01*
X155857363Y-109626759D01*
X156057241Y-109826637D01*
X156289759Y-109982000D01*
X156057241Y-110137363D01*
X155857363Y-110337241D01*
X155700320Y-110572273D01*
X155592147Y-110833426D01*
X155537000Y-111110665D01*
X155537000Y-111393335D01*
X155592147Y-111670574D01*
X155700320Y-111931727D01*
X155857363Y-112166759D01*
X156057241Y-112366637D01*
X156289759Y-112522000D01*
X156057241Y-112677363D01*
X155857363Y-112877241D01*
X155700320Y-113112273D01*
X155592147Y-113373426D01*
X155537000Y-113650665D01*
X155537000Y-113933335D01*
X155592147Y-114210574D01*
X155700320Y-114471727D01*
X155857363Y-114706759D01*
X156057241Y-114906637D01*
X156292273Y-115063680D01*
X156302865Y-115068067D01*
X156116869Y-115179615D01*
X155908481Y-115368586D01*
X155740963Y-115594580D01*
X155620754Y-115848913D01*
X155580096Y-115982961D01*
X155702085Y-116205000D01*
X156845000Y-116205000D01*
X156845000Y-116185000D01*
X157099000Y-116185000D01*
X157099000Y-116205000D01*
X158241915Y-116205000D01*
X158249790Y-116190665D01*
X163157000Y-116190665D01*
X163157000Y-116473335D01*
X163212147Y-116750574D01*
X163320320Y-117011727D01*
X163477363Y-117246759D01*
X163677241Y-117446637D01*
X163909759Y-117602000D01*
X163677241Y-117757363D01*
X163477363Y-117957241D01*
X163320320Y-118192273D01*
X163212147Y-118453426D01*
X163157000Y-118730665D01*
X163157000Y-119013335D01*
X163212147Y-119290574D01*
X163320320Y-119551727D01*
X163477363Y-119786759D01*
X163677241Y-119986637D01*
X163909759Y-120142000D01*
X163677241Y-120297363D01*
X163477363Y-120497241D01*
X163320320Y-120732273D01*
X163212147Y-120993426D01*
X163157000Y-121270665D01*
X163157000Y-121553335D01*
X163212147Y-121830574D01*
X163320320Y-122091727D01*
X163477363Y-122326759D01*
X163677241Y-122526637D01*
X163909759Y-122682000D01*
X163677241Y-122837363D01*
X163477363Y-123037241D01*
X163320320Y-123272273D01*
X163212147Y-123533426D01*
X163157000Y-123810665D01*
X163157000Y-124093335D01*
X163212147Y-124370574D01*
X163320320Y-124631727D01*
X163477363Y-124866759D01*
X163677241Y-125066637D01*
X163909759Y-125222000D01*
X163677241Y-125377363D01*
X163477363Y-125577241D01*
X163320320Y-125812273D01*
X163212147Y-126073426D01*
X163157000Y-126350665D01*
X163157000Y-126633335D01*
X163212147Y-126910574D01*
X163320320Y-127171727D01*
X163477363Y-127406759D01*
X163677241Y-127606637D01*
X163909759Y-127762000D01*
X163677241Y-127917363D01*
X163477363Y-128117241D01*
X163320320Y-128352273D01*
X163212147Y-128613426D01*
X163157000Y-128890665D01*
X163157000Y-129173335D01*
X163212147Y-129450574D01*
X163320320Y-129711727D01*
X163477363Y-129946759D01*
X163677241Y-130146637D01*
X163909759Y-130302000D01*
X163677241Y-130457363D01*
X163477363Y-130657241D01*
X163320320Y-130892273D01*
X163212147Y-131153426D01*
X163157000Y-131430665D01*
X163157000Y-131713335D01*
X163212147Y-131990574D01*
X163320320Y-132251727D01*
X163477363Y-132486759D01*
X163677241Y-132686637D01*
X163912273Y-132843680D01*
X164173426Y-132951853D01*
X164450665Y-133007000D01*
X164733335Y-133007000D01*
X165010574Y-132951853D01*
X165271727Y-132843680D01*
X165506759Y-132686637D01*
X165706637Y-132486759D01*
X165863680Y-132251727D01*
X165971853Y-131990574D01*
X166027000Y-131713335D01*
X166027000Y-131430665D01*
X165971853Y-131153426D01*
X165863680Y-130892273D01*
X165706637Y-130657241D01*
X165506759Y-130457363D01*
X165274241Y-130302000D01*
X165506759Y-130146637D01*
X165706637Y-129946759D01*
X165863680Y-129711727D01*
X165971853Y-129450574D01*
X166027000Y-129173335D01*
X166027000Y-128890665D01*
X165971853Y-128613426D01*
X165863680Y-128352273D01*
X165706637Y-128117241D01*
X165506759Y-127917363D01*
X165274241Y-127762000D01*
X165506759Y-127606637D01*
X165706637Y-127406759D01*
X165863680Y-127171727D01*
X165971853Y-126910574D01*
X166027000Y-126633335D01*
X166027000Y-126390061D01*
X167303500Y-126390061D01*
X167303500Y-126593939D01*
X167343274Y-126793898D01*
X167421295Y-126982256D01*
X167534563Y-127151774D01*
X167678726Y-127295937D01*
X167848244Y-127409205D01*
X168036602Y-127487226D01*
X168236561Y-127527000D01*
X168440439Y-127527000D01*
X168640398Y-127487226D01*
X168828756Y-127409205D01*
X168998274Y-127295937D01*
X169142437Y-127151774D01*
X169255705Y-126982256D01*
X169333726Y-126793898D01*
X169373500Y-126593939D01*
X169373500Y-126390061D01*
X169333726Y-126190102D01*
X169255705Y-126001744D01*
X169142437Y-125832226D01*
X168998274Y-125688063D01*
X168828756Y-125574795D01*
X168640398Y-125496774D01*
X168440439Y-125457000D01*
X168236561Y-125457000D01*
X168036602Y-125496774D01*
X167848244Y-125574795D01*
X167678726Y-125688063D01*
X167534563Y-125832226D01*
X167421295Y-126001744D01*
X167343274Y-126190102D01*
X167303500Y-126390061D01*
X166027000Y-126390061D01*
X166027000Y-126350665D01*
X165971853Y-126073426D01*
X165863680Y-125812273D01*
X165706637Y-125577241D01*
X165506759Y-125377363D01*
X165274241Y-125222000D01*
X165506759Y-125066637D01*
X165706637Y-124866759D01*
X165863680Y-124631727D01*
X165971853Y-124370574D01*
X166012235Y-124167561D01*
X166097000Y-124167561D01*
X166097000Y-124371439D01*
X166136774Y-124571398D01*
X166214795Y-124759756D01*
X166328063Y-124929274D01*
X166472226Y-125073437D01*
X166641744Y-125186705D01*
X166830102Y-125264726D01*
X167030061Y-125304500D01*
X167233939Y-125304500D01*
X167433898Y-125264726D01*
X167622256Y-125186705D01*
X167791774Y-125073437D01*
X167935937Y-124929274D01*
X168049205Y-124759756D01*
X168127226Y-124571398D01*
X168167000Y-124371439D01*
X168167000Y-124313740D01*
X170727000Y-124313740D01*
X170727000Y-124606260D01*
X170784068Y-124893158D01*
X170896010Y-125163411D01*
X171058525Y-125406632D01*
X171265368Y-125613475D01*
X171439760Y-125730000D01*
X171265368Y-125846525D01*
X171058525Y-126053368D01*
X170896010Y-126296589D01*
X170784068Y-126566842D01*
X170727000Y-126853740D01*
X170727000Y-127146260D01*
X170784068Y-127433158D01*
X170896010Y-127703411D01*
X171058525Y-127946632D01*
X171265368Y-128153475D01*
X171508589Y-128315990D01*
X171778842Y-128427932D01*
X172065740Y-128485000D01*
X172358260Y-128485000D01*
X172645158Y-128427932D01*
X172915411Y-128315990D01*
X173158632Y-128153475D01*
X173345715Y-127966392D01*
X173413595Y-128093386D01*
X173524038Y-128227962D01*
X173658614Y-128338405D01*
X173812150Y-128420472D01*
X173978746Y-128471008D01*
X174152000Y-128488072D01*
X175352000Y-128488072D01*
X175525254Y-128471008D01*
X175691850Y-128420472D01*
X175845386Y-128338405D01*
X175979962Y-128227962D01*
X176090405Y-128093386D01*
X176172472Y-127939850D01*
X176223008Y-127773254D01*
X176240072Y-127600000D01*
X176240072Y-126400000D01*
X176223008Y-126226746D01*
X176172472Y-126060150D01*
X176090405Y-125906614D01*
X175979962Y-125772038D01*
X175845386Y-125661595D01*
X175718392Y-125593715D01*
X175905475Y-125406632D01*
X176067990Y-125163411D01*
X176179932Y-124893158D01*
X176237000Y-124606260D01*
X176237000Y-124313740D01*
X176179932Y-124026842D01*
X176067990Y-123756589D01*
X175905475Y-123513368D01*
X175698632Y-123306525D01*
X175524240Y-123190000D01*
X175698632Y-123073475D01*
X175905475Y-122866632D01*
X176067990Y-122623411D01*
X176179932Y-122353158D01*
X176237000Y-122066260D01*
X176237000Y-121773740D01*
X176179932Y-121486842D01*
X176067990Y-121216589D01*
X175905475Y-120973368D01*
X175698632Y-120766525D01*
X175455411Y-120604010D01*
X175185158Y-120492068D01*
X174898260Y-120435000D01*
X174605740Y-120435000D01*
X174318842Y-120492068D01*
X174048589Y-120604010D01*
X173805368Y-120766525D01*
X173598525Y-120973368D01*
X173482689Y-121146729D01*
X173240397Y-121071208D01*
X172391605Y-121920000D01*
X173240397Y-122768792D01*
X173482689Y-122693271D01*
X173598525Y-122866632D01*
X173805368Y-123073475D01*
X173979760Y-123190000D01*
X173805368Y-123306525D01*
X173598525Y-123513368D01*
X173482000Y-123687760D01*
X173365475Y-123513368D01*
X173158632Y-123306525D01*
X172985271Y-123190689D01*
X173060792Y-122948397D01*
X172212000Y-122099605D01*
X171363208Y-122948397D01*
X171438729Y-123190689D01*
X171265368Y-123306525D01*
X171058525Y-123513368D01*
X170896010Y-123756589D01*
X170784068Y-124026842D01*
X170727000Y-124313740D01*
X168167000Y-124313740D01*
X168167000Y-124167561D01*
X168127226Y-123967602D01*
X168049205Y-123779244D01*
X167935937Y-123609726D01*
X167791774Y-123465563D01*
X167622256Y-123352295D01*
X167433898Y-123274274D01*
X167233939Y-123234500D01*
X167030061Y-123234500D01*
X166830102Y-123274274D01*
X166641744Y-123352295D01*
X166472226Y-123465563D01*
X166328063Y-123609726D01*
X166214795Y-123779244D01*
X166136774Y-123967602D01*
X166097000Y-124167561D01*
X166012235Y-124167561D01*
X166027000Y-124093335D01*
X166027000Y-123810665D01*
X165971853Y-123533426D01*
X165863680Y-123272273D01*
X165706637Y-123037241D01*
X165506759Y-122837363D01*
X165274241Y-122682000D01*
X165506759Y-122526637D01*
X165706637Y-122326759D01*
X165863680Y-122091727D01*
X165906425Y-121988531D01*
X170721389Y-121988531D01*
X170763401Y-122278019D01*
X170861081Y-122553747D01*
X170934528Y-122691157D01*
X171183603Y-122768792D01*
X172032395Y-121920000D01*
X171183603Y-121071208D01*
X170934528Y-121148843D01*
X170808629Y-121412883D01*
X170736661Y-121696411D01*
X170721389Y-121988531D01*
X165906425Y-121988531D01*
X165971853Y-121830574D01*
X166027000Y-121553335D01*
X166027000Y-121270665D01*
X165971853Y-120993426D01*
X165929677Y-120891603D01*
X171363208Y-120891603D01*
X172212000Y-121740395D01*
X173060792Y-120891603D01*
X172983157Y-120642528D01*
X172719117Y-120516629D01*
X172435589Y-120444661D01*
X172143469Y-120429389D01*
X171853981Y-120471401D01*
X171578253Y-120569081D01*
X171440843Y-120642528D01*
X171363208Y-120891603D01*
X165929677Y-120891603D01*
X165863680Y-120732273D01*
X165706637Y-120497241D01*
X165506759Y-120297363D01*
X165274241Y-120142000D01*
X165506759Y-119986637D01*
X165706637Y-119786759D01*
X165863680Y-119551727D01*
X165971853Y-119290574D01*
X166027000Y-119013335D01*
X166027000Y-118730665D01*
X165971853Y-118453426D01*
X165863680Y-118192273D01*
X165706637Y-117957241D01*
X165506759Y-117757363D01*
X165274241Y-117602000D01*
X165506759Y-117446637D01*
X165706637Y-117246759D01*
X165863680Y-117011727D01*
X165971853Y-116750574D01*
X166027000Y-116473335D01*
X166027000Y-116190665D01*
X165971853Y-115913426D01*
X165863680Y-115652273D01*
X165706637Y-115417241D01*
X165506759Y-115217363D01*
X165271727Y-115060320D01*
X165261135Y-115055933D01*
X165447131Y-114944385D01*
X165655519Y-114755414D01*
X165823037Y-114529420D01*
X165943246Y-114275087D01*
X165983904Y-114141039D01*
X165861915Y-113919000D01*
X164719000Y-113919000D01*
X164719000Y-113939000D01*
X164465000Y-113939000D01*
X164465000Y-113919000D01*
X163322085Y-113919000D01*
X163200096Y-114141039D01*
X163240754Y-114275087D01*
X163360963Y-114529420D01*
X163528481Y-114755414D01*
X163736869Y-114944385D01*
X163922865Y-115055933D01*
X163912273Y-115060320D01*
X163677241Y-115217363D01*
X163477363Y-115417241D01*
X163320320Y-115652273D01*
X163212147Y-115913426D01*
X163157000Y-116190665D01*
X158249790Y-116190665D01*
X158363904Y-115982961D01*
X158323246Y-115848913D01*
X158203037Y-115594580D01*
X158035519Y-115368586D01*
X157827131Y-115179615D01*
X157641135Y-115068067D01*
X157651727Y-115063680D01*
X157886759Y-114906637D01*
X158086637Y-114706759D01*
X158243680Y-114471727D01*
X158351853Y-114210574D01*
X158407000Y-113933335D01*
X158407000Y-113650665D01*
X158351853Y-113373426D01*
X158243680Y-113112273D01*
X158086637Y-112877241D01*
X157886759Y-112677363D01*
X157654241Y-112522000D01*
X157886759Y-112366637D01*
X158086637Y-112166759D01*
X158243680Y-111931727D01*
X158351853Y-111670574D01*
X158407000Y-111393335D01*
X158407000Y-111110665D01*
X158351853Y-110833426D01*
X158243680Y-110572273D01*
X158086637Y-110337241D01*
X157886759Y-110137363D01*
X157654241Y-109982000D01*
X157886759Y-109826637D01*
X158086637Y-109626759D01*
X158243680Y-109391727D01*
X158351853Y-109130574D01*
X158407000Y-108853335D01*
X158407000Y-108570665D01*
X158351853Y-108293426D01*
X158243680Y-108032273D01*
X158086637Y-107797241D01*
X157886759Y-107597363D01*
X157654241Y-107442000D01*
X157886759Y-107286637D01*
X158086637Y-107086759D01*
X158243680Y-106851727D01*
X158351853Y-106590574D01*
X158407000Y-106313335D01*
X158407000Y-106030665D01*
X158351853Y-105753426D01*
X158243680Y-105492273D01*
X158086637Y-105257241D01*
X157886759Y-105057363D01*
X157654241Y-104902000D01*
X157886759Y-104746637D01*
X158086637Y-104546759D01*
X158243680Y-104311727D01*
X158351853Y-104050574D01*
X158407000Y-103773335D01*
X158407000Y-103490665D01*
X158351853Y-103213426D01*
X158243680Y-102952273D01*
X158086637Y-102717241D01*
X157886759Y-102517363D01*
X157654241Y-102362000D01*
X157886759Y-102206637D01*
X158086637Y-102006759D01*
X158243680Y-101771727D01*
X158351853Y-101510574D01*
X158407000Y-101233335D01*
X158407000Y-100950665D01*
X158351853Y-100673426D01*
X158243680Y-100412273D01*
X158086637Y-100177241D01*
X157888039Y-99978643D01*
X157896482Y-99977812D01*
X158016180Y-99941502D01*
X158126494Y-99882537D01*
X158223185Y-99803185D01*
X158302537Y-99706494D01*
X158361502Y-99596180D01*
X158397812Y-99476482D01*
X158410072Y-99352000D01*
X158410072Y-98410665D01*
X163157000Y-98410665D01*
X163157000Y-98693335D01*
X163212147Y-98970574D01*
X163320320Y-99231727D01*
X163477363Y-99466759D01*
X163677241Y-99666637D01*
X163909759Y-99822000D01*
X163677241Y-99977363D01*
X163477363Y-100177241D01*
X163320320Y-100412273D01*
X163212147Y-100673426D01*
X163157000Y-100950665D01*
X163157000Y-101233335D01*
X163212147Y-101510574D01*
X163320320Y-101771727D01*
X163477363Y-102006759D01*
X163677241Y-102206637D01*
X163909759Y-102362000D01*
X163677241Y-102517363D01*
X163477363Y-102717241D01*
X163320320Y-102952273D01*
X163212147Y-103213426D01*
X163157000Y-103490665D01*
X163157000Y-103773335D01*
X163212147Y-104050574D01*
X163320320Y-104311727D01*
X163477363Y-104546759D01*
X163677241Y-104746637D01*
X163909759Y-104902000D01*
X163677241Y-105057363D01*
X163477363Y-105257241D01*
X163320320Y-105492273D01*
X163212147Y-105753426D01*
X163157000Y-106030665D01*
X163157000Y-106313335D01*
X163212147Y-106590574D01*
X163320320Y-106851727D01*
X163477363Y-107086759D01*
X163677241Y-107286637D01*
X163909759Y-107442000D01*
X163677241Y-107597363D01*
X163477363Y-107797241D01*
X163320320Y-108032273D01*
X163212147Y-108293426D01*
X163157000Y-108570665D01*
X163157000Y-108853335D01*
X163212147Y-109130574D01*
X163320320Y-109391727D01*
X163477363Y-109626759D01*
X163677241Y-109826637D01*
X163909759Y-109982000D01*
X163677241Y-110137363D01*
X163477363Y-110337241D01*
X163320320Y-110572273D01*
X163212147Y-110833426D01*
X163157000Y-111110665D01*
X163157000Y-111393335D01*
X163212147Y-111670574D01*
X163320320Y-111931727D01*
X163477363Y-112166759D01*
X163677241Y-112366637D01*
X163912273Y-112523680D01*
X163922865Y-112528067D01*
X163736869Y-112639615D01*
X163528481Y-112828586D01*
X163360963Y-113054580D01*
X163240754Y-113308913D01*
X163200096Y-113442961D01*
X163322085Y-113665000D01*
X164465000Y-113665000D01*
X164465000Y-113645000D01*
X164719000Y-113645000D01*
X164719000Y-113665000D01*
X165861915Y-113665000D01*
X165983904Y-113442961D01*
X165943246Y-113308913D01*
X165823037Y-113054580D01*
X165655519Y-112828586D01*
X165447131Y-112639615D01*
X165261135Y-112528067D01*
X165271727Y-112523680D01*
X165506759Y-112366637D01*
X165706637Y-112166759D01*
X165863680Y-111931727D01*
X165971853Y-111670574D01*
X166027000Y-111393335D01*
X166027000Y-111110665D01*
X165971853Y-110833426D01*
X165863680Y-110572273D01*
X165855480Y-110560000D01*
X170881928Y-110560000D01*
X170881928Y-112960000D01*
X170894188Y-113084482D01*
X170930498Y-113204180D01*
X170989463Y-113314494D01*
X171068815Y-113411185D01*
X171165506Y-113490537D01*
X171275820Y-113549502D01*
X171395518Y-113585812D01*
X171520000Y-113598072D01*
X173920000Y-113598072D01*
X174044482Y-113585812D01*
X174164180Y-113549502D01*
X174274494Y-113490537D01*
X174371185Y-113411185D01*
X174450537Y-113314494D01*
X174509502Y-113204180D01*
X174545812Y-113084482D01*
X174558072Y-112960000D01*
X174558072Y-110560000D01*
X174545812Y-110435518D01*
X174509502Y-110315820D01*
X174450537Y-110205506D01*
X174371185Y-110108815D01*
X174274494Y-110029463D01*
X174164180Y-109970498D01*
X174044482Y-109934188D01*
X173920000Y-109921928D01*
X173502838Y-109921928D01*
X173589199Y-109886156D01*
X173889744Y-109685338D01*
X174145338Y-109429744D01*
X174346156Y-109129199D01*
X174484482Y-108795250D01*
X174555000Y-108440732D01*
X174555000Y-108079268D01*
X174484482Y-107724750D01*
X174346156Y-107390801D01*
X174145338Y-107090256D01*
X173889744Y-106834662D01*
X173589199Y-106633844D01*
X173290213Y-106510000D01*
X173589199Y-106386156D01*
X173889744Y-106185338D01*
X174145338Y-105929744D01*
X174346156Y-105629199D01*
X174484482Y-105295250D01*
X174555000Y-104940732D01*
X174555000Y-104579268D01*
X174484482Y-104224750D01*
X174346156Y-103890801D01*
X174145338Y-103590256D01*
X173889744Y-103334662D01*
X173589199Y-103133844D01*
X173290213Y-103010000D01*
X173589199Y-102886156D01*
X173889744Y-102685338D01*
X174145338Y-102429744D01*
X174346156Y-102129199D01*
X174484482Y-101795250D01*
X174555000Y-101440732D01*
X174555000Y-101079268D01*
X174484482Y-100724750D01*
X174346156Y-100390801D01*
X174145338Y-100090256D01*
X173889744Y-99834662D01*
X173589199Y-99633844D01*
X173290213Y-99510000D01*
X173589199Y-99386156D01*
X173889744Y-99185338D01*
X174145338Y-98929744D01*
X174346156Y-98629199D01*
X174484482Y-98295250D01*
X174555000Y-97940732D01*
X174555000Y-97579268D01*
X174484482Y-97224750D01*
X174346156Y-96890801D01*
X174145338Y-96590256D01*
X173889744Y-96334662D01*
X173589199Y-96133844D01*
X173290213Y-96010000D01*
X173589199Y-95886156D01*
X173889744Y-95685338D01*
X174145338Y-95429744D01*
X174346156Y-95129199D01*
X174484482Y-94795250D01*
X174555000Y-94440732D01*
X174555000Y-94079268D01*
X174484482Y-93724750D01*
X174346156Y-93390801D01*
X174145338Y-93090256D01*
X173889744Y-92834662D01*
X173589199Y-92633844D01*
X173255250Y-92495518D01*
X172900732Y-92425000D01*
X172539268Y-92425000D01*
X172184750Y-92495518D01*
X171850801Y-92633844D01*
X171550256Y-92834662D01*
X171294662Y-93090256D01*
X171093844Y-93390801D01*
X170955518Y-93724750D01*
X170885000Y-94079268D01*
X170885000Y-94440732D01*
X170955518Y-94795250D01*
X171093844Y-95129199D01*
X171294662Y-95429744D01*
X171550256Y-95685338D01*
X171850801Y-95886156D01*
X172149787Y-96010000D01*
X171850801Y-96133844D01*
X171550256Y-96334662D01*
X171294662Y-96590256D01*
X171093844Y-96890801D01*
X170955518Y-97224750D01*
X170885000Y-97579268D01*
X170885000Y-97940732D01*
X170955518Y-98295250D01*
X171093844Y-98629199D01*
X171294662Y-98929744D01*
X171550256Y-99185338D01*
X171850801Y-99386156D01*
X172149787Y-99510000D01*
X171850801Y-99633844D01*
X171550256Y-99834662D01*
X171294662Y-100090256D01*
X171093844Y-100390801D01*
X170955518Y-100724750D01*
X170885000Y-101079268D01*
X170885000Y-101440732D01*
X170955518Y-101795250D01*
X171093844Y-102129199D01*
X171294662Y-102429744D01*
X171550256Y-102685338D01*
X171850801Y-102886156D01*
X172149787Y-103010000D01*
X171850801Y-103133844D01*
X171550256Y-103334662D01*
X171294662Y-103590256D01*
X171093844Y-103890801D01*
X170955518Y-104224750D01*
X170885000Y-104579268D01*
X170885000Y-104940732D01*
X170955518Y-105295250D01*
X171093844Y-105629199D01*
X171294662Y-105929744D01*
X171550256Y-106185338D01*
X171850801Y-106386156D01*
X172149787Y-106510000D01*
X171850801Y-106633844D01*
X171550256Y-106834662D01*
X171294662Y-107090256D01*
X171093844Y-107390801D01*
X170955518Y-107724750D01*
X170885000Y-108079268D01*
X170885000Y-108440732D01*
X170955518Y-108795250D01*
X171093844Y-109129199D01*
X171294662Y-109429744D01*
X171550256Y-109685338D01*
X171850801Y-109886156D01*
X171937162Y-109921928D01*
X171520000Y-109921928D01*
X171395518Y-109934188D01*
X171275820Y-109970498D01*
X171165506Y-110029463D01*
X171068815Y-110108815D01*
X170989463Y-110205506D01*
X170930498Y-110315820D01*
X170894188Y-110435518D01*
X170881928Y-110560000D01*
X165855480Y-110560000D01*
X165706637Y-110337241D01*
X165506759Y-110137363D01*
X165274241Y-109982000D01*
X165506759Y-109826637D01*
X165706637Y-109626759D01*
X165863680Y-109391727D01*
X165971853Y-109130574D01*
X166027000Y-108853335D01*
X166027000Y-108570665D01*
X165971853Y-108293426D01*
X165863680Y-108032273D01*
X165706637Y-107797241D01*
X165506759Y-107597363D01*
X165274241Y-107442000D01*
X165506759Y-107286637D01*
X165706637Y-107086759D01*
X165863680Y-106851727D01*
X165971853Y-106590574D01*
X166027000Y-106313335D01*
X166027000Y-106030665D01*
X165971853Y-105753426D01*
X165863680Y-105492273D01*
X165706637Y-105257241D01*
X165506759Y-105057363D01*
X165274241Y-104902000D01*
X165506759Y-104746637D01*
X165706637Y-104546759D01*
X165863680Y-104311727D01*
X165971853Y-104050574D01*
X166027000Y-103773335D01*
X166027000Y-103490665D01*
X165971853Y-103213426D01*
X165863680Y-102952273D01*
X165706637Y-102717241D01*
X165506759Y-102517363D01*
X165274241Y-102362000D01*
X165506759Y-102206637D01*
X165706637Y-102006759D01*
X165863680Y-101771727D01*
X165971853Y-101510574D01*
X166027000Y-101233335D01*
X166027000Y-100950665D01*
X165971853Y-100673426D01*
X165863680Y-100412273D01*
X165706637Y-100177241D01*
X165506759Y-99977363D01*
X165274241Y-99822000D01*
X165506759Y-99666637D01*
X165706637Y-99466759D01*
X165863680Y-99231727D01*
X165971853Y-98970574D01*
X166027000Y-98693335D01*
X166027000Y-98410665D01*
X165971853Y-98133426D01*
X165863680Y-97872273D01*
X165706637Y-97637241D01*
X165506759Y-97437363D01*
X165271727Y-97280320D01*
X165010574Y-97172147D01*
X164733335Y-97117000D01*
X164450665Y-97117000D01*
X164173426Y-97172147D01*
X163912273Y-97280320D01*
X163677241Y-97437363D01*
X163477363Y-97637241D01*
X163320320Y-97872273D01*
X163212147Y-98133426D01*
X163157000Y-98410665D01*
X158410072Y-98410665D01*
X158410072Y-97752000D01*
X158397812Y-97627518D01*
X158361502Y-97507820D01*
X158302537Y-97397506D01*
X158223185Y-97300815D01*
X158126494Y-97221463D01*
X158016180Y-97162498D01*
X157896482Y-97126188D01*
X157772000Y-97113928D01*
X156172000Y-97113928D01*
X156047518Y-97126188D01*
X155927820Y-97162498D01*
X155817506Y-97221463D01*
X155720815Y-97300815D01*
X155641463Y-97397506D01*
X155582498Y-97507820D01*
X155546188Y-97627518D01*
X155533928Y-97752000D01*
X106699000Y-97752000D01*
X106699000Y-97688061D01*
X106659226Y-97488102D01*
X106581205Y-97299744D01*
X106467937Y-97130226D01*
X106323774Y-96986063D01*
X106154256Y-96872795D01*
X105965898Y-96794774D01*
X105765939Y-96755000D01*
X105562061Y-96755000D01*
X105362102Y-96794774D01*
X105173744Y-96872795D01*
X105004226Y-96986063D01*
X104860063Y-97130226D01*
X104746795Y-97299744D01*
X104668774Y-97488102D01*
X104629000Y-97688061D01*
X95181248Y-97688061D01*
X95170898Y-97683774D01*
X94970939Y-97644000D01*
X94767061Y-97644000D01*
X94567102Y-97683774D01*
X94378744Y-97761795D01*
X94209226Y-97875063D01*
X94065063Y-98019226D01*
X93951795Y-98188744D01*
X93873774Y-98377102D01*
X93834000Y-98577061D01*
X84480000Y-98577061D01*
X84480000Y-96227561D01*
X94405500Y-96227561D01*
X94405500Y-96431439D01*
X94445274Y-96631398D01*
X94523295Y-96819756D01*
X94636563Y-96989274D01*
X94780726Y-97133437D01*
X94950244Y-97246705D01*
X95138602Y-97324726D01*
X95338561Y-97364500D01*
X95542439Y-97364500D01*
X95742398Y-97324726D01*
X95930756Y-97246705D01*
X96100274Y-97133437D01*
X96244437Y-96989274D01*
X96357705Y-96819756D01*
X96435726Y-96631398D01*
X96475500Y-96431439D01*
X96475500Y-96418061D01*
X166224000Y-96418061D01*
X166224000Y-96621939D01*
X166263774Y-96821898D01*
X166341795Y-97010256D01*
X166455063Y-97179774D01*
X166599226Y-97323937D01*
X166768744Y-97437205D01*
X166957102Y-97515226D01*
X167157061Y-97555000D01*
X167360939Y-97555000D01*
X167560898Y-97515226D01*
X167749256Y-97437205D01*
X167918774Y-97323937D01*
X168062937Y-97179774D01*
X168176205Y-97010256D01*
X168254226Y-96821898D01*
X168294000Y-96621939D01*
X168294000Y-96418061D01*
X168254226Y-96218102D01*
X168176205Y-96029744D01*
X168062937Y-95860226D01*
X167918774Y-95716063D01*
X167749256Y-95602795D01*
X167560898Y-95524774D01*
X167360939Y-95485000D01*
X167157061Y-95485000D01*
X166957102Y-95524774D01*
X166768744Y-95602795D01*
X166599226Y-95716063D01*
X166455063Y-95860226D01*
X166341795Y-96029744D01*
X166263774Y-96218102D01*
X166224000Y-96418061D01*
X96475500Y-96418061D01*
X96475500Y-96227561D01*
X96435726Y-96027602D01*
X96357705Y-95839244D01*
X96244437Y-95669726D01*
X96100274Y-95525563D01*
X95930756Y-95412295D01*
X95742398Y-95334274D01*
X95542439Y-95294500D01*
X95338561Y-95294500D01*
X95138602Y-95334274D01*
X94950244Y-95412295D01*
X94780726Y-95525563D01*
X94636563Y-95669726D01*
X94523295Y-95839244D01*
X94445274Y-96027602D01*
X94405500Y-96227561D01*
X84480000Y-96227561D01*
X84480000Y-93475890D01*
X86761048Y-93475890D01*
X86761048Y-93722110D01*
X86809083Y-93963598D01*
X86903307Y-94191074D01*
X87040099Y-94395798D01*
X87214202Y-94569901D01*
X87418926Y-94706693D01*
X87646402Y-94800917D01*
X87887890Y-94848952D01*
X88134110Y-94848952D01*
X88375598Y-94800917D01*
X88603074Y-94706693D01*
X88807798Y-94569901D01*
X88981901Y-94395798D01*
X89118693Y-94191074D01*
X89212917Y-93963598D01*
X89260952Y-93722110D01*
X89260952Y-93475890D01*
X89212917Y-93234402D01*
X89118693Y-93006926D01*
X88981901Y-92802202D01*
X88807798Y-92628099D01*
X88603074Y-92491307D01*
X88375598Y-92397083D01*
X88134110Y-92349048D01*
X87887890Y-92349048D01*
X87646402Y-92397083D01*
X87418926Y-92491307D01*
X87214202Y-92628099D01*
X87040099Y-92802202D01*
X86903307Y-93006926D01*
X86809083Y-93234402D01*
X86761048Y-93475890D01*
X84480000Y-93475890D01*
X84480000Y-86133526D01*
X84732581Y-86133526D01*
X84732581Y-87105636D01*
X84922231Y-88059067D01*
X85294241Y-88957180D01*
X85834316Y-89765460D01*
X86521702Y-90452846D01*
X87329982Y-90992921D01*
X88228095Y-91364931D01*
X89181526Y-91554581D01*
X90153636Y-91554581D01*
X91107067Y-91364931D01*
X91362160Y-91259268D01*
X136397000Y-91259268D01*
X136397000Y-91620732D01*
X136467518Y-91975250D01*
X136605844Y-92309199D01*
X136806662Y-92609744D01*
X137062256Y-92865338D01*
X137362801Y-93066156D01*
X137696750Y-93204482D01*
X138051268Y-93275000D01*
X138412732Y-93275000D01*
X138767250Y-93204482D01*
X139101199Y-93066156D01*
X139401744Y-92865338D01*
X139657338Y-92609744D01*
X139858156Y-92309199D01*
X139893928Y-92222838D01*
X139893928Y-92640000D01*
X139906188Y-92764482D01*
X139942498Y-92884180D01*
X140001463Y-92994494D01*
X140080815Y-93091185D01*
X140177506Y-93170537D01*
X140287820Y-93229502D01*
X140407518Y-93265812D01*
X140532000Y-93278072D01*
X142932000Y-93278072D01*
X143056482Y-93265812D01*
X143176180Y-93229502D01*
X143286494Y-93170537D01*
X143383185Y-93091185D01*
X143462537Y-92994494D01*
X143521502Y-92884180D01*
X143557812Y-92764482D01*
X143570072Y-92640000D01*
X143570072Y-91259268D01*
X150621000Y-91259268D01*
X150621000Y-91620732D01*
X150691518Y-91975250D01*
X150829844Y-92309199D01*
X151030662Y-92609744D01*
X151286256Y-92865338D01*
X151586801Y-93066156D01*
X151920750Y-93204482D01*
X152275268Y-93275000D01*
X152636732Y-93275000D01*
X152991250Y-93204482D01*
X153325199Y-93066156D01*
X153625744Y-92865338D01*
X153881338Y-92609744D01*
X154082156Y-92309199D01*
X154117928Y-92222838D01*
X154117928Y-92640000D01*
X154130188Y-92764482D01*
X154166498Y-92884180D01*
X154225463Y-92994494D01*
X154304815Y-93091185D01*
X154401506Y-93170537D01*
X154511820Y-93229502D01*
X154631518Y-93265812D01*
X154756000Y-93278072D01*
X157156000Y-93278072D01*
X157280482Y-93265812D01*
X157400180Y-93229502D01*
X157510494Y-93170537D01*
X157607185Y-93091185D01*
X157686537Y-92994494D01*
X157745502Y-92884180D01*
X157781812Y-92764482D01*
X157794072Y-92640000D01*
X157794072Y-90240000D01*
X157781812Y-90115518D01*
X157745502Y-89995820D01*
X157686537Y-89885506D01*
X157607185Y-89788815D01*
X157510494Y-89709463D01*
X157400180Y-89650498D01*
X157280482Y-89614188D01*
X157156000Y-89601928D01*
X154756000Y-89601928D01*
X154631518Y-89614188D01*
X154511820Y-89650498D01*
X154401506Y-89709463D01*
X154304815Y-89788815D01*
X154225463Y-89885506D01*
X154166498Y-89995820D01*
X154130188Y-90115518D01*
X154117928Y-90240000D01*
X154117928Y-90657162D01*
X154082156Y-90570801D01*
X153881338Y-90270256D01*
X153625744Y-90014662D01*
X153325199Y-89813844D01*
X152991250Y-89675518D01*
X152636732Y-89605000D01*
X152275268Y-89605000D01*
X151920750Y-89675518D01*
X151586801Y-89813844D01*
X151286256Y-90014662D01*
X151030662Y-90270256D01*
X150829844Y-90570801D01*
X150691518Y-90904750D01*
X150621000Y-91259268D01*
X143570072Y-91259268D01*
X143570072Y-90240000D01*
X143557812Y-90115518D01*
X143521502Y-89995820D01*
X143462537Y-89885506D01*
X143383185Y-89788815D01*
X143286494Y-89709463D01*
X143176180Y-89650498D01*
X143056482Y-89614188D01*
X142932000Y-89601928D01*
X140532000Y-89601928D01*
X140407518Y-89614188D01*
X140287820Y-89650498D01*
X140177506Y-89709463D01*
X140080815Y-89788815D01*
X140001463Y-89885506D01*
X139942498Y-89995820D01*
X139906188Y-90115518D01*
X139893928Y-90240000D01*
X139893928Y-90657162D01*
X139858156Y-90570801D01*
X139657338Y-90270256D01*
X139401744Y-90014662D01*
X139101199Y-89813844D01*
X138767250Y-89675518D01*
X138412732Y-89605000D01*
X138051268Y-89605000D01*
X137696750Y-89675518D01*
X137362801Y-89813844D01*
X137062256Y-90014662D01*
X136806662Y-90270256D01*
X136605844Y-90570801D01*
X136467518Y-90904750D01*
X136397000Y-91259268D01*
X91362160Y-91259268D01*
X92005180Y-90992921D01*
X92813460Y-90452846D01*
X93500846Y-89765460D01*
X94040921Y-88957180D01*
X94412931Y-88059067D01*
X94585921Y-87189390D01*
X162453048Y-87189390D01*
X162453048Y-87435610D01*
X162501083Y-87677098D01*
X162595307Y-87904574D01*
X162732099Y-88109298D01*
X162906202Y-88283401D01*
X163110926Y-88420193D01*
X163338402Y-88514417D01*
X163579890Y-88562452D01*
X163826110Y-88562452D01*
X164067598Y-88514417D01*
X164295074Y-88420193D01*
X164499798Y-88283401D01*
X164673901Y-88109298D01*
X164810693Y-87904574D01*
X164904917Y-87677098D01*
X164952952Y-87435610D01*
X164952952Y-87189390D01*
X164904917Y-86947902D01*
X164810693Y-86720426D01*
X164673901Y-86515702D01*
X164499798Y-86341599D01*
X164295074Y-86204807D01*
X164067598Y-86110583D01*
X163826110Y-86062548D01*
X163579890Y-86062548D01*
X163338402Y-86110583D01*
X163110926Y-86204807D01*
X162906202Y-86341599D01*
X162732099Y-86515702D01*
X162595307Y-86720426D01*
X162501083Y-86947902D01*
X162453048Y-87189390D01*
X94585921Y-87189390D01*
X94602581Y-87105636D01*
X94602581Y-86133526D01*
X94550947Y-85873945D01*
X169817000Y-85873945D01*
X169817000Y-86846055D01*
X170006650Y-87799486D01*
X170378660Y-88697599D01*
X170918735Y-89505879D01*
X171606121Y-90193265D01*
X172414401Y-90733340D01*
X173312514Y-91105350D01*
X174265945Y-91295000D01*
X175238055Y-91295000D01*
X176191486Y-91105350D01*
X177089599Y-90733340D01*
X177897879Y-90193265D01*
X178585265Y-89505879D01*
X179125340Y-88697599D01*
X179497350Y-87799486D01*
X179687000Y-86846055D01*
X179687000Y-85873945D01*
X179497350Y-84920514D01*
X179125340Y-84022401D01*
X178585265Y-83214121D01*
X177897879Y-82526735D01*
X177089599Y-81986660D01*
X176191486Y-81614650D01*
X175238055Y-81425000D01*
X174265945Y-81425000D01*
X173312514Y-81614650D01*
X172414401Y-81986660D01*
X171606121Y-82526735D01*
X170918735Y-83214121D01*
X170378660Y-84022401D01*
X170006650Y-84920514D01*
X169817000Y-85873945D01*
X94550947Y-85873945D01*
X94412931Y-85180095D01*
X94040921Y-84281982D01*
X93500846Y-83473702D01*
X92813460Y-82786316D01*
X92005180Y-82246241D01*
X91107067Y-81874231D01*
X90153636Y-81684581D01*
X89181526Y-81684581D01*
X88228095Y-81874231D01*
X87329982Y-82246241D01*
X86521702Y-82786316D01*
X85834316Y-83473702D01*
X85294241Y-84281982D01*
X84922231Y-85180095D01*
X84732581Y-86133526D01*
X84480000Y-86133526D01*
X84480000Y-84866256D01*
X84548241Y-84123604D01*
X84742429Y-83435060D01*
X85058843Y-82793437D01*
X85486882Y-82220223D01*
X86012220Y-81734607D01*
X86617255Y-81352858D01*
X87281720Y-81087763D01*
X87996173Y-80945650D01*
X88409274Y-80924000D01*
X176245744Y-80924000D01*
X176988396Y-80992241D01*
G37*
%TD.AperFunction*%
%TD*%
M02*
