%TF.GenerationSoftware,KiCad,Pcbnew,(5.1.12-1-10_14)*%
%TF.CreationDate,2021-11-26T20:13:54-05:00*%
%TF.ProjectId,Untitled,556e7469-746c-4656-942e-6b696361645f,rev?*%
%TF.SameCoordinates,Original*%
%TF.FileFunction,Soldermask,Bot*%
%TF.FilePolarity,Negative*%
%FSLAX46Y46*%
G04 Gerber Fmt 4.6, Leading zero omitted, Abs format (unit mm)*
G04 Created by KiCad (PCBNEW (5.1.12-1-10_14)) date 2021-11-26 20:13:54*
%MOMM*%
%LPD*%
G01*
G04 APERTURE LIST*
%ADD10C,0.900000*%
%ADD11C,8.600000*%
%ADD12R,2.400000X2.400000*%
%ADD13C,2.400000*%
%ADD14C,1.700000*%
%ADD15R,1.600000X1.600000*%
%ADD16O,1.600000X1.600000*%
G04 APERTURE END LIST*
D10*
%TO.C,H1*%
X92196419Y-136403581D03*
X89916000Y-135459000D03*
X87635581Y-136403581D03*
X86691000Y-138684000D03*
X87635581Y-140964419D03*
X89916000Y-141909000D03*
X92196419Y-140964419D03*
X93141000Y-138684000D03*
D11*
X89916000Y-138684000D03*
%TD*%
%TO.C,H2*%
X174752000Y-138684000D03*
D10*
X177977000Y-138684000D03*
X177032419Y-140964419D03*
X174752000Y-141909000D03*
X172471581Y-140964419D03*
X171527000Y-138684000D03*
X172471581Y-136403581D03*
X174752000Y-135459000D03*
X177032419Y-136403581D03*
%TD*%
%TO.C,H3*%
X91948000Y-84339162D03*
X89667581Y-83394581D03*
X87387162Y-84339162D03*
X86442581Y-86619581D03*
X87387162Y-88900000D03*
X89667581Y-89844581D03*
X91948000Y-88900000D03*
X92892581Y-86619581D03*
D11*
X89667581Y-86619581D03*
%TD*%
%TO.C,H4*%
X174752000Y-86360000D03*
D10*
X177977000Y-86360000D03*
X177032419Y-88640419D03*
X174752000Y-89585000D03*
X172471581Y-88640419D03*
X171527000Y-86360000D03*
X172471581Y-84079581D03*
X174752000Y-83135000D03*
X177032419Y-84079581D03*
%TD*%
D12*
%TO.C,J1*%
X101600000Y-139700000D03*
D13*
X105100000Y-139700000D03*
%TD*%
%TO.C,J2*%
G36*
G01*
X175602000Y-126400000D02*
X175602000Y-127600000D01*
G75*
G02*
X175352000Y-127850000I-250000J0D01*
G01*
X174152000Y-127850000D01*
G75*
G02*
X173902000Y-127600000I0J250000D01*
G01*
X173902000Y-126400000D01*
G75*
G02*
X174152000Y-126150000I250000J0D01*
G01*
X175352000Y-126150000D01*
G75*
G02*
X175602000Y-126400000I0J-250000D01*
G01*
G37*
D14*
X174752000Y-124460000D03*
X174752000Y-121920000D03*
X172212000Y-127000000D03*
X172212000Y-124460000D03*
X172212000Y-121920000D03*
%TD*%
D12*
%TO.C,J3*%
X154940000Y-139700000D03*
D13*
X158440000Y-139700000D03*
X161940000Y-139700000D03*
%TD*%
D12*
%TO.C,J4*%
X172720000Y-111760000D03*
D13*
X172720000Y-108260000D03*
X172720000Y-104760000D03*
X172720000Y-101260000D03*
X172720000Y-97760000D03*
X172720000Y-94260000D03*
%TD*%
%TO.C,J5*%
X138232000Y-91440000D03*
D12*
X141732000Y-91440000D03*
%TD*%
D13*
%TO.C,J7*%
X89916000Y-125024000D03*
D12*
X89916000Y-128524000D03*
%TD*%
%TO.C,J8*%
X155956000Y-91440000D03*
D13*
X152456000Y-91440000D03*
%TD*%
D15*
%TO.C,U4*%
X156972000Y-98552000D03*
D16*
X164592000Y-131572000D03*
X156972000Y-101092000D03*
X164592000Y-129032000D03*
X156972000Y-103632000D03*
X164592000Y-126492000D03*
X156972000Y-106172000D03*
X164592000Y-123952000D03*
X156972000Y-108712000D03*
X164592000Y-121412000D03*
X156972000Y-111252000D03*
X164592000Y-118872000D03*
X156972000Y-113792000D03*
X164592000Y-116332000D03*
X156972000Y-116332000D03*
X164592000Y-113792000D03*
X156972000Y-118872000D03*
X164592000Y-111252000D03*
X156972000Y-121412000D03*
X164592000Y-108712000D03*
X156972000Y-123952000D03*
X164592000Y-106172000D03*
X156972000Y-126492000D03*
X164592000Y-103632000D03*
X156972000Y-129032000D03*
X164592000Y-101092000D03*
X156972000Y-131572000D03*
X164592000Y-98552000D03*
%TD*%
D13*
%TO.C,J6*%
X121184000Y-140208000D03*
X124684000Y-140208000D03*
X128184000Y-140208000D03*
X131684000Y-140208000D03*
X135184000Y-140208000D03*
D12*
X138684000Y-140208000D03*
%TD*%
M02*
