%TF.GenerationSoftware,KiCad,Pcbnew,(5.1.12-1-10_14)*%
%TF.CreationDate,2021-11-26T20:13:54-05:00*%
%TF.ProjectId,Untitled,556e7469-746c-4656-942e-6b696361645f,rev?*%
%TF.SameCoordinates,Original*%
%TF.FileFunction,Legend,Top*%
%TF.FilePolarity,Positive*%
%FSLAX46Y46*%
G04 Gerber Fmt 4.6, Leading zero omitted, Abs format (unit mm)*
G04 Created by KiCad (PCBNEW (5.1.12-1-10_14)) date 2021-11-26 20:13:54*
%MOMM*%
%LPD*%
G01*
G04 APERTURE LIST*
%ADD10C,0.120000*%
%ADD11C,0.100000*%
%ADD12C,0.150000*%
%ADD13C,0.130000*%
%ADD14C,0.220000*%
%ADD15C,0.010000*%
G04 APERTURE END LIST*
D10*
X94507566Y-121462800D02*
G75*
G03*
X94507566Y-121462800I-273566J0D01*
G01*
X105400361Y-130860800D02*
G75*
G03*
X105400361Y-130860800I-396761J0D01*
G01*
X105559569Y-125526800D02*
G75*
G03*
X105559569Y-125526800I-454369J0D01*
G01*
X155087294Y-98552000D02*
G75*
G03*
X155087294Y-98552000I-502894J0D01*
G01*
X149648212Y-100482400D02*
G75*
G03*
X149648212Y-100482400I-296212J0D01*
G01*
X128404968Y-107086400D02*
G75*
G03*
X128404968Y-107086400I-287368J0D01*
G01*
X116241553Y-123799600D02*
G75*
G03*
X116241553Y-123799600I-468353J0D01*
G01*
X137620363Y-112166400D02*
G75*
G03*
X137620363Y-112166400I-409563J0D01*
G01*
X142853210Y-124612400D02*
G75*
G03*
X142853210Y-124612400I-359210J0D01*
G01*
X142578168Y-121107200D02*
G75*
G03*
X142578168Y-121107200I-287368J0D01*
G01*
X135686800Y-124561600D02*
G75*
G03*
X135686800Y-124561600I-254000J0D01*
G01*
X118609412Y-118973600D02*
G75*
G03*
X118609412Y-118973600I-296212J0D01*
G01*
X86219926Y-116789200D02*
G75*
G03*
X86219926Y-116789200I-215526J0D01*
G01*
X90893526Y-101244400D02*
G75*
G03*
X90893526Y-101244400I-215526J0D01*
G01*
X99872800Y-113436400D02*
G75*
G03*
X99872800Y-113436400I-254000J0D01*
G01*
X107433284Y-102768400D02*
G75*
G03*
X107433284Y-102768400I-143684J0D01*
G01*
D11*
X178496500Y-112354142D02*
X178496500Y-111997000D01*
X178710785Y-112425571D02*
X177960785Y-112175571D01*
X178710785Y-111925571D01*
X177960785Y-111532714D02*
X177960785Y-111461285D01*
X177996500Y-111389857D01*
X178032214Y-111354142D01*
X178103642Y-111318428D01*
X178246500Y-111282714D01*
X178425071Y-111282714D01*
X178567928Y-111318428D01*
X178639357Y-111354142D01*
X178675071Y-111389857D01*
X178710785Y-111461285D01*
X178710785Y-111532714D01*
X178675071Y-111604142D01*
X178639357Y-111639857D01*
X178567928Y-111675571D01*
X178425071Y-111711285D01*
X178246500Y-111711285D01*
X178103642Y-111675571D01*
X178032214Y-111639857D01*
X177996500Y-111604142D01*
X177960785Y-111532714D01*
X178496500Y-109282714D02*
X178496500Y-108925571D01*
X178710785Y-109354142D02*
X177960785Y-109104142D01*
X178710785Y-108854142D01*
X178710785Y-108211285D02*
X178710785Y-108639857D01*
X178710785Y-108425571D02*
X177960785Y-108425571D01*
X178067928Y-108497000D01*
X178139357Y-108568428D01*
X178175071Y-108639857D01*
X178496500Y-105639857D02*
X178496500Y-105282714D01*
X178710785Y-105711285D02*
X177960785Y-105461285D01*
X178710785Y-105211285D01*
X178032214Y-104997000D02*
X177996500Y-104961285D01*
X177960785Y-104889857D01*
X177960785Y-104711285D01*
X177996500Y-104639857D01*
X178032214Y-104604142D01*
X178103642Y-104568428D01*
X178175071Y-104568428D01*
X178282214Y-104604142D01*
X178710785Y-105032714D01*
X178710785Y-104568428D01*
X178496500Y-101997000D02*
X178496500Y-101639857D01*
X178710785Y-102068428D02*
X177960785Y-101818428D01*
X178710785Y-101568428D01*
X177960785Y-101389857D02*
X177960785Y-100925571D01*
X178246500Y-101175571D01*
X178246500Y-101068428D01*
X178282214Y-100997000D01*
X178317928Y-100961285D01*
X178389357Y-100925571D01*
X178567928Y-100925571D01*
X178639357Y-100961285D01*
X178675071Y-100997000D01*
X178710785Y-101068428D01*
X178710785Y-101282714D01*
X178675071Y-101354142D01*
X178639357Y-101389857D01*
X178496500Y-98354142D02*
X178496500Y-97997000D01*
X178710785Y-98425571D02*
X177960785Y-98175571D01*
X178710785Y-97925571D01*
X178210785Y-97354142D02*
X178710785Y-97354142D01*
X177925071Y-97532714D02*
X178460785Y-97711285D01*
X178460785Y-97247000D01*
X178496500Y-94711285D02*
X178496500Y-94354142D01*
X178710785Y-94782714D02*
X177960785Y-94532714D01*
X178710785Y-94282714D01*
X177960785Y-93675571D02*
X177960785Y-94032714D01*
X178317928Y-94068428D01*
X178282214Y-94032714D01*
X178246500Y-93961285D01*
X178246500Y-93782714D01*
X178282214Y-93711285D01*
X178317928Y-93675571D01*
X178389357Y-93639857D01*
X178567928Y-93639857D01*
X178639357Y-93675571D01*
X178675071Y-93711285D01*
X178710785Y-93782714D01*
X178710785Y-93961285D01*
X178675071Y-94032714D01*
X178639357Y-94068428D01*
D10*
X153953928Y-135344642D02*
X153953928Y-134444642D01*
X154168214Y-134444642D01*
X154296785Y-134487500D01*
X154382500Y-134573214D01*
X154425357Y-134658928D01*
X154468214Y-134830357D01*
X154468214Y-134958928D01*
X154425357Y-135130357D01*
X154382500Y-135216071D01*
X154296785Y-135301785D01*
X154168214Y-135344642D01*
X153953928Y-135344642D01*
X154768214Y-134444642D02*
X155368214Y-134444642D01*
X154982500Y-135344642D01*
X157768214Y-135344642D02*
X157768214Y-134444642D01*
X157982500Y-134444642D01*
X158111071Y-134487500D01*
X158196785Y-134573214D01*
X158239642Y-134658928D01*
X158282500Y-134830357D01*
X158282500Y-134958928D01*
X158239642Y-135130357D01*
X158196785Y-135216071D01*
X158111071Y-135301785D01*
X157982500Y-135344642D01*
X157768214Y-135344642D01*
X158796785Y-134830357D02*
X158711071Y-134787500D01*
X158668214Y-134744642D01*
X158625357Y-134658928D01*
X158625357Y-134616071D01*
X158668214Y-134530357D01*
X158711071Y-134487500D01*
X158796785Y-134444642D01*
X158968214Y-134444642D01*
X159053928Y-134487500D01*
X159096785Y-134530357D01*
X159139642Y-134616071D01*
X159139642Y-134658928D01*
X159096785Y-134744642D01*
X159053928Y-134787500D01*
X158968214Y-134830357D01*
X158796785Y-134830357D01*
X158711071Y-134873214D01*
X158668214Y-134916071D01*
X158625357Y-135001785D01*
X158625357Y-135173214D01*
X158668214Y-135258928D01*
X158711071Y-135301785D01*
X158796785Y-135344642D01*
X158968214Y-135344642D01*
X159053928Y-135301785D01*
X159096785Y-135258928D01*
X159139642Y-135173214D01*
X159139642Y-135001785D01*
X159096785Y-134916071D01*
X159053928Y-134873214D01*
X158968214Y-134830357D01*
X161582500Y-135344642D02*
X161582500Y-134444642D01*
X161796785Y-134444642D01*
X161925357Y-134487500D01*
X162011071Y-134573214D01*
X162053928Y-134658928D01*
X162096785Y-134830357D01*
X162096785Y-134958928D01*
X162053928Y-135130357D01*
X162011071Y-135216071D01*
X161925357Y-135301785D01*
X161796785Y-135344642D01*
X161582500Y-135344642D01*
X162525357Y-135344642D02*
X162696785Y-135344642D01*
X162782500Y-135301785D01*
X162825357Y-135258928D01*
X162911071Y-135130357D01*
X162953928Y-134958928D01*
X162953928Y-134616071D01*
X162911071Y-134530357D01*
X162868214Y-134487500D01*
X162782500Y-134444642D01*
X162611071Y-134444642D01*
X162525357Y-134487500D01*
X162482500Y-134530357D01*
X162439642Y-134616071D01*
X162439642Y-134830357D01*
X162482500Y-134916071D01*
X162525357Y-134958928D01*
X162611071Y-135001785D01*
X162782500Y-135001785D01*
X162868214Y-134958928D01*
X162911071Y-134916071D01*
X162953928Y-134830357D01*
D12*
X134898047Y-133929880D02*
X134564714Y-133453690D01*
X134326619Y-133929880D02*
X134326619Y-132929880D01*
X134707571Y-132929880D01*
X134802809Y-132977500D01*
X134850428Y-133025119D01*
X134898047Y-133120357D01*
X134898047Y-133263214D01*
X134850428Y-133358452D01*
X134802809Y-133406071D01*
X134707571Y-133453690D01*
X134326619Y-133453690D01*
X135802809Y-133929880D02*
X135326619Y-133929880D01*
X135326619Y-132929880D01*
X136326619Y-133453690D02*
X136326619Y-133929880D01*
X135993285Y-132929880D02*
X136326619Y-133453690D01*
X136659952Y-132929880D01*
X136755190Y-134025119D02*
X137517095Y-134025119D01*
X137755190Y-133929880D02*
X137755190Y-132929880D01*
X137993285Y-132929880D01*
X138136142Y-132977500D01*
X138231380Y-133072738D01*
X138279000Y-133167976D01*
X138326619Y-133358452D01*
X138326619Y-133501309D01*
X138279000Y-133691785D01*
X138231380Y-133787023D01*
X138136142Y-133882261D01*
X137993285Y-133929880D01*
X137755190Y-133929880D01*
X138707571Y-133025119D02*
X138755190Y-132977500D01*
X138850428Y-132929880D01*
X139088523Y-132929880D01*
X139183761Y-132977500D01*
X139231380Y-133025119D01*
X139279000Y-133120357D01*
X139279000Y-133215595D01*
X139231380Y-133358452D01*
X138659952Y-133929880D01*
X139279000Y-133929880D01*
X134636142Y-135198928D02*
X135398047Y-135198928D01*
X138159952Y-135198928D02*
X138921857Y-135198928D01*
X138540904Y-135579880D02*
X138540904Y-134817976D01*
X127722547Y-134120380D02*
X127389214Y-133644190D01*
X127151119Y-134120380D02*
X127151119Y-133120380D01*
X127532071Y-133120380D01*
X127627309Y-133168000D01*
X127674928Y-133215619D01*
X127722547Y-133310857D01*
X127722547Y-133453714D01*
X127674928Y-133548952D01*
X127627309Y-133596571D01*
X127532071Y-133644190D01*
X127151119Y-133644190D01*
X128627309Y-134120380D02*
X128151119Y-134120380D01*
X128151119Y-133120380D01*
X129151119Y-133644190D02*
X129151119Y-134120380D01*
X128817785Y-133120380D02*
X129151119Y-133644190D01*
X129484452Y-133120380D01*
X129579690Y-134215619D02*
X130341595Y-134215619D01*
X130579690Y-134120380D02*
X130579690Y-133120380D01*
X130817785Y-133120380D01*
X130960642Y-133168000D01*
X131055880Y-133263238D01*
X131103500Y-133358476D01*
X131151119Y-133548952D01*
X131151119Y-133691809D01*
X131103500Y-133882285D01*
X131055880Y-133977523D01*
X130960642Y-134072761D01*
X130817785Y-134120380D01*
X130579690Y-134120380D01*
X131484452Y-133120380D02*
X132103500Y-133120380D01*
X131770166Y-133501333D01*
X131913023Y-133501333D01*
X132008261Y-133548952D01*
X132055880Y-133596571D01*
X132103500Y-133691809D01*
X132103500Y-133929904D01*
X132055880Y-134025142D01*
X132008261Y-134072761D01*
X131913023Y-134120380D01*
X131627309Y-134120380D01*
X131532071Y-134072761D01*
X131484452Y-134025142D01*
X127460642Y-135389428D02*
X128222547Y-135389428D01*
X130984452Y-135389428D02*
X131746357Y-135389428D01*
X131365404Y-135770380D02*
X131365404Y-135008476D01*
X120991547Y-134120380D02*
X120658214Y-133644190D01*
X120420119Y-134120380D02*
X120420119Y-133120380D01*
X120801071Y-133120380D01*
X120896309Y-133168000D01*
X120943928Y-133215619D01*
X120991547Y-133310857D01*
X120991547Y-133453714D01*
X120943928Y-133548952D01*
X120896309Y-133596571D01*
X120801071Y-133644190D01*
X120420119Y-133644190D01*
X121896309Y-134120380D02*
X121420119Y-134120380D01*
X121420119Y-133120380D01*
X122420119Y-133644190D02*
X122420119Y-134120380D01*
X122086785Y-133120380D02*
X122420119Y-133644190D01*
X122753452Y-133120380D01*
X122848690Y-134215619D02*
X123610595Y-134215619D01*
X123848690Y-134120380D02*
X123848690Y-133120380D01*
X124086785Y-133120380D01*
X124229642Y-133168000D01*
X124324880Y-133263238D01*
X124372500Y-133358476D01*
X124420119Y-133548952D01*
X124420119Y-133691809D01*
X124372500Y-133882285D01*
X124324880Y-133977523D01*
X124229642Y-134072761D01*
X124086785Y-134120380D01*
X123848690Y-134120380D01*
X125277261Y-133453714D02*
X125277261Y-134120380D01*
X125039166Y-133072761D02*
X124801071Y-133787047D01*
X125420119Y-133787047D01*
X120729642Y-135389428D02*
X121491547Y-135389428D01*
X124253452Y-135389428D02*
X125015357Y-135389428D01*
X124634404Y-135770380D02*
X124634404Y-135008476D01*
X102481142Y-133199642D02*
X102433523Y-133247261D01*
X102290666Y-133294880D01*
X102195428Y-133294880D01*
X102052571Y-133247261D01*
X101957333Y-133152023D01*
X101909714Y-133056785D01*
X101862095Y-132866309D01*
X101862095Y-132723452D01*
X101909714Y-132532976D01*
X101957333Y-132437738D01*
X102052571Y-132342500D01*
X102195428Y-132294880D01*
X102290666Y-132294880D01*
X102433523Y-132342500D01*
X102481142Y-132390119D01*
X102862095Y-133009166D02*
X103338285Y-133009166D01*
X102766857Y-133294880D02*
X103100190Y-132294880D01*
X103433523Y-133294880D01*
X103766857Y-133294880D02*
X103766857Y-132294880D01*
X104338285Y-133294880D01*
X104338285Y-132294880D01*
X100909714Y-134944880D02*
X100909714Y-133944880D01*
X100909714Y-134421071D02*
X101481142Y-134421071D01*
X101481142Y-134944880D02*
X101481142Y-133944880D01*
X105481142Y-134944880D02*
X105004952Y-134944880D01*
X105004952Y-133944880D01*
D13*
X96806476Y-85383714D02*
X97044571Y-86050380D01*
X97282666Y-85383714D01*
X98187428Y-86050380D02*
X97616000Y-86050380D01*
X97901714Y-86050380D02*
X97901714Y-85050380D01*
X97806476Y-85193238D01*
X97711238Y-85288476D01*
X97616000Y-85336095D01*
X98616000Y-85955142D02*
X98663619Y-86002761D01*
X98616000Y-86050380D01*
X98568380Y-86002761D01*
X98616000Y-85955142D01*
X98616000Y-86050380D01*
X99282666Y-85050380D02*
X99377904Y-85050380D01*
X99473142Y-85098000D01*
X99520761Y-85145619D01*
X99568380Y-85240857D01*
X99616000Y-85431333D01*
X99616000Y-85669428D01*
X99568380Y-85859904D01*
X99520761Y-85955142D01*
X99473142Y-86002761D01*
X99377904Y-86050380D01*
X99282666Y-86050380D01*
X99187428Y-86002761D01*
X99139809Y-85955142D01*
X99092190Y-85859904D01*
X99044571Y-85669428D01*
X99044571Y-85431333D01*
X99092190Y-85240857D01*
X99139809Y-85145619D01*
X99187428Y-85098000D01*
X99282666Y-85050380D01*
X101520761Y-85002761D02*
X100663619Y-86288476D01*
X103139809Y-86050380D02*
X102568380Y-86050380D01*
X102854095Y-86050380D02*
X102854095Y-85050380D01*
X102758857Y-85193238D01*
X102663619Y-85288476D01*
X102568380Y-85336095D01*
X104092190Y-86050380D02*
X103520761Y-86050380D01*
X103806476Y-86050380D02*
X103806476Y-85050380D01*
X103711238Y-85193238D01*
X103616000Y-85288476D01*
X103520761Y-85336095D01*
X104520761Y-85955142D02*
X104568380Y-86002761D01*
X104520761Y-86050380D01*
X104473142Y-86002761D01*
X104520761Y-85955142D01*
X104520761Y-86050380D01*
X104949333Y-85145619D02*
X104996952Y-85098000D01*
X105092190Y-85050380D01*
X105330285Y-85050380D01*
X105425523Y-85098000D01*
X105473142Y-85145619D01*
X105520761Y-85240857D01*
X105520761Y-85336095D01*
X105473142Y-85478952D01*
X104901714Y-86050380D01*
X105520761Y-86050380D01*
X106139809Y-85050380D02*
X106235047Y-85050380D01*
X106330285Y-85098000D01*
X106377904Y-85145619D01*
X106425523Y-85240857D01*
X106473142Y-85431333D01*
X106473142Y-85669428D01*
X106425523Y-85859904D01*
X106377904Y-85955142D01*
X106330285Y-86002761D01*
X106235047Y-86050380D01*
X106139809Y-86050380D01*
X106044571Y-86002761D01*
X105996952Y-85955142D01*
X105949333Y-85859904D01*
X105901714Y-85669428D01*
X105901714Y-85431333D01*
X105949333Y-85240857D01*
X105996952Y-85145619D01*
X106044571Y-85098000D01*
X106139809Y-85050380D01*
X106854095Y-85145619D02*
X106901714Y-85098000D01*
X106996952Y-85050380D01*
X107235047Y-85050380D01*
X107330285Y-85098000D01*
X107377904Y-85145619D01*
X107425523Y-85240857D01*
X107425523Y-85336095D01*
X107377904Y-85478952D01*
X106806476Y-86050380D01*
X107425523Y-86050380D01*
X108377904Y-86050380D02*
X107806476Y-86050380D01*
X108092190Y-86050380D02*
X108092190Y-85050380D01*
X107996952Y-85193238D01*
X107901714Y-85288476D01*
X107806476Y-85336095D01*
D14*
X96829642Y-83863571D02*
X96829642Y-82363571D01*
X97686785Y-83863571D01*
X97686785Y-82363571D01*
X99043928Y-82363571D02*
X98758214Y-82363571D01*
X98615357Y-82435000D01*
X98543928Y-82506428D01*
X98401071Y-82720714D01*
X98329642Y-83006428D01*
X98329642Y-83577857D01*
X98401071Y-83720714D01*
X98472500Y-83792142D01*
X98615357Y-83863571D01*
X98901071Y-83863571D01*
X99043928Y-83792142D01*
X99115357Y-83720714D01*
X99186785Y-83577857D01*
X99186785Y-83220714D01*
X99115357Y-83077857D01*
X99043928Y-83006428D01*
X98901071Y-82935000D01*
X98615357Y-82935000D01*
X98472500Y-83006428D01*
X98401071Y-83077857D01*
X98329642Y-83220714D01*
X100115357Y-82363571D02*
X100258214Y-82363571D01*
X100401071Y-82435000D01*
X100472500Y-82506428D01*
X100543928Y-82649285D01*
X100615357Y-82935000D01*
X100615357Y-83292142D01*
X100543928Y-83577857D01*
X100472500Y-83720714D01*
X100401071Y-83792142D01*
X100258214Y-83863571D01*
X100115357Y-83863571D01*
X99972500Y-83792142D01*
X99901071Y-83720714D01*
X99829642Y-83577857D01*
X99758214Y-83292142D01*
X99758214Y-82935000D01*
X99829642Y-82649285D01*
X99901071Y-82506428D01*
X99972500Y-82435000D01*
X100115357Y-82363571D01*
X101543928Y-82363571D02*
X101686785Y-82363571D01*
X101829642Y-82435000D01*
X101901071Y-82506428D01*
X101972500Y-82649285D01*
X102043928Y-82935000D01*
X102043928Y-83292142D01*
X101972500Y-83577857D01*
X101901071Y-83720714D01*
X101829642Y-83792142D01*
X101686785Y-83863571D01*
X101543928Y-83863571D01*
X101401071Y-83792142D01*
X101329642Y-83720714D01*
X101258214Y-83577857D01*
X101186785Y-83292142D01*
X101186785Y-82935000D01*
X101258214Y-82649285D01*
X101329642Y-82506428D01*
X101401071Y-82435000D01*
X101543928Y-82363571D01*
X104686785Y-83720714D02*
X104615357Y-83792142D01*
X104401071Y-83863571D01*
X104258214Y-83863571D01*
X104043928Y-83792142D01*
X103901071Y-83649285D01*
X103829642Y-83506428D01*
X103758214Y-83220714D01*
X103758214Y-83006428D01*
X103829642Y-82720714D01*
X103901071Y-82577857D01*
X104043928Y-82435000D01*
X104258214Y-82363571D01*
X104401071Y-82363571D01*
X104615357Y-82435000D01*
X104686785Y-82506428D01*
X105543928Y-83863571D02*
X105401071Y-83792142D01*
X105329642Y-83720714D01*
X105258214Y-83577857D01*
X105258214Y-83149285D01*
X105329642Y-83006428D01*
X105401071Y-82935000D01*
X105543928Y-82863571D01*
X105758214Y-82863571D01*
X105901071Y-82935000D01*
X105972500Y-83006428D01*
X106043928Y-83149285D01*
X106043928Y-83577857D01*
X105972500Y-83720714D01*
X105901071Y-83792142D01*
X105758214Y-83863571D01*
X105543928Y-83863571D01*
X106686785Y-82863571D02*
X106686785Y-83863571D01*
X106686785Y-83006428D02*
X106758214Y-82935000D01*
X106901071Y-82863571D01*
X107115357Y-82863571D01*
X107258214Y-82935000D01*
X107329642Y-83077857D01*
X107329642Y-83863571D01*
X107829642Y-82863571D02*
X108401071Y-82863571D01*
X108043928Y-82363571D02*
X108043928Y-83649285D01*
X108115357Y-83792142D01*
X108258214Y-83863571D01*
X108401071Y-83863571D01*
X108901071Y-83863571D02*
X108901071Y-82863571D01*
X108901071Y-83149285D02*
X108972500Y-83006428D01*
X109043928Y-82935000D01*
X109186785Y-82863571D01*
X109329642Y-82863571D01*
X110043928Y-83863571D02*
X109901071Y-83792142D01*
X109829642Y-83720714D01*
X109758214Y-83577857D01*
X109758214Y-83149285D01*
X109829642Y-83006428D01*
X109901071Y-82935000D01*
X110043928Y-82863571D01*
X110258214Y-82863571D01*
X110401071Y-82935000D01*
X110472500Y-83006428D01*
X110543928Y-83149285D01*
X110543928Y-83577857D01*
X110472500Y-83720714D01*
X110401071Y-83792142D01*
X110258214Y-83863571D01*
X110043928Y-83863571D01*
X111401071Y-83863571D02*
X111258214Y-83792142D01*
X111186785Y-83649285D01*
X111186785Y-82363571D01*
X113115357Y-82363571D02*
X113115357Y-83577857D01*
X113186785Y-83720714D01*
X113258214Y-83792142D01*
X113401071Y-83863571D01*
X113686785Y-83863571D01*
X113829642Y-83792142D01*
X113901071Y-83720714D01*
X113972500Y-83577857D01*
X113972500Y-82363571D01*
X114686785Y-82863571D02*
X114686785Y-83863571D01*
X114686785Y-83006428D02*
X114758214Y-82935000D01*
X114901071Y-82863571D01*
X115115357Y-82863571D01*
X115258214Y-82935000D01*
X115329642Y-83077857D01*
X115329642Y-83863571D01*
X116043928Y-83863571D02*
X116043928Y-82863571D01*
X116043928Y-82363571D02*
X115972500Y-82435000D01*
X116043928Y-82506428D01*
X116115357Y-82435000D01*
X116043928Y-82363571D01*
X116043928Y-82506428D01*
X116543928Y-82863571D02*
X117115357Y-82863571D01*
X116758214Y-82363571D02*
X116758214Y-83649285D01*
X116829642Y-83792142D01*
X116972500Y-83863571D01*
X117115357Y-83863571D01*
D12*
X96067119Y-126253952D02*
X96067119Y-125682523D01*
X96067119Y-125968238D02*
X97067119Y-125968238D01*
X96924261Y-125873000D01*
X96829023Y-125777761D01*
X96781404Y-125682523D01*
X96971880Y-126634904D02*
X97019500Y-126682523D01*
X97067119Y-126777761D01*
X97067119Y-127015857D01*
X97019500Y-127111095D01*
X96971880Y-127158714D01*
X96876642Y-127206333D01*
X96781404Y-127206333D01*
X96638547Y-127158714D01*
X96067119Y-126587285D01*
X96067119Y-127206333D01*
X97067119Y-127492047D02*
X96067119Y-127825380D01*
X97067119Y-128158714D01*
X94798071Y-124349190D02*
X94798071Y-125111095D01*
X94798071Y-128634904D02*
X94798071Y-129396809D01*
X94417119Y-129015857D02*
X95179023Y-129015857D01*
X135818809Y-123959880D02*
X135818809Y-122959880D01*
X136199761Y-122959880D01*
X136295000Y-123007500D01*
X136342619Y-123055119D01*
X136390238Y-123150357D01*
X136390238Y-123293214D01*
X136342619Y-123388452D01*
X136295000Y-123436071D01*
X136199761Y-123483690D01*
X135818809Y-123483690D01*
X136961666Y-123959880D02*
X136866428Y-123912261D01*
X136818809Y-123864642D01*
X136771190Y-123769404D01*
X136771190Y-123483690D01*
X136818809Y-123388452D01*
X136866428Y-123340833D01*
X136961666Y-123293214D01*
X137104523Y-123293214D01*
X137199761Y-123340833D01*
X137247380Y-123388452D01*
X137295000Y-123483690D01*
X137295000Y-123769404D01*
X137247380Y-123864642D01*
X137199761Y-123912261D01*
X137104523Y-123959880D01*
X136961666Y-123959880D01*
X137628333Y-123293214D02*
X137818809Y-123959880D01*
X138009285Y-123483690D01*
X138199761Y-123959880D01*
X138390238Y-123293214D01*
X139152142Y-123912261D02*
X139056904Y-123959880D01*
X138866428Y-123959880D01*
X138771190Y-123912261D01*
X138723571Y-123817023D01*
X138723571Y-123436071D01*
X138771190Y-123340833D01*
X138866428Y-123293214D01*
X139056904Y-123293214D01*
X139152142Y-123340833D01*
X139199761Y-123436071D01*
X139199761Y-123531309D01*
X138723571Y-123626547D01*
X139628333Y-123959880D02*
X139628333Y-123293214D01*
X139628333Y-123483690D02*
X139675952Y-123388452D01*
X139723571Y-123340833D01*
X139818809Y-123293214D01*
X139914047Y-123293214D01*
D11*
X147733142Y-126224071D02*
X147840285Y-126259785D01*
X148018857Y-126259785D01*
X148090285Y-126224071D01*
X148126000Y-126188357D01*
X148161714Y-126116928D01*
X148161714Y-126045500D01*
X148126000Y-125974071D01*
X148090285Y-125938357D01*
X148018857Y-125902642D01*
X147876000Y-125866928D01*
X147804571Y-125831214D01*
X147768857Y-125795500D01*
X147733142Y-125724071D01*
X147733142Y-125652642D01*
X147768857Y-125581214D01*
X147804571Y-125545500D01*
X147876000Y-125509785D01*
X148054571Y-125509785D01*
X148161714Y-125545500D01*
X148376000Y-125759785D02*
X148661714Y-125759785D01*
X148483142Y-125509785D02*
X148483142Y-126152642D01*
X148518857Y-126224071D01*
X148590285Y-126259785D01*
X148661714Y-126259785D01*
X149233142Y-126259785D02*
X149233142Y-125866928D01*
X149197428Y-125795500D01*
X149126000Y-125759785D01*
X148983142Y-125759785D01*
X148911714Y-125795500D01*
X149233142Y-126224071D02*
X149161714Y-126259785D01*
X148983142Y-126259785D01*
X148911714Y-126224071D01*
X148876000Y-126152642D01*
X148876000Y-126081214D01*
X148911714Y-126009785D01*
X148983142Y-125974071D01*
X149161714Y-125974071D01*
X149233142Y-125938357D01*
X149483142Y-125759785D02*
X149768857Y-125759785D01*
X149590285Y-125509785D02*
X149590285Y-126152642D01*
X149626000Y-126224071D01*
X149697428Y-126259785D01*
X149768857Y-126259785D01*
X150340285Y-125759785D02*
X150340285Y-126259785D01*
X150018857Y-125759785D02*
X150018857Y-126152642D01*
X150054571Y-126224071D01*
X150126000Y-126259785D01*
X150233142Y-126259785D01*
X150304571Y-126224071D01*
X150340285Y-126188357D01*
X150661714Y-126224071D02*
X150733142Y-126259785D01*
X150876000Y-126259785D01*
X150947428Y-126224071D01*
X150983142Y-126152642D01*
X150983142Y-126116928D01*
X150947428Y-126045500D01*
X150876000Y-126009785D01*
X150768857Y-126009785D01*
X150697428Y-125974071D01*
X150661714Y-125902642D01*
X150661714Y-125866928D01*
X150697428Y-125795500D01*
X150768857Y-125759785D01*
X150876000Y-125759785D01*
X150947428Y-125795500D01*
X152090285Y-126509785D02*
X151911714Y-126509785D01*
X151911714Y-125438357D01*
X152090285Y-125438357D01*
X152376000Y-126259785D02*
X152376000Y-125509785D01*
X152554571Y-125509785D01*
X152661714Y-125545500D01*
X152733142Y-125616928D01*
X152768857Y-125688357D01*
X152804571Y-125831214D01*
X152804571Y-125938357D01*
X152768857Y-126081214D01*
X152733142Y-126152642D01*
X152661714Y-126224071D01*
X152554571Y-126259785D01*
X152376000Y-126259785D01*
X153233142Y-125831214D02*
X153161714Y-125795500D01*
X153126000Y-125759785D01*
X153090285Y-125688357D01*
X153090285Y-125652642D01*
X153126000Y-125581214D01*
X153161714Y-125545500D01*
X153233142Y-125509785D01*
X153376000Y-125509785D01*
X153447428Y-125545500D01*
X153483142Y-125581214D01*
X153518857Y-125652642D01*
X153518857Y-125688357D01*
X153483142Y-125759785D01*
X153447428Y-125795500D01*
X153376000Y-125831214D01*
X153233142Y-125831214D01*
X153161714Y-125866928D01*
X153126000Y-125902642D01*
X153090285Y-125974071D01*
X153090285Y-126116928D01*
X153126000Y-126188357D01*
X153161714Y-126224071D01*
X153233142Y-126259785D01*
X153376000Y-126259785D01*
X153447428Y-126224071D01*
X153483142Y-126188357D01*
X153518857Y-126116928D01*
X153518857Y-125974071D01*
X153483142Y-125902642D01*
X153447428Y-125866928D01*
X153376000Y-125831214D01*
X153768857Y-126509785D02*
X153947428Y-126509785D01*
X153947428Y-125438357D01*
X153768857Y-125438357D01*
X147717214Y-122564928D02*
X147967214Y-122564928D01*
X148074357Y-122957785D02*
X147717214Y-122957785D01*
X147717214Y-122207785D01*
X148074357Y-122207785D01*
X148395785Y-122957785D02*
X148395785Y-122457785D01*
X148395785Y-122600642D02*
X148431500Y-122529214D01*
X148467214Y-122493500D01*
X148538642Y-122457785D01*
X148610071Y-122457785D01*
X148860071Y-122957785D02*
X148860071Y-122457785D01*
X148860071Y-122600642D02*
X148895785Y-122529214D01*
X148931500Y-122493500D01*
X149002928Y-122457785D01*
X149074357Y-122457785D01*
X149431500Y-122957785D02*
X149360071Y-122922071D01*
X149324357Y-122886357D01*
X149288642Y-122814928D01*
X149288642Y-122600642D01*
X149324357Y-122529214D01*
X149360071Y-122493500D01*
X149431500Y-122457785D01*
X149538642Y-122457785D01*
X149610071Y-122493500D01*
X149645785Y-122529214D01*
X149681500Y-122600642D01*
X149681500Y-122814928D01*
X149645785Y-122886357D01*
X149610071Y-122922071D01*
X149538642Y-122957785D01*
X149431500Y-122957785D01*
X150002928Y-122957785D02*
X150002928Y-122457785D01*
X150002928Y-122600642D02*
X150038642Y-122529214D01*
X150074357Y-122493500D01*
X150145785Y-122457785D01*
X150217214Y-122457785D01*
X151252928Y-123207785D02*
X151074357Y-123207785D01*
X151074357Y-122136357D01*
X151252928Y-122136357D01*
X151538642Y-122957785D02*
X151538642Y-122207785D01*
X151717214Y-122207785D01*
X151824357Y-122243500D01*
X151895785Y-122314928D01*
X151931500Y-122386357D01*
X151967214Y-122529214D01*
X151967214Y-122636357D01*
X151931500Y-122779214D01*
X151895785Y-122850642D01*
X151824357Y-122922071D01*
X151717214Y-122957785D01*
X151538642Y-122957785D01*
X152324357Y-122957785D02*
X152467214Y-122957785D01*
X152538642Y-122922071D01*
X152574357Y-122886357D01*
X152645785Y-122779214D01*
X152681500Y-122636357D01*
X152681500Y-122350642D01*
X152645785Y-122279214D01*
X152610071Y-122243500D01*
X152538642Y-122207785D01*
X152395785Y-122207785D01*
X152324357Y-122243500D01*
X152288642Y-122279214D01*
X152252928Y-122350642D01*
X152252928Y-122529214D01*
X152288642Y-122600642D01*
X152324357Y-122636357D01*
X152395785Y-122672071D01*
X152538642Y-122672071D01*
X152610071Y-122636357D01*
X152645785Y-122600642D01*
X152681500Y-122529214D01*
X152931500Y-123207785D02*
X153110071Y-123207785D01*
X153110071Y-122136357D01*
X152931500Y-122136357D01*
D12*
X150979595Y-85050761D02*
X151122452Y-85098380D01*
X151360547Y-85098380D01*
X151455785Y-85050761D01*
X151503404Y-85003142D01*
X151551023Y-84907904D01*
X151551023Y-84812666D01*
X151503404Y-84717428D01*
X151455785Y-84669809D01*
X151360547Y-84622190D01*
X151170071Y-84574571D01*
X151074833Y-84526952D01*
X151027214Y-84479333D01*
X150979595Y-84384095D01*
X150979595Y-84288857D01*
X151027214Y-84193619D01*
X151074833Y-84146000D01*
X151170071Y-84098380D01*
X151408166Y-84098380D01*
X151551023Y-84146000D01*
X152360547Y-85050761D02*
X152265309Y-85098380D01*
X152074833Y-85098380D01*
X151979595Y-85050761D01*
X151931976Y-84955523D01*
X151931976Y-84574571D01*
X151979595Y-84479333D01*
X152074833Y-84431714D01*
X152265309Y-84431714D01*
X152360547Y-84479333D01*
X152408166Y-84574571D01*
X152408166Y-84669809D01*
X151931976Y-84765047D01*
X152836738Y-85098380D02*
X152836738Y-84431714D01*
X152836738Y-84622190D02*
X152884357Y-84526952D01*
X152931976Y-84479333D01*
X153027214Y-84431714D01*
X153122452Y-84431714D01*
X153455785Y-85098380D02*
X153455785Y-84431714D01*
X153455785Y-84098380D02*
X153408166Y-84146000D01*
X153455785Y-84193619D01*
X153503404Y-84146000D01*
X153455785Y-84098380D01*
X153455785Y-84193619D01*
X154360547Y-85098380D02*
X154360547Y-84574571D01*
X154312928Y-84479333D01*
X154217690Y-84431714D01*
X154027214Y-84431714D01*
X153931976Y-84479333D01*
X154360547Y-85050761D02*
X154265309Y-85098380D01*
X154027214Y-85098380D01*
X153931976Y-85050761D01*
X153884357Y-84955523D01*
X153884357Y-84860285D01*
X153931976Y-84765047D01*
X154027214Y-84717428D01*
X154265309Y-84717428D01*
X154360547Y-84669809D01*
X154979595Y-85098380D02*
X154884357Y-85050761D01*
X154836738Y-84955523D01*
X154836738Y-84098380D01*
X156598642Y-84098380D02*
X156122452Y-84098380D01*
X156074833Y-84574571D01*
X156122452Y-84526952D01*
X156217690Y-84479333D01*
X156455785Y-84479333D01*
X156551023Y-84526952D01*
X156598642Y-84574571D01*
X156646261Y-84669809D01*
X156646261Y-84907904D01*
X156598642Y-85003142D01*
X156551023Y-85050761D01*
X156455785Y-85098380D01*
X156217690Y-85098380D01*
X156122452Y-85050761D01*
X156074833Y-85003142D01*
X156931976Y-84098380D02*
X157265309Y-85098380D01*
X157598642Y-84098380D01*
X151360547Y-85748380D02*
X151931976Y-85748380D01*
X151646261Y-86748380D02*
X151646261Y-85748380D01*
X152170071Y-85748380D02*
X152836738Y-86748380D01*
X152836738Y-85748380D02*
X152170071Y-86748380D01*
X156074833Y-86748380D02*
X155741500Y-86272190D01*
X155503404Y-86748380D02*
X155503404Y-85748380D01*
X155884357Y-85748380D01*
X155979595Y-85796000D01*
X156027214Y-85843619D01*
X156074833Y-85938857D01*
X156074833Y-86081714D01*
X156027214Y-86176952D01*
X155979595Y-86224571D01*
X155884357Y-86272190D01*
X155503404Y-86272190D01*
X156408166Y-85748380D02*
X157074833Y-86748380D01*
X157074833Y-85748380D02*
X156408166Y-86748380D01*
X136104809Y-85241261D02*
X136247666Y-85288880D01*
X136485761Y-85288880D01*
X136581000Y-85241261D01*
X136628619Y-85193642D01*
X136676238Y-85098404D01*
X136676238Y-85003166D01*
X136628619Y-84907928D01*
X136581000Y-84860309D01*
X136485761Y-84812690D01*
X136295285Y-84765071D01*
X136200047Y-84717452D01*
X136152428Y-84669833D01*
X136104809Y-84574595D01*
X136104809Y-84479357D01*
X136152428Y-84384119D01*
X136200047Y-84336500D01*
X136295285Y-84288880D01*
X136533380Y-84288880D01*
X136676238Y-84336500D01*
X137485761Y-85241261D02*
X137390523Y-85288880D01*
X137200047Y-85288880D01*
X137104809Y-85241261D01*
X137057190Y-85146023D01*
X137057190Y-84765071D01*
X137104809Y-84669833D01*
X137200047Y-84622214D01*
X137390523Y-84622214D01*
X137485761Y-84669833D01*
X137533380Y-84765071D01*
X137533380Y-84860309D01*
X137057190Y-84955547D01*
X137961952Y-85288880D02*
X137961952Y-84622214D01*
X137961952Y-84812690D02*
X138009571Y-84717452D01*
X138057190Y-84669833D01*
X138152428Y-84622214D01*
X138247666Y-84622214D01*
X138581000Y-85288880D02*
X138581000Y-84622214D01*
X138581000Y-84288880D02*
X138533380Y-84336500D01*
X138581000Y-84384119D01*
X138628619Y-84336500D01*
X138581000Y-84288880D01*
X138581000Y-84384119D01*
X139485761Y-85288880D02*
X139485761Y-84765071D01*
X139438142Y-84669833D01*
X139342904Y-84622214D01*
X139152428Y-84622214D01*
X139057190Y-84669833D01*
X139485761Y-85241261D02*
X139390523Y-85288880D01*
X139152428Y-85288880D01*
X139057190Y-85241261D01*
X139009571Y-85146023D01*
X139009571Y-85050785D01*
X139057190Y-84955547D01*
X139152428Y-84907928D01*
X139390523Y-84907928D01*
X139485761Y-84860309D01*
X140104809Y-85288880D02*
X140009571Y-85241261D01*
X139961952Y-85146023D01*
X139961952Y-84288880D01*
X141152428Y-84288880D02*
X141771476Y-84288880D01*
X141438142Y-84669833D01*
X141581000Y-84669833D01*
X141676238Y-84717452D01*
X141723857Y-84765071D01*
X141771476Y-84860309D01*
X141771476Y-85098404D01*
X141723857Y-85193642D01*
X141676238Y-85241261D01*
X141581000Y-85288880D01*
X141295285Y-85288880D01*
X141200047Y-85241261D01*
X141152428Y-85193642D01*
X142200047Y-85193642D02*
X142247666Y-85241261D01*
X142200047Y-85288880D01*
X142152428Y-85241261D01*
X142200047Y-85193642D01*
X142200047Y-85288880D01*
X142581000Y-84288880D02*
X143200047Y-84288880D01*
X142866714Y-84669833D01*
X143009571Y-84669833D01*
X143104809Y-84717452D01*
X143152428Y-84765071D01*
X143200047Y-84860309D01*
X143200047Y-85098404D01*
X143152428Y-85193642D01*
X143104809Y-85241261D01*
X143009571Y-85288880D01*
X142723857Y-85288880D01*
X142628619Y-85241261D01*
X142581000Y-85193642D01*
X143485761Y-84288880D02*
X143819095Y-85288880D01*
X144152428Y-84288880D01*
X137581000Y-85938880D02*
X138152428Y-85938880D01*
X137866714Y-86938880D02*
X137866714Y-85938880D01*
X138390523Y-85938880D02*
X139057190Y-86938880D01*
X139057190Y-85938880D02*
X138390523Y-86938880D01*
X141533380Y-86938880D02*
X141200047Y-86462690D01*
X140961952Y-86938880D02*
X140961952Y-85938880D01*
X141342904Y-85938880D01*
X141438142Y-85986500D01*
X141485761Y-86034119D01*
X141533380Y-86129357D01*
X141533380Y-86272214D01*
X141485761Y-86367452D01*
X141438142Y-86415071D01*
X141342904Y-86462690D01*
X140961952Y-86462690D01*
X141866714Y-85938880D02*
X142533380Y-86938880D01*
X142533380Y-85938880D02*
X141866714Y-86938880D01*
D15*
%TO.C,G\u002A\u002A\u002A*%
G36*
X128837577Y-89476462D02*
G01*
X128723110Y-89638658D01*
X128674386Y-89700782D01*
X128262200Y-90166074D01*
X127865870Y-90504829D01*
X127560853Y-90682743D01*
X127455438Y-90722387D01*
X127295408Y-90768782D01*
X127068736Y-90824217D01*
X126763396Y-90890985D01*
X126367361Y-90971377D01*
X125868605Y-91067685D01*
X125255101Y-91182202D01*
X124514823Y-91317218D01*
X123635743Y-91475026D01*
X122605836Y-91657917D01*
X121413075Y-91868183D01*
X120485370Y-92031032D01*
X119501031Y-92205523D01*
X118691631Y-92353373D01*
X118048057Y-92476433D01*
X117561196Y-92576554D01*
X117221934Y-92655586D01*
X117021157Y-92715379D01*
X116957592Y-92747240D01*
X116795486Y-92818778D01*
X116453809Y-92906792D01*
X115930156Y-93011827D01*
X115311296Y-93119701D01*
X114793827Y-93204005D01*
X114332381Y-93276132D01*
X113961791Y-93330874D01*
X113716886Y-93363026D01*
X113641481Y-93369342D01*
X113455675Y-93323077D01*
X113288703Y-93231730D01*
X113125764Y-93063593D01*
X113145636Y-92923588D01*
X113350564Y-92803151D01*
X113406296Y-92783220D01*
X113546481Y-92746894D01*
X113851803Y-92675540D01*
X114306773Y-92572566D01*
X114895902Y-92441376D01*
X115603699Y-92285375D01*
X116414676Y-92107969D01*
X117313342Y-91912563D01*
X118284209Y-91702562D01*
X119311786Y-91481372D01*
X119967962Y-91340667D01*
X121602414Y-90990242D01*
X123059896Y-90676779D01*
X124344310Y-90399420D01*
X125459557Y-90157312D01*
X126409537Y-89949597D01*
X127198151Y-89775420D01*
X127829301Y-89633926D01*
X128306887Y-89524258D01*
X128634811Y-89445562D01*
X128781798Y-89407216D01*
X128854960Y-89405272D01*
X128837577Y-89476462D01*
G37*
X128837577Y-89476462D02*
X128723110Y-89638658D01*
X128674386Y-89700782D01*
X128262200Y-90166074D01*
X127865870Y-90504829D01*
X127560853Y-90682743D01*
X127455438Y-90722387D01*
X127295408Y-90768782D01*
X127068736Y-90824217D01*
X126763396Y-90890985D01*
X126367361Y-90971377D01*
X125868605Y-91067685D01*
X125255101Y-91182202D01*
X124514823Y-91317218D01*
X123635743Y-91475026D01*
X122605836Y-91657917D01*
X121413075Y-91868183D01*
X120485370Y-92031032D01*
X119501031Y-92205523D01*
X118691631Y-92353373D01*
X118048057Y-92476433D01*
X117561196Y-92576554D01*
X117221934Y-92655586D01*
X117021157Y-92715379D01*
X116957592Y-92747240D01*
X116795486Y-92818778D01*
X116453809Y-92906792D01*
X115930156Y-93011827D01*
X115311296Y-93119701D01*
X114793827Y-93204005D01*
X114332381Y-93276132D01*
X113961791Y-93330874D01*
X113716886Y-93363026D01*
X113641481Y-93369342D01*
X113455675Y-93323077D01*
X113288703Y-93231730D01*
X113125764Y-93063593D01*
X113145636Y-92923588D01*
X113350564Y-92803151D01*
X113406296Y-92783220D01*
X113546481Y-92746894D01*
X113851803Y-92675540D01*
X114306773Y-92572566D01*
X114895902Y-92441376D01*
X115603699Y-92285375D01*
X116414676Y-92107969D01*
X117313342Y-91912563D01*
X118284209Y-91702562D01*
X119311786Y-91481372D01*
X119967962Y-91340667D01*
X121602414Y-90990242D01*
X123059896Y-90676779D01*
X124344310Y-90399420D01*
X125459557Y-90157312D01*
X126409537Y-89949597D01*
X127198151Y-89775420D01*
X127829301Y-89633926D01*
X128306887Y-89524258D01*
X128634811Y-89445562D01*
X128781798Y-89407216D01*
X128854960Y-89405272D01*
X128837577Y-89476462D01*
G36*
X127305740Y-91285957D02*
G01*
X127244080Y-91384620D01*
X127082909Y-91549005D01*
X126857943Y-91749369D01*
X126604894Y-91955970D01*
X126359479Y-92139067D01*
X126157410Y-92268917D01*
X126081536Y-92305442D01*
X125950208Y-92332859D01*
X125658639Y-92380518D01*
X125231927Y-92445023D01*
X124695171Y-92522984D01*
X124073470Y-92611005D01*
X123391921Y-92705694D01*
X122675624Y-92803659D01*
X121949676Y-92901505D01*
X121239178Y-92995840D01*
X120569226Y-93083271D01*
X119964919Y-93160404D01*
X119451357Y-93223846D01*
X119053637Y-93270205D01*
X118796858Y-93296086D01*
X118722106Y-93300379D01*
X118658874Y-93356209D01*
X118650925Y-93403352D01*
X118638003Y-93494969D01*
X118627209Y-93506324D01*
X118531728Y-93517584D01*
X118278919Y-93549014D01*
X117896779Y-93597089D01*
X117413306Y-93658283D01*
X116856498Y-93729071D01*
X116722209Y-93746185D01*
X116139571Y-93819246D01*
X115611377Y-93883177D01*
X115168920Y-93934373D01*
X114843495Y-93969233D01*
X114666396Y-93984152D01*
X114652777Y-93984443D01*
X114470452Y-93939150D01*
X114236386Y-93827313D01*
X114149908Y-93774019D01*
X113971469Y-93643352D01*
X113881075Y-93552310D01*
X113879766Y-93532666D01*
X113902342Y-93522232D01*
X113952772Y-93507960D01*
X114042945Y-93487786D01*
X114184745Y-93459647D01*
X114390062Y-93421480D01*
X114670782Y-93371223D01*
X115038791Y-93306810D01*
X115505978Y-93226181D01*
X116084228Y-93127271D01*
X116785430Y-93008017D01*
X117621470Y-92866355D01*
X118604235Y-92700224D01*
X119745613Y-92507559D01*
X121057490Y-92286298D01*
X121171009Y-92267157D01*
X122180082Y-92096962D01*
X123139134Y-91935101D01*
X124031706Y-91784358D01*
X124841334Y-91647518D01*
X125551557Y-91527367D01*
X126145914Y-91426690D01*
X126607943Y-91348272D01*
X126921181Y-91294897D01*
X127069168Y-91269350D01*
X127074158Y-91268449D01*
X127246188Y-91256855D01*
X127305740Y-91285957D01*
G37*
X127305740Y-91285957D02*
X127244080Y-91384620D01*
X127082909Y-91549005D01*
X126857943Y-91749369D01*
X126604894Y-91955970D01*
X126359479Y-92139067D01*
X126157410Y-92268917D01*
X126081536Y-92305442D01*
X125950208Y-92332859D01*
X125658639Y-92380518D01*
X125231927Y-92445023D01*
X124695171Y-92522984D01*
X124073470Y-92611005D01*
X123391921Y-92705694D01*
X122675624Y-92803659D01*
X121949676Y-92901505D01*
X121239178Y-92995840D01*
X120569226Y-93083271D01*
X119964919Y-93160404D01*
X119451357Y-93223846D01*
X119053637Y-93270205D01*
X118796858Y-93296086D01*
X118722106Y-93300379D01*
X118658874Y-93356209D01*
X118650925Y-93403352D01*
X118638003Y-93494969D01*
X118627209Y-93506324D01*
X118531728Y-93517584D01*
X118278919Y-93549014D01*
X117896779Y-93597089D01*
X117413306Y-93658283D01*
X116856498Y-93729071D01*
X116722209Y-93746185D01*
X116139571Y-93819246D01*
X115611377Y-93883177D01*
X115168920Y-93934373D01*
X114843495Y-93969233D01*
X114666396Y-93984152D01*
X114652777Y-93984443D01*
X114470452Y-93939150D01*
X114236386Y-93827313D01*
X114149908Y-93774019D01*
X113971469Y-93643352D01*
X113881075Y-93552310D01*
X113879766Y-93532666D01*
X113902342Y-93522232D01*
X113952772Y-93507960D01*
X114042945Y-93487786D01*
X114184745Y-93459647D01*
X114390062Y-93421480D01*
X114670782Y-93371223D01*
X115038791Y-93306810D01*
X115505978Y-93226181D01*
X116084228Y-93127271D01*
X116785430Y-93008017D01*
X117621470Y-92866355D01*
X118604235Y-92700224D01*
X119745613Y-92507559D01*
X121057490Y-92286298D01*
X121171009Y-92267157D01*
X122180082Y-92096962D01*
X123139134Y-91935101D01*
X124031706Y-91784358D01*
X124841334Y-91647518D01*
X125551557Y-91527367D01*
X126145914Y-91426690D01*
X126607943Y-91348272D01*
X126921181Y-91294897D01*
X127069168Y-91269350D01*
X127074158Y-91268449D01*
X127246188Y-91256855D01*
X127305740Y-91285957D01*
G36*
X125548324Y-92859490D02*
G01*
X125447256Y-92963432D01*
X125263888Y-93109141D01*
X125029950Y-93274096D01*
X124777177Y-93435774D01*
X124537299Y-93571654D01*
X124363820Y-93651346D01*
X124089714Y-93723512D01*
X123650506Y-93798814D01*
X123069023Y-93873718D01*
X122623450Y-93920727D01*
X121964780Y-93985498D01*
X121469434Y-94035827D01*
X121114191Y-94075140D01*
X120875826Y-94106863D01*
X120731117Y-94134423D01*
X120656841Y-94161245D01*
X120629774Y-94190756D01*
X120626481Y-94215348D01*
X120559920Y-94249367D01*
X120353399Y-94288119D01*
X119996658Y-94332784D01*
X119479439Y-94384540D01*
X118791483Y-94444567D01*
X118251111Y-94488324D01*
X117597282Y-94539485D01*
X117001151Y-94585009D01*
X116489561Y-94622937D01*
X116089355Y-94651310D01*
X115827376Y-94668168D01*
X115734629Y-94672028D01*
X115591420Y-94626088D01*
X115369795Y-94512066D01*
X115190757Y-94401868D01*
X114787995Y-94136016D01*
X115049646Y-94097542D01*
X115226519Y-94073812D01*
X115560250Y-94031228D01*
X116030374Y-93972286D01*
X116616427Y-93899477D01*
X117297945Y-93815296D01*
X118054463Y-93722237D01*
X118865516Y-93622793D01*
X119710641Y-93519457D01*
X120569373Y-93414724D01*
X121421248Y-93311087D01*
X122245801Y-93211039D01*
X123022568Y-93117075D01*
X123731084Y-93031687D01*
X124350886Y-92957370D01*
X124861509Y-92896616D01*
X125242488Y-92851921D01*
X125473360Y-92825776D01*
X125535360Y-92819838D01*
X125548324Y-92859490D01*
G37*
X125548324Y-92859490D02*
X125447256Y-92963432D01*
X125263888Y-93109141D01*
X125029950Y-93274096D01*
X124777177Y-93435774D01*
X124537299Y-93571654D01*
X124363820Y-93651346D01*
X124089714Y-93723512D01*
X123650506Y-93798814D01*
X123069023Y-93873718D01*
X122623450Y-93920727D01*
X121964780Y-93985498D01*
X121469434Y-94035827D01*
X121114191Y-94075140D01*
X120875826Y-94106863D01*
X120731117Y-94134423D01*
X120656841Y-94161245D01*
X120629774Y-94190756D01*
X120626481Y-94215348D01*
X120559920Y-94249367D01*
X120353399Y-94288119D01*
X119996658Y-94332784D01*
X119479439Y-94384540D01*
X118791483Y-94444567D01*
X118251111Y-94488324D01*
X117597282Y-94539485D01*
X117001151Y-94585009D01*
X116489561Y-94622937D01*
X116089355Y-94651310D01*
X115827376Y-94668168D01*
X115734629Y-94672028D01*
X115591420Y-94626088D01*
X115369795Y-94512066D01*
X115190757Y-94401868D01*
X114787995Y-94136016D01*
X115049646Y-94097542D01*
X115226519Y-94073812D01*
X115560250Y-94031228D01*
X116030374Y-93972286D01*
X116616427Y-93899477D01*
X117297945Y-93815296D01*
X118054463Y-93722237D01*
X118865516Y-93622793D01*
X119710641Y-93519457D01*
X120569373Y-93414724D01*
X121421248Y-93311087D01*
X122245801Y-93211039D01*
X123022568Y-93117075D01*
X123731084Y-93031687D01*
X124350886Y-92957370D01*
X124861509Y-92896616D01*
X125242488Y-92851921D01*
X125473360Y-92825776D01*
X125535360Y-92819838D01*
X125548324Y-92859490D01*
G36*
X122116580Y-94860685D02*
G01*
X122535353Y-95031138D01*
X122902790Y-95180869D01*
X123183392Y-95295399D01*
X123341659Y-95360251D01*
X123354629Y-95365620D01*
X123298981Y-95379840D01*
X123073072Y-95392790D01*
X122694782Y-95404124D01*
X122181994Y-95413500D01*
X121552589Y-95420573D01*
X120824450Y-95425000D01*
X120192294Y-95426399D01*
X116888847Y-95428487D01*
X116399810Y-95138190D01*
X116166169Y-94990766D01*
X116018294Y-94880054D01*
X115987196Y-94829363D01*
X115988450Y-94828999D01*
X116099266Y-94816761D01*
X116371783Y-94791948D01*
X116780638Y-94756712D01*
X117300471Y-94713204D01*
X117905920Y-94663575D01*
X118542885Y-94612273D01*
X121019643Y-94414442D01*
X122116580Y-94860685D01*
G37*
X122116580Y-94860685D02*
X122535353Y-95031138D01*
X122902790Y-95180869D01*
X123183392Y-95295399D01*
X123341659Y-95360251D01*
X123354629Y-95365620D01*
X123298981Y-95379840D01*
X123073072Y-95392790D01*
X122694782Y-95404124D01*
X122181994Y-95413500D01*
X121552589Y-95420573D01*
X120824450Y-95425000D01*
X120192294Y-95426399D01*
X116888847Y-95428487D01*
X116399810Y-95138190D01*
X116166169Y-94990766D01*
X116018294Y-94880054D01*
X115987196Y-94829363D01*
X115988450Y-94828999D01*
X116099266Y-94816761D01*
X116371783Y-94791948D01*
X116780638Y-94756712D01*
X117300471Y-94713204D01*
X117905920Y-94663575D01*
X118542885Y-94612273D01*
X121019643Y-94414442D01*
X122116580Y-94860685D01*
G36*
X130167554Y-87350862D02*
G01*
X130082569Y-87514124D01*
X129947998Y-87733833D01*
X129784906Y-87978272D01*
X129614361Y-88215725D01*
X129457431Y-88414479D01*
X129347241Y-88532258D01*
X129098196Y-88709308D01*
X128776988Y-88877937D01*
X128641686Y-88933509D01*
X128483114Y-88983156D01*
X128203825Y-89059317D01*
X127798640Y-89163219D01*
X127262382Y-89296089D01*
X126589874Y-89459156D01*
X125775938Y-89653647D01*
X124815398Y-89880790D01*
X123703075Y-90141812D01*
X122433793Y-90437941D01*
X121002374Y-90770406D01*
X119403640Y-91140433D01*
X117632415Y-91549250D01*
X116863518Y-91726435D01*
X116091542Y-91905481D01*
X115364133Y-92076523D01*
X114703790Y-92234097D01*
X114133010Y-92372736D01*
X113674291Y-92486978D01*
X113350131Y-92571356D01*
X113183028Y-92620406D01*
X113182713Y-92620521D01*
X112929914Y-92734006D01*
X112792678Y-92856506D01*
X112778037Y-92999398D01*
X112893023Y-93174057D01*
X113144668Y-93391861D01*
X113540004Y-93664185D01*
X114007702Y-93955154D01*
X114456398Y-94227361D01*
X114927805Y-94514642D01*
X115366126Y-94782921D01*
X115715562Y-94998122D01*
X115717679Y-94999433D01*
X116410647Y-95428487D01*
X115672823Y-95421404D01*
X114935000Y-95414322D01*
X114370555Y-94992216D01*
X114071351Y-94773567D01*
X113685421Y-94498819D01*
X113264727Y-94204651D01*
X112897551Y-93952406D01*
X112506642Y-93680916D01*
X112236567Y-93476731D01*
X112064022Y-93318909D01*
X111965706Y-93186507D01*
X111922528Y-93076126D01*
X111924447Y-92742446D01*
X112104330Y-92446173D01*
X112386483Y-92236410D01*
X112555158Y-92165638D01*
X112870620Y-92060141D01*
X113336930Y-91918788D01*
X113958149Y-91740449D01*
X114738339Y-91523996D01*
X115681562Y-91268297D01*
X116791877Y-90972222D01*
X118073347Y-90634642D01*
X119215370Y-90336308D01*
X120859120Y-89904408D01*
X122453523Y-89477931D01*
X123978339Y-89062525D01*
X125413330Y-88663839D01*
X126738257Y-88287518D01*
X127932883Y-87939212D01*
X128976969Y-87624567D01*
X129365330Y-87503937D01*
X129714009Y-87397349D01*
X129990268Y-87318305D01*
X130154307Y-87277925D01*
X130181883Y-87275762D01*
X130167554Y-87350862D01*
G37*
X130167554Y-87350862D02*
X130082569Y-87514124D01*
X129947998Y-87733833D01*
X129784906Y-87978272D01*
X129614361Y-88215725D01*
X129457431Y-88414479D01*
X129347241Y-88532258D01*
X129098196Y-88709308D01*
X128776988Y-88877937D01*
X128641686Y-88933509D01*
X128483114Y-88983156D01*
X128203825Y-89059317D01*
X127798640Y-89163219D01*
X127262382Y-89296089D01*
X126589874Y-89459156D01*
X125775938Y-89653647D01*
X124815398Y-89880790D01*
X123703075Y-90141812D01*
X122433793Y-90437941D01*
X121002374Y-90770406D01*
X119403640Y-91140433D01*
X117632415Y-91549250D01*
X116863518Y-91726435D01*
X116091542Y-91905481D01*
X115364133Y-92076523D01*
X114703790Y-92234097D01*
X114133010Y-92372736D01*
X113674291Y-92486978D01*
X113350131Y-92571356D01*
X113183028Y-92620406D01*
X113182713Y-92620521D01*
X112929914Y-92734006D01*
X112792678Y-92856506D01*
X112778037Y-92999398D01*
X112893023Y-93174057D01*
X113144668Y-93391861D01*
X113540004Y-93664185D01*
X114007702Y-93955154D01*
X114456398Y-94227361D01*
X114927805Y-94514642D01*
X115366126Y-94782921D01*
X115715562Y-94998122D01*
X115717679Y-94999433D01*
X116410647Y-95428487D01*
X115672823Y-95421404D01*
X114935000Y-95414322D01*
X114370555Y-94992216D01*
X114071351Y-94773567D01*
X113685421Y-94498819D01*
X113264727Y-94204651D01*
X112897551Y-93952406D01*
X112506642Y-93680916D01*
X112236567Y-93476731D01*
X112064022Y-93318909D01*
X111965706Y-93186507D01*
X111922528Y-93076126D01*
X111924447Y-92742446D01*
X112104330Y-92446173D01*
X112386483Y-92236410D01*
X112555158Y-92165638D01*
X112870620Y-92060141D01*
X113336930Y-91918788D01*
X113958149Y-91740449D01*
X114738339Y-91523996D01*
X115681562Y-91268297D01*
X116791877Y-90972222D01*
X118073347Y-90634642D01*
X119215370Y-90336308D01*
X120859120Y-89904408D01*
X122453523Y-89477931D01*
X123978339Y-89062525D01*
X125413330Y-88663839D01*
X126738257Y-88287518D01*
X127932883Y-87939212D01*
X128976969Y-87624567D01*
X129365330Y-87503937D01*
X129714009Y-87397349D01*
X129990268Y-87318305D01*
X130154307Y-87277925D01*
X130181883Y-87275762D01*
X130167554Y-87350862D01*
G36*
X129668099Y-96269433D02*
G01*
X129928512Y-96511686D01*
X130169413Y-96709927D01*
X130357758Y-96838255D01*
X130436845Y-96872002D01*
X130611597Y-96936948D01*
X130669753Y-96992137D01*
X130636185Y-97032532D01*
X130477069Y-97058649D01*
X130170837Y-97072475D01*
X129759506Y-97076054D01*
X129266395Y-97068706D01*
X128950262Y-97046905D01*
X128815707Y-97011014D01*
X128810925Y-97000979D01*
X128889586Y-96925466D01*
X129002920Y-96889265D01*
X129141681Y-96829646D01*
X129159711Y-96775557D01*
X129047744Y-96732718D01*
X128775554Y-96706143D01*
X128434629Y-96698487D01*
X128046455Y-96708809D01*
X127795304Y-96737861D01*
X127709548Y-96775557D01*
X127757487Y-96851338D01*
X127866338Y-96889265D01*
X128021064Y-96949550D01*
X128058333Y-97000979D01*
X127967635Y-97043067D01*
X127706882Y-97068643D01*
X127352777Y-97076054D01*
X126986312Y-97067248D01*
X126740026Y-97043046D01*
X126647284Y-97006775D01*
X126647222Y-97005706D01*
X126724960Y-96931370D01*
X126875550Y-96872011D01*
X127021005Y-96795175D01*
X127212927Y-96647585D01*
X127419627Y-96460680D01*
X127570713Y-96305619D01*
X128128952Y-96305619D01*
X128136429Y-96361673D01*
X128272188Y-96399380D01*
X128274538Y-96399887D01*
X128555060Y-96444255D01*
X128748193Y-96444079D01*
X128807796Y-96406730D01*
X128750861Y-96322866D01*
X128617578Y-96191195D01*
X128611751Y-96186062D01*
X128418836Y-96016882D01*
X128243122Y-96186062D01*
X128128952Y-96305619D01*
X127570713Y-96305619D01*
X127609415Y-96265900D01*
X127750599Y-96094684D01*
X127811490Y-95978471D01*
X127803215Y-95951689D01*
X127669023Y-95915100D01*
X127572283Y-95909027D01*
X127428559Y-95862799D01*
X127399814Y-95806054D01*
X127432800Y-95755828D01*
X127553189Y-95724538D01*
X127793130Y-95708277D01*
X128184770Y-95703137D01*
X128246872Y-95703081D01*
X129093930Y-95703081D01*
X129668099Y-96269433D01*
G37*
X129668099Y-96269433D02*
X129928512Y-96511686D01*
X130169413Y-96709927D01*
X130357758Y-96838255D01*
X130436845Y-96872002D01*
X130611597Y-96936948D01*
X130669753Y-96992137D01*
X130636185Y-97032532D01*
X130477069Y-97058649D01*
X130170837Y-97072475D01*
X129759506Y-97076054D01*
X129266395Y-97068706D01*
X128950262Y-97046905D01*
X128815707Y-97011014D01*
X128810925Y-97000979D01*
X128889586Y-96925466D01*
X129002920Y-96889265D01*
X129141681Y-96829646D01*
X129159711Y-96775557D01*
X129047744Y-96732718D01*
X128775554Y-96706143D01*
X128434629Y-96698487D01*
X128046455Y-96708809D01*
X127795304Y-96737861D01*
X127709548Y-96775557D01*
X127757487Y-96851338D01*
X127866338Y-96889265D01*
X128021064Y-96949550D01*
X128058333Y-97000979D01*
X127967635Y-97043067D01*
X127706882Y-97068643D01*
X127352777Y-97076054D01*
X126986312Y-97067248D01*
X126740026Y-97043046D01*
X126647284Y-97006775D01*
X126647222Y-97005706D01*
X126724960Y-96931370D01*
X126875550Y-96872011D01*
X127021005Y-96795175D01*
X127212927Y-96647585D01*
X127419627Y-96460680D01*
X127570713Y-96305619D01*
X128128952Y-96305619D01*
X128136429Y-96361673D01*
X128272188Y-96399380D01*
X128274538Y-96399887D01*
X128555060Y-96444255D01*
X128748193Y-96444079D01*
X128807796Y-96406730D01*
X128750861Y-96322866D01*
X128617578Y-96191195D01*
X128611751Y-96186062D01*
X128418836Y-96016882D01*
X128243122Y-96186062D01*
X128128952Y-96305619D01*
X127570713Y-96305619D01*
X127609415Y-96265900D01*
X127750599Y-96094684D01*
X127811490Y-95978471D01*
X127803215Y-95951689D01*
X127669023Y-95915100D01*
X127572283Y-95909027D01*
X127428559Y-95862799D01*
X127399814Y-95806054D01*
X127432800Y-95755828D01*
X127553189Y-95724538D01*
X127793130Y-95708277D01*
X128184770Y-95703137D01*
X128246872Y-95703081D01*
X129093930Y-95703081D01*
X129668099Y-96269433D01*
G36*
X125045732Y-95709151D02*
G01*
X125500830Y-95724357D01*
X125869067Y-95746777D01*
X126100142Y-95774101D01*
X126102017Y-95774477D01*
X126468610Y-95904666D01*
X126709570Y-96102100D01*
X126819628Y-96337097D01*
X126793513Y-96579976D01*
X126625956Y-96801054D01*
X126314229Y-96969773D01*
X126095531Y-97015341D01*
X125760385Y-97049673D01*
X125346898Y-97072729D01*
X124893175Y-97084465D01*
X124437319Y-97084838D01*
X124017437Y-97073805D01*
X123671634Y-97051326D01*
X123438014Y-97017356D01*
X123354629Y-96973081D01*
X123433058Y-96889221D01*
X123542777Y-96870108D01*
X123644026Y-96856390D01*
X123688849Y-96808011D01*
X124577592Y-96808011D01*
X125163663Y-96787573D01*
X125488235Y-96771539D01*
X125675587Y-96741351D01*
X125776628Y-96680970D01*
X125842267Y-96574358D01*
X125842593Y-96573678D01*
X125882662Y-96371467D01*
X125794319Y-96196111D01*
X125688598Y-96088480D01*
X125543212Y-96029115D01*
X125299163Y-96000228D01*
X125115388Y-95991412D01*
X124577592Y-95970824D01*
X124577592Y-96808011D01*
X123688849Y-96808011D01*
X123700779Y-96795135D01*
X123725568Y-96656197D01*
X123730925Y-96417465D01*
X123723887Y-96170049D01*
X123694405Y-96027151D01*
X123629929Y-95956180D01*
X123542777Y-95928918D01*
X123389892Y-95859961D01*
X123354629Y-95798048D01*
X123390491Y-95757585D01*
X123515483Y-95729969D01*
X123755721Y-95713142D01*
X124137316Y-95705044D01*
X124554074Y-95703464D01*
X125045732Y-95709151D01*
G37*
X125045732Y-95709151D02*
X125500830Y-95724357D01*
X125869067Y-95746777D01*
X126100142Y-95774101D01*
X126102017Y-95774477D01*
X126468610Y-95904666D01*
X126709570Y-96102100D01*
X126819628Y-96337097D01*
X126793513Y-96579976D01*
X126625956Y-96801054D01*
X126314229Y-96969773D01*
X126095531Y-97015341D01*
X125760385Y-97049673D01*
X125346898Y-97072729D01*
X124893175Y-97084465D01*
X124437319Y-97084838D01*
X124017437Y-97073805D01*
X123671634Y-97051326D01*
X123438014Y-97017356D01*
X123354629Y-96973081D01*
X123433058Y-96889221D01*
X123542777Y-96870108D01*
X123644026Y-96856390D01*
X123688849Y-96808011D01*
X124577592Y-96808011D01*
X125163663Y-96787573D01*
X125488235Y-96771539D01*
X125675587Y-96741351D01*
X125776628Y-96680970D01*
X125842267Y-96574358D01*
X125842593Y-96573678D01*
X125882662Y-96371467D01*
X125794319Y-96196111D01*
X125688598Y-96088480D01*
X125543212Y-96029115D01*
X125299163Y-96000228D01*
X125115388Y-95991412D01*
X124577592Y-95970824D01*
X124577592Y-96808011D01*
X123688849Y-96808011D01*
X123700779Y-96795135D01*
X123725568Y-96656197D01*
X123730925Y-96417465D01*
X123723887Y-96170049D01*
X123694405Y-96027151D01*
X123629929Y-95956180D01*
X123542777Y-95928918D01*
X123389892Y-95859961D01*
X123354629Y-95798048D01*
X123390491Y-95757585D01*
X123515483Y-95729969D01*
X123755721Y-95713142D01*
X124137316Y-95705044D01*
X124554074Y-95703464D01*
X125045732Y-95709151D01*
G36*
X122873703Y-95710227D02*
G01*
X123081988Y-95734535D01*
X123162681Y-95780312D01*
X123166481Y-95798048D01*
X123087664Y-95890256D01*
X122978333Y-95928918D01*
X122884425Y-95960503D01*
X122828060Y-96030603D01*
X122799919Y-96168524D01*
X122790679Y-96403571D01*
X122790185Y-96520438D01*
X122790185Y-97076054D01*
X121576030Y-97076054D01*
X121007181Y-96593751D01*
X120438333Y-96111448D01*
X120438333Y-96482771D01*
X120449088Y-96704297D01*
X120492396Y-96824869D01*
X120584817Y-96880334D01*
X120626481Y-96889999D01*
X120779165Y-96950474D01*
X120814629Y-97000979D01*
X120724530Y-97043744D01*
X120467954Y-97069410D01*
X120156111Y-97076054D01*
X119780999Y-97065782D01*
X119555872Y-97036531D01*
X119497592Y-97000979D01*
X119576129Y-96925067D01*
X119685740Y-96889999D01*
X119788791Y-96853068D01*
X119845875Y-96770091D01*
X119869865Y-96608184D01*
X119873888Y-96409459D01*
X119866582Y-96164531D01*
X119836080Y-96023810D01*
X119769506Y-95954411D01*
X119685740Y-95928918D01*
X119532855Y-95859961D01*
X119497592Y-95798048D01*
X119541730Y-95749476D01*
X119693744Y-95719867D01*
X119983037Y-95705699D01*
X120290394Y-95703081D01*
X120685915Y-95706655D01*
X120939747Y-95722468D01*
X121098243Y-95758159D01*
X121207754Y-95821365D01*
X121254653Y-95861978D01*
X121409386Y-95999217D01*
X121634261Y-96191665D01*
X121825925Y-96352183D01*
X122225740Y-96683492D01*
X122225740Y-96296260D01*
X122217977Y-96074681D01*
X122184255Y-95957984D01*
X122108924Y-95913959D01*
X122037592Y-95909027D01*
X121884365Y-95866103D01*
X121849444Y-95806054D01*
X121888171Y-95750107D01*
X122027422Y-95718087D01*
X122301801Y-95704583D01*
X122507962Y-95703081D01*
X122873703Y-95710227D01*
G37*
X122873703Y-95710227D02*
X123081988Y-95734535D01*
X123162681Y-95780312D01*
X123166481Y-95798048D01*
X123087664Y-95890256D01*
X122978333Y-95928918D01*
X122884425Y-95960503D01*
X122828060Y-96030603D01*
X122799919Y-96168524D01*
X122790679Y-96403571D01*
X122790185Y-96520438D01*
X122790185Y-97076054D01*
X121576030Y-97076054D01*
X121007181Y-96593751D01*
X120438333Y-96111448D01*
X120438333Y-96482771D01*
X120449088Y-96704297D01*
X120492396Y-96824869D01*
X120584817Y-96880334D01*
X120626481Y-96889999D01*
X120779165Y-96950474D01*
X120814629Y-97000979D01*
X120724530Y-97043744D01*
X120467954Y-97069410D01*
X120156111Y-97076054D01*
X119780999Y-97065782D01*
X119555872Y-97036531D01*
X119497592Y-97000979D01*
X119576129Y-96925067D01*
X119685740Y-96889999D01*
X119788791Y-96853068D01*
X119845875Y-96770091D01*
X119869865Y-96608184D01*
X119873888Y-96409459D01*
X119866582Y-96164531D01*
X119836080Y-96023810D01*
X119769506Y-95954411D01*
X119685740Y-95928918D01*
X119532855Y-95859961D01*
X119497592Y-95798048D01*
X119541730Y-95749476D01*
X119693744Y-95719867D01*
X119983037Y-95705699D01*
X120290394Y-95703081D01*
X120685915Y-95706655D01*
X120939747Y-95722468D01*
X121098243Y-95758159D01*
X121207754Y-95821365D01*
X121254653Y-95861978D01*
X121409386Y-95999217D01*
X121634261Y-96191665D01*
X121825925Y-96352183D01*
X122225740Y-96683492D01*
X122225740Y-96296260D01*
X122217977Y-96074681D01*
X122184255Y-95957984D01*
X122108924Y-95913959D01*
X122037592Y-95909027D01*
X121884365Y-95866103D01*
X121849444Y-95806054D01*
X121888171Y-95750107D01*
X122027422Y-95718087D01*
X122301801Y-95704583D01*
X122507962Y-95703081D01*
X122873703Y-95710227D01*
G36*
X115395092Y-95707094D02*
G01*
X115652378Y-95721740D01*
X115786049Y-95750929D01*
X115828257Y-95798571D01*
X115828703Y-95806054D01*
X115750274Y-95889915D01*
X115640555Y-95909027D01*
X115541016Y-95922198D01*
X115484333Y-95981430D01*
X115458731Y-96116301D01*
X115452430Y-96356391D01*
X115452407Y-96381561D01*
X115458843Y-96635100D01*
X115486016Y-96783381D01*
X115545726Y-96858287D01*
X115640555Y-96889999D01*
X115793239Y-96950474D01*
X115828703Y-97000979D01*
X115736605Y-97041207D01*
X115466200Y-97066474D01*
X115026326Y-97075996D01*
X114982037Y-97076054D01*
X114528359Y-97067888D01*
X114243410Y-97043910D01*
X114136026Y-97004906D01*
X114135370Y-97000979D01*
X114213613Y-96924140D01*
X114314820Y-96891659D01*
X114465283Y-96815301D01*
X114556474Y-96690580D01*
X114547518Y-96578720D01*
X114532793Y-96565164D01*
X114418176Y-96545263D01*
X114171526Y-96531414D01*
X113884506Y-96526865D01*
X113560780Y-96530318D01*
X113382216Y-96548538D01*
X113305873Y-96593319D01*
X113288807Y-96676452D01*
X113288703Y-96690480D01*
X113359622Y-96841459D01*
X113476851Y-96889999D01*
X113629535Y-96950474D01*
X113665000Y-97000979D01*
X113572901Y-97041207D01*
X113302497Y-97066474D01*
X112862622Y-97075996D01*
X112818333Y-97076054D01*
X112399584Y-97068609D01*
X112110803Y-97047692D01*
X111977638Y-97015437D01*
X111971666Y-97005706D01*
X112049624Y-96932272D01*
X112211356Y-96868858D01*
X112341961Y-96822791D01*
X112410529Y-96752656D01*
X112432754Y-96621677D01*
X112424330Y-96393078D01*
X112423023Y-96372855D01*
X112400680Y-96135706D01*
X112361203Y-96002977D01*
X112287136Y-95941792D01*
X112183333Y-95921415D01*
X112017841Y-95867112D01*
X111971666Y-95801280D01*
X112009879Y-95752903D01*
X112144874Y-95722773D01*
X112407191Y-95707347D01*
X112818333Y-95703081D01*
X113231388Y-95707094D01*
X113488675Y-95721740D01*
X113622345Y-95750929D01*
X113664553Y-95798571D01*
X113665000Y-95806054D01*
X113586570Y-95889915D01*
X113476851Y-95909027D01*
X113329313Y-95949250D01*
X113288703Y-96080649D01*
X113299812Y-96173826D01*
X113361833Y-96225214D01*
X113517813Y-96247211D01*
X113810797Y-96252217D01*
X113884506Y-96252270D01*
X114201802Y-96246656D01*
X114437286Y-96232020D01*
X114532793Y-96213971D01*
X114565412Y-96110331D01*
X114490888Y-95989221D01*
X114354640Y-95913523D01*
X114312546Y-95909027D01*
X114166147Y-95863875D01*
X114135370Y-95806054D01*
X114168364Y-95755818D01*
X114288784Y-95724526D01*
X114528781Y-95708269D01*
X114920509Y-95703136D01*
X114982037Y-95703081D01*
X115395092Y-95707094D01*
G37*
X115395092Y-95707094D02*
X115652378Y-95721740D01*
X115786049Y-95750929D01*
X115828257Y-95798571D01*
X115828703Y-95806054D01*
X115750274Y-95889915D01*
X115640555Y-95909027D01*
X115541016Y-95922198D01*
X115484333Y-95981430D01*
X115458731Y-96116301D01*
X115452430Y-96356391D01*
X115452407Y-96381561D01*
X115458843Y-96635100D01*
X115486016Y-96783381D01*
X115545726Y-96858287D01*
X115640555Y-96889999D01*
X115793239Y-96950474D01*
X115828703Y-97000979D01*
X115736605Y-97041207D01*
X115466200Y-97066474D01*
X115026326Y-97075996D01*
X114982037Y-97076054D01*
X114528359Y-97067888D01*
X114243410Y-97043910D01*
X114136026Y-97004906D01*
X114135370Y-97000979D01*
X114213613Y-96924140D01*
X114314820Y-96891659D01*
X114465283Y-96815301D01*
X114556474Y-96690580D01*
X114547518Y-96578720D01*
X114532793Y-96565164D01*
X114418176Y-96545263D01*
X114171526Y-96531414D01*
X113884506Y-96526865D01*
X113560780Y-96530318D01*
X113382216Y-96548538D01*
X113305873Y-96593319D01*
X113288807Y-96676452D01*
X113288703Y-96690480D01*
X113359622Y-96841459D01*
X113476851Y-96889999D01*
X113629535Y-96950474D01*
X113665000Y-97000979D01*
X113572901Y-97041207D01*
X113302497Y-97066474D01*
X112862622Y-97075996D01*
X112818333Y-97076054D01*
X112399584Y-97068609D01*
X112110803Y-97047692D01*
X111977638Y-97015437D01*
X111971666Y-97005706D01*
X112049624Y-96932272D01*
X112211356Y-96868858D01*
X112341961Y-96822791D01*
X112410529Y-96752656D01*
X112432754Y-96621677D01*
X112424330Y-96393078D01*
X112423023Y-96372855D01*
X112400680Y-96135706D01*
X112361203Y-96002977D01*
X112287136Y-95941792D01*
X112183333Y-95921415D01*
X112017841Y-95867112D01*
X111971666Y-95801280D01*
X112009879Y-95752903D01*
X112144874Y-95722773D01*
X112407191Y-95707347D01*
X112818333Y-95703081D01*
X113231388Y-95707094D01*
X113488675Y-95721740D01*
X113622345Y-95750929D01*
X113664553Y-95798571D01*
X113665000Y-95806054D01*
X113586570Y-95889915D01*
X113476851Y-95909027D01*
X113329313Y-95949250D01*
X113288703Y-96080649D01*
X113299812Y-96173826D01*
X113361833Y-96225214D01*
X113517813Y-96247211D01*
X113810797Y-96252217D01*
X113884506Y-96252270D01*
X114201802Y-96246656D01*
X114437286Y-96232020D01*
X114532793Y-96213971D01*
X114565412Y-96110331D01*
X114490888Y-95989221D01*
X114354640Y-95913523D01*
X114312546Y-95909027D01*
X114166147Y-95863875D01*
X114135370Y-95806054D01*
X114168364Y-95755818D01*
X114288784Y-95724526D01*
X114528781Y-95708269D01*
X114920509Y-95703136D01*
X114982037Y-95703081D01*
X115395092Y-95707094D01*
G36*
X118161249Y-95686446D02*
G01*
X118677557Y-95778978D01*
X119035148Y-95913839D01*
X119258923Y-96103404D01*
X119349992Y-96277319D01*
X119391136Y-96473388D01*
X119332369Y-96623034D01*
X119247457Y-96716957D01*
X119024404Y-96883409D01*
X118783576Y-97002896D01*
X118503711Y-97064083D01*
X118103202Y-97104383D01*
X117647690Y-97122185D01*
X117202815Y-97115875D01*
X116834219Y-97083841D01*
X116686848Y-97054412D01*
X116396573Y-96936545D01*
X116145922Y-96777165D01*
X115951661Y-96536367D01*
X115927623Y-96318371D01*
X116908624Y-96318371D01*
X116915686Y-96545686D01*
X117050006Y-96739057D01*
X117117951Y-96784297D01*
X117362789Y-96852340D01*
X117686314Y-96866695D01*
X117999796Y-96829649D01*
X118196666Y-96756496D01*
X118324377Y-96597277D01*
X118368597Y-96383036D01*
X118327945Y-96174076D01*
X118213133Y-96037568D01*
X118025446Y-95979003D01*
X117743232Y-95946019D01*
X117640377Y-95943352D01*
X117335417Y-95962955D01*
X117134995Y-96036388D01*
X117035596Y-96112408D01*
X116908624Y-96318371D01*
X115927623Y-96318371D01*
X115926115Y-96304704D01*
X116049859Y-96092689D01*
X116303467Y-95910835D01*
X116667516Y-95769655D01*
X117122581Y-95679661D01*
X117649237Y-95651367D01*
X118161249Y-95686446D01*
G37*
X118161249Y-95686446D02*
X118677557Y-95778978D01*
X119035148Y-95913839D01*
X119258923Y-96103404D01*
X119349992Y-96277319D01*
X119391136Y-96473388D01*
X119332369Y-96623034D01*
X119247457Y-96716957D01*
X119024404Y-96883409D01*
X118783576Y-97002896D01*
X118503711Y-97064083D01*
X118103202Y-97104383D01*
X117647690Y-97122185D01*
X117202815Y-97115875D01*
X116834219Y-97083841D01*
X116686848Y-97054412D01*
X116396573Y-96936545D01*
X116145922Y-96777165D01*
X115951661Y-96536367D01*
X115927623Y-96318371D01*
X116908624Y-96318371D01*
X116915686Y-96545686D01*
X117050006Y-96739057D01*
X117117951Y-96784297D01*
X117362789Y-96852340D01*
X117686314Y-96866695D01*
X117999796Y-96829649D01*
X118196666Y-96756496D01*
X118324377Y-96597277D01*
X118368597Y-96383036D01*
X118327945Y-96174076D01*
X118213133Y-96037568D01*
X118025446Y-95979003D01*
X117743232Y-95946019D01*
X117640377Y-95943352D01*
X117335417Y-95962955D01*
X117134995Y-96036388D01*
X117035596Y-96112408D01*
X116908624Y-96318371D01*
X115927623Y-96318371D01*
X115926115Y-96304704D01*
X116049859Y-96092689D01*
X116303467Y-95910835D01*
X116667516Y-95769655D01*
X117122581Y-95679661D01*
X117649237Y-95651367D01*
X118161249Y-95686446D01*
D10*
%TO.C,C1*%
X107246748Y-130275000D02*
X107769252Y-130275000D01*
X107246748Y-128805000D02*
X107769252Y-128805000D01*
%TO.C,C2*%
X107246748Y-123725000D02*
X107769252Y-123725000D01*
X107246748Y-125195000D02*
X107769252Y-125195000D01*
%TO.C,C3*%
X89227252Y-103913000D02*
X88704748Y-103913000D01*
X89227252Y-105383000D02*
X88704748Y-105383000D01*
%TO.C,C4*%
X122455000Y-114292748D02*
X122455000Y-114815252D01*
X123925000Y-114292748D02*
X123925000Y-114815252D01*
%TO.C,C5*%
X128243000Y-114292748D02*
X128243000Y-114815252D01*
X126773000Y-114292748D02*
X126773000Y-114815252D01*
%TO.C,C6*%
X140816000Y-115008252D02*
X140816000Y-114485748D01*
X139346000Y-115008252D02*
X139346000Y-114485748D01*
%TO.C,C7*%
X143156000Y-115008252D02*
X143156000Y-114485748D01*
X144626000Y-115008252D02*
X144626000Y-114485748D01*
%TO.C,C8*%
X147601000Y-114480748D02*
X147601000Y-115003252D01*
X149071000Y-114480748D02*
X149071000Y-115003252D01*
%TO.C,C9*%
X153135000Y-114485748D02*
X153135000Y-115008252D01*
X151665000Y-114485748D02*
X151665000Y-115008252D01*
%TO.C,C10*%
X93210748Y-103405000D02*
X93733252Y-103405000D01*
X93210748Y-104875000D02*
X93733252Y-104875000D01*
%TO.C,C11*%
X106399000Y-99880748D02*
X106399000Y-100403252D01*
X104929000Y-99880748D02*
X104929000Y-100403252D01*
%TO.C,C12*%
X93291252Y-95785000D02*
X92768748Y-95785000D01*
X93291252Y-97255000D02*
X92768748Y-97255000D01*
%TO.C,C13*%
X147601000Y-109466748D02*
X147601000Y-109989252D01*
X149071000Y-109466748D02*
X149071000Y-109989252D01*
%TO.C,C14*%
X131291000Y-103944748D02*
X131291000Y-104467252D01*
X129821000Y-103944748D02*
X129821000Y-104467252D01*
%TO.C,D1*%
X139274500Y-125024000D02*
X136589500Y-125024000D01*
X139274500Y-126944000D02*
X139274500Y-125024000D01*
X136589500Y-126944000D02*
X139274500Y-126944000D01*
%TO.C,D2*%
X90400000Y-100926000D02*
X87850000Y-100926000D01*
X90400000Y-99226000D02*
X87850000Y-99226000D01*
X90400000Y-100926000D02*
X90400000Y-99226000D01*
%TO.C,D3*%
X143985500Y-123134000D02*
X146670500Y-123134000D01*
X146670500Y-123134000D02*
X146670500Y-121214000D01*
X146670500Y-121214000D02*
X143985500Y-121214000D01*
%TO.C,D4*%
X146670500Y-124770000D02*
X143985500Y-124770000D01*
X146670500Y-126690000D02*
X146670500Y-124770000D01*
X143985500Y-126690000D02*
X146670500Y-126690000D01*
%TO.C,F1*%
X91546000Y-118393936D02*
X91546000Y-119598064D01*
X93366000Y-118393936D02*
X93366000Y-119598064D01*
%TO.C,FB1*%
X93016000Y-113345878D02*
X93016000Y-114145122D01*
X91896000Y-113345878D02*
X91896000Y-114145122D01*
%TO.C,J1*%
X99200000Y-143600000D02*
X100700000Y-143600000D01*
X99200000Y-141860000D02*
X99200000Y-143600000D01*
X107260000Y-136240000D02*
X107260000Y-143360000D01*
X99440000Y-136240000D02*
X99440000Y-143360000D01*
X99440000Y-143360000D02*
X107260000Y-143360000D01*
X99440000Y-136240000D02*
X107260000Y-136240000D01*
X99440000Y-141800000D02*
X107260000Y-141800000D01*
X106655000Y-139700000D02*
G75*
G03*
X106655000Y-139700000I-1555000J0D01*
G01*
X102207587Y-141131385D02*
G75*
G02*
X101600000Y-141255000I-607587J1431385D01*
G01*
X103032109Y-139092258D02*
G75*
G02*
X103032000Y-140308000I-1432109J-607742D01*
G01*
X100992258Y-138267891D02*
G75*
G02*
X102208000Y-138268000I607742J-1432109D01*
G01*
X100167891Y-140307742D02*
G75*
G02*
X100168000Y-139092000I1432109J607742D01*
G01*
X101627011Y-141255492D02*
G75*
G02*
X100992000Y-141132000I-27011J1555492D01*
G01*
%TO.C,J2*%
X179432000Y-126500000D02*
X178432000Y-127000000D01*
X179432000Y-127500000D02*
X179432000Y-126500000D01*
X178432000Y-127000000D02*
X179432000Y-127500000D01*
X176732000Y-122410000D02*
X178042000Y-122410000D01*
X176732000Y-122410000D02*
X176732000Y-122410000D01*
X176732000Y-118010000D02*
X176732000Y-122410000D01*
X170232000Y-118010000D02*
X176732000Y-118010000D01*
X170232000Y-130910000D02*
X170232000Y-118010000D01*
X176732000Y-130910000D02*
X170232000Y-130910000D01*
X176732000Y-126510000D02*
X176732000Y-130910000D01*
X178042000Y-126510000D02*
X176732000Y-126510000D01*
X178042000Y-116710000D02*
X178042000Y-132210000D01*
X168922000Y-116710000D02*
X178042000Y-116710000D01*
X168922000Y-132210000D02*
X168922000Y-116710000D01*
X178042000Y-132210000D02*
X168922000Y-132210000D01*
%TO.C,J3*%
X152540000Y-143600000D02*
X154040000Y-143600000D01*
X152540000Y-141860000D02*
X152540000Y-143600000D01*
X164100000Y-136240000D02*
X164100000Y-143360000D01*
X152780000Y-136240000D02*
X152780000Y-143360000D01*
X152780000Y-143360000D02*
X164100000Y-143360000D01*
X152780000Y-136240000D02*
X164100000Y-136240000D01*
X152780000Y-141800000D02*
X164100000Y-141800000D01*
X163495000Y-139700000D02*
G75*
G03*
X163495000Y-139700000I-1555000J0D01*
G01*
X159995000Y-139700000D02*
G75*
G03*
X159995000Y-139700000I-1555000J0D01*
G01*
X155547587Y-141131385D02*
G75*
G02*
X154940000Y-141255000I-607587J1431385D01*
G01*
X156372109Y-139092258D02*
G75*
G02*
X156372000Y-140308000I-1432109J-607742D01*
G01*
X154332258Y-138267891D02*
G75*
G02*
X155548000Y-138268000I607742J-1432109D01*
G01*
X153507891Y-140307742D02*
G75*
G02*
X153508000Y-139092000I1432109J607742D01*
G01*
X154967011Y-141255492D02*
G75*
G02*
X154332000Y-141132000I-27011J1555492D01*
G01*
%TO.C,J4*%
X176620000Y-114160000D02*
X176620000Y-112660000D01*
X174880000Y-114160000D02*
X176620000Y-114160000D01*
X169260000Y-92100000D02*
X176380000Y-92100000D01*
X169260000Y-113920000D02*
X176380000Y-113920000D01*
X176380000Y-113920000D02*
X176380000Y-92100000D01*
X169260000Y-113920000D02*
X169260000Y-92100000D01*
X174820000Y-113920000D02*
X174820000Y-92100000D01*
X174275000Y-94260000D02*
G75*
G03*
X174275000Y-94260000I-1555000J0D01*
G01*
X174275000Y-97760000D02*
G75*
G03*
X174275000Y-97760000I-1555000J0D01*
G01*
X174275000Y-101260000D02*
G75*
G03*
X174275000Y-101260000I-1555000J0D01*
G01*
X174275000Y-104760000D02*
G75*
G03*
X174275000Y-104760000I-1555000J0D01*
G01*
X174275000Y-108260000D02*
G75*
G03*
X174275000Y-108260000I-1555000J0D01*
G01*
X174151385Y-111152413D02*
G75*
G02*
X174275000Y-111760000I-1431385J-607587D01*
G01*
X172112258Y-110327891D02*
G75*
G02*
X173328000Y-110328000I607742J-1432109D01*
G01*
X171287891Y-112367742D02*
G75*
G02*
X171288000Y-111152000I1432109J607742D01*
G01*
X173327742Y-113192109D02*
G75*
G02*
X172112000Y-113192000I-607742J1432109D01*
G01*
X174275492Y-111732989D02*
G75*
G02*
X174152000Y-112368000I-1555492J-27011D01*
G01*
%TO.C,J5*%
X139787000Y-91440000D02*
G75*
G03*
X139787000Y-91440000I-1555000J0D01*
G01*
X143892000Y-89340000D02*
X136072000Y-89340000D01*
X143892000Y-94900000D02*
X136072000Y-94900000D01*
X143892000Y-87780000D02*
X136072000Y-87780000D01*
X143892000Y-94900000D02*
X143892000Y-87780000D01*
X136072000Y-94900000D02*
X136072000Y-87780000D01*
X144132000Y-89280000D02*
X144132000Y-87540000D01*
X144132000Y-87540000D02*
X142632000Y-87540000D01*
X141704989Y-89884508D02*
G75*
G02*
X142340000Y-90008000I27011J-1555492D01*
G01*
X143164109Y-90832258D02*
G75*
G02*
X143164000Y-92048000I-1432109J-607742D01*
G01*
X142339742Y-92872109D02*
G75*
G02*
X141124000Y-92872000I-607742J1432109D01*
G01*
X140299891Y-92047742D02*
G75*
G02*
X140300000Y-90832000I1432109J607742D01*
G01*
X141124413Y-90008615D02*
G75*
G02*
X141732000Y-89885000I607587J-1431385D01*
G01*
%TO.C,J7*%
X91471000Y-125024000D02*
G75*
G03*
X91471000Y-125024000I-1555000J0D01*
G01*
X92016000Y-130684000D02*
X92016000Y-122864000D01*
X86456000Y-130684000D02*
X86456000Y-122864000D01*
X93576000Y-130684000D02*
X93576000Y-122864000D01*
X86456000Y-130684000D02*
X93576000Y-130684000D01*
X86456000Y-122864000D02*
X93576000Y-122864000D01*
X92076000Y-130924000D02*
X93816000Y-130924000D01*
X93816000Y-130924000D02*
X93816000Y-129424000D01*
X91471492Y-128496989D02*
G75*
G02*
X91348000Y-129132000I-1555492J-27011D01*
G01*
X90523742Y-129956109D02*
G75*
G02*
X89308000Y-129956000I-607742J1432109D01*
G01*
X88483891Y-129131742D02*
G75*
G02*
X88484000Y-127916000I1432109J607742D01*
G01*
X89308258Y-127091891D02*
G75*
G02*
X90524000Y-127092000I607742J-1432109D01*
G01*
X91347385Y-127916413D02*
G75*
G02*
X91471000Y-128524000I-1431385J-607587D01*
G01*
%TO.C,J8*%
X158356000Y-87540000D02*
X156856000Y-87540000D01*
X158356000Y-89280000D02*
X158356000Y-87540000D01*
X150296000Y-94900000D02*
X150296000Y-87780000D01*
X158116000Y-94900000D02*
X158116000Y-87780000D01*
X158116000Y-87780000D02*
X150296000Y-87780000D01*
X158116000Y-94900000D02*
X150296000Y-94900000D01*
X158116000Y-89340000D02*
X150296000Y-89340000D01*
X154011000Y-91440000D02*
G75*
G03*
X154011000Y-91440000I-1555000J0D01*
G01*
X155348413Y-90008615D02*
G75*
G02*
X155956000Y-89885000I607587J-1431385D01*
G01*
X154523891Y-92047742D02*
G75*
G02*
X154524000Y-90832000I1432109J607742D01*
G01*
X156563742Y-92872109D02*
G75*
G02*
X155348000Y-92872000I-607742J1432109D01*
G01*
X157388109Y-90832258D02*
G75*
G02*
X157388000Y-92048000I-1432109J-607742D01*
G01*
X155928989Y-89884508D02*
G75*
G02*
X156564000Y-90008000I27011J-1555492D01*
G01*
%TO.C,L1*%
X93025878Y-100636000D02*
X93825122Y-100636000D01*
X93025878Y-99516000D02*
X93825122Y-99516000D01*
%TO.C,Q1*%
X88644000Y-120452000D02*
X88644000Y-119522000D01*
X88644000Y-117292000D02*
X88644000Y-118222000D01*
X88644000Y-117292000D02*
X86484000Y-117292000D01*
X88644000Y-120452000D02*
X87184000Y-120452000D01*
%TO.C,Q2*%
X136904000Y-105720000D02*
X135444000Y-105720000D01*
X136904000Y-102560000D02*
X134744000Y-102560000D01*
X136904000Y-102560000D02*
X136904000Y-103490000D01*
X136904000Y-105720000D02*
X136904000Y-104790000D01*
%TO.C,Q3*%
X146068000Y-97038000D02*
X146068000Y-97968000D01*
X146068000Y-100198000D02*
X146068000Y-99268000D01*
X146068000Y-100198000D02*
X148228000Y-100198000D01*
X146068000Y-97038000D02*
X147528000Y-97038000D01*
%TO.C,R1*%
X137337436Y-130592500D02*
X137791564Y-130592500D01*
X137337436Y-129122500D02*
X137791564Y-129122500D01*
%TO.C,R2*%
X121131000Y-104524436D02*
X121131000Y-104978564D01*
X119661000Y-104524436D02*
X119661000Y-104978564D01*
%TO.C,R3*%
X87706564Y-112549000D02*
X87252436Y-112549000D01*
X87706564Y-114019000D02*
X87252436Y-114019000D01*
%TO.C,R4*%
X88406500Y-108632258D02*
X88406500Y-108157742D01*
X87361500Y-108632258D02*
X87361500Y-108157742D01*
%TO.C,R5*%
X104929000Y-95731064D02*
X104929000Y-95276936D01*
X106399000Y-95731064D02*
X106399000Y-95276936D01*
%TO.C,R6*%
X99849000Y-95681436D02*
X99849000Y-96135564D01*
X101319000Y-95681436D02*
X101319000Y-96135564D01*
%TO.C,R7*%
X99795064Y-101319000D02*
X99340936Y-101319000D01*
X99795064Y-99849000D02*
X99340936Y-99849000D01*
%TO.C,R8*%
X144499000Y-110058564D02*
X144499000Y-109604436D01*
X143029000Y-110058564D02*
X143029000Y-109604436D01*
%TO.C,R9*%
X140538564Y-98833000D02*
X140084436Y-98833000D01*
X140538564Y-100303000D02*
X140084436Y-100303000D01*
%TO.C,R10*%
X145569000Y-104263564D02*
X145569000Y-103809436D01*
X147039000Y-104263564D02*
X147039000Y-103809436D01*
%TO.C,R11*%
X135512436Y-98833000D02*
X135966564Y-98833000D01*
X135512436Y-100303000D02*
X135966564Y-100303000D01*
%TO.C,R12*%
X145030564Y-135101000D02*
X144576436Y-135101000D01*
X145030564Y-133631000D02*
X144576436Y-133631000D01*
%TO.C,R13*%
X145134064Y-129567000D02*
X144679936Y-129567000D01*
X145134064Y-131037000D02*
X144679936Y-131037000D01*
%TO.C,U1*%
X108408000Y-103580000D02*
X106593000Y-103580000D01*
X108408000Y-103335000D02*
X108408000Y-103580000D01*
X112268000Y-103335000D02*
X108408000Y-103335000D01*
X116128000Y-103335000D02*
X116128000Y-103580000D01*
X112268000Y-103335000D02*
X116128000Y-103335000D01*
X108408000Y-115105000D02*
X108408000Y-114860000D01*
X112268000Y-115105000D02*
X108408000Y-115105000D01*
X116128000Y-115105000D02*
X116128000Y-114860000D01*
X112268000Y-115105000D02*
X116128000Y-115105000D01*
%TO.C,U2*%
X99040000Y-109220000D02*
X99040000Y-112670000D01*
X99040000Y-109220000D02*
X99040000Y-107270000D01*
X104160000Y-109220000D02*
X104160000Y-111170000D01*
X104160000Y-109220000D02*
X104160000Y-107270000D01*
%TO.C,U3*%
X94288000Y-106594000D02*
X91838000Y-106594000D01*
X92488000Y-109814000D02*
X94288000Y-109814000D01*
%TO.C,U4*%
X163432000Y-97222000D02*
X161782000Y-97222000D01*
X163432000Y-132902000D02*
X163432000Y-97222000D01*
X158132000Y-132902000D02*
X163432000Y-132902000D01*
X158132000Y-97222000D02*
X158132000Y-132902000D01*
X159782000Y-97222000D02*
X158132000Y-97222000D01*
X161782000Y-97222000D02*
G75*
G02*
X159782000Y-97222000I-1000000J0D01*
G01*
%TO.C,U5*%
X121358000Y-120344000D02*
X119318000Y-120344000D01*
X121358000Y-119624000D02*
X121358000Y-120344000D01*
X124968000Y-119624000D02*
X121358000Y-119624000D01*
X128578000Y-119624000D02*
X128578000Y-120344000D01*
X124968000Y-119624000D02*
X128578000Y-119624000D01*
X121358000Y-132344000D02*
X121358000Y-131624000D01*
X124968000Y-132344000D02*
X121358000Y-132344000D01*
X128578000Y-132344000D02*
X128578000Y-131624000D01*
X124968000Y-132344000D02*
X128578000Y-132344000D01*
%TO.C,U6*%
X125240000Y-103642000D02*
X126700000Y-103642000D01*
X125240000Y-106802000D02*
X127400000Y-106802000D01*
X125240000Y-106802000D02*
X125240000Y-105872000D01*
X125240000Y-103642000D02*
X125240000Y-104572000D01*
%TO.C,Y1*%
X115200000Y-124500000D02*
X111200000Y-124500000D01*
X115200000Y-127800000D02*
X115200000Y-124500000D01*
%TO.C,Y2*%
X136790000Y-117054000D02*
X136790000Y-113754000D01*
X136790000Y-113754000D02*
X132790000Y-113754000D01*
%TO.C,J6*%
X141084000Y-136308000D02*
X139584000Y-136308000D01*
X141084000Y-138048000D02*
X141084000Y-136308000D01*
X119024000Y-143668000D02*
X119024000Y-136548000D01*
X140844000Y-143668000D02*
X140844000Y-136548000D01*
X140844000Y-136548000D02*
X119024000Y-136548000D01*
X140844000Y-143668000D02*
X119024000Y-143668000D01*
X140844000Y-138108000D02*
X119024000Y-138108000D01*
X122739000Y-140208000D02*
G75*
G03*
X122739000Y-140208000I-1555000J0D01*
G01*
X126239000Y-140208000D02*
G75*
G03*
X126239000Y-140208000I-1555000J0D01*
G01*
X129739000Y-140208000D02*
G75*
G03*
X129739000Y-140208000I-1555000J0D01*
G01*
X133239000Y-140208000D02*
G75*
G03*
X133239000Y-140208000I-1555000J0D01*
G01*
X136739000Y-140208000D02*
G75*
G03*
X136739000Y-140208000I-1555000J0D01*
G01*
X138656989Y-138652508D02*
G75*
G02*
X139292000Y-138776000I27011J-1555492D01*
G01*
X140116109Y-139600258D02*
G75*
G02*
X140116000Y-140816000I-1432109J-607742D01*
G01*
X139291742Y-141640109D02*
G75*
G02*
X138076000Y-141640000I-607742J1432109D01*
G01*
X137251891Y-140815742D02*
G75*
G02*
X137252000Y-139600000I1432109J607742D01*
G01*
X138076413Y-138776615D02*
G75*
G02*
X138684000Y-138653000I607587J-1431385D01*
G01*
%TO.C,C1*%
D12*
X107341333Y-128217142D02*
X107293714Y-128264761D01*
X107150857Y-128312380D01*
X107055619Y-128312380D01*
X106912761Y-128264761D01*
X106817523Y-128169523D01*
X106769904Y-128074285D01*
X106722285Y-127883809D01*
X106722285Y-127740952D01*
X106769904Y-127550476D01*
X106817523Y-127455238D01*
X106912761Y-127360000D01*
X107055619Y-127312380D01*
X107150857Y-127312380D01*
X107293714Y-127360000D01*
X107341333Y-127407619D01*
X108293714Y-128312380D02*
X107722285Y-128312380D01*
X108008000Y-128312380D02*
X108008000Y-127312380D01*
X107912761Y-127455238D01*
X107817523Y-127550476D01*
X107722285Y-127598095D01*
%TO.C,C2*%
X107341333Y-123137142D02*
X107293714Y-123184761D01*
X107150857Y-123232380D01*
X107055619Y-123232380D01*
X106912761Y-123184761D01*
X106817523Y-123089523D01*
X106769904Y-122994285D01*
X106722285Y-122803809D01*
X106722285Y-122660952D01*
X106769904Y-122470476D01*
X106817523Y-122375238D01*
X106912761Y-122280000D01*
X107055619Y-122232380D01*
X107150857Y-122232380D01*
X107293714Y-122280000D01*
X107341333Y-122327619D01*
X107722285Y-122327619D02*
X107769904Y-122280000D01*
X107865142Y-122232380D01*
X108103238Y-122232380D01*
X108198476Y-122280000D01*
X108246095Y-122327619D01*
X108293714Y-122422857D01*
X108293714Y-122518095D01*
X108246095Y-122660952D01*
X107674666Y-123232380D01*
X108293714Y-123232380D01*
%TO.C,C3*%
X88799333Y-106685142D02*
X88751714Y-106732761D01*
X88608857Y-106780380D01*
X88513619Y-106780380D01*
X88370761Y-106732761D01*
X88275523Y-106637523D01*
X88227904Y-106542285D01*
X88180285Y-106351809D01*
X88180285Y-106208952D01*
X88227904Y-106018476D01*
X88275523Y-105923238D01*
X88370761Y-105828000D01*
X88513619Y-105780380D01*
X88608857Y-105780380D01*
X88751714Y-105828000D01*
X88799333Y-105875619D01*
X89132666Y-105780380D02*
X89751714Y-105780380D01*
X89418380Y-106161333D01*
X89561238Y-106161333D01*
X89656476Y-106208952D01*
X89704095Y-106256571D01*
X89751714Y-106351809D01*
X89751714Y-106589904D01*
X89704095Y-106685142D01*
X89656476Y-106732761D01*
X89561238Y-106780380D01*
X89275523Y-106780380D01*
X89180285Y-106732761D01*
X89132666Y-106685142D01*
%TO.C,C4*%
X125227142Y-114720666D02*
X125274761Y-114768285D01*
X125322380Y-114911142D01*
X125322380Y-115006380D01*
X125274761Y-115149238D01*
X125179523Y-115244476D01*
X125084285Y-115292095D01*
X124893809Y-115339714D01*
X124750952Y-115339714D01*
X124560476Y-115292095D01*
X124465238Y-115244476D01*
X124370000Y-115149238D01*
X124322380Y-115006380D01*
X124322380Y-114911142D01*
X124370000Y-114768285D01*
X124417619Y-114720666D01*
X124655714Y-113863523D02*
X125322380Y-113863523D01*
X124274761Y-114101619D02*
X124989047Y-114339714D01*
X124989047Y-113720666D01*
%TO.C,C5*%
X129545142Y-114720666D02*
X129592761Y-114768285D01*
X129640380Y-114911142D01*
X129640380Y-115006380D01*
X129592761Y-115149238D01*
X129497523Y-115244476D01*
X129402285Y-115292095D01*
X129211809Y-115339714D01*
X129068952Y-115339714D01*
X128878476Y-115292095D01*
X128783238Y-115244476D01*
X128688000Y-115149238D01*
X128640380Y-115006380D01*
X128640380Y-114911142D01*
X128688000Y-114768285D01*
X128735619Y-114720666D01*
X128640380Y-113815904D02*
X128640380Y-114292095D01*
X129116571Y-114339714D01*
X129068952Y-114292095D01*
X129021333Y-114196857D01*
X129021333Y-113958761D01*
X129068952Y-113863523D01*
X129116571Y-113815904D01*
X129211809Y-113768285D01*
X129449904Y-113768285D01*
X129545142Y-113815904D01*
X129592761Y-113863523D01*
X129640380Y-113958761D01*
X129640380Y-114196857D01*
X129592761Y-114292095D01*
X129545142Y-114339714D01*
%TO.C,C6*%
X138758142Y-114913666D02*
X138805761Y-114961285D01*
X138853380Y-115104142D01*
X138853380Y-115199380D01*
X138805761Y-115342238D01*
X138710523Y-115437476D01*
X138615285Y-115485095D01*
X138424809Y-115532714D01*
X138281952Y-115532714D01*
X138091476Y-115485095D01*
X137996238Y-115437476D01*
X137901000Y-115342238D01*
X137853380Y-115199380D01*
X137853380Y-115104142D01*
X137901000Y-114961285D01*
X137948619Y-114913666D01*
X137853380Y-114056523D02*
X137853380Y-114247000D01*
X137901000Y-114342238D01*
X137948619Y-114389857D01*
X138091476Y-114485095D01*
X138281952Y-114532714D01*
X138662904Y-114532714D01*
X138758142Y-114485095D01*
X138805761Y-114437476D01*
X138853380Y-114342238D01*
X138853380Y-114151761D01*
X138805761Y-114056523D01*
X138758142Y-114008904D01*
X138662904Y-113961285D01*
X138424809Y-113961285D01*
X138329571Y-114008904D01*
X138281952Y-114056523D01*
X138234333Y-114151761D01*
X138234333Y-114342238D01*
X138281952Y-114437476D01*
X138329571Y-114485095D01*
X138424809Y-114532714D01*
%TO.C,C7*%
X142568142Y-114913666D02*
X142615761Y-114961285D01*
X142663380Y-115104142D01*
X142663380Y-115199380D01*
X142615761Y-115342238D01*
X142520523Y-115437476D01*
X142425285Y-115485095D01*
X142234809Y-115532714D01*
X142091952Y-115532714D01*
X141901476Y-115485095D01*
X141806238Y-115437476D01*
X141711000Y-115342238D01*
X141663380Y-115199380D01*
X141663380Y-115104142D01*
X141711000Y-114961285D01*
X141758619Y-114913666D01*
X141663380Y-114580333D02*
X141663380Y-113913666D01*
X142663380Y-114342238D01*
%TO.C,C8*%
X150373142Y-114908666D02*
X150420761Y-114956285D01*
X150468380Y-115099142D01*
X150468380Y-115194380D01*
X150420761Y-115337238D01*
X150325523Y-115432476D01*
X150230285Y-115480095D01*
X150039809Y-115527714D01*
X149896952Y-115527714D01*
X149706476Y-115480095D01*
X149611238Y-115432476D01*
X149516000Y-115337238D01*
X149468380Y-115194380D01*
X149468380Y-115099142D01*
X149516000Y-114956285D01*
X149563619Y-114908666D01*
X149896952Y-114337238D02*
X149849333Y-114432476D01*
X149801714Y-114480095D01*
X149706476Y-114527714D01*
X149658857Y-114527714D01*
X149563619Y-114480095D01*
X149516000Y-114432476D01*
X149468380Y-114337238D01*
X149468380Y-114146761D01*
X149516000Y-114051523D01*
X149563619Y-114003904D01*
X149658857Y-113956285D01*
X149706476Y-113956285D01*
X149801714Y-114003904D01*
X149849333Y-114051523D01*
X149896952Y-114146761D01*
X149896952Y-114337238D01*
X149944571Y-114432476D01*
X149992190Y-114480095D01*
X150087428Y-114527714D01*
X150277904Y-114527714D01*
X150373142Y-114480095D01*
X150420761Y-114432476D01*
X150468380Y-114337238D01*
X150468380Y-114146761D01*
X150420761Y-114051523D01*
X150373142Y-114003904D01*
X150277904Y-113956285D01*
X150087428Y-113956285D01*
X149992190Y-114003904D01*
X149944571Y-114051523D01*
X149896952Y-114146761D01*
%TO.C,C9*%
X154437142Y-114913666D02*
X154484761Y-114961285D01*
X154532380Y-115104142D01*
X154532380Y-115199380D01*
X154484761Y-115342238D01*
X154389523Y-115437476D01*
X154294285Y-115485095D01*
X154103809Y-115532714D01*
X153960952Y-115532714D01*
X153770476Y-115485095D01*
X153675238Y-115437476D01*
X153580000Y-115342238D01*
X153532380Y-115199380D01*
X153532380Y-115104142D01*
X153580000Y-114961285D01*
X153627619Y-114913666D01*
X154532380Y-114437476D02*
X154532380Y-114247000D01*
X154484761Y-114151761D01*
X154437142Y-114104142D01*
X154294285Y-114008904D01*
X154103809Y-113961285D01*
X153722857Y-113961285D01*
X153627619Y-114008904D01*
X153580000Y-114056523D01*
X153532380Y-114151761D01*
X153532380Y-114342238D01*
X153580000Y-114437476D01*
X153627619Y-114485095D01*
X153722857Y-114532714D01*
X153960952Y-114532714D01*
X154056190Y-114485095D01*
X154103809Y-114437476D01*
X154151428Y-114342238D01*
X154151428Y-114151761D01*
X154103809Y-114056523D01*
X154056190Y-114008904D01*
X153960952Y-113961285D01*
%TO.C,C10*%
X92829142Y-102817142D02*
X92781523Y-102864761D01*
X92638666Y-102912380D01*
X92543428Y-102912380D01*
X92400571Y-102864761D01*
X92305333Y-102769523D01*
X92257714Y-102674285D01*
X92210095Y-102483809D01*
X92210095Y-102340952D01*
X92257714Y-102150476D01*
X92305333Y-102055238D01*
X92400571Y-101960000D01*
X92543428Y-101912380D01*
X92638666Y-101912380D01*
X92781523Y-101960000D01*
X92829142Y-102007619D01*
X93781523Y-102912380D02*
X93210095Y-102912380D01*
X93495809Y-102912380D02*
X93495809Y-101912380D01*
X93400571Y-102055238D01*
X93305333Y-102150476D01*
X93210095Y-102198095D01*
X94400571Y-101912380D02*
X94495809Y-101912380D01*
X94591047Y-101960000D01*
X94638666Y-102007619D01*
X94686285Y-102102857D01*
X94733904Y-102293333D01*
X94733904Y-102531428D01*
X94686285Y-102721904D01*
X94638666Y-102817142D01*
X94591047Y-102864761D01*
X94495809Y-102912380D01*
X94400571Y-102912380D01*
X94305333Y-102864761D01*
X94257714Y-102817142D01*
X94210095Y-102721904D01*
X94162476Y-102531428D01*
X94162476Y-102293333D01*
X94210095Y-102102857D01*
X94257714Y-102007619D01*
X94305333Y-101960000D01*
X94400571Y-101912380D01*
%TO.C,C11*%
X107701142Y-100784857D02*
X107748761Y-100832476D01*
X107796380Y-100975333D01*
X107796380Y-101070571D01*
X107748761Y-101213428D01*
X107653523Y-101308666D01*
X107558285Y-101356285D01*
X107367809Y-101403904D01*
X107224952Y-101403904D01*
X107034476Y-101356285D01*
X106939238Y-101308666D01*
X106844000Y-101213428D01*
X106796380Y-101070571D01*
X106796380Y-100975333D01*
X106844000Y-100832476D01*
X106891619Y-100784857D01*
X107796380Y-99832476D02*
X107796380Y-100403904D01*
X107796380Y-100118190D02*
X106796380Y-100118190D01*
X106939238Y-100213428D01*
X107034476Y-100308666D01*
X107082095Y-100403904D01*
X107796380Y-98880095D02*
X107796380Y-99451523D01*
X107796380Y-99165809D02*
X106796380Y-99165809D01*
X106939238Y-99261047D01*
X107034476Y-99356285D01*
X107082095Y-99451523D01*
%TO.C,C12*%
X92321142Y-95035642D02*
X92273523Y-95083261D01*
X92130666Y-95130880D01*
X92035428Y-95130880D01*
X91892571Y-95083261D01*
X91797333Y-94988023D01*
X91749714Y-94892785D01*
X91702095Y-94702309D01*
X91702095Y-94559452D01*
X91749714Y-94368976D01*
X91797333Y-94273738D01*
X91892571Y-94178500D01*
X92035428Y-94130880D01*
X92130666Y-94130880D01*
X92273523Y-94178500D01*
X92321142Y-94226119D01*
X93273523Y-95130880D02*
X92702095Y-95130880D01*
X92987809Y-95130880D02*
X92987809Y-94130880D01*
X92892571Y-94273738D01*
X92797333Y-94368976D01*
X92702095Y-94416595D01*
X93654476Y-94226119D02*
X93702095Y-94178500D01*
X93797333Y-94130880D01*
X94035428Y-94130880D01*
X94130666Y-94178500D01*
X94178285Y-94226119D01*
X94225904Y-94321357D01*
X94225904Y-94416595D01*
X94178285Y-94559452D01*
X93606857Y-95130880D01*
X94225904Y-95130880D01*
%TO.C,C13*%
X150373142Y-110370857D02*
X150420761Y-110418476D01*
X150468380Y-110561333D01*
X150468380Y-110656571D01*
X150420761Y-110799428D01*
X150325523Y-110894666D01*
X150230285Y-110942285D01*
X150039809Y-110989904D01*
X149896952Y-110989904D01*
X149706476Y-110942285D01*
X149611238Y-110894666D01*
X149516000Y-110799428D01*
X149468380Y-110656571D01*
X149468380Y-110561333D01*
X149516000Y-110418476D01*
X149563619Y-110370857D01*
X150468380Y-109418476D02*
X150468380Y-109989904D01*
X150468380Y-109704190D02*
X149468380Y-109704190D01*
X149611238Y-109799428D01*
X149706476Y-109894666D01*
X149754095Y-109989904D01*
X149468380Y-109085142D02*
X149468380Y-108466095D01*
X149849333Y-108799428D01*
X149849333Y-108656571D01*
X149896952Y-108561333D01*
X149944571Y-108513714D01*
X150039809Y-108466095D01*
X150277904Y-108466095D01*
X150373142Y-108513714D01*
X150420761Y-108561333D01*
X150468380Y-108656571D01*
X150468380Y-108942285D01*
X150420761Y-109037523D01*
X150373142Y-109085142D01*
%TO.C,C14*%
X132593142Y-104848857D02*
X132640761Y-104896476D01*
X132688380Y-105039333D01*
X132688380Y-105134571D01*
X132640761Y-105277428D01*
X132545523Y-105372666D01*
X132450285Y-105420285D01*
X132259809Y-105467904D01*
X132116952Y-105467904D01*
X131926476Y-105420285D01*
X131831238Y-105372666D01*
X131736000Y-105277428D01*
X131688380Y-105134571D01*
X131688380Y-105039333D01*
X131736000Y-104896476D01*
X131783619Y-104848857D01*
X132688380Y-103896476D02*
X132688380Y-104467904D01*
X132688380Y-104182190D02*
X131688380Y-104182190D01*
X131831238Y-104277428D01*
X131926476Y-104372666D01*
X131974095Y-104467904D01*
X132021714Y-103039333D02*
X132688380Y-103039333D01*
X131640761Y-103277428D02*
X132355047Y-103515523D01*
X132355047Y-102896476D01*
%TO.C,D1*%
D11*
X140721228Y-126323285D02*
X140721228Y-125573285D01*
X140899800Y-125573285D01*
X141006942Y-125609000D01*
X141078371Y-125680428D01*
X141114085Y-125751857D01*
X141149800Y-125894714D01*
X141149800Y-126001857D01*
X141114085Y-126144714D01*
X141078371Y-126216142D01*
X141006942Y-126287571D01*
X140899800Y-126323285D01*
X140721228Y-126323285D01*
X141864085Y-126323285D02*
X141435514Y-126323285D01*
X141649800Y-126323285D02*
X141649800Y-125573285D01*
X141578371Y-125680428D01*
X141506942Y-125751857D01*
X141435514Y-125787571D01*
%TO.C,D2*%
D12*
X88161904Y-102378380D02*
X88161904Y-101378380D01*
X88400000Y-101378380D01*
X88542857Y-101426000D01*
X88638095Y-101521238D01*
X88685714Y-101616476D01*
X88733333Y-101806952D01*
X88733333Y-101949809D01*
X88685714Y-102140285D01*
X88638095Y-102235523D01*
X88542857Y-102330761D01*
X88400000Y-102378380D01*
X88161904Y-102378380D01*
X89114285Y-101473619D02*
X89161904Y-101426000D01*
X89257142Y-101378380D01*
X89495238Y-101378380D01*
X89590476Y-101426000D01*
X89638095Y-101473619D01*
X89685714Y-101568857D01*
X89685714Y-101664095D01*
X89638095Y-101806952D01*
X89066666Y-102378380D01*
X89685714Y-102378380D01*
%TO.C,D3*%
X144232404Y-120784880D02*
X144232404Y-119784880D01*
X144470500Y-119784880D01*
X144613357Y-119832500D01*
X144708595Y-119927738D01*
X144756214Y-120022976D01*
X144803833Y-120213452D01*
X144803833Y-120356309D01*
X144756214Y-120546785D01*
X144708595Y-120642023D01*
X144613357Y-120737261D01*
X144470500Y-120784880D01*
X144232404Y-120784880D01*
X145137166Y-119784880D02*
X145756214Y-119784880D01*
X145422880Y-120165833D01*
X145565738Y-120165833D01*
X145660976Y-120213452D01*
X145708595Y-120261071D01*
X145756214Y-120356309D01*
X145756214Y-120594404D01*
X145708595Y-120689642D01*
X145660976Y-120737261D01*
X145565738Y-120784880D01*
X145280023Y-120784880D01*
X145184785Y-120737261D01*
X145137166Y-120689642D01*
%TO.C,D4*%
X144232404Y-124467880D02*
X144232404Y-123467880D01*
X144470500Y-123467880D01*
X144613357Y-123515500D01*
X144708595Y-123610738D01*
X144756214Y-123705976D01*
X144803833Y-123896452D01*
X144803833Y-124039309D01*
X144756214Y-124229785D01*
X144708595Y-124325023D01*
X144613357Y-124420261D01*
X144470500Y-124467880D01*
X144232404Y-124467880D01*
X145660976Y-123801214D02*
X145660976Y-124467880D01*
X145422880Y-123420261D02*
X145184785Y-124134547D01*
X145803833Y-124134547D01*
%TO.C,F1*%
X94204571Y-119329333D02*
X94204571Y-119662666D01*
X94728380Y-119662666D02*
X93728380Y-119662666D01*
X93728380Y-119186476D01*
X94728380Y-118281714D02*
X94728380Y-118853142D01*
X94728380Y-118567428D02*
X93728380Y-118567428D01*
X93871238Y-118662666D01*
X93966476Y-118757904D01*
X94014095Y-118853142D01*
%TO.C,FB1*%
X93934571Y-114578833D02*
X93934571Y-114912166D01*
X94458380Y-114912166D02*
X93458380Y-114912166D01*
X93458380Y-114435976D01*
X93934571Y-113721690D02*
X93982190Y-113578833D01*
X94029809Y-113531214D01*
X94125047Y-113483595D01*
X94267904Y-113483595D01*
X94363142Y-113531214D01*
X94410761Y-113578833D01*
X94458380Y-113674071D01*
X94458380Y-114055023D01*
X93458380Y-114055023D01*
X93458380Y-113721690D01*
X93506000Y-113626452D01*
X93553619Y-113578833D01*
X93648857Y-113531214D01*
X93744095Y-113531214D01*
X93839333Y-113578833D01*
X93886952Y-113626452D01*
X93934571Y-113721690D01*
X93934571Y-114055023D01*
X94458380Y-112531214D02*
X94458380Y-113102642D01*
X94458380Y-112816928D02*
X93458380Y-112816928D01*
X93601238Y-112912166D01*
X93696476Y-113007404D01*
X93744095Y-113102642D01*
%TO.C,H1*%
X89154095Y-133836380D02*
X89154095Y-132836380D01*
X89154095Y-133312571D02*
X89725523Y-133312571D01*
X89725523Y-133836380D02*
X89725523Y-132836380D01*
X90725523Y-133836380D02*
X90154095Y-133836380D01*
X90439809Y-133836380D02*
X90439809Y-132836380D01*
X90344571Y-132979238D01*
X90249333Y-133074476D01*
X90154095Y-133122095D01*
%TO.C,H2*%
X173990095Y-133836380D02*
X173990095Y-132836380D01*
X173990095Y-133312571D02*
X174561523Y-133312571D01*
X174561523Y-133836380D02*
X174561523Y-132836380D01*
X174990095Y-132931619D02*
X175037714Y-132884000D01*
X175132952Y-132836380D01*
X175371047Y-132836380D01*
X175466285Y-132884000D01*
X175513904Y-132931619D01*
X175561523Y-133026857D01*
X175561523Y-133122095D01*
X175513904Y-133264952D01*
X174942476Y-133836380D01*
X175561523Y-133836380D01*
%TO.C,H3*%
X88905676Y-81771961D02*
X88905676Y-80771961D01*
X88905676Y-81248152D02*
X89477104Y-81248152D01*
X89477104Y-81771961D02*
X89477104Y-80771961D01*
X89858057Y-80771961D02*
X90477104Y-80771961D01*
X90143771Y-81152914D01*
X90286628Y-81152914D01*
X90381866Y-81200533D01*
X90429485Y-81248152D01*
X90477104Y-81343390D01*
X90477104Y-81581485D01*
X90429485Y-81676723D01*
X90381866Y-81724342D01*
X90286628Y-81771961D01*
X90000914Y-81771961D01*
X89905676Y-81724342D01*
X89858057Y-81676723D01*
%TO.C,H4*%
X173990095Y-81512380D02*
X173990095Y-80512380D01*
X173990095Y-80988571D02*
X174561523Y-80988571D01*
X174561523Y-81512380D02*
X174561523Y-80512380D01*
X175466285Y-80845714D02*
X175466285Y-81512380D01*
X175228190Y-80464761D02*
X174990095Y-81179047D01*
X175609142Y-81179047D01*
%TO.C,J1*%
X103016666Y-134692380D02*
X103016666Y-135406666D01*
X102969047Y-135549523D01*
X102873809Y-135644761D01*
X102730952Y-135692380D01*
X102635714Y-135692380D01*
X104016666Y-135692380D02*
X103445238Y-135692380D01*
X103730952Y-135692380D02*
X103730952Y-134692380D01*
X103635714Y-134835238D01*
X103540476Y-134930476D01*
X103445238Y-134978095D01*
%TO.C,J2*%
X173148666Y-132552380D02*
X173148666Y-133266666D01*
X173101047Y-133409523D01*
X173005809Y-133504761D01*
X172862952Y-133552380D01*
X172767714Y-133552380D01*
X173577238Y-132647619D02*
X173624857Y-132600000D01*
X173720095Y-132552380D01*
X173958190Y-132552380D01*
X174053428Y-132600000D01*
X174101047Y-132647619D01*
X174148666Y-132742857D01*
X174148666Y-132838095D01*
X174101047Y-132980952D01*
X173529619Y-133552380D01*
X174148666Y-133552380D01*
%TO.C,J3*%
X165465166Y-142200380D02*
X165465166Y-142914666D01*
X165417547Y-143057523D01*
X165322309Y-143152761D01*
X165179452Y-143200380D01*
X165084214Y-143200380D01*
X165846119Y-142200380D02*
X166465166Y-142200380D01*
X166131833Y-142581333D01*
X166274690Y-142581333D01*
X166369928Y-142628952D01*
X166417547Y-142676571D01*
X166465166Y-142771809D01*
X166465166Y-143009904D01*
X166417547Y-143105142D01*
X166369928Y-143152761D01*
X166274690Y-143200380D01*
X165988976Y-143200380D01*
X165893738Y-143152761D01*
X165846119Y-143105142D01*
%TO.C,J4*%
X167712380Y-103343333D02*
X168426666Y-103343333D01*
X168569523Y-103390952D01*
X168664761Y-103486190D01*
X168712380Y-103629047D01*
X168712380Y-103724285D01*
X168045714Y-102438571D02*
X168712380Y-102438571D01*
X167664761Y-102676666D02*
X168379047Y-102914761D01*
X168379047Y-102295714D01*
%TO.C,J5*%
X139648666Y-95352380D02*
X139648666Y-96066666D01*
X139601047Y-96209523D01*
X139505809Y-96304761D01*
X139362952Y-96352380D01*
X139267714Y-96352380D01*
X140601047Y-95352380D02*
X140124857Y-95352380D01*
X140077238Y-95828571D01*
X140124857Y-95780952D01*
X140220095Y-95733333D01*
X140458190Y-95733333D01*
X140553428Y-95780952D01*
X140601047Y-95828571D01*
X140648666Y-95923809D01*
X140648666Y-96161904D01*
X140601047Y-96257142D01*
X140553428Y-96304761D01*
X140458190Y-96352380D01*
X140220095Y-96352380D01*
X140124857Y-96304761D01*
X140077238Y-96257142D01*
%TO.C,J7*%
X84908380Y-127107333D02*
X85622666Y-127107333D01*
X85765523Y-127154952D01*
X85860761Y-127250190D01*
X85908380Y-127393047D01*
X85908380Y-127488285D01*
X84908380Y-126726380D02*
X84908380Y-126059714D01*
X85908380Y-126488285D01*
%TO.C,J8*%
X153872666Y-95352380D02*
X153872666Y-96066666D01*
X153825047Y-96209523D01*
X153729809Y-96304761D01*
X153586952Y-96352380D01*
X153491714Y-96352380D01*
X154491714Y-95780952D02*
X154396476Y-95733333D01*
X154348857Y-95685714D01*
X154301238Y-95590476D01*
X154301238Y-95542857D01*
X154348857Y-95447619D01*
X154396476Y-95400000D01*
X154491714Y-95352380D01*
X154682190Y-95352380D01*
X154777428Y-95400000D01*
X154825047Y-95447619D01*
X154872666Y-95542857D01*
X154872666Y-95590476D01*
X154825047Y-95685714D01*
X154777428Y-95733333D01*
X154682190Y-95780952D01*
X154491714Y-95780952D01*
X154396476Y-95828571D01*
X154348857Y-95876190D01*
X154301238Y-95971428D01*
X154301238Y-96161904D01*
X154348857Y-96257142D01*
X154396476Y-96304761D01*
X154491714Y-96352380D01*
X154682190Y-96352380D01*
X154777428Y-96304761D01*
X154825047Y-96257142D01*
X154872666Y-96161904D01*
X154872666Y-95971428D01*
X154825047Y-95876190D01*
X154777428Y-95828571D01*
X154682190Y-95780952D01*
%TO.C,L1*%
X93258833Y-98978380D02*
X92782642Y-98978380D01*
X92782642Y-97978380D01*
X94115976Y-98978380D02*
X93544547Y-98978380D01*
X93830261Y-98978380D02*
X93830261Y-97978380D01*
X93735023Y-98121238D01*
X93639785Y-98216476D01*
X93544547Y-98264095D01*
%TO.C,Q1*%
X87788761Y-116919619D02*
X87693523Y-116872000D01*
X87598285Y-116776761D01*
X87455428Y-116633904D01*
X87360190Y-116586285D01*
X87264952Y-116586285D01*
X87312571Y-116824380D02*
X87217333Y-116776761D01*
X87122095Y-116681523D01*
X87074476Y-116491047D01*
X87074476Y-116157714D01*
X87122095Y-115967238D01*
X87217333Y-115872000D01*
X87312571Y-115824380D01*
X87503047Y-115824380D01*
X87598285Y-115872000D01*
X87693523Y-115967238D01*
X87741142Y-116157714D01*
X87741142Y-116491047D01*
X87693523Y-116681523D01*
X87598285Y-116776761D01*
X87503047Y-116824380D01*
X87312571Y-116824380D01*
X88693523Y-116824380D02*
X88122095Y-116824380D01*
X88407809Y-116824380D02*
X88407809Y-115824380D01*
X88312571Y-115967238D01*
X88217333Y-116062476D01*
X88122095Y-116110095D01*
%TO.C,Q2*%
X136048761Y-102187619D02*
X135953523Y-102140000D01*
X135858285Y-102044761D01*
X135715428Y-101901904D01*
X135620190Y-101854285D01*
X135524952Y-101854285D01*
X135572571Y-102092380D02*
X135477333Y-102044761D01*
X135382095Y-101949523D01*
X135334476Y-101759047D01*
X135334476Y-101425714D01*
X135382095Y-101235238D01*
X135477333Y-101140000D01*
X135572571Y-101092380D01*
X135763047Y-101092380D01*
X135858285Y-101140000D01*
X135953523Y-101235238D01*
X136001142Y-101425714D01*
X136001142Y-101759047D01*
X135953523Y-101949523D01*
X135858285Y-102044761D01*
X135763047Y-102092380D01*
X135572571Y-102092380D01*
X136382095Y-101187619D02*
X136429714Y-101140000D01*
X136524952Y-101092380D01*
X136763047Y-101092380D01*
X136858285Y-101140000D01*
X136905904Y-101187619D01*
X136953523Y-101282857D01*
X136953523Y-101378095D01*
X136905904Y-101520952D01*
X136334476Y-102092380D01*
X136953523Y-102092380D01*
%TO.C,Q3*%
X146732761Y-101665619D02*
X146637523Y-101618000D01*
X146542285Y-101522761D01*
X146399428Y-101379904D01*
X146304190Y-101332285D01*
X146208952Y-101332285D01*
X146256571Y-101570380D02*
X146161333Y-101522761D01*
X146066095Y-101427523D01*
X146018476Y-101237047D01*
X146018476Y-100903714D01*
X146066095Y-100713238D01*
X146161333Y-100618000D01*
X146256571Y-100570380D01*
X146447047Y-100570380D01*
X146542285Y-100618000D01*
X146637523Y-100713238D01*
X146685142Y-100903714D01*
X146685142Y-101237047D01*
X146637523Y-101427523D01*
X146542285Y-101522761D01*
X146447047Y-101570380D01*
X146256571Y-101570380D01*
X147018476Y-100570380D02*
X147637523Y-100570380D01*
X147304190Y-100951333D01*
X147447047Y-100951333D01*
X147542285Y-100998952D01*
X147589904Y-101046571D01*
X147637523Y-101141809D01*
X147637523Y-101379904D01*
X147589904Y-101475142D01*
X147542285Y-101522761D01*
X147447047Y-101570380D01*
X147161333Y-101570380D01*
X147066095Y-101522761D01*
X147018476Y-101475142D01*
%TO.C,R1*%
D11*
X136717500Y-128291785D02*
X136467500Y-127934642D01*
X136288928Y-128291785D02*
X136288928Y-127541785D01*
X136574642Y-127541785D01*
X136646071Y-127577500D01*
X136681785Y-127613214D01*
X136717500Y-127684642D01*
X136717500Y-127791785D01*
X136681785Y-127863214D01*
X136646071Y-127898928D01*
X136574642Y-127934642D01*
X136288928Y-127934642D01*
X137431785Y-128291785D02*
X137003214Y-128291785D01*
X137217500Y-128291785D02*
X137217500Y-127541785D01*
X137146071Y-127648928D01*
X137074642Y-127720357D01*
X137003214Y-127756071D01*
%TO.C,R2*%
D12*
X122498380Y-104918166D02*
X122022190Y-105251500D01*
X122498380Y-105489595D02*
X121498380Y-105489595D01*
X121498380Y-105108642D01*
X121546000Y-105013404D01*
X121593619Y-104965785D01*
X121688857Y-104918166D01*
X121831714Y-104918166D01*
X121926952Y-104965785D01*
X121974571Y-105013404D01*
X122022190Y-105108642D01*
X122022190Y-105489595D01*
X121593619Y-104537214D02*
X121546000Y-104489595D01*
X121498380Y-104394357D01*
X121498380Y-104156261D01*
X121546000Y-104061023D01*
X121593619Y-104013404D01*
X121688857Y-103965785D01*
X121784095Y-103965785D01*
X121926952Y-104013404D01*
X122498380Y-104584833D01*
X122498380Y-103965785D01*
%TO.C,R3*%
X87312833Y-115386380D02*
X86979500Y-114910190D01*
X86741404Y-115386380D02*
X86741404Y-114386380D01*
X87122357Y-114386380D01*
X87217595Y-114434000D01*
X87265214Y-114481619D01*
X87312833Y-114576857D01*
X87312833Y-114719714D01*
X87265214Y-114814952D01*
X87217595Y-114862571D01*
X87122357Y-114910190D01*
X86741404Y-114910190D01*
X87646166Y-114386380D02*
X88265214Y-114386380D01*
X87931880Y-114767333D01*
X88074738Y-114767333D01*
X88169976Y-114814952D01*
X88217595Y-114862571D01*
X88265214Y-114957809D01*
X88265214Y-115195904D01*
X88217595Y-115291142D01*
X88169976Y-115338761D01*
X88074738Y-115386380D01*
X87789023Y-115386380D01*
X87693785Y-115338761D01*
X87646166Y-115291142D01*
%TO.C,R4*%
X86906380Y-108561666D02*
X86430190Y-108895000D01*
X86906380Y-109133095D02*
X85906380Y-109133095D01*
X85906380Y-108752142D01*
X85954000Y-108656904D01*
X86001619Y-108609285D01*
X86096857Y-108561666D01*
X86239714Y-108561666D01*
X86334952Y-108609285D01*
X86382571Y-108656904D01*
X86430190Y-108752142D01*
X86430190Y-109133095D01*
X86239714Y-107704523D02*
X86906380Y-107704523D01*
X85858761Y-107942619D02*
X86573047Y-108180714D01*
X86573047Y-107561666D01*
%TO.C,R5*%
X104466380Y-95670666D02*
X103990190Y-96004000D01*
X104466380Y-96242095D02*
X103466380Y-96242095D01*
X103466380Y-95861142D01*
X103514000Y-95765904D01*
X103561619Y-95718285D01*
X103656857Y-95670666D01*
X103799714Y-95670666D01*
X103894952Y-95718285D01*
X103942571Y-95765904D01*
X103990190Y-95861142D01*
X103990190Y-96242095D01*
X103466380Y-94765904D02*
X103466380Y-95242095D01*
X103942571Y-95289714D01*
X103894952Y-95242095D01*
X103847333Y-95146857D01*
X103847333Y-94908761D01*
X103894952Y-94813523D01*
X103942571Y-94765904D01*
X104037809Y-94718285D01*
X104275904Y-94718285D01*
X104371142Y-94765904D01*
X104418761Y-94813523D01*
X104466380Y-94908761D01*
X104466380Y-95146857D01*
X104418761Y-95242095D01*
X104371142Y-95289714D01*
%TO.C,R6*%
X102686380Y-96075166D02*
X102210190Y-96408500D01*
X102686380Y-96646595D02*
X101686380Y-96646595D01*
X101686380Y-96265642D01*
X101734000Y-96170404D01*
X101781619Y-96122785D01*
X101876857Y-96075166D01*
X102019714Y-96075166D01*
X102114952Y-96122785D01*
X102162571Y-96170404D01*
X102210190Y-96265642D01*
X102210190Y-96646595D01*
X101686380Y-95218023D02*
X101686380Y-95408500D01*
X101734000Y-95503738D01*
X101781619Y-95551357D01*
X101924476Y-95646595D01*
X102114952Y-95694214D01*
X102495904Y-95694214D01*
X102591142Y-95646595D01*
X102638761Y-95598976D01*
X102686380Y-95503738D01*
X102686380Y-95313261D01*
X102638761Y-95218023D01*
X102591142Y-95170404D01*
X102495904Y-95122785D01*
X102257809Y-95122785D01*
X102162571Y-95170404D01*
X102114952Y-95218023D01*
X102067333Y-95313261D01*
X102067333Y-95503738D01*
X102114952Y-95598976D01*
X102162571Y-95646595D01*
X102257809Y-95694214D01*
%TO.C,R7*%
X99401333Y-102686380D02*
X99068000Y-102210190D01*
X98829904Y-102686380D02*
X98829904Y-101686380D01*
X99210857Y-101686380D01*
X99306095Y-101734000D01*
X99353714Y-101781619D01*
X99401333Y-101876857D01*
X99401333Y-102019714D01*
X99353714Y-102114952D01*
X99306095Y-102162571D01*
X99210857Y-102210190D01*
X98829904Y-102210190D01*
X99734666Y-101686380D02*
X100401333Y-101686380D01*
X99972761Y-102686380D01*
%TO.C,R8*%
X142566380Y-109998166D02*
X142090190Y-110331500D01*
X142566380Y-110569595D02*
X141566380Y-110569595D01*
X141566380Y-110188642D01*
X141614000Y-110093404D01*
X141661619Y-110045785D01*
X141756857Y-109998166D01*
X141899714Y-109998166D01*
X141994952Y-110045785D01*
X142042571Y-110093404D01*
X142090190Y-110188642D01*
X142090190Y-110569595D01*
X141994952Y-109426738D02*
X141947333Y-109521976D01*
X141899714Y-109569595D01*
X141804476Y-109617214D01*
X141756857Y-109617214D01*
X141661619Y-109569595D01*
X141614000Y-109521976D01*
X141566380Y-109426738D01*
X141566380Y-109236261D01*
X141614000Y-109141023D01*
X141661619Y-109093404D01*
X141756857Y-109045785D01*
X141804476Y-109045785D01*
X141899714Y-109093404D01*
X141947333Y-109141023D01*
X141994952Y-109236261D01*
X141994952Y-109426738D01*
X142042571Y-109521976D01*
X142090190Y-109569595D01*
X142185428Y-109617214D01*
X142375904Y-109617214D01*
X142471142Y-109569595D01*
X142518761Y-109521976D01*
X142566380Y-109426738D01*
X142566380Y-109236261D01*
X142518761Y-109141023D01*
X142471142Y-109093404D01*
X142375904Y-109045785D01*
X142185428Y-109045785D01*
X142090190Y-109093404D01*
X142042571Y-109141023D01*
X141994952Y-109236261D01*
%TO.C,R9*%
X140144833Y-101670380D02*
X139811500Y-101194190D01*
X139573404Y-101670380D02*
X139573404Y-100670380D01*
X139954357Y-100670380D01*
X140049595Y-100718000D01*
X140097214Y-100765619D01*
X140144833Y-100860857D01*
X140144833Y-101003714D01*
X140097214Y-101098952D01*
X140049595Y-101146571D01*
X139954357Y-101194190D01*
X139573404Y-101194190D01*
X140621023Y-101670380D02*
X140811500Y-101670380D01*
X140906738Y-101622761D01*
X140954357Y-101575142D01*
X141049595Y-101432285D01*
X141097214Y-101241809D01*
X141097214Y-100860857D01*
X141049595Y-100765619D01*
X141001976Y-100718000D01*
X140906738Y-100670380D01*
X140716261Y-100670380D01*
X140621023Y-100718000D01*
X140573404Y-100765619D01*
X140525785Y-100860857D01*
X140525785Y-101098952D01*
X140573404Y-101194190D01*
X140621023Y-101241809D01*
X140716261Y-101289428D01*
X140906738Y-101289428D01*
X141001976Y-101241809D01*
X141049595Y-101194190D01*
X141097214Y-101098952D01*
%TO.C,R10*%
X145106380Y-104679357D02*
X144630190Y-105012690D01*
X145106380Y-105250785D02*
X144106380Y-105250785D01*
X144106380Y-104869833D01*
X144154000Y-104774595D01*
X144201619Y-104726976D01*
X144296857Y-104679357D01*
X144439714Y-104679357D01*
X144534952Y-104726976D01*
X144582571Y-104774595D01*
X144630190Y-104869833D01*
X144630190Y-105250785D01*
X145106380Y-103726976D02*
X145106380Y-104298404D01*
X145106380Y-104012690D02*
X144106380Y-104012690D01*
X144249238Y-104107928D01*
X144344476Y-104203166D01*
X144392095Y-104298404D01*
X144106380Y-103107928D02*
X144106380Y-103012690D01*
X144154000Y-102917452D01*
X144201619Y-102869833D01*
X144296857Y-102822214D01*
X144487333Y-102774595D01*
X144725428Y-102774595D01*
X144915904Y-102822214D01*
X145011142Y-102869833D01*
X145058761Y-102917452D01*
X145106380Y-103012690D01*
X145106380Y-103107928D01*
X145058761Y-103203166D01*
X145011142Y-103250785D01*
X144915904Y-103298404D01*
X144725428Y-103346023D01*
X144487333Y-103346023D01*
X144296857Y-103298404D01*
X144201619Y-103250785D01*
X144154000Y-103203166D01*
X144106380Y-103107928D01*
%TO.C,R11*%
X135096642Y-98370380D02*
X134763309Y-97894190D01*
X134525214Y-98370380D02*
X134525214Y-97370380D01*
X134906166Y-97370380D01*
X135001404Y-97418000D01*
X135049023Y-97465619D01*
X135096642Y-97560857D01*
X135096642Y-97703714D01*
X135049023Y-97798952D01*
X135001404Y-97846571D01*
X134906166Y-97894190D01*
X134525214Y-97894190D01*
X136049023Y-98370380D02*
X135477595Y-98370380D01*
X135763309Y-98370380D02*
X135763309Y-97370380D01*
X135668071Y-97513238D01*
X135572833Y-97608476D01*
X135477595Y-97656095D01*
X137001404Y-98370380D02*
X136429976Y-98370380D01*
X136715690Y-98370380D02*
X136715690Y-97370380D01*
X136620452Y-97513238D01*
X136525214Y-97608476D01*
X136429976Y-97656095D01*
%TO.C,R12*%
X144160642Y-136468380D02*
X143827309Y-135992190D01*
X143589214Y-136468380D02*
X143589214Y-135468380D01*
X143970166Y-135468380D01*
X144065404Y-135516000D01*
X144113023Y-135563619D01*
X144160642Y-135658857D01*
X144160642Y-135801714D01*
X144113023Y-135896952D01*
X144065404Y-135944571D01*
X143970166Y-135992190D01*
X143589214Y-135992190D01*
X145113023Y-136468380D02*
X144541595Y-136468380D01*
X144827309Y-136468380D02*
X144827309Y-135468380D01*
X144732071Y-135611238D01*
X144636833Y-135706476D01*
X144541595Y-135754095D01*
X145493976Y-135563619D02*
X145541595Y-135516000D01*
X145636833Y-135468380D01*
X145874928Y-135468380D01*
X145970166Y-135516000D01*
X146017785Y-135563619D01*
X146065404Y-135658857D01*
X146065404Y-135754095D01*
X146017785Y-135896952D01*
X145446357Y-136468380D01*
X146065404Y-136468380D01*
%TO.C,R13*%
X144264142Y-132404380D02*
X143930809Y-131928190D01*
X143692714Y-132404380D02*
X143692714Y-131404380D01*
X144073666Y-131404380D01*
X144168904Y-131452000D01*
X144216523Y-131499619D01*
X144264142Y-131594857D01*
X144264142Y-131737714D01*
X144216523Y-131832952D01*
X144168904Y-131880571D01*
X144073666Y-131928190D01*
X143692714Y-131928190D01*
X145216523Y-132404380D02*
X144645095Y-132404380D01*
X144930809Y-132404380D02*
X144930809Y-131404380D01*
X144835571Y-131547238D01*
X144740333Y-131642476D01*
X144645095Y-131690095D01*
X145549857Y-131404380D02*
X146168904Y-131404380D01*
X145835571Y-131785333D01*
X145978428Y-131785333D01*
X146073666Y-131832952D01*
X146121285Y-131880571D01*
X146168904Y-131975809D01*
X146168904Y-132213904D01*
X146121285Y-132309142D01*
X146073666Y-132356761D01*
X145978428Y-132404380D01*
X145692714Y-132404380D01*
X145597476Y-132356761D01*
X145549857Y-132309142D01*
%TO.C,U1*%
X111506095Y-101952380D02*
X111506095Y-102761904D01*
X111553714Y-102857142D01*
X111601333Y-102904761D01*
X111696571Y-102952380D01*
X111887047Y-102952380D01*
X111982285Y-102904761D01*
X112029904Y-102857142D01*
X112077523Y-102761904D01*
X112077523Y-101952380D01*
X113077523Y-102952380D02*
X112506095Y-102952380D01*
X112791809Y-102952380D02*
X112791809Y-101952380D01*
X112696571Y-102095238D01*
X112601333Y-102190476D01*
X112506095Y-102238095D01*
%TO.C,U2*%
X97652380Y-109981904D02*
X98461904Y-109981904D01*
X98557142Y-109934285D01*
X98604761Y-109886666D01*
X98652380Y-109791428D01*
X98652380Y-109600952D01*
X98604761Y-109505714D01*
X98557142Y-109458095D01*
X98461904Y-109410476D01*
X97652380Y-109410476D01*
X97747619Y-108981904D02*
X97700000Y-108934285D01*
X97652380Y-108839047D01*
X97652380Y-108600952D01*
X97700000Y-108505714D01*
X97747619Y-108458095D01*
X97842857Y-108410476D01*
X97938095Y-108410476D01*
X98080952Y-108458095D01*
X98652380Y-109029523D01*
X98652380Y-108410476D01*
%TO.C,U3*%
X92626095Y-104756380D02*
X92626095Y-105565904D01*
X92673714Y-105661142D01*
X92721333Y-105708761D01*
X92816571Y-105756380D01*
X93007047Y-105756380D01*
X93102285Y-105708761D01*
X93149904Y-105661142D01*
X93197523Y-105565904D01*
X93197523Y-104756380D01*
X93578476Y-104756380D02*
X94197523Y-104756380D01*
X93864190Y-105137333D01*
X94007047Y-105137333D01*
X94102285Y-105184952D01*
X94149904Y-105232571D01*
X94197523Y-105327809D01*
X94197523Y-105565904D01*
X94149904Y-105661142D01*
X94102285Y-105708761D01*
X94007047Y-105756380D01*
X93721333Y-105756380D01*
X93626095Y-105708761D01*
X93578476Y-105661142D01*
%TO.C,U4*%
X160020095Y-95674380D02*
X160020095Y-96483904D01*
X160067714Y-96579142D01*
X160115333Y-96626761D01*
X160210571Y-96674380D01*
X160401047Y-96674380D01*
X160496285Y-96626761D01*
X160543904Y-96579142D01*
X160591523Y-96483904D01*
X160591523Y-95674380D01*
X161496285Y-96007714D02*
X161496285Y-96674380D01*
X161258190Y-95626761D02*
X161020095Y-96341047D01*
X161639142Y-96341047D01*
%TO.C,U5*%
X119316595Y-117943380D02*
X119316595Y-118752904D01*
X119364214Y-118848142D01*
X119411833Y-118895761D01*
X119507071Y-118943380D01*
X119697547Y-118943380D01*
X119792785Y-118895761D01*
X119840404Y-118848142D01*
X119888023Y-118752904D01*
X119888023Y-117943380D01*
X120840404Y-117943380D02*
X120364214Y-117943380D01*
X120316595Y-118419571D01*
X120364214Y-118371952D01*
X120459452Y-118324333D01*
X120697547Y-118324333D01*
X120792785Y-118371952D01*
X120840404Y-118419571D01*
X120888023Y-118514809D01*
X120888023Y-118752904D01*
X120840404Y-118848142D01*
X120792785Y-118895761D01*
X120697547Y-118943380D01*
X120459452Y-118943380D01*
X120364214Y-118895761D01*
X120316595Y-118848142D01*
%TO.C,U6*%
X125238095Y-107174380D02*
X125238095Y-107983904D01*
X125285714Y-108079142D01*
X125333333Y-108126761D01*
X125428571Y-108174380D01*
X125619047Y-108174380D01*
X125714285Y-108126761D01*
X125761904Y-108079142D01*
X125809523Y-107983904D01*
X125809523Y-107174380D01*
X126714285Y-107174380D02*
X126523809Y-107174380D01*
X126428571Y-107222000D01*
X126380952Y-107269619D01*
X126285714Y-107412476D01*
X126238095Y-107602952D01*
X126238095Y-107983904D01*
X126285714Y-108079142D01*
X126333333Y-108126761D01*
X126428571Y-108174380D01*
X126619047Y-108174380D01*
X126714285Y-108126761D01*
X126761904Y-108079142D01*
X126809523Y-107983904D01*
X126809523Y-107745809D01*
X126761904Y-107650571D01*
X126714285Y-107602952D01*
X126619047Y-107555333D01*
X126428571Y-107555333D01*
X126333333Y-107602952D01*
X126285714Y-107650571D01*
X126238095Y-107745809D01*
%TO.C,Y1*%
X112723809Y-128576190D02*
X112723809Y-129052380D01*
X112390476Y-128052380D02*
X112723809Y-128576190D01*
X113057142Y-128052380D01*
X113914285Y-129052380D02*
X113342857Y-129052380D01*
X113628571Y-129052380D02*
X113628571Y-128052380D01*
X113533333Y-128195238D01*
X113438095Y-128290476D01*
X113342857Y-128338095D01*
%TO.C,Y2*%
X134313809Y-117830190D02*
X134313809Y-118306380D01*
X133980476Y-117306380D02*
X134313809Y-117830190D01*
X134647142Y-117306380D01*
X134932857Y-117401619D02*
X134980476Y-117354000D01*
X135075714Y-117306380D01*
X135313809Y-117306380D01*
X135409047Y-117354000D01*
X135456666Y-117401619D01*
X135504285Y-117496857D01*
X135504285Y-117592095D01*
X135456666Y-117734952D01*
X134885238Y-118306380D01*
X135504285Y-118306380D01*
%TO.C,J6*%
X129600666Y-144120380D02*
X129600666Y-144834666D01*
X129553047Y-144977523D01*
X129457809Y-145072761D01*
X129314952Y-145120380D01*
X129219714Y-145120380D01*
X130505428Y-144120380D02*
X130314952Y-144120380D01*
X130219714Y-144168000D01*
X130172095Y-144215619D01*
X130076857Y-144358476D01*
X130029238Y-144548952D01*
X130029238Y-144929904D01*
X130076857Y-145025142D01*
X130124476Y-145072761D01*
X130219714Y-145120380D01*
X130410190Y-145120380D01*
X130505428Y-145072761D01*
X130553047Y-145025142D01*
X130600666Y-144929904D01*
X130600666Y-144691809D01*
X130553047Y-144596571D01*
X130505428Y-144548952D01*
X130410190Y-144501333D01*
X130219714Y-144501333D01*
X130124476Y-144548952D01*
X130076857Y-144596571D01*
X130029238Y-144691809D01*
%TD*%
M02*
