%TF.GenerationSoftware,KiCad,Pcbnew,(5.1.12-1-10_14)*%
%TF.CreationDate,2021-11-26T20:13:54-05:00*%
%TF.ProjectId,Untitled,556e7469-746c-4656-942e-6b696361645f,rev?*%
%TF.SameCoordinates,Original*%
%TF.FileFunction,Copper,L1,Top*%
%TF.FilePolarity,Positive*%
%FSLAX46Y46*%
G04 Gerber Fmt 4.6, Leading zero omitted, Abs format (unit mm)*
G04 Created by KiCad (PCBNEW (5.1.12-1-10_14)) date 2021-11-26 20:13:54*
%MOMM*%
%LPD*%
G01*
G04 APERTURE LIST*
%TA.AperFunction,SMDPad,CuDef*%
%ADD10R,0.600000X0.450000*%
%TD*%
%TA.AperFunction,ComponentPad*%
%ADD11C,0.900000*%
%TD*%
%TA.AperFunction,ComponentPad*%
%ADD12C,8.600000*%
%TD*%
%TA.AperFunction,ComponentPad*%
%ADD13R,2.400000X2.400000*%
%TD*%
%TA.AperFunction,ComponentPad*%
%ADD14C,2.400000*%
%TD*%
%TA.AperFunction,ComponentPad*%
%ADD15C,1.700000*%
%TD*%
%TA.AperFunction,SMDPad,CuDef*%
%ADD16R,0.900000X0.800000*%
%TD*%
%TA.AperFunction,SMDPad,CuDef*%
%ADD17R,1.060000X0.650000*%
%TD*%
%TA.AperFunction,ComponentPad*%
%ADD18R,1.600000X1.600000*%
%TD*%
%TA.AperFunction,ComponentPad*%
%ADD19O,1.600000X1.600000*%
%TD*%
%TA.AperFunction,SMDPad,CuDef*%
%ADD20R,1.400000X1.200000*%
%TD*%
%TA.AperFunction,ViaPad*%
%ADD21C,0.800000*%
%TD*%
%TA.AperFunction,Conductor*%
%ADD22C,0.250000*%
%TD*%
%TA.AperFunction,Conductor*%
%ADD23C,0.300000*%
%TD*%
%TA.AperFunction,Conductor*%
%ADD24C,0.500000*%
%TD*%
%TA.AperFunction,Conductor*%
%ADD25C,0.750000*%
%TD*%
%TA.AperFunction,Conductor*%
%ADD26C,1.000000*%
%TD*%
%TA.AperFunction,Conductor*%
%ADD27C,0.254000*%
%TD*%
%TA.AperFunction,Conductor*%
%ADD28C,0.100000*%
%TD*%
G04 APERTURE END LIST*
%TO.P,C1,1*%
%TO.N,Net-(C1-Pad1)*%
%TA.AperFunction,SMDPad,CuDef*%
G36*
G01*
X106058000Y-130015000D02*
X106058000Y-129065000D01*
G75*
G02*
X106308000Y-128815000I250000J0D01*
G01*
X106808000Y-128815000D01*
G75*
G02*
X107058000Y-129065000I0J-250000D01*
G01*
X107058000Y-130015000D01*
G75*
G02*
X106808000Y-130265000I-250000J0D01*
G01*
X106308000Y-130265000D01*
G75*
G02*
X106058000Y-130015000I0J250000D01*
G01*
G37*
%TD.AperFunction*%
%TO.P,C1,2*%
%TO.N,GND*%
%TA.AperFunction,SMDPad,CuDef*%
G36*
G01*
X107958000Y-130015000D02*
X107958000Y-129065000D01*
G75*
G02*
X108208000Y-128815000I250000J0D01*
G01*
X108708000Y-128815000D01*
G75*
G02*
X108958000Y-129065000I0J-250000D01*
G01*
X108958000Y-130015000D01*
G75*
G02*
X108708000Y-130265000I-250000J0D01*
G01*
X108208000Y-130265000D01*
G75*
G02*
X107958000Y-130015000I0J250000D01*
G01*
G37*
%TD.AperFunction*%
%TD*%
%TO.P,C2,2*%
%TO.N,GND*%
%TA.AperFunction,SMDPad,CuDef*%
G36*
G01*
X107958000Y-124935000D02*
X107958000Y-123985000D01*
G75*
G02*
X108208000Y-123735000I250000J0D01*
G01*
X108708000Y-123735000D01*
G75*
G02*
X108958000Y-123985000I0J-250000D01*
G01*
X108958000Y-124935000D01*
G75*
G02*
X108708000Y-125185000I-250000J0D01*
G01*
X108208000Y-125185000D01*
G75*
G02*
X107958000Y-124935000I0J250000D01*
G01*
G37*
%TD.AperFunction*%
%TO.P,C2,1*%
%TO.N,Net-(C2-Pad1)*%
%TA.AperFunction,SMDPad,CuDef*%
G36*
G01*
X106058000Y-124935000D02*
X106058000Y-123985000D01*
G75*
G02*
X106308000Y-123735000I250000J0D01*
G01*
X106808000Y-123735000D01*
G75*
G02*
X107058000Y-123985000I0J-250000D01*
G01*
X107058000Y-124935000D01*
G75*
G02*
X106808000Y-125185000I-250000J0D01*
G01*
X106308000Y-125185000D01*
G75*
G02*
X106058000Y-124935000I0J250000D01*
G01*
G37*
%TD.AperFunction*%
%TD*%
%TO.P,C3,1*%
%TO.N,BUCK_IN*%
%TA.AperFunction,SMDPad,CuDef*%
G36*
G01*
X90416000Y-104173000D02*
X90416000Y-105123000D01*
G75*
G02*
X90166000Y-105373000I-250000J0D01*
G01*
X89666000Y-105373000D01*
G75*
G02*
X89416000Y-105123000I0J250000D01*
G01*
X89416000Y-104173000D01*
G75*
G02*
X89666000Y-103923000I250000J0D01*
G01*
X90166000Y-103923000D01*
G75*
G02*
X90416000Y-104173000I0J-250000D01*
G01*
G37*
%TD.AperFunction*%
%TO.P,C3,2*%
%TO.N,GND*%
%TA.AperFunction,SMDPad,CuDef*%
G36*
G01*
X88516000Y-104173000D02*
X88516000Y-105123000D01*
G75*
G02*
X88266000Y-105373000I-250000J0D01*
G01*
X87766000Y-105373000D01*
G75*
G02*
X87516000Y-105123000I0J250000D01*
G01*
X87516000Y-104173000D01*
G75*
G02*
X87766000Y-103923000I250000J0D01*
G01*
X88266000Y-103923000D01*
G75*
G02*
X88516000Y-104173000I0J-250000D01*
G01*
G37*
%TD.AperFunction*%
%TD*%
%TO.P,C4,1*%
%TO.N,AT_OSC1*%
%TA.AperFunction,SMDPad,CuDef*%
G36*
G01*
X122715000Y-113104000D02*
X123665000Y-113104000D01*
G75*
G02*
X123915000Y-113354000I0J-250000D01*
G01*
X123915000Y-113854000D01*
G75*
G02*
X123665000Y-114104000I-250000J0D01*
G01*
X122715000Y-114104000D01*
G75*
G02*
X122465000Y-113854000I0J250000D01*
G01*
X122465000Y-113354000D01*
G75*
G02*
X122715000Y-113104000I250000J0D01*
G01*
G37*
%TD.AperFunction*%
%TO.P,C4,2*%
%TO.N,GND*%
%TA.AperFunction,SMDPad,CuDef*%
G36*
G01*
X122715000Y-115004000D02*
X123665000Y-115004000D01*
G75*
G02*
X123915000Y-115254000I0J-250000D01*
G01*
X123915000Y-115754000D01*
G75*
G02*
X123665000Y-116004000I-250000J0D01*
G01*
X122715000Y-116004000D01*
G75*
G02*
X122465000Y-115754000I0J250000D01*
G01*
X122465000Y-115254000D01*
G75*
G02*
X122715000Y-115004000I250000J0D01*
G01*
G37*
%TD.AperFunction*%
%TD*%
%TO.P,C5,2*%
%TO.N,GND*%
%TA.AperFunction,SMDPad,CuDef*%
G36*
G01*
X127033000Y-115004000D02*
X127983000Y-115004000D01*
G75*
G02*
X128233000Y-115254000I0J-250000D01*
G01*
X128233000Y-115754000D01*
G75*
G02*
X127983000Y-116004000I-250000J0D01*
G01*
X127033000Y-116004000D01*
G75*
G02*
X126783000Y-115754000I0J250000D01*
G01*
X126783000Y-115254000D01*
G75*
G02*
X127033000Y-115004000I250000J0D01*
G01*
G37*
%TD.AperFunction*%
%TO.P,C5,1*%
%TO.N,AT_OSC2*%
%TA.AperFunction,SMDPad,CuDef*%
G36*
G01*
X127033000Y-113104000D02*
X127983000Y-113104000D01*
G75*
G02*
X128233000Y-113354000I0J-250000D01*
G01*
X128233000Y-113854000D01*
G75*
G02*
X127983000Y-114104000I-250000J0D01*
G01*
X127033000Y-114104000D01*
G75*
G02*
X126783000Y-113854000I0J250000D01*
G01*
X126783000Y-113354000D01*
G75*
G02*
X127033000Y-113104000I250000J0D01*
G01*
G37*
%TD.AperFunction*%
%TD*%
%TO.P,C6,1*%
%TO.N,+5V*%
%TA.AperFunction,SMDPad,CuDef*%
G36*
G01*
X140556000Y-116197000D02*
X139606000Y-116197000D01*
G75*
G02*
X139356000Y-115947000I0J250000D01*
G01*
X139356000Y-115447000D01*
G75*
G02*
X139606000Y-115197000I250000J0D01*
G01*
X140556000Y-115197000D01*
G75*
G02*
X140806000Y-115447000I0J-250000D01*
G01*
X140806000Y-115947000D01*
G75*
G02*
X140556000Y-116197000I-250000J0D01*
G01*
G37*
%TD.AperFunction*%
%TO.P,C6,2*%
%TO.N,GND*%
%TA.AperFunction,SMDPad,CuDef*%
G36*
G01*
X140556000Y-114297000D02*
X139606000Y-114297000D01*
G75*
G02*
X139356000Y-114047000I0J250000D01*
G01*
X139356000Y-113547000D01*
G75*
G02*
X139606000Y-113297000I250000J0D01*
G01*
X140556000Y-113297000D01*
G75*
G02*
X140806000Y-113547000I0J-250000D01*
G01*
X140806000Y-114047000D01*
G75*
G02*
X140556000Y-114297000I-250000J0D01*
G01*
G37*
%TD.AperFunction*%
%TD*%
%TO.P,C7,2*%
%TO.N,GND*%
%TA.AperFunction,SMDPad,CuDef*%
G36*
G01*
X144366000Y-114297000D02*
X143416000Y-114297000D01*
G75*
G02*
X143166000Y-114047000I0J250000D01*
G01*
X143166000Y-113547000D01*
G75*
G02*
X143416000Y-113297000I250000J0D01*
G01*
X144366000Y-113297000D01*
G75*
G02*
X144616000Y-113547000I0J-250000D01*
G01*
X144616000Y-114047000D01*
G75*
G02*
X144366000Y-114297000I-250000J0D01*
G01*
G37*
%TD.AperFunction*%
%TO.P,C7,1*%
%TO.N,+5V*%
%TA.AperFunction,SMDPad,CuDef*%
G36*
G01*
X144366000Y-116197000D02*
X143416000Y-116197000D01*
G75*
G02*
X143166000Y-115947000I0J250000D01*
G01*
X143166000Y-115447000D01*
G75*
G02*
X143416000Y-115197000I250000J0D01*
G01*
X144366000Y-115197000D01*
G75*
G02*
X144616000Y-115447000I0J-250000D01*
G01*
X144616000Y-115947000D01*
G75*
G02*
X144366000Y-116197000I-250000J0D01*
G01*
G37*
%TD.AperFunction*%
%TD*%
%TO.P,C8,1*%
%TO.N,+5V*%
%TA.AperFunction,SMDPad,CuDef*%
G36*
G01*
X147861000Y-113292000D02*
X148811000Y-113292000D01*
G75*
G02*
X149061000Y-113542000I0J-250000D01*
G01*
X149061000Y-114042000D01*
G75*
G02*
X148811000Y-114292000I-250000J0D01*
G01*
X147861000Y-114292000D01*
G75*
G02*
X147611000Y-114042000I0J250000D01*
G01*
X147611000Y-113542000D01*
G75*
G02*
X147861000Y-113292000I250000J0D01*
G01*
G37*
%TD.AperFunction*%
%TO.P,C8,2*%
%TO.N,GND*%
%TA.AperFunction,SMDPad,CuDef*%
G36*
G01*
X147861000Y-115192000D02*
X148811000Y-115192000D01*
G75*
G02*
X149061000Y-115442000I0J-250000D01*
G01*
X149061000Y-115942000D01*
G75*
G02*
X148811000Y-116192000I-250000J0D01*
G01*
X147861000Y-116192000D01*
G75*
G02*
X147611000Y-115942000I0J250000D01*
G01*
X147611000Y-115442000D01*
G75*
G02*
X147861000Y-115192000I250000J0D01*
G01*
G37*
%TD.AperFunction*%
%TD*%
%TO.P,C9,2*%
%TO.N,GND*%
%TA.AperFunction,SMDPad,CuDef*%
G36*
G01*
X151925000Y-115197000D02*
X152875000Y-115197000D01*
G75*
G02*
X153125000Y-115447000I0J-250000D01*
G01*
X153125000Y-115947000D01*
G75*
G02*
X152875000Y-116197000I-250000J0D01*
G01*
X151925000Y-116197000D01*
G75*
G02*
X151675000Y-115947000I0J250000D01*
G01*
X151675000Y-115447000D01*
G75*
G02*
X151925000Y-115197000I250000J0D01*
G01*
G37*
%TD.AperFunction*%
%TO.P,C9,1*%
%TO.N,+5V*%
%TA.AperFunction,SMDPad,CuDef*%
G36*
G01*
X151925000Y-113297000D02*
X152875000Y-113297000D01*
G75*
G02*
X153125000Y-113547000I0J-250000D01*
G01*
X153125000Y-114047000D01*
G75*
G02*
X152875000Y-114297000I-250000J0D01*
G01*
X151925000Y-114297000D01*
G75*
G02*
X151675000Y-114047000I0J250000D01*
G01*
X151675000Y-113547000D01*
G75*
G02*
X151925000Y-113297000I250000J0D01*
G01*
G37*
%TD.AperFunction*%
%TD*%
%TO.P,C10,2*%
%TO.N,BUCK_SW*%
%TA.AperFunction,SMDPad,CuDef*%
G36*
G01*
X93922000Y-104615000D02*
X93922000Y-103665000D01*
G75*
G02*
X94172000Y-103415000I250000J0D01*
G01*
X94672000Y-103415000D01*
G75*
G02*
X94922000Y-103665000I0J-250000D01*
G01*
X94922000Y-104615000D01*
G75*
G02*
X94672000Y-104865000I-250000J0D01*
G01*
X94172000Y-104865000D01*
G75*
G02*
X93922000Y-104615000I0J250000D01*
G01*
G37*
%TD.AperFunction*%
%TO.P,C10,1*%
%TO.N,BUCK_BST*%
%TA.AperFunction,SMDPad,CuDef*%
G36*
G01*
X92022000Y-104615000D02*
X92022000Y-103665000D01*
G75*
G02*
X92272000Y-103415000I250000J0D01*
G01*
X92772000Y-103415000D01*
G75*
G02*
X93022000Y-103665000I0J-250000D01*
G01*
X93022000Y-104615000D01*
G75*
G02*
X92772000Y-104865000I-250000J0D01*
G01*
X92272000Y-104865000D01*
G75*
G02*
X92022000Y-104615000I0J250000D01*
G01*
G37*
%TD.AperFunction*%
%TD*%
%TO.P,C11,2*%
%TO.N,GND*%
%TA.AperFunction,SMDPad,CuDef*%
G36*
G01*
X105189000Y-100592000D02*
X106139000Y-100592000D01*
G75*
G02*
X106389000Y-100842000I0J-250000D01*
G01*
X106389000Y-101342000D01*
G75*
G02*
X106139000Y-101592000I-250000J0D01*
G01*
X105189000Y-101592000D01*
G75*
G02*
X104939000Y-101342000I0J250000D01*
G01*
X104939000Y-100842000D01*
G75*
G02*
X105189000Y-100592000I250000J0D01*
G01*
G37*
%TD.AperFunction*%
%TO.P,C11,1*%
%TO.N,+5V*%
%TA.AperFunction,SMDPad,CuDef*%
G36*
G01*
X105189000Y-98692000D02*
X106139000Y-98692000D01*
G75*
G02*
X106389000Y-98942000I0J-250000D01*
G01*
X106389000Y-99442000D01*
G75*
G02*
X106139000Y-99692000I-250000J0D01*
G01*
X105189000Y-99692000D01*
G75*
G02*
X104939000Y-99442000I0J250000D01*
G01*
X104939000Y-98942000D01*
G75*
G02*
X105189000Y-98692000I250000J0D01*
G01*
G37*
%TD.AperFunction*%
%TD*%
%TO.P,C12,1*%
%TO.N,+5V*%
%TA.AperFunction,SMDPad,CuDef*%
G36*
G01*
X94480000Y-96045000D02*
X94480000Y-96995000D01*
G75*
G02*
X94230000Y-97245000I-250000J0D01*
G01*
X93730000Y-97245000D01*
G75*
G02*
X93480000Y-96995000I0J250000D01*
G01*
X93480000Y-96045000D01*
G75*
G02*
X93730000Y-95795000I250000J0D01*
G01*
X94230000Y-95795000D01*
G75*
G02*
X94480000Y-96045000I0J-250000D01*
G01*
G37*
%TD.AperFunction*%
%TO.P,C12,2*%
%TO.N,GND*%
%TA.AperFunction,SMDPad,CuDef*%
G36*
G01*
X92580000Y-96045000D02*
X92580000Y-96995000D01*
G75*
G02*
X92330000Y-97245000I-250000J0D01*
G01*
X91830000Y-97245000D01*
G75*
G02*
X91580000Y-96995000I0J250000D01*
G01*
X91580000Y-96045000D01*
G75*
G02*
X91830000Y-95795000I250000J0D01*
G01*
X92330000Y-95795000D01*
G75*
G02*
X92580000Y-96045000I0J-250000D01*
G01*
G37*
%TD.AperFunction*%
%TD*%
%TO.P,C13,1*%
%TO.N,+5V*%
%TA.AperFunction,SMDPad,CuDef*%
G36*
G01*
X147861000Y-108278000D02*
X148811000Y-108278000D01*
G75*
G02*
X149061000Y-108528000I0J-250000D01*
G01*
X149061000Y-109028000D01*
G75*
G02*
X148811000Y-109278000I-250000J0D01*
G01*
X147861000Y-109278000D01*
G75*
G02*
X147611000Y-109028000I0J250000D01*
G01*
X147611000Y-108528000D01*
G75*
G02*
X147861000Y-108278000I250000J0D01*
G01*
G37*
%TD.AperFunction*%
%TO.P,C13,2*%
%TO.N,GND*%
%TA.AperFunction,SMDPad,CuDef*%
G36*
G01*
X147861000Y-110178000D02*
X148811000Y-110178000D01*
G75*
G02*
X149061000Y-110428000I0J-250000D01*
G01*
X149061000Y-110928000D01*
G75*
G02*
X148811000Y-111178000I-250000J0D01*
G01*
X147861000Y-111178000D01*
G75*
G02*
X147611000Y-110928000I0J250000D01*
G01*
X147611000Y-110428000D01*
G75*
G02*
X147861000Y-110178000I250000J0D01*
G01*
G37*
%TD.AperFunction*%
%TD*%
%TO.P,C14,2*%
%TO.N,GND*%
%TA.AperFunction,SMDPad,CuDef*%
G36*
G01*
X130081000Y-104656000D02*
X131031000Y-104656000D01*
G75*
G02*
X131281000Y-104906000I0J-250000D01*
G01*
X131281000Y-105406000D01*
G75*
G02*
X131031000Y-105656000I-250000J0D01*
G01*
X130081000Y-105656000D01*
G75*
G02*
X129831000Y-105406000I0J250000D01*
G01*
X129831000Y-104906000D01*
G75*
G02*
X130081000Y-104656000I250000J0D01*
G01*
G37*
%TD.AperFunction*%
%TO.P,C14,1*%
%TO.N,+3V3*%
%TA.AperFunction,SMDPad,CuDef*%
G36*
G01*
X130081000Y-102756000D02*
X131031000Y-102756000D01*
G75*
G02*
X131281000Y-103006000I0J-250000D01*
G01*
X131281000Y-103506000D01*
G75*
G02*
X131031000Y-103756000I-250000J0D01*
G01*
X130081000Y-103756000D01*
G75*
G02*
X129831000Y-103506000I0J250000D01*
G01*
X129831000Y-103006000D01*
G75*
G02*
X130081000Y-102756000I250000J0D01*
G01*
G37*
%TD.AperFunction*%
%TD*%
%TO.P,D1,1*%
%TO.N,GND*%
%TA.AperFunction,SMDPad,CuDef*%
G36*
G01*
X139014500Y-125527750D02*
X139014500Y-126440250D01*
G75*
G02*
X138770750Y-126684000I-243750J0D01*
G01*
X138283250Y-126684000D01*
G75*
G02*
X138039500Y-126440250I0J243750D01*
G01*
X138039500Y-125527750D01*
G75*
G02*
X138283250Y-125284000I243750J0D01*
G01*
X138770750Y-125284000D01*
G75*
G02*
X139014500Y-125527750I0J-243750D01*
G01*
G37*
%TD.AperFunction*%
%TO.P,D1,2*%
%TO.N,Net-(D1-Pad2)*%
%TA.AperFunction,SMDPad,CuDef*%
G36*
G01*
X137139500Y-125527750D02*
X137139500Y-126440250D01*
G75*
G02*
X136895750Y-126684000I-243750J0D01*
G01*
X136408250Y-126684000D01*
G75*
G02*
X136164500Y-126440250I0J243750D01*
G01*
X136164500Y-125527750D01*
G75*
G02*
X136408250Y-125284000I243750J0D01*
G01*
X136895750Y-125284000D01*
G75*
G02*
X137139500Y-125527750I0J-243750D01*
G01*
G37*
%TD.AperFunction*%
%TD*%
D10*
%TO.P,D2,1*%
%TO.N,BUCK_SW*%
X89950000Y-100076000D03*
%TO.P,D2,2*%
%TO.N,GND*%
X87850000Y-100076000D03*
%TD*%
%TO.P,D3,2*%
%TO.N,Net-(D3-Pad2)*%
%TA.AperFunction,SMDPad,CuDef*%
G36*
G01*
X144535500Y-121717750D02*
X144535500Y-122630250D01*
G75*
G02*
X144291750Y-122874000I-243750J0D01*
G01*
X143804250Y-122874000D01*
G75*
G02*
X143560500Y-122630250I0J243750D01*
G01*
X143560500Y-121717750D01*
G75*
G02*
X143804250Y-121474000I243750J0D01*
G01*
X144291750Y-121474000D01*
G75*
G02*
X144535500Y-121717750I0J-243750D01*
G01*
G37*
%TD.AperFunction*%
%TO.P,D3,1*%
%TO.N,GND*%
%TA.AperFunction,SMDPad,CuDef*%
G36*
G01*
X146410500Y-121717750D02*
X146410500Y-122630250D01*
G75*
G02*
X146166750Y-122874000I-243750J0D01*
G01*
X145679250Y-122874000D01*
G75*
G02*
X145435500Y-122630250I0J243750D01*
G01*
X145435500Y-121717750D01*
G75*
G02*
X145679250Y-121474000I243750J0D01*
G01*
X146166750Y-121474000D01*
G75*
G02*
X146410500Y-121717750I0J-243750D01*
G01*
G37*
%TD.AperFunction*%
%TD*%
%TO.P,D4,1*%
%TO.N,GND*%
%TA.AperFunction,SMDPad,CuDef*%
G36*
G01*
X146410500Y-125273750D02*
X146410500Y-126186250D01*
G75*
G02*
X146166750Y-126430000I-243750J0D01*
G01*
X145679250Y-126430000D01*
G75*
G02*
X145435500Y-126186250I0J243750D01*
G01*
X145435500Y-125273750D01*
G75*
G02*
X145679250Y-125030000I243750J0D01*
G01*
X146166750Y-125030000D01*
G75*
G02*
X146410500Y-125273750I0J-243750D01*
G01*
G37*
%TD.AperFunction*%
%TO.P,D4,2*%
%TO.N,Net-(D4-Pad2)*%
%TA.AperFunction,SMDPad,CuDef*%
G36*
G01*
X144535500Y-125273750D02*
X144535500Y-126186250D01*
G75*
G02*
X144291750Y-126430000I-243750J0D01*
G01*
X143804250Y-126430000D01*
G75*
G02*
X143560500Y-126186250I0J243750D01*
G01*
X143560500Y-125273750D01*
G75*
G02*
X143804250Y-125030000I243750J0D01*
G01*
X144291750Y-125030000D01*
G75*
G02*
X144535500Y-125273750I0J-243750D01*
G01*
G37*
%TD.AperFunction*%
%TD*%
%TO.P,F1,1*%
%TO.N,Net-(F1-Pad1)*%
%TA.AperFunction,SMDPad,CuDef*%
G36*
G01*
X91831000Y-116971000D02*
X93081000Y-116971000D01*
G75*
G02*
X93331000Y-117221000I0J-250000D01*
G01*
X93331000Y-117971000D01*
G75*
G02*
X93081000Y-118221000I-250000J0D01*
G01*
X91831000Y-118221000D01*
G75*
G02*
X91581000Y-117971000I0J250000D01*
G01*
X91581000Y-117221000D01*
G75*
G02*
X91831000Y-116971000I250000J0D01*
G01*
G37*
%TD.AperFunction*%
%TO.P,F1,2*%
%TO.N,12_V_IN*%
%TA.AperFunction,SMDPad,CuDef*%
G36*
G01*
X91831000Y-119771000D02*
X93081000Y-119771000D01*
G75*
G02*
X93331000Y-120021000I0J-250000D01*
G01*
X93331000Y-120771000D01*
G75*
G02*
X93081000Y-121021000I-250000J0D01*
G01*
X91831000Y-121021000D01*
G75*
G02*
X91581000Y-120771000I0J250000D01*
G01*
X91581000Y-120021000D01*
G75*
G02*
X91831000Y-119771000I250000J0D01*
G01*
G37*
%TD.AperFunction*%
%TD*%
%TO.P,FB1,2*%
%TO.N,Net-(FB1-Pad2)*%
%TA.AperFunction,SMDPad,CuDef*%
G36*
G01*
X92074750Y-114370500D02*
X92837250Y-114370500D01*
G75*
G02*
X93056000Y-114589250I0J-218750D01*
G01*
X93056000Y-115026750D01*
G75*
G02*
X92837250Y-115245500I-218750J0D01*
G01*
X92074750Y-115245500D01*
G75*
G02*
X91856000Y-115026750I0J218750D01*
G01*
X91856000Y-114589250D01*
G75*
G02*
X92074750Y-114370500I218750J0D01*
G01*
G37*
%TD.AperFunction*%
%TO.P,FB1,1*%
%TO.N,BUCK_IN*%
%TA.AperFunction,SMDPad,CuDef*%
G36*
G01*
X92074750Y-112245500D02*
X92837250Y-112245500D01*
G75*
G02*
X93056000Y-112464250I0J-218750D01*
G01*
X93056000Y-112901750D01*
G75*
G02*
X92837250Y-113120500I-218750J0D01*
G01*
X92074750Y-113120500D01*
G75*
G02*
X91856000Y-112901750I0J218750D01*
G01*
X91856000Y-112464250D01*
G75*
G02*
X92074750Y-112245500I218750J0D01*
G01*
G37*
%TD.AperFunction*%
%TD*%
D11*
%TO.P,H1,1*%
%TO.N,N/C*%
X92196419Y-136403581D03*
X89916000Y-135459000D03*
X87635581Y-136403581D03*
X86691000Y-138684000D03*
X87635581Y-140964419D03*
X89916000Y-141909000D03*
X92196419Y-140964419D03*
X93141000Y-138684000D03*
D12*
X89916000Y-138684000D03*
%TD*%
%TO.P,H2,1*%
%TO.N,N/C*%
X174752000Y-138684000D03*
D11*
X177977000Y-138684000D03*
X177032419Y-140964419D03*
X174752000Y-141909000D03*
X172471581Y-140964419D03*
X171527000Y-138684000D03*
X172471581Y-136403581D03*
X174752000Y-135459000D03*
X177032419Y-136403581D03*
%TD*%
%TO.P,H3,1*%
%TO.N,N/C*%
X91948000Y-84339162D03*
X89667581Y-83394581D03*
X87387162Y-84339162D03*
X86442581Y-86619581D03*
X87387162Y-88900000D03*
X89667581Y-89844581D03*
X91948000Y-88900000D03*
X92892581Y-86619581D03*
D12*
X89667581Y-86619581D03*
%TD*%
%TO.P,H4,1*%
%TO.N,N/C*%
X174752000Y-86360000D03*
D11*
X177977000Y-86360000D03*
X177032419Y-88640419D03*
X174752000Y-89585000D03*
X172471581Y-88640419D03*
X171527000Y-86360000D03*
X172471581Y-84079581D03*
X174752000Y-83135000D03*
X177032419Y-84079581D03*
%TD*%
D13*
%TO.P,J1,1*%
%TO.N,Net-(J1-Pad1)*%
X101600000Y-139700000D03*
D14*
%TO.P,J1,2*%
%TO.N,Net-(J1-Pad2)*%
X105100000Y-139700000D03*
%TD*%
%TO.P,J2,1*%
%TO.N,AT_MISO*%
%TA.AperFunction,ComponentPad*%
G36*
G01*
X175602000Y-126400000D02*
X175602000Y-127600000D01*
G75*
G02*
X175352000Y-127850000I-250000J0D01*
G01*
X174152000Y-127850000D01*
G75*
G02*
X173902000Y-127600000I0J250000D01*
G01*
X173902000Y-126400000D01*
G75*
G02*
X174152000Y-126150000I250000J0D01*
G01*
X175352000Y-126150000D01*
G75*
G02*
X175602000Y-126400000I0J-250000D01*
G01*
G37*
%TD.AperFunction*%
D15*
%TO.P,J2,3*%
%TO.N,AT_SCK*%
X174752000Y-124460000D03*
%TO.P,J2,5*%
%TO.N,AT_RESET*%
X174752000Y-121920000D03*
%TO.P,J2,2*%
%TO.N,+5V*%
X172212000Y-127000000D03*
%TO.P,J2,4*%
%TO.N,AT_MOSI*%
X172212000Y-124460000D03*
%TO.P,J2,6*%
%TO.N,GND*%
X172212000Y-121920000D03*
%TD*%
D13*
%TO.P,J3,1*%
%TO.N,AT_D7*%
X154940000Y-139700000D03*
D14*
%TO.P,J3,2*%
%TO.N,AT_D8*%
X158440000Y-139700000D03*
%TO.P,J3,3*%
%TO.N,AT_D9*%
X161940000Y-139700000D03*
%TD*%
D13*
%TO.P,J4,1*%
%TO.N,AT_A0*%
X172720000Y-111760000D03*
D14*
%TO.P,J4,2*%
%TO.N,AT_A1*%
X172720000Y-108260000D03*
%TO.P,J4,3*%
%TO.N,AT_A2*%
X172720000Y-104760000D03*
%TO.P,J4,4*%
%TO.N,AT_A3*%
X172720000Y-101260000D03*
%TO.P,J4,5*%
%TO.N,AT_A4*%
X172720000Y-97760000D03*
%TO.P,J4,6*%
%TO.N,AT_A5*%
X172720000Y-94260000D03*
%TD*%
%TO.P,J5,2*%
%TO.N,3_3_TX_IN*%
X138232000Y-91440000D03*
D13*
%TO.P,J5,1*%
%TO.N,3_3_RX_IN*%
X141732000Y-91440000D03*
%TD*%
D14*
%TO.P,J7,2*%
%TO.N,GND*%
X89916000Y-125024000D03*
D13*
%TO.P,J7,1*%
%TO.N,12_V_IN*%
X89916000Y-128524000D03*
%TD*%
%TO.P,J8,1*%
%TO.N,328_RX*%
X155956000Y-91440000D03*
D14*
%TO.P,J8,2*%
%TO.N,328_TX*%
X152456000Y-91440000D03*
%TD*%
%TO.P,L1,1*%
%TO.N,BUCK_SW*%
%TA.AperFunction,SMDPad,CuDef*%
G36*
G01*
X91925500Y-100457250D02*
X91925500Y-99694750D01*
G75*
G02*
X92144250Y-99476000I218750J0D01*
G01*
X92581750Y-99476000D01*
G75*
G02*
X92800500Y-99694750I0J-218750D01*
G01*
X92800500Y-100457250D01*
G75*
G02*
X92581750Y-100676000I-218750J0D01*
G01*
X92144250Y-100676000D01*
G75*
G02*
X91925500Y-100457250I0J218750D01*
G01*
G37*
%TD.AperFunction*%
%TO.P,L1,2*%
%TO.N,+5V*%
%TA.AperFunction,SMDPad,CuDef*%
G36*
G01*
X94050500Y-100457250D02*
X94050500Y-99694750D01*
G75*
G02*
X94269250Y-99476000I218750J0D01*
G01*
X94706750Y-99476000D01*
G75*
G02*
X94925500Y-99694750I0J-218750D01*
G01*
X94925500Y-100457250D01*
G75*
G02*
X94706750Y-100676000I-218750J0D01*
G01*
X94269250Y-100676000D01*
G75*
G02*
X94050500Y-100457250I0J218750D01*
G01*
G37*
%TD.AperFunction*%
%TD*%
D16*
%TO.P,Q1,3*%
%TO.N,Net-(F1-Pad1)*%
X88884000Y-118872000D03*
%TO.P,Q1,2*%
%TO.N,Net-(FB1-Pad2)*%
X86884000Y-119822000D03*
%TO.P,Q1,1*%
%TO.N,GND*%
X86884000Y-117922000D03*
%TD*%
%TO.P,Q2,1*%
%TO.N,+3V3*%
X135144000Y-103190000D03*
%TO.P,Q2,2*%
%TO.N,328_RX*%
X135144000Y-105090000D03*
%TO.P,Q2,3*%
%TO.N,3_3_RX_IN*%
X137144000Y-104140000D03*
%TD*%
%TO.P,Q3,3*%
%TO.N,3_3_TX_IN*%
X145828000Y-98618000D03*
%TO.P,Q3,2*%
%TO.N,328_TX*%
X147828000Y-97668000D03*
%TO.P,Q3,1*%
%TO.N,+3V3*%
X147828000Y-99568000D03*
%TD*%
%TO.P,R1,1*%
%TO.N,+5V*%
%TA.AperFunction,SMDPad,CuDef*%
G36*
G01*
X136139500Y-130307501D02*
X136139500Y-129407499D01*
G75*
G02*
X136389499Y-129157500I249999J0D01*
G01*
X136914501Y-129157500D01*
G75*
G02*
X137164500Y-129407499I0J-249999D01*
G01*
X137164500Y-130307501D01*
G75*
G02*
X136914501Y-130557500I-249999J0D01*
G01*
X136389499Y-130557500D01*
G75*
G02*
X136139500Y-130307501I0J249999D01*
G01*
G37*
%TD.AperFunction*%
%TO.P,R1,2*%
%TO.N,Net-(D1-Pad2)*%
%TA.AperFunction,SMDPad,CuDef*%
G36*
G01*
X137964500Y-130307501D02*
X137964500Y-129407499D01*
G75*
G02*
X138214499Y-129157500I249999J0D01*
G01*
X138739501Y-129157500D01*
G75*
G02*
X138989500Y-129407499I0J-249999D01*
G01*
X138989500Y-130307501D01*
G75*
G02*
X138739501Y-130557500I-249999J0D01*
G01*
X138214499Y-130557500D01*
G75*
G02*
X137964500Y-130307501I0J249999D01*
G01*
G37*
%TD.AperFunction*%
%TD*%
%TO.P,R2,2*%
%TO.N,Net-(R2-Pad2)*%
%TA.AperFunction,SMDPad,CuDef*%
G36*
G01*
X119945999Y-105151500D02*
X120846001Y-105151500D01*
G75*
G02*
X121096000Y-105401499I0J-249999D01*
G01*
X121096000Y-105926501D01*
G75*
G02*
X120846001Y-106176500I-249999J0D01*
G01*
X119945999Y-106176500D01*
G75*
G02*
X119696000Y-105926501I0J249999D01*
G01*
X119696000Y-105401499D01*
G75*
G02*
X119945999Y-105151500I249999J0D01*
G01*
G37*
%TD.AperFunction*%
%TO.P,R2,1*%
%TO.N,+5V*%
%TA.AperFunction,SMDPad,CuDef*%
G36*
G01*
X119945999Y-103326500D02*
X120846001Y-103326500D01*
G75*
G02*
X121096000Y-103576499I0J-249999D01*
G01*
X121096000Y-104101501D01*
G75*
G02*
X120846001Y-104351500I-249999J0D01*
G01*
X119945999Y-104351500D01*
G75*
G02*
X119696000Y-104101501I0J249999D01*
G01*
X119696000Y-103576499D01*
G75*
G02*
X119945999Y-103326500I249999J0D01*
G01*
G37*
%TD.AperFunction*%
%TD*%
%TO.P,R3,1*%
%TO.N,BUCK_IN*%
%TA.AperFunction,SMDPad,CuDef*%
G36*
G01*
X88904500Y-112833999D02*
X88904500Y-113734001D01*
G75*
G02*
X88654501Y-113984000I-249999J0D01*
G01*
X88129499Y-113984000D01*
G75*
G02*
X87879500Y-113734001I0J249999D01*
G01*
X87879500Y-112833999D01*
G75*
G02*
X88129499Y-112584000I249999J0D01*
G01*
X88654501Y-112584000D01*
G75*
G02*
X88904500Y-112833999I0J-249999D01*
G01*
G37*
%TD.AperFunction*%
%TO.P,R3,2*%
%TO.N,BUCK_EN*%
%TA.AperFunction,SMDPad,CuDef*%
G36*
G01*
X87079500Y-112833999D02*
X87079500Y-113734001D01*
G75*
G02*
X86829501Y-113984000I-249999J0D01*
G01*
X86304499Y-113984000D01*
G75*
G02*
X86054500Y-113734001I0J249999D01*
G01*
X86054500Y-112833999D01*
G75*
G02*
X86304499Y-112584000I249999J0D01*
G01*
X86829501Y-112584000D01*
G75*
G02*
X87079500Y-112833999I0J-249999D01*
G01*
G37*
%TD.AperFunction*%
%TD*%
%TO.P,R4,1*%
%TO.N,BUCK_EN*%
%TA.AperFunction,SMDPad,CuDef*%
G36*
G01*
X88159000Y-109620000D02*
X87609000Y-109620000D01*
G75*
G02*
X87409000Y-109420000I0J200000D01*
G01*
X87409000Y-109020000D01*
G75*
G02*
X87609000Y-108820000I200000J0D01*
G01*
X88159000Y-108820000D01*
G75*
G02*
X88359000Y-109020000I0J-200000D01*
G01*
X88359000Y-109420000D01*
G75*
G02*
X88159000Y-109620000I-200000J0D01*
G01*
G37*
%TD.AperFunction*%
%TO.P,R4,2*%
%TO.N,GND*%
%TA.AperFunction,SMDPad,CuDef*%
G36*
G01*
X88159000Y-107970000D02*
X87609000Y-107970000D01*
G75*
G02*
X87409000Y-107770000I0J200000D01*
G01*
X87409000Y-107370000D01*
G75*
G02*
X87609000Y-107170000I200000J0D01*
G01*
X88159000Y-107170000D01*
G75*
G02*
X88359000Y-107370000I0J-200000D01*
G01*
X88359000Y-107770000D01*
G75*
G02*
X88159000Y-107970000I-200000J0D01*
G01*
G37*
%TD.AperFunction*%
%TD*%
%TO.P,R5,2*%
%TO.N,BUCK_FB*%
%TA.AperFunction,SMDPad,CuDef*%
G36*
G01*
X106114001Y-95104000D02*
X105213999Y-95104000D01*
G75*
G02*
X104964000Y-94854001I0J249999D01*
G01*
X104964000Y-94328999D01*
G75*
G02*
X105213999Y-94079000I249999J0D01*
G01*
X106114001Y-94079000D01*
G75*
G02*
X106364000Y-94328999I0J-249999D01*
G01*
X106364000Y-94854001D01*
G75*
G02*
X106114001Y-95104000I-249999J0D01*
G01*
G37*
%TD.AperFunction*%
%TO.P,R5,1*%
%TO.N,+5V*%
%TA.AperFunction,SMDPad,CuDef*%
G36*
G01*
X106114001Y-96929000D02*
X105213999Y-96929000D01*
G75*
G02*
X104964000Y-96679001I0J249999D01*
G01*
X104964000Y-96153999D01*
G75*
G02*
X105213999Y-95904000I249999J0D01*
G01*
X106114001Y-95904000D01*
G75*
G02*
X106364000Y-96153999I0J-249999D01*
G01*
X106364000Y-96679001D01*
G75*
G02*
X106114001Y-96929000I-249999J0D01*
G01*
G37*
%TD.AperFunction*%
%TD*%
%TO.P,R6,1*%
%TO.N,BUCK_FB*%
%TA.AperFunction,SMDPad,CuDef*%
G36*
G01*
X100133999Y-94483500D02*
X101034001Y-94483500D01*
G75*
G02*
X101284000Y-94733499I0J-249999D01*
G01*
X101284000Y-95258501D01*
G75*
G02*
X101034001Y-95508500I-249999J0D01*
G01*
X100133999Y-95508500D01*
G75*
G02*
X99884000Y-95258501I0J249999D01*
G01*
X99884000Y-94733499D01*
G75*
G02*
X100133999Y-94483500I249999J0D01*
G01*
G37*
%TD.AperFunction*%
%TO.P,R6,2*%
%TO.N,Net-(R6-Pad2)*%
%TA.AperFunction,SMDPad,CuDef*%
G36*
G01*
X100133999Y-96308500D02*
X101034001Y-96308500D01*
G75*
G02*
X101284000Y-96558499I0J-249999D01*
G01*
X101284000Y-97083501D01*
G75*
G02*
X101034001Y-97333500I-249999J0D01*
G01*
X100133999Y-97333500D01*
G75*
G02*
X99884000Y-97083501I0J249999D01*
G01*
X99884000Y-96558499D01*
G75*
G02*
X100133999Y-96308500I249999J0D01*
G01*
G37*
%TD.AperFunction*%
%TD*%
%TO.P,R7,2*%
%TO.N,GND*%
%TA.AperFunction,SMDPad,CuDef*%
G36*
G01*
X99168000Y-100133999D02*
X99168000Y-101034001D01*
G75*
G02*
X98918001Y-101284000I-249999J0D01*
G01*
X98392999Y-101284000D01*
G75*
G02*
X98143000Y-101034001I0J249999D01*
G01*
X98143000Y-100133999D01*
G75*
G02*
X98392999Y-99884000I249999J0D01*
G01*
X98918001Y-99884000D01*
G75*
G02*
X99168000Y-100133999I0J-249999D01*
G01*
G37*
%TD.AperFunction*%
%TO.P,R7,1*%
%TO.N,Net-(R6-Pad2)*%
%TA.AperFunction,SMDPad,CuDef*%
G36*
G01*
X100993000Y-100133999D02*
X100993000Y-101034001D01*
G75*
G02*
X100743001Y-101284000I-249999J0D01*
G01*
X100217999Y-101284000D01*
G75*
G02*
X99968000Y-101034001I0J249999D01*
G01*
X99968000Y-100133999D01*
G75*
G02*
X100217999Y-99884000I249999J0D01*
G01*
X100743001Y-99884000D01*
G75*
G02*
X100993000Y-100133999I0J-249999D01*
G01*
G37*
%TD.AperFunction*%
%TD*%
%TO.P,R8,1*%
%TO.N,+5V*%
%TA.AperFunction,SMDPad,CuDef*%
G36*
G01*
X144214001Y-111256500D02*
X143313999Y-111256500D01*
G75*
G02*
X143064000Y-111006501I0J249999D01*
G01*
X143064000Y-110481499D01*
G75*
G02*
X143313999Y-110231500I249999J0D01*
G01*
X144214001Y-110231500D01*
G75*
G02*
X144464000Y-110481499I0J-249999D01*
G01*
X144464000Y-111006501D01*
G75*
G02*
X144214001Y-111256500I-249999J0D01*
G01*
G37*
%TD.AperFunction*%
%TO.P,R8,2*%
%TO.N,328_RX*%
%TA.AperFunction,SMDPad,CuDef*%
G36*
G01*
X144214001Y-109431500D02*
X143313999Y-109431500D01*
G75*
G02*
X143064000Y-109181501I0J249999D01*
G01*
X143064000Y-108656499D01*
G75*
G02*
X143313999Y-108406500I249999J0D01*
G01*
X144214001Y-108406500D01*
G75*
G02*
X144464000Y-108656499I0J-249999D01*
G01*
X144464000Y-109181501D01*
G75*
G02*
X144214001Y-109431500I-249999J0D01*
G01*
G37*
%TD.AperFunction*%
%TD*%
%TO.P,R9,1*%
%TO.N,+3V3*%
%TA.AperFunction,SMDPad,CuDef*%
G36*
G01*
X141736500Y-99117999D02*
X141736500Y-100018001D01*
G75*
G02*
X141486501Y-100268000I-249999J0D01*
G01*
X140961499Y-100268000D01*
G75*
G02*
X140711500Y-100018001I0J249999D01*
G01*
X140711500Y-99117999D01*
G75*
G02*
X140961499Y-98868000I249999J0D01*
G01*
X141486501Y-98868000D01*
G75*
G02*
X141736500Y-99117999I0J-249999D01*
G01*
G37*
%TD.AperFunction*%
%TO.P,R9,2*%
%TO.N,3_3_RX_IN*%
%TA.AperFunction,SMDPad,CuDef*%
G36*
G01*
X139911500Y-99117999D02*
X139911500Y-100018001D01*
G75*
G02*
X139661501Y-100268000I-249999J0D01*
G01*
X139136499Y-100268000D01*
G75*
G02*
X138886500Y-100018001I0J249999D01*
G01*
X138886500Y-99117999D01*
G75*
G02*
X139136499Y-98868000I249999J0D01*
G01*
X139661501Y-98868000D01*
G75*
G02*
X139911500Y-99117999I0J-249999D01*
G01*
G37*
%TD.AperFunction*%
%TD*%
%TO.P,R10,2*%
%TO.N,328_TX*%
%TA.AperFunction,SMDPad,CuDef*%
G36*
G01*
X146754001Y-103636500D02*
X145853999Y-103636500D01*
G75*
G02*
X145604000Y-103386501I0J249999D01*
G01*
X145604000Y-102861499D01*
G75*
G02*
X145853999Y-102611500I249999J0D01*
G01*
X146754001Y-102611500D01*
G75*
G02*
X147004000Y-102861499I0J-249999D01*
G01*
X147004000Y-103386501D01*
G75*
G02*
X146754001Y-103636500I-249999J0D01*
G01*
G37*
%TD.AperFunction*%
%TO.P,R10,1*%
%TO.N,+5V*%
%TA.AperFunction,SMDPad,CuDef*%
G36*
G01*
X146754001Y-105461500D02*
X145853999Y-105461500D01*
G75*
G02*
X145604000Y-105211501I0J249999D01*
G01*
X145604000Y-104686499D01*
G75*
G02*
X145853999Y-104436500I249999J0D01*
G01*
X146754001Y-104436500D01*
G75*
G02*
X147004000Y-104686499I0J-249999D01*
G01*
X147004000Y-105211501D01*
G75*
G02*
X146754001Y-105461500I-249999J0D01*
G01*
G37*
%TD.AperFunction*%
%TD*%
%TO.P,R11,2*%
%TO.N,3_3_TX_IN*%
%TA.AperFunction,SMDPad,CuDef*%
G36*
G01*
X136139500Y-100018001D02*
X136139500Y-99117999D01*
G75*
G02*
X136389499Y-98868000I249999J0D01*
G01*
X136914501Y-98868000D01*
G75*
G02*
X137164500Y-99117999I0J-249999D01*
G01*
X137164500Y-100018001D01*
G75*
G02*
X136914501Y-100268000I-249999J0D01*
G01*
X136389499Y-100268000D01*
G75*
G02*
X136139500Y-100018001I0J249999D01*
G01*
G37*
%TD.AperFunction*%
%TO.P,R11,1*%
%TO.N,+3V3*%
%TA.AperFunction,SMDPad,CuDef*%
G36*
G01*
X134314500Y-100018001D02*
X134314500Y-99117999D01*
G75*
G02*
X134564499Y-98868000I249999J0D01*
G01*
X135089501Y-98868000D01*
G75*
G02*
X135339500Y-99117999I0J-249999D01*
G01*
X135339500Y-100018001D01*
G75*
G02*
X135089501Y-100268000I-249999J0D01*
G01*
X134564499Y-100268000D01*
G75*
G02*
X134314500Y-100018001I0J249999D01*
G01*
G37*
%TD.AperFunction*%
%TD*%
%TO.P,R12,2*%
%TO.N,Net-(D3-Pad2)*%
%TA.AperFunction,SMDPad,CuDef*%
G36*
G01*
X144403500Y-133915999D02*
X144403500Y-134816001D01*
G75*
G02*
X144153501Y-135066000I-249999J0D01*
G01*
X143628499Y-135066000D01*
G75*
G02*
X143378500Y-134816001I0J249999D01*
G01*
X143378500Y-133915999D01*
G75*
G02*
X143628499Y-133666000I249999J0D01*
G01*
X144153501Y-133666000D01*
G75*
G02*
X144403500Y-133915999I0J-249999D01*
G01*
G37*
%TD.AperFunction*%
%TO.P,R12,1*%
%TO.N,AT_D9*%
%TA.AperFunction,SMDPad,CuDef*%
G36*
G01*
X146228500Y-133915999D02*
X146228500Y-134816001D01*
G75*
G02*
X145978501Y-135066000I-249999J0D01*
G01*
X145453499Y-135066000D01*
G75*
G02*
X145203500Y-134816001I0J249999D01*
G01*
X145203500Y-133915999D01*
G75*
G02*
X145453499Y-133666000I249999J0D01*
G01*
X145978501Y-133666000D01*
G75*
G02*
X146228500Y-133915999I0J-249999D01*
G01*
G37*
%TD.AperFunction*%
%TD*%
%TO.P,R13,1*%
%TO.N,AT_D8*%
%TA.AperFunction,SMDPad,CuDef*%
G36*
G01*
X146332000Y-129851999D02*
X146332000Y-130752001D01*
G75*
G02*
X146082001Y-131002000I-249999J0D01*
G01*
X145556999Y-131002000D01*
G75*
G02*
X145307000Y-130752001I0J249999D01*
G01*
X145307000Y-129851999D01*
G75*
G02*
X145556999Y-129602000I249999J0D01*
G01*
X146082001Y-129602000D01*
G75*
G02*
X146332000Y-129851999I0J-249999D01*
G01*
G37*
%TD.AperFunction*%
%TO.P,R13,2*%
%TO.N,Net-(D4-Pad2)*%
%TA.AperFunction,SMDPad,CuDef*%
G36*
G01*
X144507000Y-129851999D02*
X144507000Y-130752001D01*
G75*
G02*
X144257001Y-131002000I-249999J0D01*
G01*
X143731999Y-131002000D01*
G75*
G02*
X143482000Y-130752001I0J249999D01*
G01*
X143482000Y-129851999D01*
G75*
G02*
X143731999Y-129602000I249999J0D01*
G01*
X144257001Y-129602000D01*
G75*
G02*
X144507000Y-129851999I0J-249999D01*
G01*
G37*
%TD.AperFunction*%
%TD*%
%TO.P,U1,1*%
%TO.N,Net-(U1-Pad1)*%
%TA.AperFunction,SMDPad,CuDef*%
G36*
G01*
X106593000Y-104290000D02*
X106593000Y-103990000D01*
G75*
G02*
X106743000Y-103840000I150000J0D01*
G01*
X108493000Y-103840000D01*
G75*
G02*
X108643000Y-103990000I0J-150000D01*
G01*
X108643000Y-104290000D01*
G75*
G02*
X108493000Y-104440000I-150000J0D01*
G01*
X106743000Y-104440000D01*
G75*
G02*
X106593000Y-104290000I0J150000D01*
G01*
G37*
%TD.AperFunction*%
%TO.P,U1,2*%
%TO.N,Net-(U1-Pad2)*%
%TA.AperFunction,SMDPad,CuDef*%
G36*
G01*
X106593000Y-105560000D02*
X106593000Y-105260000D01*
G75*
G02*
X106743000Y-105110000I150000J0D01*
G01*
X108493000Y-105110000D01*
G75*
G02*
X108643000Y-105260000I0J-150000D01*
G01*
X108643000Y-105560000D01*
G75*
G02*
X108493000Y-105710000I-150000J0D01*
G01*
X106743000Y-105710000D01*
G75*
G02*
X106593000Y-105560000I0J150000D01*
G01*
G37*
%TD.AperFunction*%
%TO.P,U1,3*%
%TO.N,Net-(U1-Pad3)*%
%TA.AperFunction,SMDPad,CuDef*%
G36*
G01*
X106593000Y-106830000D02*
X106593000Y-106530000D01*
G75*
G02*
X106743000Y-106380000I150000J0D01*
G01*
X108493000Y-106380000D01*
G75*
G02*
X108643000Y-106530000I0J-150000D01*
G01*
X108643000Y-106830000D01*
G75*
G02*
X108493000Y-106980000I-150000J0D01*
G01*
X106743000Y-106980000D01*
G75*
G02*
X106593000Y-106830000I0J150000D01*
G01*
G37*
%TD.AperFunction*%
%TO.P,U1,4*%
%TO.N,Net-(U1-Pad4)*%
%TA.AperFunction,SMDPad,CuDef*%
G36*
G01*
X106593000Y-108100000D02*
X106593000Y-107800000D01*
G75*
G02*
X106743000Y-107650000I150000J0D01*
G01*
X108493000Y-107650000D01*
G75*
G02*
X108643000Y-107800000I0J-150000D01*
G01*
X108643000Y-108100000D01*
G75*
G02*
X108493000Y-108250000I-150000J0D01*
G01*
X106743000Y-108250000D01*
G75*
G02*
X106593000Y-108100000I0J150000D01*
G01*
G37*
%TD.AperFunction*%
%TO.P,U1,5*%
%TO.N,Net-(U1-Pad5)*%
%TA.AperFunction,SMDPad,CuDef*%
G36*
G01*
X106593000Y-109370000D02*
X106593000Y-109070000D01*
G75*
G02*
X106743000Y-108920000I150000J0D01*
G01*
X108493000Y-108920000D01*
G75*
G02*
X108643000Y-109070000I0J-150000D01*
G01*
X108643000Y-109370000D01*
G75*
G02*
X108493000Y-109520000I-150000J0D01*
G01*
X106743000Y-109520000D01*
G75*
G02*
X106593000Y-109370000I0J150000D01*
G01*
G37*
%TD.AperFunction*%
%TO.P,U1,6*%
%TO.N,Net-(U1-Pad6)*%
%TA.AperFunction,SMDPad,CuDef*%
G36*
G01*
X106593000Y-110640000D02*
X106593000Y-110340000D01*
G75*
G02*
X106743000Y-110190000I150000J0D01*
G01*
X108493000Y-110190000D01*
G75*
G02*
X108643000Y-110340000I0J-150000D01*
G01*
X108643000Y-110640000D01*
G75*
G02*
X108493000Y-110790000I-150000J0D01*
G01*
X106743000Y-110790000D01*
G75*
G02*
X106593000Y-110640000I0J150000D01*
G01*
G37*
%TD.AperFunction*%
%TO.P,U1,7*%
%TO.N,Net-(C2-Pad1)*%
%TA.AperFunction,SMDPad,CuDef*%
G36*
G01*
X106593000Y-111910000D02*
X106593000Y-111610000D01*
G75*
G02*
X106743000Y-111460000I150000J0D01*
G01*
X108493000Y-111460000D01*
G75*
G02*
X108643000Y-111610000I0J-150000D01*
G01*
X108643000Y-111910000D01*
G75*
G02*
X108493000Y-112060000I-150000J0D01*
G01*
X106743000Y-112060000D01*
G75*
G02*
X106593000Y-111910000I0J150000D01*
G01*
G37*
%TD.AperFunction*%
%TO.P,U1,8*%
%TO.N,Net-(C1-Pad1)*%
%TA.AperFunction,SMDPad,CuDef*%
G36*
G01*
X106593000Y-113180000D02*
X106593000Y-112880000D01*
G75*
G02*
X106743000Y-112730000I150000J0D01*
G01*
X108493000Y-112730000D01*
G75*
G02*
X108643000Y-112880000I0J-150000D01*
G01*
X108643000Y-113180000D01*
G75*
G02*
X108493000Y-113330000I-150000J0D01*
G01*
X106743000Y-113330000D01*
G75*
G02*
X106593000Y-113180000I0J150000D01*
G01*
G37*
%TD.AperFunction*%
%TO.P,U1,9*%
%TO.N,GND*%
%TA.AperFunction,SMDPad,CuDef*%
G36*
G01*
X106593000Y-114450000D02*
X106593000Y-114150000D01*
G75*
G02*
X106743000Y-114000000I150000J0D01*
G01*
X108493000Y-114000000D01*
G75*
G02*
X108643000Y-114150000I0J-150000D01*
G01*
X108643000Y-114450000D01*
G75*
G02*
X108493000Y-114600000I-150000J0D01*
G01*
X106743000Y-114600000D01*
G75*
G02*
X106593000Y-114450000I0J150000D01*
G01*
G37*
%TD.AperFunction*%
%TO.P,U1,10*%
%TO.N,Net-(U1-Pad10)*%
%TA.AperFunction,SMDPad,CuDef*%
G36*
G01*
X115893000Y-114450000D02*
X115893000Y-114150000D01*
G75*
G02*
X116043000Y-114000000I150000J0D01*
G01*
X117793000Y-114000000D01*
G75*
G02*
X117943000Y-114150000I0J-150000D01*
G01*
X117943000Y-114450000D01*
G75*
G02*
X117793000Y-114600000I-150000J0D01*
G01*
X116043000Y-114600000D01*
G75*
G02*
X115893000Y-114450000I0J150000D01*
G01*
G37*
%TD.AperFunction*%
%TO.P,U1,11*%
%TO.N,Net-(U1-Pad11)*%
%TA.AperFunction,SMDPad,CuDef*%
G36*
G01*
X115893000Y-113180000D02*
X115893000Y-112880000D01*
G75*
G02*
X116043000Y-112730000I150000J0D01*
G01*
X117793000Y-112730000D01*
G75*
G02*
X117943000Y-112880000I0J-150000D01*
G01*
X117943000Y-113180000D01*
G75*
G02*
X117793000Y-113330000I-150000J0D01*
G01*
X116043000Y-113330000D01*
G75*
G02*
X115893000Y-113180000I0J150000D01*
G01*
G37*
%TD.AperFunction*%
%TO.P,U1,12*%
%TO.N,Net-(U1-Pad12)*%
%TA.AperFunction,SMDPad,CuDef*%
G36*
G01*
X115893000Y-111910000D02*
X115893000Y-111610000D01*
G75*
G02*
X116043000Y-111460000I150000J0D01*
G01*
X117793000Y-111460000D01*
G75*
G02*
X117943000Y-111610000I0J-150000D01*
G01*
X117943000Y-111910000D01*
G75*
G02*
X117793000Y-112060000I-150000J0D01*
G01*
X116043000Y-112060000D01*
G75*
G02*
X115893000Y-111910000I0J150000D01*
G01*
G37*
%TD.AperFunction*%
%TO.P,U1,13*%
%TO.N,AT_SCK*%
%TA.AperFunction,SMDPad,CuDef*%
G36*
G01*
X115893000Y-110640000D02*
X115893000Y-110340000D01*
G75*
G02*
X116043000Y-110190000I150000J0D01*
G01*
X117793000Y-110190000D01*
G75*
G02*
X117943000Y-110340000I0J-150000D01*
G01*
X117943000Y-110640000D01*
G75*
G02*
X117793000Y-110790000I-150000J0D01*
G01*
X116043000Y-110790000D01*
G75*
G02*
X115893000Y-110640000I0J150000D01*
G01*
G37*
%TD.AperFunction*%
%TO.P,U1,14*%
%TO.N,AT_MOSI*%
%TA.AperFunction,SMDPad,CuDef*%
G36*
G01*
X115893000Y-109370000D02*
X115893000Y-109070000D01*
G75*
G02*
X116043000Y-108920000I150000J0D01*
G01*
X117793000Y-108920000D01*
G75*
G02*
X117943000Y-109070000I0J-150000D01*
G01*
X117943000Y-109370000D01*
G75*
G02*
X117793000Y-109520000I-150000J0D01*
G01*
X116043000Y-109520000D01*
G75*
G02*
X115893000Y-109370000I0J150000D01*
G01*
G37*
%TD.AperFunction*%
%TO.P,U1,15*%
%TO.N,AT_MISO*%
%TA.AperFunction,SMDPad,CuDef*%
G36*
G01*
X115893000Y-108100000D02*
X115893000Y-107800000D01*
G75*
G02*
X116043000Y-107650000I150000J0D01*
G01*
X117793000Y-107650000D01*
G75*
G02*
X117943000Y-107800000I0J-150000D01*
G01*
X117943000Y-108100000D01*
G75*
G02*
X117793000Y-108250000I-150000J0D01*
G01*
X116043000Y-108250000D01*
G75*
G02*
X115893000Y-108100000I0J150000D01*
G01*
G37*
%TD.AperFunction*%
%TO.P,U1,16*%
%TO.N,AT_CS*%
%TA.AperFunction,SMDPad,CuDef*%
G36*
G01*
X115893000Y-106830000D02*
X115893000Y-106530000D01*
G75*
G02*
X116043000Y-106380000I150000J0D01*
G01*
X117793000Y-106380000D01*
G75*
G02*
X117943000Y-106530000I0J-150000D01*
G01*
X117943000Y-106830000D01*
G75*
G02*
X117793000Y-106980000I-150000J0D01*
G01*
X116043000Y-106980000D01*
G75*
G02*
X115893000Y-106830000I0J150000D01*
G01*
G37*
%TD.AperFunction*%
%TO.P,U1,17*%
%TO.N,Net-(R2-Pad2)*%
%TA.AperFunction,SMDPad,CuDef*%
G36*
G01*
X115893000Y-105560000D02*
X115893000Y-105260000D01*
G75*
G02*
X116043000Y-105110000I150000J0D01*
G01*
X117793000Y-105110000D01*
G75*
G02*
X117943000Y-105260000I0J-150000D01*
G01*
X117943000Y-105560000D01*
G75*
G02*
X117793000Y-105710000I-150000J0D01*
G01*
X116043000Y-105710000D01*
G75*
G02*
X115893000Y-105560000I0J150000D01*
G01*
G37*
%TD.AperFunction*%
%TO.P,U1,18*%
%TO.N,+5V*%
%TA.AperFunction,SMDPad,CuDef*%
G36*
G01*
X115893000Y-104290000D02*
X115893000Y-103990000D01*
G75*
G02*
X116043000Y-103840000I150000J0D01*
G01*
X117793000Y-103840000D01*
G75*
G02*
X117943000Y-103990000I0J-150000D01*
G01*
X117943000Y-104290000D01*
G75*
G02*
X117793000Y-104440000I-150000J0D01*
G01*
X116043000Y-104440000D01*
G75*
G02*
X115893000Y-104290000I0J150000D01*
G01*
G37*
%TD.AperFunction*%
%TD*%
%TO.P,U2,1*%
%TO.N,Net-(U1-Pad1)*%
%TA.AperFunction,SMDPad,CuDef*%
G36*
G01*
X99845000Y-112670000D02*
X99545000Y-112670000D01*
G75*
G02*
X99395000Y-112520000I0J150000D01*
G01*
X99395000Y-110870000D01*
G75*
G02*
X99545000Y-110720000I150000J0D01*
G01*
X99845000Y-110720000D01*
G75*
G02*
X99995000Y-110870000I0J-150000D01*
G01*
X99995000Y-112520000D01*
G75*
G02*
X99845000Y-112670000I-150000J0D01*
G01*
G37*
%TD.AperFunction*%
%TO.P,U2,2*%
%TO.N,GND*%
%TA.AperFunction,SMDPad,CuDef*%
G36*
G01*
X101115000Y-112670000D02*
X100815000Y-112670000D01*
G75*
G02*
X100665000Y-112520000I0J150000D01*
G01*
X100665000Y-110870000D01*
G75*
G02*
X100815000Y-110720000I150000J0D01*
G01*
X101115000Y-110720000D01*
G75*
G02*
X101265000Y-110870000I0J-150000D01*
G01*
X101265000Y-112520000D01*
G75*
G02*
X101115000Y-112670000I-150000J0D01*
G01*
G37*
%TD.AperFunction*%
%TO.P,U2,3*%
%TO.N,+5V*%
%TA.AperFunction,SMDPad,CuDef*%
G36*
G01*
X102385000Y-112670000D02*
X102085000Y-112670000D01*
G75*
G02*
X101935000Y-112520000I0J150000D01*
G01*
X101935000Y-110870000D01*
G75*
G02*
X102085000Y-110720000I150000J0D01*
G01*
X102385000Y-110720000D01*
G75*
G02*
X102535000Y-110870000I0J-150000D01*
G01*
X102535000Y-112520000D01*
G75*
G02*
X102385000Y-112670000I-150000J0D01*
G01*
G37*
%TD.AperFunction*%
%TO.P,U2,4*%
%TO.N,Net-(U1-Pad2)*%
%TA.AperFunction,SMDPad,CuDef*%
G36*
G01*
X103655000Y-112670000D02*
X103355000Y-112670000D01*
G75*
G02*
X103205000Y-112520000I0J150000D01*
G01*
X103205000Y-110870000D01*
G75*
G02*
X103355000Y-110720000I150000J0D01*
G01*
X103655000Y-110720000D01*
G75*
G02*
X103805000Y-110870000I0J-150000D01*
G01*
X103805000Y-112520000D01*
G75*
G02*
X103655000Y-112670000I-150000J0D01*
G01*
G37*
%TD.AperFunction*%
%TO.P,U2,5*%
%TO.N,Net-(U2-Pad5)*%
%TA.AperFunction,SMDPad,CuDef*%
G36*
G01*
X103655000Y-107720000D02*
X103355000Y-107720000D01*
G75*
G02*
X103205000Y-107570000I0J150000D01*
G01*
X103205000Y-105920000D01*
G75*
G02*
X103355000Y-105770000I150000J0D01*
G01*
X103655000Y-105770000D01*
G75*
G02*
X103805000Y-105920000I0J-150000D01*
G01*
X103805000Y-107570000D01*
G75*
G02*
X103655000Y-107720000I-150000J0D01*
G01*
G37*
%TD.AperFunction*%
%TO.P,U2,6*%
%TO.N,Net-(J1-Pad2)*%
%TA.AperFunction,SMDPad,CuDef*%
G36*
G01*
X102385000Y-107720000D02*
X102085000Y-107720000D01*
G75*
G02*
X101935000Y-107570000I0J150000D01*
G01*
X101935000Y-105920000D01*
G75*
G02*
X102085000Y-105770000I150000J0D01*
G01*
X102385000Y-105770000D01*
G75*
G02*
X102535000Y-105920000I0J-150000D01*
G01*
X102535000Y-107570000D01*
G75*
G02*
X102385000Y-107720000I-150000J0D01*
G01*
G37*
%TD.AperFunction*%
%TO.P,U2,7*%
%TO.N,Net-(J1-Pad1)*%
%TA.AperFunction,SMDPad,CuDef*%
G36*
G01*
X101115000Y-107720000D02*
X100815000Y-107720000D01*
G75*
G02*
X100665000Y-107570000I0J150000D01*
G01*
X100665000Y-105920000D01*
G75*
G02*
X100815000Y-105770000I150000J0D01*
G01*
X101115000Y-105770000D01*
G75*
G02*
X101265000Y-105920000I0J-150000D01*
G01*
X101265000Y-107570000D01*
G75*
G02*
X101115000Y-107720000I-150000J0D01*
G01*
G37*
%TD.AperFunction*%
%TO.P,U2,8*%
%TO.N,GND*%
%TA.AperFunction,SMDPad,CuDef*%
G36*
G01*
X99845000Y-107720000D02*
X99545000Y-107720000D01*
G75*
G02*
X99395000Y-107570000I0J150000D01*
G01*
X99395000Y-105920000D01*
G75*
G02*
X99545000Y-105770000I150000J0D01*
G01*
X99845000Y-105770000D01*
G75*
G02*
X99995000Y-105920000I0J-150000D01*
G01*
X99995000Y-107570000D01*
G75*
G02*
X99845000Y-107720000I-150000J0D01*
G01*
G37*
%TD.AperFunction*%
%TD*%
D17*
%TO.P,U3,1*%
%TO.N,BUCK_BST*%
X92288000Y-107254000D03*
%TO.P,U3,2*%
%TO.N,GND*%
X92288000Y-108204000D03*
%TO.P,U3,3*%
%TO.N,BUCK_FB*%
X92288000Y-109154000D03*
%TO.P,U3,4*%
%TO.N,BUCK_EN*%
X94488000Y-109154000D03*
%TO.P,U3,6*%
%TO.N,BUCK_SW*%
X94488000Y-107254000D03*
%TO.P,U3,5*%
%TO.N,BUCK_IN*%
X94488000Y-108204000D03*
%TD*%
D18*
%TO.P,U4,1*%
%TO.N,AT_RESET*%
X156972000Y-98552000D03*
D19*
%TO.P,U4,15*%
%TO.N,AT_D9*%
X164592000Y-131572000D03*
%TO.P,U4,2*%
%TO.N,328_RX*%
X156972000Y-101092000D03*
%TO.P,U4,16*%
%TO.N,AT_CS*%
X164592000Y-129032000D03*
%TO.P,U4,3*%
%TO.N,328_TX*%
X156972000Y-103632000D03*
%TO.P,U4,17*%
%TO.N,AT_MOSI*%
X164592000Y-126492000D03*
%TO.P,U4,4*%
%TO.N,AT_D2*%
X156972000Y-106172000D03*
%TO.P,U4,18*%
%TO.N,AT_MISO*%
X164592000Y-123952000D03*
%TO.P,U4,5*%
%TO.N,AT_D3*%
X156972000Y-108712000D03*
%TO.P,U4,19*%
%TO.N,AT_SCK*%
X164592000Y-121412000D03*
%TO.P,U4,6*%
%TO.N,AT_D4*%
X156972000Y-111252000D03*
%TO.P,U4,20*%
%TO.N,+5V*%
X164592000Y-118872000D03*
%TO.P,U4,7*%
X156972000Y-113792000D03*
%TO.P,U4,21*%
X164592000Y-116332000D03*
%TO.P,U4,8*%
%TO.N,GND*%
X156972000Y-116332000D03*
%TO.P,U4,22*%
X164592000Y-113792000D03*
%TO.P,U4,9*%
%TO.N,AT_OSC1*%
X156972000Y-118872000D03*
%TO.P,U4,23*%
%TO.N,AT_A0*%
X164592000Y-111252000D03*
%TO.P,U4,10*%
%TO.N,AT_OSC2*%
X156972000Y-121412000D03*
%TO.P,U4,24*%
%TO.N,AT_A1*%
X164592000Y-108712000D03*
%TO.P,U4,11*%
%TO.N,AT_D5*%
X156972000Y-123952000D03*
%TO.P,U4,25*%
%TO.N,AT_A2*%
X164592000Y-106172000D03*
%TO.P,U4,12*%
%TO.N,AT_D6*%
X156972000Y-126492000D03*
%TO.P,U4,26*%
%TO.N,AT_A3*%
X164592000Y-103632000D03*
%TO.P,U4,13*%
%TO.N,AT_D7*%
X156972000Y-129032000D03*
%TO.P,U4,27*%
%TO.N,AT_A4*%
X164592000Y-101092000D03*
%TO.P,U4,14*%
%TO.N,AT_D8*%
X156972000Y-131572000D03*
%TO.P,U4,28*%
%TO.N,AT_A5*%
X164592000Y-98552000D03*
%TD*%
%TO.P,U5,1*%
%TO.N,AT_D2*%
%TA.AperFunction,SMDPad,CuDef*%
G36*
G01*
X119318000Y-121054000D02*
X119318000Y-120754000D01*
G75*
G02*
X119468000Y-120604000I150000J0D01*
G01*
X120918000Y-120604000D01*
G75*
G02*
X121068000Y-120754000I0J-150000D01*
G01*
X121068000Y-121054000D01*
G75*
G02*
X120918000Y-121204000I-150000J0D01*
G01*
X119468000Y-121204000D01*
G75*
G02*
X119318000Y-121054000I0J150000D01*
G01*
G37*
%TD.AperFunction*%
%TO.P,U5,2*%
%TO.N,AT_D3*%
%TA.AperFunction,SMDPad,CuDef*%
G36*
G01*
X119318000Y-122324000D02*
X119318000Y-122024000D01*
G75*
G02*
X119468000Y-121874000I150000J0D01*
G01*
X120918000Y-121874000D01*
G75*
G02*
X121068000Y-122024000I0J-150000D01*
G01*
X121068000Y-122324000D01*
G75*
G02*
X120918000Y-122474000I-150000J0D01*
G01*
X119468000Y-122474000D01*
G75*
G02*
X119318000Y-122324000I0J150000D01*
G01*
G37*
%TD.AperFunction*%
%TO.P,U5,3*%
%TO.N,AT_D4*%
%TA.AperFunction,SMDPad,CuDef*%
G36*
G01*
X119318000Y-123594000D02*
X119318000Y-123294000D01*
G75*
G02*
X119468000Y-123144000I150000J0D01*
G01*
X120918000Y-123144000D01*
G75*
G02*
X121068000Y-123294000I0J-150000D01*
G01*
X121068000Y-123594000D01*
G75*
G02*
X120918000Y-123744000I-150000J0D01*
G01*
X119468000Y-123744000D01*
G75*
G02*
X119318000Y-123594000I0J150000D01*
G01*
G37*
%TD.AperFunction*%
%TO.P,U5,4*%
%TO.N,Net-(U5-Pad4)*%
%TA.AperFunction,SMDPad,CuDef*%
G36*
G01*
X119318000Y-124864000D02*
X119318000Y-124564000D01*
G75*
G02*
X119468000Y-124414000I150000J0D01*
G01*
X120918000Y-124414000D01*
G75*
G02*
X121068000Y-124564000I0J-150000D01*
G01*
X121068000Y-124864000D01*
G75*
G02*
X120918000Y-125014000I-150000J0D01*
G01*
X119468000Y-125014000D01*
G75*
G02*
X119318000Y-124864000I0J150000D01*
G01*
G37*
%TD.AperFunction*%
%TO.P,U5,5*%
%TO.N,Net-(U5-Pad5)*%
%TA.AperFunction,SMDPad,CuDef*%
G36*
G01*
X119318000Y-126134000D02*
X119318000Y-125834000D01*
G75*
G02*
X119468000Y-125684000I150000J0D01*
G01*
X120918000Y-125684000D01*
G75*
G02*
X121068000Y-125834000I0J-150000D01*
G01*
X121068000Y-126134000D01*
G75*
G02*
X120918000Y-126284000I-150000J0D01*
G01*
X119468000Y-126284000D01*
G75*
G02*
X119318000Y-126134000I0J150000D01*
G01*
G37*
%TD.AperFunction*%
%TO.P,U5,6*%
%TO.N,Net-(U5-Pad6)*%
%TA.AperFunction,SMDPad,CuDef*%
G36*
G01*
X119318000Y-127404000D02*
X119318000Y-127104000D01*
G75*
G02*
X119468000Y-126954000I150000J0D01*
G01*
X120918000Y-126954000D01*
G75*
G02*
X121068000Y-127104000I0J-150000D01*
G01*
X121068000Y-127404000D01*
G75*
G02*
X120918000Y-127554000I-150000J0D01*
G01*
X119468000Y-127554000D01*
G75*
G02*
X119318000Y-127404000I0J150000D01*
G01*
G37*
%TD.AperFunction*%
%TO.P,U5,7*%
%TO.N,Net-(U5-Pad7)*%
%TA.AperFunction,SMDPad,CuDef*%
G36*
G01*
X119318000Y-128674000D02*
X119318000Y-128374000D01*
G75*
G02*
X119468000Y-128224000I150000J0D01*
G01*
X120918000Y-128224000D01*
G75*
G02*
X121068000Y-128374000I0J-150000D01*
G01*
X121068000Y-128674000D01*
G75*
G02*
X120918000Y-128824000I-150000J0D01*
G01*
X119468000Y-128824000D01*
G75*
G02*
X119318000Y-128674000I0J150000D01*
G01*
G37*
%TD.AperFunction*%
%TO.P,U5,8*%
%TO.N,Net-(U5-Pad8)*%
%TA.AperFunction,SMDPad,CuDef*%
G36*
G01*
X119318000Y-129944000D02*
X119318000Y-129644000D01*
G75*
G02*
X119468000Y-129494000I150000J0D01*
G01*
X120918000Y-129494000D01*
G75*
G02*
X121068000Y-129644000I0J-150000D01*
G01*
X121068000Y-129944000D01*
G75*
G02*
X120918000Y-130094000I-150000J0D01*
G01*
X119468000Y-130094000D01*
G75*
G02*
X119318000Y-129944000I0J150000D01*
G01*
G37*
%TD.AperFunction*%
%TO.P,U5,9*%
%TO.N,GND*%
%TA.AperFunction,SMDPad,CuDef*%
G36*
G01*
X119318000Y-131214000D02*
X119318000Y-130914000D01*
G75*
G02*
X119468000Y-130764000I150000J0D01*
G01*
X120918000Y-130764000D01*
G75*
G02*
X121068000Y-130914000I0J-150000D01*
G01*
X121068000Y-131214000D01*
G75*
G02*
X120918000Y-131364000I-150000J0D01*
G01*
X119468000Y-131364000D01*
G75*
G02*
X119318000Y-131214000I0J150000D01*
G01*
G37*
%TD.AperFunction*%
%TO.P,U5,10*%
%TO.N,12_V_IN*%
%TA.AperFunction,SMDPad,CuDef*%
G36*
G01*
X128868000Y-131214000D02*
X128868000Y-130914000D01*
G75*
G02*
X129018000Y-130764000I150000J0D01*
G01*
X130468000Y-130764000D01*
G75*
G02*
X130618000Y-130914000I0J-150000D01*
G01*
X130618000Y-131214000D01*
G75*
G02*
X130468000Y-131364000I-150000J0D01*
G01*
X129018000Y-131364000D01*
G75*
G02*
X128868000Y-131214000I0J150000D01*
G01*
G37*
%TD.AperFunction*%
%TO.P,U5,11*%
%TO.N,Net-(U5-Pad11)*%
%TA.AperFunction,SMDPad,CuDef*%
G36*
G01*
X128868000Y-129944000D02*
X128868000Y-129644000D01*
G75*
G02*
X129018000Y-129494000I150000J0D01*
G01*
X130468000Y-129494000D01*
G75*
G02*
X130618000Y-129644000I0J-150000D01*
G01*
X130618000Y-129944000D01*
G75*
G02*
X130468000Y-130094000I-150000J0D01*
G01*
X129018000Y-130094000D01*
G75*
G02*
X128868000Y-129944000I0J150000D01*
G01*
G37*
%TD.AperFunction*%
%TO.P,U5,12*%
%TO.N,Net-(U5-Pad12)*%
%TA.AperFunction,SMDPad,CuDef*%
G36*
G01*
X128868000Y-128674000D02*
X128868000Y-128374000D01*
G75*
G02*
X129018000Y-128224000I150000J0D01*
G01*
X130468000Y-128224000D01*
G75*
G02*
X130618000Y-128374000I0J-150000D01*
G01*
X130618000Y-128674000D01*
G75*
G02*
X130468000Y-128824000I-150000J0D01*
G01*
X129018000Y-128824000D01*
G75*
G02*
X128868000Y-128674000I0J150000D01*
G01*
G37*
%TD.AperFunction*%
%TO.P,U5,13*%
%TO.N,Net-(U5-Pad13)*%
%TA.AperFunction,SMDPad,CuDef*%
G36*
G01*
X128868000Y-127404000D02*
X128868000Y-127104000D01*
G75*
G02*
X129018000Y-126954000I150000J0D01*
G01*
X130468000Y-126954000D01*
G75*
G02*
X130618000Y-127104000I0J-150000D01*
G01*
X130618000Y-127404000D01*
G75*
G02*
X130468000Y-127554000I-150000J0D01*
G01*
X129018000Y-127554000D01*
G75*
G02*
X128868000Y-127404000I0J150000D01*
G01*
G37*
%TD.AperFunction*%
%TO.P,U5,14*%
%TO.N,Net-(U5-Pad14)*%
%TA.AperFunction,SMDPad,CuDef*%
G36*
G01*
X128868000Y-126134000D02*
X128868000Y-125834000D01*
G75*
G02*
X129018000Y-125684000I150000J0D01*
G01*
X130468000Y-125684000D01*
G75*
G02*
X130618000Y-125834000I0J-150000D01*
G01*
X130618000Y-126134000D01*
G75*
G02*
X130468000Y-126284000I-150000J0D01*
G01*
X129018000Y-126284000D01*
G75*
G02*
X128868000Y-126134000I0J150000D01*
G01*
G37*
%TD.AperFunction*%
%TO.P,U5,15*%
%TO.N,Net-(U5-Pad15)*%
%TA.AperFunction,SMDPad,CuDef*%
G36*
G01*
X128868000Y-124864000D02*
X128868000Y-124564000D01*
G75*
G02*
X129018000Y-124414000I150000J0D01*
G01*
X130468000Y-124414000D01*
G75*
G02*
X130618000Y-124564000I0J-150000D01*
G01*
X130618000Y-124864000D01*
G75*
G02*
X130468000Y-125014000I-150000J0D01*
G01*
X129018000Y-125014000D01*
G75*
G02*
X128868000Y-124864000I0J150000D01*
G01*
G37*
%TD.AperFunction*%
%TO.P,U5,16*%
%TO.N,ULN2803_OUT_3*%
%TA.AperFunction,SMDPad,CuDef*%
G36*
G01*
X128868000Y-123594000D02*
X128868000Y-123294000D01*
G75*
G02*
X129018000Y-123144000I150000J0D01*
G01*
X130468000Y-123144000D01*
G75*
G02*
X130618000Y-123294000I0J-150000D01*
G01*
X130618000Y-123594000D01*
G75*
G02*
X130468000Y-123744000I-150000J0D01*
G01*
X129018000Y-123744000D01*
G75*
G02*
X128868000Y-123594000I0J150000D01*
G01*
G37*
%TD.AperFunction*%
%TO.P,U5,17*%
%TO.N,ULN2803_OUT_2*%
%TA.AperFunction,SMDPad,CuDef*%
G36*
G01*
X128868000Y-122324000D02*
X128868000Y-122024000D01*
G75*
G02*
X129018000Y-121874000I150000J0D01*
G01*
X130468000Y-121874000D01*
G75*
G02*
X130618000Y-122024000I0J-150000D01*
G01*
X130618000Y-122324000D01*
G75*
G02*
X130468000Y-122474000I-150000J0D01*
G01*
X129018000Y-122474000D01*
G75*
G02*
X128868000Y-122324000I0J150000D01*
G01*
G37*
%TD.AperFunction*%
%TO.P,U5,18*%
%TO.N,ULN2803_OUT_1*%
%TA.AperFunction,SMDPad,CuDef*%
G36*
G01*
X128868000Y-121054000D02*
X128868000Y-120754000D01*
G75*
G02*
X129018000Y-120604000I150000J0D01*
G01*
X130468000Y-120604000D01*
G75*
G02*
X130618000Y-120754000I0J-150000D01*
G01*
X130618000Y-121054000D01*
G75*
G02*
X130468000Y-121204000I-150000J0D01*
G01*
X129018000Y-121204000D01*
G75*
G02*
X128868000Y-121054000I0J150000D01*
G01*
G37*
%TD.AperFunction*%
%TD*%
D16*
%TO.P,U6,1*%
%TO.N,GND*%
X127000000Y-106172000D03*
%TO.P,U6,2*%
%TO.N,+3V3*%
X127000000Y-104272000D03*
%TO.P,U6,3*%
%TO.N,+5V*%
X125000000Y-105222000D03*
%TD*%
D20*
%TO.P,Y1,1*%
%TO.N,Net-(C1-Pad1)*%
X114300000Y-125300000D03*
%TO.P,Y1,2*%
%TO.N,Net-(C2-Pad1)*%
X112100000Y-125300000D03*
%TO.P,Y1,3*%
%TO.N,N/C*%
X112100000Y-127000000D03*
%TO.P,Y1,4*%
X114300000Y-127000000D03*
%TD*%
%TO.P,Y2,4*%
%TO.N,N/C*%
X135890000Y-116254000D03*
%TO.P,Y2,3*%
X133690000Y-116254000D03*
%TO.P,Y2,2*%
%TO.N,AT_OSC2*%
X133690000Y-114554000D03*
%TO.P,Y2,1*%
%TO.N,AT_OSC1*%
X135890000Y-114554000D03*
%TD*%
D14*
%TO.P,J6,6*%
%TO.N,ULN2803_OUT_3*%
X121184000Y-140208000D03*
%TO.P,J6,5*%
%TO.N,12_V_IN*%
X124684000Y-140208000D03*
%TO.P,J6,4*%
%TO.N,ULN2803_OUT_2*%
X128184000Y-140208000D03*
%TO.P,J6,3*%
%TO.N,12_V_IN*%
X131684000Y-140208000D03*
%TO.P,J6,2*%
%TO.N,ULN2803_OUT_1*%
X135184000Y-140208000D03*
D13*
%TO.P,J6,1*%
%TO.N,12_V_IN*%
X138684000Y-140208000D03*
%TD*%
D21*
%TO.N,GND*%
X149923500Y-110680500D03*
X85661500Y-117856000D03*
X105664000Y-102489000D03*
X90868500Y-96393000D03*
X86677500Y-100076000D03*
X86804500Y-104648000D03*
X91059000Y-108267500D03*
X98679000Y-102108000D03*
X101028500Y-113538000D03*
X107442000Y-115824000D03*
X118173500Y-131064000D03*
X109855000Y-128778000D03*
X109728000Y-124460000D03*
X147256500Y-121158000D03*
X139890500Y-125920500D03*
X139509500Y-112585500D03*
X143891000Y-112585500D03*
X129159000Y-105156000D03*
X123190000Y-116649500D03*
X127508000Y-116840000D03*
X98425000Y-106426000D03*
X89217500Y-107759500D03*
X90805000Y-97536000D03*
X87757000Y-103060500D03*
X86677500Y-101092000D03*
X85661500Y-118999000D03*
%TO.N,AT_OSC1*%
X128651000Y-118046500D03*
X134366000Y-118046500D03*
X138430000Y-117792500D03*
X154221101Y-118616439D03*
%TO.N,AT_OSC2*%
X133223000Y-119392000D03*
X155067000Y-121539000D03*
%TO.N,+5V*%
X145288000Y-110744000D03*
X102679500Y-113601500D03*
X95694500Y-99504500D03*
X123825000Y-105219500D03*
X141478000Y-116840000D03*
X136652000Y-131318000D03*
X144399000Y-116903500D03*
X146812000Y-113855500D03*
X153860500Y-113220500D03*
X144843500Y-105029000D03*
X114808000Y-99060000D03*
X152908000Y-111252000D03*
X121793000Y-103187500D03*
X105664000Y-97790000D03*
X95694500Y-99504500D03*
X94869000Y-98679000D03*
X95440500Y-96329500D03*
%TO.N,Net-(J1-Pad2)*%
X97790000Y-104584500D03*
X99394979Y-114808000D03*
%TO.N,AT_MISO*%
X167259000Y-96520000D03*
X167132000Y-124269500D03*
%TO.N,AT_SCK*%
X154241500Y-120142000D03*
X113792000Y-111696500D03*
%TO.N,AT_MOSI*%
X111252000Y-100584000D03*
X111252000Y-100584000D03*
X168338500Y-126492000D03*
%TO.N,AT_D2*%
X116332000Y-118364000D03*
X150368000Y-106172000D03*
%TO.N,AT_D3*%
X122033935Y-114525603D03*
X150368000Y-107696000D03*
%TO.N,AT_D4*%
X124682903Y-115388365D03*
X150368000Y-109220000D03*
%TD*%
D22*
%TO.N,Net-(C1-Pad1)*%
X114300000Y-119285232D02*
X108044768Y-113030000D01*
X108044768Y-113030000D02*
X107618000Y-113030000D01*
X114300000Y-125300000D02*
X114300000Y-119285232D01*
D23*
X106558000Y-132974000D02*
X106558000Y-129540000D01*
X106743500Y-133159500D02*
X106558000Y-132974000D01*
X112018490Y-130615010D02*
X109474000Y-133159500D01*
X115383990Y-130615010D02*
X112018490Y-130615010D01*
X117411500Y-128587500D02*
X115383990Y-130615010D01*
X117411500Y-125666500D02*
X117411500Y-128587500D01*
X109474000Y-133159500D02*
X106743500Y-133159500D01*
X117045000Y-125300000D02*
X117411500Y-125666500D01*
X114300000Y-125300000D02*
X117045000Y-125300000D01*
D24*
%TO.N,GND*%
X127508000Y-116840000D02*
X127508000Y-115504000D01*
X123190000Y-116649500D02*
X123190000Y-115504000D01*
X129159000Y-105156000D02*
X130556000Y-105156000D01*
X143891000Y-112585500D02*
X143891000Y-113797000D01*
X139509500Y-113225500D02*
X140081000Y-113797000D01*
X139509500Y-112585500D02*
X139509500Y-113225500D01*
X138590500Y-125920500D02*
X138527000Y-125984000D01*
X139890500Y-125920500D02*
X138590500Y-125920500D01*
X145923000Y-122174000D02*
X145923000Y-125730000D01*
D23*
X109728000Y-124460000D02*
X108458000Y-124460000D01*
X109220000Y-128778000D02*
X108458000Y-129540000D01*
X109855000Y-128778000D02*
X109220000Y-128778000D01*
X118173500Y-131064000D02*
X120193000Y-131064000D01*
X107442000Y-114476000D02*
X107618000Y-114300000D01*
X107442000Y-115824000D02*
X107442000Y-114476000D01*
X101028500Y-111758500D02*
X100965000Y-111695000D01*
X101028500Y-113538000D02*
X101028500Y-111758500D01*
X99376000Y-106426000D02*
X99695000Y-106745000D01*
X98425000Y-106426000D02*
X99376000Y-106426000D01*
X98679000Y-100607500D02*
X98655500Y-100584000D01*
X98679000Y-102108000D02*
X98679000Y-100607500D01*
X88073500Y-107759500D02*
X87884000Y-107570000D01*
X89217500Y-107759500D02*
X88073500Y-107759500D01*
X92224500Y-108267500D02*
X92288000Y-108204000D01*
X91059000Y-108267500D02*
X92224500Y-108267500D01*
X86677500Y-100076000D02*
X87850000Y-100076000D01*
X86804500Y-104648000D02*
X88016000Y-104648000D01*
X91953000Y-96393000D02*
X92077500Y-96517500D01*
X90868500Y-96393000D02*
X91953000Y-96393000D01*
X105664000Y-102489000D02*
X105664000Y-101092000D01*
X86818000Y-117856000D02*
X86884000Y-117922000D01*
X85661500Y-117856000D02*
X86818000Y-117856000D01*
X148338500Y-110680500D02*
X148336000Y-110678000D01*
X149923500Y-110680500D02*
X148338500Y-110680500D01*
X156337000Y-115697000D02*
X156972000Y-116332000D01*
X152400000Y-115697000D02*
X156337000Y-115697000D01*
X152395000Y-115692000D02*
X152400000Y-115697000D01*
X148336000Y-115692000D02*
X152395000Y-115692000D01*
X128016000Y-105156000D02*
X127000000Y-106172000D01*
X129159000Y-105156000D02*
X128016000Y-105156000D01*
X146240500Y-122174000D02*
X147256500Y-121158000D01*
X145923000Y-122174000D02*
X146240500Y-122174000D01*
X92077500Y-96517500D02*
X92080000Y-96520000D01*
X91064000Y-97536000D02*
X92080000Y-96520000D01*
X90805000Y-97536000D02*
X91064000Y-97536000D01*
X88016000Y-104648000D02*
X88016000Y-104648000D01*
X87757000Y-104389000D02*
X88016000Y-104648000D01*
X87757000Y-103060500D02*
X87757000Y-104389000D01*
X87850000Y-100076000D02*
X87850000Y-100076000D01*
X86834000Y-101092000D02*
X87850000Y-100076000D01*
X86677500Y-101092000D02*
X86834000Y-101092000D01*
X86884000Y-117922000D02*
X86884000Y-117922000D01*
X85807000Y-118999000D02*
X86884000Y-117922000D01*
X85661500Y-118999000D02*
X85807000Y-118999000D01*
D22*
%TO.N,Net-(C2-Pad1)*%
X106059171Y-112293829D02*
X106593000Y-111760000D01*
X106593000Y-111760000D02*
X107618000Y-111760000D01*
X106059171Y-123961171D02*
X106059171Y-112293829D01*
X106558000Y-124460000D02*
X106059171Y-123961171D01*
X112100000Y-125300000D02*
X111889990Y-125510010D01*
D23*
X112100000Y-125300000D02*
X111174000Y-125300000D01*
X111174000Y-125300000D02*
X109855000Y-126619000D01*
X109855000Y-126619000D02*
X106743500Y-126619000D01*
X106558000Y-126433500D02*
X106558000Y-124460000D01*
X106743500Y-126619000D02*
X106558000Y-126433500D01*
D22*
%TO.N,BUCK_IN*%
X93997998Y-108204000D02*
X94488000Y-108204000D01*
X93596990Y-107802992D02*
X93997998Y-108204000D01*
D25*
X91855000Y-113284000D02*
X92456000Y-112683000D01*
X88392000Y-113284000D02*
X91855000Y-113284000D01*
D24*
X89916000Y-104648000D02*
X89916000Y-106172000D01*
X89916000Y-106172000D02*
X86868000Y-106172000D01*
X85604490Y-107435510D02*
X85604490Y-115068490D01*
X86868000Y-106172000D02*
X85604490Y-107435510D01*
X85604490Y-115068490D02*
X85864980Y-114808000D01*
X86868000Y-114808000D02*
X88392000Y-113284000D01*
X85864980Y-114808000D02*
X86868000Y-114808000D01*
X92456000Y-112683000D02*
X96105000Y-112683000D01*
X96105000Y-112683000D02*
X96520000Y-112268000D01*
X96520000Y-112268000D02*
X96520000Y-109520998D01*
X95203002Y-108204000D02*
X94488000Y-108204000D01*
X96520000Y-109520998D02*
X95203002Y-108204000D01*
D23*
%TO.N,AT_OSC1*%
X123190000Y-113604000D02*
X124208500Y-113604000D01*
X126432990Y-116874992D02*
X127604498Y-118046500D01*
X127604498Y-118046500D02*
X128651000Y-118046500D01*
X126432990Y-115828490D02*
X126432990Y-116874992D01*
X124208500Y-113604000D02*
X126432990Y-115828490D01*
X135659998Y-114554000D02*
X135890000Y-114554000D01*
X134765999Y-115447999D02*
X135659998Y-114554000D01*
X134765999Y-117646501D02*
X134765999Y-115447999D01*
X134366000Y-118046500D02*
X134765999Y-117646501D01*
X135890000Y-114554000D02*
X136652000Y-114554000D01*
X138430000Y-116332000D02*
X138430000Y-117792500D01*
X136652000Y-114554000D02*
X138430000Y-116332000D01*
X156716439Y-118616439D02*
X156972000Y-118872000D01*
X154221101Y-118616439D02*
X156716439Y-118616439D01*
%TO.N,AT_OSC2*%
X128008011Y-113103989D02*
X127508000Y-113604000D01*
X132740000Y-113604000D02*
X133690000Y-114554000D01*
X127508000Y-113604000D02*
X132740000Y-113604000D01*
X132639999Y-114604001D02*
X132639999Y-118987499D01*
X132690000Y-114554000D02*
X132639999Y-114604001D01*
X133690000Y-114554000D02*
X132690000Y-114554000D01*
X133044500Y-119392000D02*
X133223000Y-119392000D01*
X132639999Y-118987499D02*
X133044500Y-119392000D01*
X156845000Y-121539000D02*
X156972000Y-121412000D01*
X155067000Y-121539000D02*
X156845000Y-121539000D01*
%TO.N,+5V*%
X114676000Y-99192000D02*
X114808000Y-99060000D01*
X105664000Y-99192000D02*
X105664000Y-99192000D01*
X154432000Y-111252000D02*
X156972000Y-113792000D01*
X152908000Y-111252000D02*
X154432000Y-111252000D01*
D24*
X146224000Y-105029000D02*
X146304000Y-104949000D01*
X144843500Y-105029000D02*
X146224000Y-105029000D01*
X152976500Y-113220500D02*
X152400000Y-113797000D01*
X153860500Y-113220500D02*
X152976500Y-113220500D01*
X148272500Y-113855500D02*
X148336000Y-113792000D01*
X146812000Y-113855500D02*
X148272500Y-113855500D01*
X144399000Y-116205000D02*
X143891000Y-115697000D01*
X144399000Y-116903500D02*
X144399000Y-116205000D01*
D23*
X141224000Y-116840000D02*
X140081000Y-115697000D01*
X141478000Y-116840000D02*
X141224000Y-116840000D01*
X117219000Y-103839000D02*
X116918000Y-104140000D01*
X120396000Y-103839000D02*
X120316000Y-103839000D01*
X120316000Y-103839000D02*
X117219000Y-103839000D01*
X121047500Y-103187500D02*
X120396000Y-103839000D01*
X121793000Y-103187500D02*
X121047500Y-103187500D01*
X124997500Y-105219500D02*
X125000000Y-105222000D01*
X123825000Y-105219500D02*
X124997500Y-105219500D01*
X95059500Y-99504500D02*
X94615000Y-99949000D01*
X95694500Y-99504500D02*
X95059500Y-99504500D01*
X95694500Y-98234500D02*
X93980000Y-96520000D01*
X95694500Y-99504500D02*
X95694500Y-99504500D01*
X102679500Y-112139500D02*
X102235000Y-111695000D01*
X102679500Y-113601500D02*
X102679500Y-112139500D01*
X105664000Y-99192000D02*
X114676000Y-99192000D01*
X105664000Y-97790000D02*
X105664000Y-96416500D01*
X105664000Y-97790000D02*
X105664000Y-99192000D01*
X145288000Y-110744000D02*
X143764000Y-110744000D01*
X147952500Y-108394500D02*
X148336000Y-108778000D01*
X146748500Y-108394500D02*
X147952500Y-108394500D01*
X145288000Y-109855000D02*
X146748500Y-108394500D01*
X145288000Y-110744000D02*
X145288000Y-109855000D01*
X95694500Y-99504500D02*
X95694500Y-98234500D01*
X94615000Y-99949000D02*
X94488000Y-100076000D01*
X94869000Y-99695000D02*
X94488000Y-100076000D01*
X94869000Y-98679000D02*
X94869000Y-99695000D01*
X93980000Y-96520000D02*
X93980000Y-96520000D01*
X94170500Y-96329500D02*
X93980000Y-96520000D01*
X95440500Y-96329500D02*
X94170500Y-96329500D01*
D22*
X136652000Y-131318000D02*
X136652000Y-129857500D01*
%TO.N,BUCK_SW*%
X94422000Y-107188000D02*
X94488000Y-107254000D01*
X94422000Y-104140000D02*
X94422000Y-107188000D01*
X92363000Y-101356000D02*
X92363000Y-100076000D01*
X94422000Y-103415000D02*
X92363000Y-101356000D01*
X94422000Y-104140000D02*
X94422000Y-103415000D01*
D23*
X92363000Y-100076000D02*
X89950000Y-100076000D01*
D22*
%TO.N,BUCK_BST*%
X92522000Y-107020000D02*
X92288000Y-107254000D01*
X92522000Y-104140000D02*
X92522000Y-107020000D01*
D23*
%TO.N,+3V3*%
X130622000Y-103190000D02*
X130556000Y-103256000D01*
X135144000Y-103190000D02*
X130622000Y-103190000D01*
X128016000Y-103256000D02*
X127000000Y-104272000D01*
X130556000Y-103256000D02*
X128016000Y-103256000D01*
X141224000Y-99568000D02*
X147828000Y-99568000D01*
X135877010Y-100618010D02*
X134827000Y-99568000D01*
X137163036Y-100618010D02*
X135877010Y-100618010D01*
X137514510Y-99891444D02*
X137514510Y-100266536D01*
X138887964Y-98517990D02*
X137514510Y-99891444D01*
X140173990Y-98517990D02*
X138887964Y-98517990D01*
X137514510Y-100266536D02*
X137163036Y-100618010D01*
X141224000Y-99568000D02*
X140173990Y-98517990D01*
X134827000Y-102873000D02*
X135144000Y-103190000D01*
X134827000Y-99568000D02*
X134827000Y-102873000D01*
D22*
%TO.N,Net-(D1-Pad2)*%
X138477000Y-127809000D02*
X136652000Y-125984000D01*
X138477000Y-129857500D02*
X138477000Y-127809000D01*
D23*
%TO.N,Net-(D3-Pad2)*%
X143131990Y-123090010D02*
X144048000Y-122174000D01*
X143131990Y-133606990D02*
X143131990Y-123090010D01*
X143891000Y-134366000D02*
X143131990Y-133606990D01*
%TO.N,Net-(D4-Pad2)*%
X144048000Y-130248500D02*
X143994500Y-130302000D01*
X144048000Y-125730000D02*
X144048000Y-130248500D01*
%TO.N,Net-(F1-Pad1)*%
X91180000Y-118872000D02*
X92456000Y-117596000D01*
X88884000Y-118872000D02*
X91180000Y-118872000D01*
D26*
%TO.N,12_V_IN*%
X122783999Y-142108001D02*
X124684000Y-140208000D01*
X99856259Y-142108001D02*
X122783999Y-142108001D01*
X97794971Y-140046713D02*
X99856259Y-142108001D01*
X97794971Y-136402971D02*
X97794971Y-140046713D01*
X89916000Y-128524000D02*
X97794971Y-136402971D01*
X129783999Y-142108001D02*
X131684000Y-140208000D01*
X126584001Y-142108001D02*
X129783999Y-142108001D01*
X124684000Y-140208000D02*
X126584001Y-142108001D01*
X134271999Y-142108001D02*
X136783999Y-142108001D01*
X136783999Y-142108001D02*
X138684000Y-140208000D01*
X132371998Y-140208000D02*
X134271999Y-142108001D01*
X131684000Y-140208000D02*
X132371998Y-140208000D01*
D24*
X126533999Y-138358001D02*
X124684000Y-140208000D01*
X126533999Y-134273001D02*
X126533999Y-138358001D01*
X129743000Y-131064000D02*
X126533999Y-134273001D01*
D26*
X92456000Y-125984000D02*
X92456000Y-120396000D01*
X89916000Y-128524000D02*
X92456000Y-125984000D01*
D23*
%TO.N,Net-(FB1-Pad2)*%
X91467998Y-114808000D02*
X92456000Y-114808000D01*
X86884000Y-119391998D02*
X91467998Y-114808000D01*
X86884000Y-119822000D02*
X86884000Y-119391998D01*
%TO.N,Net-(J1-Pad1)*%
X100965000Y-106745000D02*
X100965000Y-107950000D01*
X100965000Y-107720000D02*
X99274500Y-109410500D01*
X100965000Y-106745000D02*
X100965000Y-107720000D01*
X99274500Y-109410500D02*
X98234500Y-109410500D01*
X98234500Y-109410500D02*
X97472500Y-110172500D01*
X98644979Y-111344979D02*
X98644979Y-132617479D01*
X97472500Y-110172500D02*
X98644979Y-111344979D01*
X101600000Y-135572500D02*
X101600000Y-139700000D01*
X98644979Y-132617479D02*
X101600000Y-135572500D01*
D22*
%TO.N,Net-(J1-Pad2)*%
X102235000Y-106745000D02*
X102235000Y-105770000D01*
D23*
X102235000Y-105770000D02*
X101049500Y-104584500D01*
X101049500Y-104584500D02*
X97790000Y-104584500D01*
X99394979Y-114808000D02*
X99394979Y-132160979D01*
X105100000Y-137866000D02*
X105100000Y-139700000D01*
X99394979Y-132160979D02*
X105100000Y-137866000D01*
%TO.N,AT_MISO*%
X115542990Y-107599990D02*
X115542990Y-99435012D01*
X115893000Y-107950000D02*
X115542990Y-107599990D01*
X115558001Y-99420001D02*
X115558001Y-83808001D01*
X115542990Y-99435012D02*
X115558001Y-99420001D01*
X116918000Y-107950000D02*
X115893000Y-107950000D01*
X115558001Y-83808001D02*
X116879502Y-82486500D01*
X163996498Y-82486500D02*
X167259000Y-85749002D01*
X116879502Y-82486500D02*
X163996498Y-82486500D01*
X167259000Y-85749002D02*
X167259000Y-96520000D01*
X164909500Y-124269500D02*
X164592000Y-123952000D01*
X167132000Y-124269500D02*
X164909500Y-124269500D01*
X173551999Y-125799999D02*
X174752000Y-127000000D01*
X168662499Y-125799999D02*
X173551999Y-125799999D01*
X167132000Y-124269500D02*
X168662499Y-125799999D01*
%TO.N,AT_SCK*%
X173412001Y-123120001D02*
X174752000Y-124460000D01*
X166300001Y-123120001D02*
X173412001Y-123120001D01*
X164592000Y-121412000D02*
X166300001Y-123120001D01*
X163460630Y-121412000D02*
X162190630Y-120142000D01*
X164592000Y-121412000D02*
X163460630Y-121412000D01*
X162190630Y-120142000D02*
X154241500Y-120142000D01*
X114998500Y-110490000D02*
X116918000Y-110490000D01*
X113792000Y-111696500D02*
X114998500Y-110490000D01*
%TO.N,AT_RESET*%
X173852003Y-109862001D02*
X174752000Y-110761998D01*
X163441999Y-109264001D02*
X164039999Y-109862001D01*
X163441999Y-105021999D02*
X163441999Y-109264001D01*
X174752000Y-110761998D02*
X174752000Y-121920000D01*
X164039999Y-109862001D02*
X173852003Y-109862001D01*
X156972000Y-98552000D02*
X163441999Y-105021999D01*
%TO.N,AT_MOSI*%
X116918000Y-109220000D02*
X115893000Y-109220000D01*
X116455876Y-109220000D02*
X111252000Y-104016124D01*
X116918000Y-109220000D02*
X116455876Y-109220000D01*
X111252000Y-104016124D02*
X111252000Y-100584000D01*
X168338500Y-126492000D02*
X164592000Y-126492000D01*
X172919120Y-124460000D02*
X172212000Y-124460000D01*
X174259110Y-125799990D02*
X172919120Y-124460000D01*
X175600536Y-125799990D02*
X174259110Y-125799990D01*
X175952010Y-126151464D02*
X175600536Y-125799990D01*
X175600536Y-128200010D02*
X175952010Y-127848536D01*
X170046510Y-128200010D02*
X175600536Y-128200010D01*
X175952010Y-127848536D02*
X175952010Y-126151464D01*
X168338500Y-126492000D02*
X170046510Y-128200010D01*
%TO.N,AT_D7*%
X154940000Y-131064000D02*
X156972000Y-129032000D01*
X154940000Y-139700000D02*
X154940000Y-131064000D01*
%TO.N,AT_D8*%
X158440000Y-133040000D02*
X156972000Y-131572000D01*
X158440000Y-139700000D02*
X158440000Y-133040000D01*
X157771999Y-132371999D02*
X156972000Y-131572000D01*
X161195999Y-141250001D02*
X157771999Y-137826001D01*
X165742001Y-138192001D02*
X162684001Y-141250001D01*
X162684001Y-141250001D02*
X161195999Y-141250001D01*
X165742001Y-131019999D02*
X165742001Y-138192001D01*
X157771999Y-137826001D02*
X157771999Y-132371999D01*
X164149119Y-130421999D02*
X165144001Y-130421999D01*
X146969501Y-129151999D02*
X161736119Y-129151999D01*
X165144001Y-130421999D02*
X165742001Y-131019999D01*
X145819500Y-130302000D02*
X146969501Y-129151999D01*
X161736119Y-129151999D02*
X161736119Y-128014381D01*
X161736119Y-128014381D02*
X161738810Y-128011690D01*
X161738810Y-128011690D02*
X164149119Y-130421999D01*
X161609119Y-127881999D02*
X161738810Y-128011690D01*
%TO.N,AT_D9*%
X161940000Y-134224000D02*
X164592000Y-131572000D01*
X161940000Y-139700000D02*
X161940000Y-134224000D01*
X163441999Y-130421999D02*
X164592000Y-131572000D01*
X155821999Y-131019999D02*
X156419999Y-130421999D01*
X156490001Y-132792003D02*
X155821999Y-132124001D01*
X155821999Y-132124001D02*
X155821999Y-131019999D01*
X153043001Y-141250001D02*
X156420001Y-141250001D01*
X156420001Y-141250001D02*
X156490001Y-141180001D01*
X145716000Y-135066000D02*
X153170001Y-142520001D01*
X156419999Y-130421999D02*
X163441999Y-130421999D01*
X156490001Y-141180001D02*
X156490001Y-132792003D01*
X145716000Y-134366000D02*
X145716000Y-135066000D01*
%TO.N,AT_A0*%
X172212000Y-111252000D02*
X172720000Y-111760000D01*
X164592000Y-111252000D02*
X172212000Y-111252000D01*
%TO.N,AT_A1*%
X172268000Y-108712000D02*
X172720000Y-108260000D01*
X164592000Y-108712000D02*
X172268000Y-108712000D01*
%TO.N,AT_A2*%
X171308000Y-106172000D02*
X172720000Y-104760000D01*
X164592000Y-106172000D02*
X171308000Y-106172000D01*
%TO.N,AT_A3*%
X170348000Y-103632000D02*
X172720000Y-101260000D01*
X164592000Y-103632000D02*
X170348000Y-103632000D01*
%TO.N,AT_A4*%
X169388000Y-101092000D02*
X172720000Y-97760000D01*
X164592000Y-101092000D02*
X169388000Y-101092000D01*
%TO.N,AT_A5*%
X168428000Y-98552000D02*
X172720000Y-94260000D01*
X164592000Y-98552000D02*
X168428000Y-98552000D01*
%TO.N,3_3_TX_IN*%
X136652000Y-93020000D02*
X138232000Y-91440000D01*
X136652000Y-99568000D02*
X136652000Y-93020000D01*
X138202020Y-98017980D02*
X136652000Y-99568000D01*
X145227980Y-98017980D02*
X138202020Y-98017980D01*
X145828000Y-98618000D02*
X145227980Y-98017980D01*
%TO.N,3_3_RX_IN*%
X148257992Y-100618010D02*
X140449010Y-100618010D01*
X148628001Y-100248001D02*
X148257992Y-100618010D01*
X148628001Y-98887999D02*
X148628001Y-100248001D01*
X147097999Y-98817999D02*
X148558001Y-98817999D01*
X147027999Y-98747999D02*
X147097999Y-98817999D01*
X140449010Y-100618010D02*
X139399000Y-99568000D01*
X148558001Y-98817999D02*
X148628001Y-98887999D01*
X147027999Y-96735999D02*
X147027999Y-98747999D01*
X141732000Y-91440000D02*
X147027999Y-96735999D01*
X137144000Y-101823000D02*
X139399000Y-99568000D01*
X137144000Y-104140000D02*
X137144000Y-101823000D01*
D24*
%TO.N,ULN2803_OUT_1*%
X135184000Y-125891456D02*
X135184000Y-140208000D01*
X130196544Y-120904000D02*
X135184000Y-125891456D01*
X129743000Y-120904000D02*
X130196544Y-120904000D01*
%TO.N,ULN2803_OUT_2*%
X129743000Y-122174000D02*
X130196544Y-122174000D01*
D23*
X130618000Y-122174000D02*
X133096000Y-124652000D01*
X129743000Y-122174000D02*
X130618000Y-122174000D01*
X133096000Y-124652000D02*
X133096000Y-134493000D01*
X128184000Y-139405000D02*
X128184000Y-140208000D01*
X133096000Y-134493000D02*
X128184000Y-139405000D01*
D24*
%TO.N,ULN2803_OUT_3*%
X122383999Y-139008001D02*
X121184000Y-140208000D01*
X128868000Y-123444000D02*
X122383999Y-129928001D01*
X122383999Y-129928001D02*
X122383999Y-139008001D01*
X129743000Y-123444000D02*
X128868000Y-123444000D01*
D23*
%TO.N,328_RX*%
X155821999Y-99941999D02*
X155821999Y-91574001D01*
X155821999Y-91574001D02*
X155956000Y-91440000D01*
X156972000Y-101092000D02*
X155821999Y-99941999D01*
X139935000Y-105090000D02*
X143764000Y-108919000D01*
X135144000Y-105090000D02*
X139935000Y-105090000D01*
X152291000Y-101092000D02*
X156972000Y-101092000D01*
X144464000Y-108919000D02*
X152291000Y-101092000D01*
X143764000Y-108919000D02*
X144464000Y-108919000D01*
%TO.N,328_TX*%
X147828000Y-96068000D02*
X152456000Y-91440000D01*
X147828000Y-97668000D02*
X147828000Y-96068000D01*
X146459122Y-103124000D02*
X146304000Y-103124000D01*
X149128011Y-98218011D02*
X149128011Y-100455111D01*
X148578000Y-97668000D02*
X149128011Y-98218011D01*
X149128011Y-100455111D02*
X146459122Y-103124000D01*
X147828000Y-97668000D02*
X148578000Y-97668000D01*
X147004000Y-103124000D02*
X146304000Y-103124000D01*
X158122001Y-98994881D02*
X158122001Y-90575999D01*
X157436001Y-89889999D02*
X154475999Y-89889999D01*
X163942009Y-104814889D02*
X158122001Y-98994881D01*
X170371109Y-104814889D02*
X163942009Y-104814889D01*
X149128011Y-100999989D02*
X147004000Y-103124000D01*
X173464001Y-103209999D02*
X171975999Y-103209999D01*
X149128011Y-95237987D02*
X149128011Y-100999989D01*
X158122001Y-90575999D02*
X157436001Y-89889999D01*
X175952001Y-105697999D02*
X173464001Y-103209999D01*
X175952001Y-122496001D02*
X175952001Y-105697999D01*
X171975999Y-103209999D02*
X170371109Y-104814889D01*
X175328001Y-123120001D02*
X175952001Y-122496001D01*
X154475999Y-89889999D02*
X149128011Y-95237987D01*
X174175999Y-123120001D02*
X175328001Y-123120001D01*
X173551999Y-122496001D02*
X174175999Y-123120001D01*
X173551999Y-120809999D02*
X173551999Y-122496001D01*
X165144001Y-112402001D02*
X173551999Y-120809999D01*
X164039999Y-112402001D02*
X165144001Y-112402001D01*
X163441999Y-111804001D02*
X164039999Y-112402001D01*
X163441999Y-110101999D02*
X163441999Y-111804001D01*
X156972000Y-103632000D02*
X163441999Y-110101999D01*
%TO.N,Net-(R2-Pad2)*%
X120142000Y-105410000D02*
X120396000Y-105664000D01*
X116918000Y-105410000D02*
X120142000Y-105410000D01*
D22*
%TO.N,BUCK_EN*%
X86567000Y-110537000D02*
X87884000Y-109220000D01*
X86567000Y-113284000D02*
X86567000Y-110537000D01*
X93837999Y-109804001D02*
X94488000Y-109154000D01*
X88468001Y-109804001D02*
X93837999Y-109804001D01*
X87884000Y-109220000D02*
X88468001Y-109804001D01*
D23*
%TO.N,BUCK_FB*%
X99533990Y-96808010D02*
X99533990Y-96046010D01*
X95315990Y-101026010D02*
X99533990Y-96808010D01*
X93150510Y-100142860D02*
X94033660Y-101026010D01*
X92817340Y-99125990D02*
X93150510Y-99459160D01*
X89745008Y-99125990D02*
X92817340Y-99125990D01*
X89299999Y-99570999D02*
X89745008Y-99125990D01*
X90837998Y-102119000D02*
X89299999Y-100581001D01*
X89299999Y-100581001D02*
X89299999Y-99570999D01*
X90837998Y-107378500D02*
X90837998Y-102119000D01*
X90308999Y-107907499D02*
X90837998Y-107378500D01*
X94033660Y-101026010D02*
X95315990Y-101026010D01*
X90308999Y-108627501D02*
X90308999Y-107907499D01*
X99533990Y-96046010D02*
X100584000Y-94996000D01*
X90835498Y-109154000D02*
X90308999Y-108627501D01*
X93150510Y-99459160D02*
X93150510Y-100142860D01*
X92288000Y-109154000D02*
X90835498Y-109154000D01*
X105259500Y-94996000D02*
X105664000Y-94591500D01*
X100584000Y-94996000D02*
X105259500Y-94996000D01*
D22*
%TO.N,Net-(R6-Pad2)*%
X100480500Y-96924500D02*
X100584000Y-96821000D01*
X100480500Y-100584000D02*
X100480500Y-96924500D01*
%TO.N,Net-(U1-Pad1)*%
X99695000Y-111318232D02*
X99695000Y-111695000D01*
X102879990Y-108133242D02*
X99695000Y-111318232D01*
X102879990Y-105723242D02*
X102879990Y-108133242D01*
X104463232Y-104140000D02*
X102879990Y-105723242D01*
X107618000Y-104140000D02*
X104463232Y-104140000D01*
%TO.N,Net-(U1-Pad2)*%
X103505000Y-108498000D02*
X103505000Y-111695000D01*
X106593000Y-105410000D02*
X103505000Y-108498000D01*
X107618000Y-105410000D02*
X106593000Y-105410000D01*
D23*
%TO.N,AT_CS*%
X160662001Y-125102001D02*
X164592000Y-129032000D01*
X156419999Y-125102001D02*
X160662001Y-125102001D01*
X141682454Y-118872000D02*
X150189998Y-118872000D01*
X139005990Y-116195536D02*
X141682454Y-118872000D01*
X139005990Y-115032868D02*
X139005990Y-116195536D01*
X136577101Y-112603979D02*
X139005990Y-115032868D01*
X123866979Y-112603979D02*
X136577101Y-112603979D01*
X117943000Y-106680000D02*
X123866979Y-112603979D01*
X150189998Y-118872000D02*
X156419999Y-125102001D01*
X116918000Y-106680000D02*
X117943000Y-106680000D01*
%TO.N,AT_D2*%
X118872000Y-120904000D02*
X116332000Y-118364000D01*
X120193000Y-120904000D02*
X118872000Y-120904000D01*
X150368000Y-106172000D02*
X156972000Y-106172000D01*
%TO.N,AT_D3*%
X122033935Y-121208065D02*
X122033935Y-114525603D01*
X121068000Y-122174000D02*
X122033935Y-121208065D01*
X120193000Y-122174000D02*
X121068000Y-122174000D01*
X155956000Y-107696000D02*
X156972000Y-108712000D01*
X150368000Y-107696000D02*
X155956000Y-107696000D01*
%TO.N,AT_D4*%
X124682903Y-119829097D02*
X124682903Y-115388365D01*
X121068000Y-123444000D02*
X124682903Y-119829097D01*
X120193000Y-123444000D02*
X121068000Y-123444000D01*
X154940000Y-109220000D02*
X156972000Y-111252000D01*
X150368000Y-109220000D02*
X154940000Y-109220000D01*
%TD*%
D27*
%TO.N,BUCK_IN*%
X91217928Y-112245500D02*
X91221000Y-112397250D01*
X91379750Y-112556000D01*
X92329000Y-112556000D01*
X92329000Y-112536000D01*
X92583000Y-112536000D01*
X92583000Y-112556000D01*
X92603000Y-112556000D01*
X92603000Y-112810000D01*
X92583000Y-112810000D01*
X92583000Y-112830000D01*
X92329000Y-112830000D01*
X92329000Y-112810000D01*
X91379750Y-112810000D01*
X91221000Y-112968750D01*
X91217928Y-113120500D01*
X91230188Y-113244982D01*
X91266498Y-113364680D01*
X91325463Y-113474994D01*
X91404815Y-113571685D01*
X91482141Y-113635144D01*
X89659918Y-113665017D01*
X89635185Y-113667863D01*
X89611483Y-113675480D01*
X89589721Y-113687574D01*
X89570738Y-113703681D01*
X89555261Y-113723183D01*
X89543886Y-113745329D01*
X89540880Y-113755857D01*
X89539500Y-113569750D01*
X89380750Y-113411000D01*
X88519000Y-113411000D01*
X88519000Y-113431000D01*
X88265000Y-113431000D01*
X88265000Y-113411000D01*
X88245000Y-113411000D01*
X88245000Y-113157000D01*
X88265000Y-113157000D01*
X88265000Y-113137000D01*
X88519000Y-113137000D01*
X88519000Y-113157000D01*
X89380750Y-113157000D01*
X89539500Y-112998250D01*
X89542572Y-112584000D01*
X89530312Y-112459518D01*
X89494002Y-112339820D01*
X89435037Y-112229506D01*
X89414515Y-112204500D01*
X91221966Y-112204500D01*
X91217928Y-112245500D01*
%TA.AperFunction,Conductor*%
D28*
G36*
X91217928Y-112245500D02*
G01*
X91221000Y-112397250D01*
X91379750Y-112556000D01*
X92329000Y-112556000D01*
X92329000Y-112536000D01*
X92583000Y-112536000D01*
X92583000Y-112556000D01*
X92603000Y-112556000D01*
X92603000Y-112810000D01*
X92583000Y-112810000D01*
X92583000Y-112830000D01*
X92329000Y-112830000D01*
X92329000Y-112810000D01*
X91379750Y-112810000D01*
X91221000Y-112968750D01*
X91217928Y-113120500D01*
X91230188Y-113244982D01*
X91266498Y-113364680D01*
X91325463Y-113474994D01*
X91404815Y-113571685D01*
X91482141Y-113635144D01*
X89659918Y-113665017D01*
X89635185Y-113667863D01*
X89611483Y-113675480D01*
X89589721Y-113687574D01*
X89570738Y-113703681D01*
X89555261Y-113723183D01*
X89543886Y-113745329D01*
X89540880Y-113755857D01*
X89539500Y-113569750D01*
X89380750Y-113411000D01*
X88519000Y-113411000D01*
X88519000Y-113431000D01*
X88265000Y-113431000D01*
X88265000Y-113411000D01*
X88245000Y-113411000D01*
X88245000Y-113157000D01*
X88265000Y-113157000D01*
X88265000Y-113137000D01*
X88519000Y-113137000D01*
X88519000Y-113157000D01*
X89380750Y-113157000D01*
X89539500Y-112998250D01*
X89542572Y-112584000D01*
X89530312Y-112459518D01*
X89494002Y-112339820D01*
X89435037Y-112229506D01*
X89414515Y-112204500D01*
X91221966Y-112204500D01*
X91217928Y-112245500D01*
G37*
%TD.AperFunction*%
%TD*%
M02*
